<?xml version="1.0" encoding="UTF-8"?>
<!DOCTYPE svg PUBLIC "-//W3C//DTD SVG 1.1//EN" "http://www.w3.org/Graphics/SVG/1.1/DTD/svg11.dtd">
<svg xmlns="http://www.w3.org/2000/svg" version="1.1" width="374px" height="109px" style="shape-rendering:geometricPrecision; text-rendering:geometricPrecision; image-rendering:optimizeQuality; fill-rule:evenodd; clip-rule:evenodd" xmlns:xlink="http://www.w3.org/1999/xlink">
<g><path style="opacity:1" fill="#fcfcfc" d="M -0.5,-0.5 C 124.167,-0.5 248.833,-0.5 373.5,-0.5C 373.5,35.8333 373.5,72.1667 373.5,108.5C 248.833,108.5 124.167,108.5 -0.5,108.5C -0.5,72.1667 -0.5,35.8333 -0.5,-0.5 Z"/></g>
<g><path style="opacity:1" fill="#c5fbfd" d="M 43.5,23.5 C 38.1667,23.5 32.8333,23.5 27.5,23.5C 26.1667,23.5 24.8333,23.5 23.5,23.5C 26.2575,22.1818 29.4242,21.5152 33,21.5C 36.1667,21.6667 39.3333,21.8333 42.5,22C 43.056,22.3826 43.3893,22.8826 43.5,23.5 Z"/></g>
<g><path style="opacity:1" fill="#2297bf" d="M 27.5,23.5 C 32.8333,23.5 38.1667,23.5 43.5,23.5C 45.0598,25.9535 46.0598,28.6202 46.5,31.5C 44.0901,31.9209 42.2568,33.2542 41,35.5C 40.1247,33.4873 38.7913,33.4873 37,35.5C 36.3826,38.0351 36.8826,40.3684 38.5,42.5C 37.6906,44.0709 37.3573,45.7376 37.5,47.5C 36.1359,45.78 35.1359,43.78 34.5,41.5C 33.7435,40.2267 33.0768,40.2267 32.5,41.5C 32.5,42.1667 32.1667,42.5 31.5,42.5C 31.5,40.1667 31.5,37.8333 31.5,35.5C 31.5,34.1667 31.5,32.8333 31.5,31.5C 28.8653,29.6608 27.5319,26.9942 27.5,23.5 Z"/></g>
<g><path style="opacity:1" fill="#0a9fdb" d="M 31.5,31.5 C 31.5,29.8333 31.5,28.1667 31.5,26.5C 34.2298,26.5266 36.7298,25.8599 39,24.5C 41.5,24.3333 42.6667,25.5 42.5,28C 42.4148,29.1074 42.0814,30.1074 41.5,31C 38.1832,31.4983 34.8499,31.665 31.5,31.5 Z"/></g>
<g><path style="opacity:1" fill="#0e0e0e" d="M 95.5,33.5 C 97.924,33.1924 100.257,33.5258 102.5,34.5C 107.38,45.8225 112.047,57.1559 116.5,68.5C 114.396,68.7989 112.396,68.4656 110.5,67.5C 109.305,65.2487 108.305,62.9154 107.5,60.5C 101.863,59.3368 96.1959,59.1701 90.5,60C 89.0708,62.6897 88.0708,65.5231 87.5,68.5C 85.5,68.5 83.5,68.5 81.5,68.5C 85.8834,56.7313 90.5501,45.0646 95.5,33.5 Z"/></g>
<g><path style="opacity:1" fill="#0c0c0c" d="M 119.5,33.5 C 121.5,33.5 123.5,33.5 125.5,33.5C 125.334,40.8409 125.5,48.1742 126,55.5C 128.069,62.637 132.569,64.8036 139.5,62C 141.049,60.786 142.215,59.286 143,57.5C 143.5,49.5069 143.666,41.5069 143.5,33.5C 145.5,33.5 147.5,33.5 149.5,33.5C 149.886,42.9005 149.386,52.2338 148,61.5C 144.983,66.5924 140.483,68.9257 134.5,68.5C 128.155,68.9949 123.655,66.3283 121,60.5C 119.586,51.5822 119.086,42.5822 119.5,33.5 Z"/></g>
<g><path style="opacity:1" fill="#0c0c0c" d="M 156.5,33.5 C 165.833,33.5 175.167,33.5 184.5,33.5C 184.528,35.5824 183.861,37.4157 182.5,39C 179.518,39.498 176.518,39.6646 173.5,39.5C 173.5,49.1667 173.5,58.8333 173.5,68.5C 171.5,68.5 169.5,68.5 167.5,68.5C 167.5,58.8333 167.5,49.1667 167.5,39.5C 163.833,39.5 160.167,39.5 156.5,39.5C 156.5,37.5 156.5,35.5 156.5,33.5 Z"/></g>
<g><path style="opacity:1" fill="#0f0f0f" d="M 228.5,33.5 C 234.842,33.3338 241.175,33.5005 247.5,34C 259.24,39.6622 262.406,48.4955 257,60.5C 254.408,63.7621 251.241,66.2621 247.5,68C 241.175,68.4995 234.842,68.6662 228.5,68.5C 228.5,56.8333 228.5,45.1667 228.5,33.5 Z"/></g>
<g><path style="opacity:1" fill="#070707" d="M 266.5,33.5 C 274.5,33.5 282.5,33.5 290.5,33.5C 290.5,35.1667 290.5,36.8333 290.5,38.5C 284.31,38.1771 278.31,38.5104 272.5,39.5C 272.5,42.1667 272.5,44.8333 272.5,47.5C 275.962,48.4816 279.629,48.815 283.5,48.5C 283.5,50.1667 283.5,51.8333 283.5,53.5C 279.833,53.5 276.167,53.5 272.5,53.5C 272.5,56.5 272.5,59.5 272.5,62.5C 278.31,63.4896 284.31,63.8229 290.5,63.5C 290.5,64.8333 290.5,66.1667 290.5,67.5C 282.5,67.5 274.5,67.5 266.5,67.5C 266.5,56.1667 266.5,44.8333 266.5,33.5 Z"/></g>
<g><path style="opacity:1" fill="#1a745a" d="M 23.5,23.5 C 24.8333,23.5 26.1667,23.5 27.5,23.5C 27.5319,26.9942 28.8653,29.6608 31.5,31.5C 31.5,32.8333 31.5,34.1667 31.5,35.5C 30.5,35.5 29.5,35.5 28.5,35.5C 28.0577,32.6574 27.0577,29.9907 25.5,27.5C 24.1916,26.3744 22.8583,26.3744 21.5,27.5C 21.6596,25.847 22.3263,24.5137 23.5,23.5 Z"/></g>
<g><path style="opacity:1" fill="#478243" d="M 31.5,35.5 C 31.5,37.8333 31.5,40.1667 31.5,42.5C 31.5,43.1667 31.5,43.8333 31.5,44.5C 29.5439,49.3771 27.2105,54.0437 24.5,58.5C 25.9687,53.2594 26.4687,47.926 26,42.5C 24.883,41.0506 24.2163,39.3839 24,37.5C 22.8552,37.3809 21.6885,37.0476 20.5,36.5C 19.5,36.5 18.5,36.5 17.5,36.5C 18.5945,33.318 19.9278,30.318 21.5,27.5C 22.8583,26.3744 24.1916,26.3744 25.5,27.5C 27.0577,29.9907 28.0577,32.6574 28.5,35.5C 29.5,35.5 30.5,35.5 31.5,35.5 Z"/></g>
<g><path style="opacity:1" fill="#676767" d="M 290.5,33.5 C 291.461,35.2646 291.795,37.2646 291.5,39.5C 285.167,39.5 278.833,39.5 272.5,39.5C 278.31,38.5104 284.31,38.1771 290.5,38.5C 290.5,36.8333 290.5,35.1667 290.5,33.5 Z"/></g>
<g><path style="opacity:1" fill="#f6f6f6" d="M 234.5,39.5 C 239.267,39.1908 243.934,39.6908 248.5,41C 255.002,47.5596 255.002,54.2262 248.5,61C 243.934,62.3092 239.267,62.8092 234.5,62.5C 234.5,54.8333 234.5,47.1667 234.5,39.5 Z"/></g>
<g><path style="opacity:1" fill="#101010" d="M 199.5,32.5 C 217.521,33.0194 224.354,42.0194 220,59.5C 213.9,68.3737 205.734,70.8737 195.5,67C 185.736,60.0404 183.57,51.2071 189,40.5C 191.975,36.9525 195.475,34.2858 199.5,32.5 Z"/></g>
<g><path style="opacity:1" fill="#f4f4f4" d="M 199.5,38.5 C 214.566,38.6233 219.066,45.6233 213,59.5C 204.66,65.8801 197.994,64.5467 193,55.5C 190.788,48.0146 192.954,42.3479 199.5,38.5 Z"/></g>
<g><path style="opacity:1" fill="#ececec" d="M 98.5,41.5 C 100.997,45.1601 102.997,49.1601 104.5,53.5C 100.893,54.4892 97.226,54.8226 93.5,54.5C 94.576,49.9385 96.2427,45.6052 98.5,41.5 Z"/></g>
<g><path style="opacity:1" fill="#d6f6fc" d="M 43.5,23.5 C 44.5832,23.5394 45.5832,23.8728 46.5,24.5C 47.4368,27.5481 49.2702,29.8815 52,31.5C 53.8773,42.799 57.5439,53.4657 63,63.5C 63.4935,65.1341 63.6602,66.8008 63.5,68.5C 61.6439,65.5914 59.9773,62.5914 58.5,59.5C 55.0655,49.8437 51.0655,40.5104 46.5,31.5C 46.0598,28.6202 45.0598,25.9535 43.5,23.5 Z"/></g>
<g><path style="opacity:1" fill="#ebf9df" d="M 15.5,41.5 C 11.0499,50.0554 8.04991,59.0554 6.5,68.5C 5.03215,67.1943 3.69882,65.6943 2.5,64C 3.24888,62.2663 3.74888,60.433 4,58.5C 5,57.8333 6,57.1667 7,56.5C 8.04157,51.9964 9.54157,47.6631 11.5,43.5C 12.5237,42.1468 13.857,41.4802 15.5,41.5 Z"/></g>
<g><path style="opacity:1" fill="#0d0d0d" d="M 329.5,33.5 C 331.167,33.5 332.833,33.5 334.5,33.5C 334.334,38.8437 334.501,44.1771 335,49.5C 340.2,44.6347 345.033,39.4681 349.5,34C 351.902,33.1859 354.235,33.3526 356.5,34.5C 351.461,39.5372 346.794,44.8705 342.5,50.5C 347.985,56.4854 353.652,62.3188 359.5,68C 356.833,68.6667 354.167,68.6667 351.5,68C 345.958,62.6254 340.624,57.1254 335.5,51.5C 334.505,56.7921 334.172,62.1254 334.5,67.5C 332.833,67.5 331.167,67.5 329.5,67.5C 329.5,56.1667 329.5,44.8333 329.5,33.5 Z"/></g>
<g><path style="opacity:1" fill="#737373" d="M 272.5,47.5 C 276.5,47.5 280.5,47.5 284.5,47.5C 284.795,49.7354 284.461,51.7354 283.5,53.5C 283.5,51.8333 283.5,50.1667 283.5,48.5C 279.629,48.815 275.962,48.4816 272.5,47.5 Z"/></g>
<g><path style="opacity:1" fill="#6aa040" d="M 20.5,36.5 C 21.6885,37.0476 22.8552,37.3809 24,37.5C 24.2163,39.3839 24.883,41.0506 26,42.5C 26.4687,47.926 25.9687,53.2594 24.5,58.5C 23.8916,61.3267 22.8916,63.9933 21.5,66.5C 21.1667,66.5 20.8333,66.5 20.5,66.5C 21.0577,62.208 22.0577,58.0413 23.5,54C 21.7536,53.5291 20.087,52.8624 18.5,52C 18.0853,49.9737 17.0853,48.4737 15.5,47.5C 16.8333,46.0665 18.3333,44.7332 20,43.5C 20.4966,41.1902 20.6633,38.8568 20.5,36.5 Z"/></g>
<g><path style="opacity:1" fill="#111111" d="M 305.5,32.5 C 310.371,32.1922 315.037,33.0255 319.5,35C 320.856,37.274 320.356,39.1073 318,40.5C 313.594,38.4686 309.094,38.1353 304.5,39.5C 303.24,41.3529 303.24,43.1862 304.5,45C 311.149,46.7399 316.983,49.9066 322,54.5C 323.444,60.7787 321.277,65.2787 315.5,68C 311.167,68.6667 306.833,68.6667 302.5,68C 299.885,67.2054 297.885,65.7054 296.5,63.5C 296.58,61.6701 297.413,60.3367 299,59.5C 302.45,61.8241 306.283,63.1575 310.5,63.5C 315.294,62.8982 316.961,60.3982 315.5,56C 310.99,53.7015 306.323,51.7015 301.5,50C 297.212,46.2288 296.379,41.7288 299,36.5C 301.314,35.2668 303.481,33.9334 305.5,32.5 Z"/></g>
<g><path style="opacity:1" fill="#e5f8dd" d="M 31.5,44.5 C 31.8134,47.2469 31.48,49.9135 30.5,52.5C 28.031,56.9088 26.3643,61.5755 25.5,66.5C 24.5,66.8333 23.8333,67.5 23.5,68.5C 23.1667,68.5 22.8333,68.5 22.5,68.5C 22.1667,68.5 21.8333,68.5 21.5,68.5C 21.5,67.8333 21.5,67.1667 21.5,66.5C 22.8916,63.9933 23.8916,61.3267 24.5,58.5C 27.2105,54.0437 29.5439,49.3771 31.5,44.5 Z"/></g>
<g><path style="opacity:1" fill="#7aa55b" d="M 17.5,36.5 C 18.5,36.5 19.5,36.5 20.5,36.5C 20.6633,38.8568 20.4966,41.1902 20,43.5C 18.3333,44.7332 16.8333,46.0665 15.5,47.5C 12.8877,51.4322 10.7211,55.7655 9,60.5C 8.50454,62.4727 8.33788,64.4727 8.5,66.5C 12.5,66.5 16.5,66.5 20.5,66.5C 20.8333,66.5 21.1667,66.5 21.5,66.5C 21.5,67.1667 21.5,67.8333 21.5,68.5C 16.5241,68.401 11.8574,68.401 7.5,68.5C 7.16667,68.5 6.83333,68.5 6.5,68.5C 8.04991,59.0554 11.0499,50.0554 15.5,41.5C 15.8925,39.7162 16.5592,38.0495 17.5,36.5 Z"/></g>
<g><path style="opacity:1" fill="#fafcf8" d="M 32.5,41.5 C 35.1077,47.5556 37.2744,53.8889 39,60.5C 40.6591,61.8168 41.8257,63.4835 42.5,65.5C 36.8722,66.4954 31.2055,66.8288 25.5,66.5C 26.3643,61.5755 28.031,56.9088 30.5,52.5C 31.48,49.9135 31.8134,47.2469 31.5,44.5C 31.5,43.8333 31.5,43.1667 31.5,42.5C 32.1667,42.5 32.5,42.1667 32.5,41.5 Z"/></g>
<g><path style="opacity:1" fill="#177cb9" d="M 46.5,31.5 C 51.0655,40.5104 55.0655,49.8437 58.5,59.5C 56.3596,57.2995 54.8596,54.6328 54,51.5C 52.9887,50.6634 51.8221,50.33 50.5,50.5C 50.2789,53.3919 49.4456,56.0585 48,58.5C 47.51,57.2068 47.3433,55.8734 47.5,54.5C 46.5,54.5 45.5,54.5 44.5,54.5C 45.8026,60.1083 46.8026,65.775 47.5,71.5C 43.6545,63.7972 40.3212,55.7972 37.5,47.5C 37.3573,45.7376 37.6906,44.0709 38.5,42.5C 36.8826,40.3684 36.3826,38.0351 37,35.5C 38.7913,33.4873 40.1247,33.4873 41,35.5C 42.2568,33.2542 44.0901,31.9209 46.5,31.5 Z"/></g>
<g><path style="opacity:1" fill="#3e3e3e" d="M 329.5,33.5 C 329.5,44.8333 329.5,56.1667 329.5,67.5C 331.167,67.5 332.833,67.5 334.5,67.5C 332.735,68.4614 330.735,68.7947 328.5,68.5C 328.172,56.6547 328.505,44.988 329.5,33.5 Z"/></g>
<g><path style="opacity:1" fill="#82b642" d="M 15.5,47.5 C 17.0853,48.4737 18.0853,49.9737 18.5,52C 20.087,52.8624 21.7536,53.5291 23.5,54C 22.0577,58.0413 21.0577,62.208 20.5,66.5C 16.5,66.5 12.5,66.5 8.5,66.5C 8.33788,64.4727 8.50454,62.4727 9,60.5C 10.7211,55.7655 12.8877,51.4322 15.5,47.5 Z"/></g>
<g><path style="opacity:1" fill="#1d63a9" d="M 58.5,59.5 C 59.9773,62.5914 61.6439,65.5914 63.5,68.5C 65.1598,73.1562 66.8264,77.8228 68.5,82.5C 63.3595,83.4881 58.0262,83.8214 52.5,83.5C 50.3213,79.7975 48.6546,75.7975 47.5,71.5C 46.8026,65.775 45.8026,60.1083 44.5,54.5C 45.5,54.5 46.5,54.5 47.5,54.5C 47.3433,55.8734 47.51,57.2068 48,58.5C 49.4456,56.0585 50.2789,53.3919 50.5,50.5C 51.8221,50.33 52.9887,50.6634 54,51.5C 54.8596,54.6328 56.3596,57.2995 58.5,59.5 Z"/></g>
<g><path style="opacity:1" fill="#9d9d9d" d="M 362.5,63.5 C 365.729,63.1647 367.229,64.4981 367,67.5C 362.749,68.9776 361.249,67.6442 362.5,63.5 Z"/></g>
<g><path style="opacity:1" fill="#454545" d="M 266.5,33.5 C 266.5,44.8333 266.5,56.1667 266.5,67.5C 274.5,67.5 282.5,67.5 290.5,67.5C 290.5,66.1667 290.5,64.8333 290.5,63.5C 284.31,63.8229 278.31,63.4896 272.5,62.5C 278.833,62.5 285.167,62.5 291.5,62.5C 291.5,64.5 291.5,66.5 291.5,68.5C 282.833,68.5 274.167,68.5 265.5,68.5C 265.172,56.6547 265.505,44.988 266.5,33.5 Z"/></g>
<g><path style="opacity:1" fill="#2c8e69" d="M 21.5,68.5 C 21.8333,68.5 22.1667,68.5 22.5,68.5C 21.9423,69.7899 20.9423,70.6232 19.5,71C 17.5459,71.1618 15.8793,71.3285 14.5,71.5C 12.8333,71.5 11.1667,71.5 9.5,71.5C 8.59872,70.7095 7.93205,69.7095 7.5,68.5C 11.8574,68.401 16.5241,68.401 21.5,68.5 Z"/></g>
<g><path style="opacity:1" fill="#31ad9f" d="M 22.5,68.5 C 22.8333,68.5 23.1667,68.5 23.5,68.5C 30.1998,68.17 36.8665,68.5033 43.5,69.5C 39.1872,71.8336 35.1872,74.5003 31.5,77.5C 28.1401,79.1799 24.8068,80.8466 21.5,82.5C 19.6309,81.8354 17.6309,81.1687 15.5,80.5C 14.038,77.9381 13.038,75.6048 12.5,73.5C 13.2427,72.8182 13.9094,72.1515 14.5,71.5C 15.8793,71.3285 17.5459,71.1618 19.5,71C 20.9423,70.6232 21.9423,69.7899 22.5,68.5 Z"/></g>
<g><path style="opacity:1" fill="#e0f8fa" d="M 32.5,41.5 C 33.0768,40.2267 33.7435,40.2267 34.5,41.5C 35.1359,43.78 36.1359,45.78 37.5,47.5C 40.3212,55.7972 43.6545,63.7972 47.5,71.5C 48.6546,75.7975 50.3213,79.7975 52.5,83.5C 56.6344,84.4849 60.9677,84.8182 65.5,84.5C 65.5386,85.7562 65.0386,86.7562 64,87.5C 60.1485,85.7703 55.9818,84.9369 51.5,85C 49.8243,83.8231 48.4909,82.3231 47.5,80.5C 46.2713,79.7189 44.938,79.2189 43.5,79C 46.2764,77.2213 45.9431,76.2213 42.5,76C 38.766,75.86 35.0993,76.36 31.5,77.5C 35.1872,74.5003 39.1872,71.8336 43.5,69.5C 36.8665,68.5033 30.1998,68.17 23.5,68.5C 23.8333,67.5 24.5,66.8333 25.5,66.5C 31.2055,66.8288 36.8722,66.4954 42.5,65.5C 41.8257,63.4835 40.6591,61.8168 39,60.5C 37.2744,53.8889 35.1077,47.5556 32.5,41.5 Z"/></g>
<g><path style="opacity:1" fill="#317873" d="M 9.5,71.5 C 11.1667,71.5 12.8333,71.5 14.5,71.5C 13.9094,72.1515 13.2427,72.8182 12.5,73.5C 13.038,75.6048 14.038,77.9381 15.5,80.5C 17.6309,81.1687 19.6309,81.8354 21.5,82.5C 19.5976,83.5109 17.5976,83.6776 15.5,83C 12.8368,79.5066 10.8368,75.6733 9.5,71.5 Z"/></g>
<g><path style="opacity:1" fill="#a3bbd2" d="M 68.5,82.5 C 69.0431,82.56 69.3764,82.8933 69.5,83.5C 68.3112,84.4287 66.9778,84.762 65.5,84.5C 60.9677,84.8182 56.6344,84.4849 52.5,83.5C 58.0262,83.8214 63.3595,83.4881 68.5,82.5 Z"/></g>
</svg>
