<?xml version="1.0" encoding="UTF-8"?>
<!DOCTYPE svg PUBLIC "-//W3C//DTD SVG 1.1//EN" "http://www.w3.org/Graphics/SVG/1.1/DTD/svg11.dtd">
<svg xmlns="http://www.w3.org/2000/svg" version="1.1" width="1200px" height="1200px" style="shape-rendering:geometricPrecision; text-rendering:geometricPrecision; image-rendering:optimizeQuality; fill-rule:evenodd; clip-rule:evenodd" xmlns:xlink="http://www.w3.org/1999/xlink">
<g><path style="opacity:0.994" fill="#1a64fe" d="M 873.5,174.5 C 870.944,175.543 868.777,177.21 867,179.5C 859.998,188 852.831,196.334 845.5,204.5C 843.844,206.46 842.177,208.46 840.5,210.5C 832.451,218.215 825.118,226.548 818.5,235.5C 811.492,242.508 804.826,249.842 798.5,257.5C 790.529,266.474 782.529,275.474 774.5,284.5C 763.843,296.459 753.176,308.459 742.5,320.5C 732.794,330.871 723.461,341.537 714.5,352.5C 693.157,375.844 672.157,399.511 651.5,423.5C 650.957,423.56 650.624,423.893 650.5,424.5C 656.128,425.495 661.794,425.829 667.5,425.5C 705.828,426.94 744.162,428.273 782.5,429.5C 801.656,430.703 820.99,431.37 840.5,431.5C 856.643,432.994 872.977,433.661 889.5,433.5C 899.319,434.494 909.319,434.827 919.5,434.5C 927.984,435.493 936.651,435.826 945.5,435.5C 952.313,436.491 959.313,436.825 966.5,436.5C 975.398,437.085 984.398,437.919 993.5,439C 997.436,442.444 998.436,446.611 996.5,451.5C 976.153,475.183 956.153,499.183 936.5,523.5C 931.822,528.179 927.489,533.179 923.5,538.5C 902.477,563.853 881.477,589.186 860.5,614.5C 854.753,619.91 849.753,625.91 845.5,632.5C 841.037,636.754 837.037,641.421 833.5,646.5C 828.49,651.512 823.823,656.845 819.5,662.5C 816.815,665.19 814.482,668.19 812.5,671.5C 807.822,676.179 803.489,681.179 799.5,686.5C 791.451,694.941 784.118,703.941 777.5,713.5C 772.822,718.179 768.489,723.179 764.5,728.5C 755.13,738.238 746.463,748.571 738.5,759.5C 701.444,802.223 665.111,845.557 629.5,889.5C 597.487,926.849 565.82,964.516 534.5,1002.5C 524.153,1014.18 514.153,1026.18 504.5,1038.5C 459.859,1092.8 414.526,1146.47 368.5,1199.5C 365.5,1199.5 362.5,1199.5 359.5,1199.5C 355.198,1196.21 353.698,1191.88 355,1186.5C 371.145,1127.9 386.979,1069.23 402.5,1010.5C 406.641,997.618 410.641,984.618 414.5,971.5C 415.701,965.028 417.368,958.695 419.5,952.5C 429.665,914.838 439.665,877.171 449.5,839.5C 458.482,807.583 467.482,775.583 476.5,743.5C 478.167,736.832 479.834,730.165 481.5,723.5C 482.836,718.821 484.169,714.155 485.5,709.5C 486.808,705.224 487.808,700.89 488.5,696.5C 490.784,691.131 492.451,685.464 493.5,679.5C 494.969,674.629 496.303,669.629 497.5,664.5C 499.543,658.953 501.21,653.287 502.5,647.5C 503.369,643.831 504.369,640.165 505.5,636.5C 496.231,634.462 486.897,632.795 477.5,631.5C 437.426,626.042 397.426,620.375 357.5,614.5C 337.203,611.511 316.869,608.677 296.5,606C 290.975,603.081 289.142,598.581 291,592.5C 298.789,574.593 306.289,556.593 313.5,538.5C 315.774,533.617 317.774,528.617 319.5,523.5C 320.167,523.5 320.5,523.167 320.5,522.5C 330.833,497.833 341.167,473.167 351.5,448.5C 353.363,444.245 355.03,439.912 356.5,435.5C 363.028,420.582 369.362,405.582 375.5,390.5C 381.107,377.618 386.44,364.618 391.5,351.5C 396.069,341.35 400.403,331.016 404.5,320.5C 427.403,266.349 450.069,212.016 472.5,157.5C 479.028,142.582 485.362,127.582 491.5,112.5C 505.437,77.6957 519.77,43.029 534.5,8.5C 690.166,7.33334 845.832,7.16667 1001.5,8C 1009.07,12.4561 1010.24,18.2894 1005,25.5C 960.586,74.7412 916.753,124.408 873.5,174.5 Z"/></g>
<g><path style="opacity:1" fill="#e2f4dc" d="M 976.5,27.5 C 912.833,27.5 849.167,27.5 785.5,27.5C 752.167,27.5 718.833,27.5 685.5,27.5C 651.832,27.3333 618.165,27.5 584.5,28C 671.23,77.697 758.23,126.864 845.5,175.5C 832.392,190.729 819.058,205.729 805.5,220.5C 714.302,168.738 623.302,116.738 532.5,64.5C 537.204,52.0852 542.204,39.7519 547.5,27.5C 691.235,26.1685 834.235,26.1685 976.5,27.5 Z"/></g>
<g><path style="opacity:1" fill="#eaf5dc" d="M 685.5,27.5 C 749.509,65.1757 814.176,101.842 879.5,137.5C 868.509,150.49 857.175,163.157 845.5,175.5C 758.23,126.864 671.23,77.697 584.5,28C 618.165,27.5 651.832,27.3333 685.5,27.5 Z"/></g>
<g><path style="opacity:1" fill="#f0f5dc" d="M 685.5,27.5 C 718.833,27.5 752.167,27.5 785.5,27.5C 827.663,51.7497 869.996,75.7497 912.5,99.5C 901.5,112.167 890.5,124.833 879.5,137.5C 814.176,101.842 749.509,65.1757 685.5,27.5 Z"/></g>
<g><path style="opacity:1" fill="#f6f5dc" d="M 785.5,27.5 C 849.167,27.5 912.833,27.5 976.5,27.5C 955.509,51.823 934.176,75.823 912.5,99.5C 869.996,75.7497 827.663,51.7497 785.5,27.5 Z"/></g>
<g><path style="opacity:1" fill="#ddf5dc" d="M 532.5,64.5 C 623.302,116.738 714.302,168.738 805.5,220.5C 794.842,233.157 783.842,245.49 772.5,257.5C 769.984,257.245 767.65,256.411 765.5,255C 681.962,207.3 598.295,159.8 514.5,112.5C 513.614,111.675 513.281,110.675 513.5,109.5C 519.268,94.1789 525.601,79.1789 532.5,64.5 Z"/></g>
<g><path style="opacity:1" fill="#d7f5dc" d="M 513.5,109.5 C 513.281,110.675 513.614,111.675 514.5,112.5C 598.295,159.8 681.962,207.3 765.5,255C 767.65,256.411 769.984,257.245 772.5,257.5C 761.864,271.102 750.531,284.102 738.5,296.5C 658.194,251.012 577.861,205.512 497.5,160C 495.561,159.092 494.561,157.592 494.5,155.5C 500.315,139.881 506.648,124.548 513.5,109.5 Z"/></g>
<g><path style="opacity:0.992" fill="#000a20" d="M 491.5,112.5 C 485.362,127.582 479.028,142.582 472.5,157.5C 455.462,161.26 438.795,166.26 422.5,172.5C 396.077,181.86 370.744,193.527 346.5,207.5C 333.122,214.514 320.455,222.514 308.5,231.5C 218.204,294.018 159.37,378.684 132,485.5C 129.076,498.046 126.909,510.713 125.5,523.5C 111.99,523.829 98.6562,523.496 85.5,522.5C 99.1891,420.464 141.689,332.798 213,259.5C 290.484,182.331 383.317,133.331 491.5,112.5 Z"/></g>
<g><path style="opacity:1" fill="#d1f5dc" d="M 494.5,155.5 C 494.561,157.592 495.561,159.092 497.5,160C 577.861,205.512 658.194,251.012 738.5,296.5C 727.509,309.49 716.175,322.157 704.5,334.5C 627.798,290.818 551.131,247.151 474.5,203.5C 480.598,187.192 487.264,171.192 494.5,155.5 Z"/></g>
<g><path style="opacity:1" fill="#22d254" d="M 472.5,157.5 C 450.069,212.016 427.403,266.349 404.5,320.5C 402.816,314.468 399.483,309.468 394.5,305.5C 388.963,298.797 382.63,292.963 375.5,288C 373.336,287.567 371.336,288.067 369.5,289.5C 367.218,288.777 364.884,288.443 362.5,288.5C 362.649,289.552 362.483,290.552 362,291.5C 359.599,290.398 357.099,290.231 354.5,291C 346.137,294.154 337.47,296.821 328.5,299C 325.266,300.789 321.932,302.456 318.5,304C 315.883,304.822 313.216,305.322 310.5,305.5C 310.5,306.5 310.5,307.5 310.5,308.5C 308.146,308.838 305.813,309.338 303.5,310C 300.938,312.413 297.938,314.08 294.5,315C 293.331,316.836 291.664,318.002 289.5,318.5C 288.749,319.376 288.249,320.376 288,321.5C 286.984,320.366 286.317,320.699 286,322.5C 285.667,322.167 285.333,321.833 285,321.5C 267.436,333.255 251.102,346.588 236,361.5C 223.599,374.26 214.932,389.26 210,406.5C 204.982,427.625 212.149,442.791 231.5,452C 233.436,452.813 235.436,453.313 237.5,453.5C 237.5,454.5 237.5,455.5 237.5,456.5C 244.157,457.497 250.491,459.497 256.5,462.5C 258.792,460.976 260.792,461.309 262.5,463.5C 265.833,463.167 269.167,462.833 272.5,462.5C 273.167,463.167 273.833,463.833 274.5,464.5C 276.5,463.167 278.5,463.167 280.5,464.5C 282.059,463.926 283.559,463.26 285,462.5C 286.684,464.459 288.684,464.459 291,462.5C 291.333,463.167 291.667,463.833 292,464.5C 294.088,463.692 296.088,462.692 298,461.5C 298.308,462.308 298.808,462.975 299.5,463.5C 300.833,462.833 302.167,462.167 303.5,461.5C 304.192,462.025 304.692,462.692 305,463.5C 306.753,462.373 308.587,461.373 310.5,460.5C 310.833,461.167 311.167,461.833 311.5,462.5C 313.413,461.627 315.247,460.627 317,459.5C 317.333,460.167 317.667,460.833 318,461.5C 319.753,460.373 321.587,459.373 323.5,458.5C 324.638,460.919 326.472,460.585 329,457.5C 329.333,457.833 329.667,458.167 330,458.5C 330.454,456.229 331.121,453.896 332,451.5C 332.333,451.833 332.667,452.167 333,452.5C 334.667,450.833 336.333,449.167 338,447.5C 339.558,448.345 340.558,447.679 341,445.5C 341.333,445.833 341.667,446.167 342,446.5C 343,445.167 344,443.833 345,442.5C 345.692,443.025 346.192,443.692 346.5,444.5C 346.277,445.967 345.944,447.467 345.5,449C 346.333,449.833 347.167,450.667 348,451.5C 348.759,449.937 349.926,448.937 351.5,448.5C 341.167,473.167 330.833,497.833 320.5,522.5C 312.167,522.5 303.833,522.5 295.5,522.5C 297.01,508.604 299.01,494.771 301.5,481C 301.167,480.167 300.833,479.333 300.5,478.5C 298.941,479.074 297.441,479.74 296,480.5C 294.316,478.541 292.316,478.541 290,480.5C 288.316,478.541 286.316,478.541 284,480.5C 282.803,478.208 281.137,477.875 279,479.5C 276.83,477.36 274.496,477.36 272,479.5C 270.803,477.208 269.137,476.875 267,478.5C 266.05,477.978 265.216,477.311 264.5,476.5C 261.412,476.745 258.412,476.745 255.5,476.5C 242.947,472.924 230.613,469.09 218.5,465C 201.196,457.349 192.196,444.015 191.5,425C 192.978,407.229 198.812,391.062 209,376.5C 218.45,364.05 228.95,352.55 240.5,342C 251.939,333.961 262.939,325.461 273.5,316.5C 282.878,311.461 291.711,305.794 300,299.5C 308.813,295.682 317.313,291.349 325.5,286.5C 329.386,286.139 332.719,284.639 335.5,282C 340.69,280.423 346.023,279.09 351.5,278C 352.047,277.075 352.713,276.242 353.5,275.5C 355.811,276.961 358.144,277.294 360.5,276.5C 376.969,240.2 397.469,206.533 422,175.5C 422.483,174.552 422.649,173.552 422.5,172.5C 438.795,166.26 455.462,161.26 472.5,157.5 Z"/></g>
<g><path style="opacity:0.992" fill="#000a20" d="M 873.5,174.5 C 957.48,222.313 1021.98,288.98 1067,374.5C 1090.82,421.123 1105.65,470.456 1111.5,522.5C 1098.34,523.496 1085.01,523.829 1071.5,523.5C 1056.18,418.971 1008.85,332.304 929.5,263.5C 903.738,240.753 875.738,221.086 845.5,204.5C 852.831,196.334 859.998,188 867,179.5C 868.777,177.21 870.944,175.543 873.5,174.5 Z"/></g>
<g><path style="opacity:1" fill="#28cc56" d="M 422.5,172.5 C 422.649,173.552 422.483,174.552 422,175.5C 397.469,206.533 376.969,240.2 360.5,276.5C 358.144,277.294 355.811,276.961 353.5,275.5C 352.713,276.242 352.047,277.075 351.5,278C 346.023,279.09 340.69,280.423 335.5,282C 332.719,284.639 329.386,286.139 325.5,286.5C 317.313,291.349 308.813,295.682 300,299.5C 291.711,305.794 282.878,311.461 273.5,316.5C 262.939,325.461 251.939,333.961 240.5,342C 228.95,352.55 218.45,364.05 209,376.5C 198.812,391.062 192.978,407.229 191.5,425C 192.196,444.015 201.196,457.349 218.5,465C 230.613,469.09 242.947,472.924 255.5,476.5C 258.412,476.745 261.412,476.745 264.5,476.5C 265.216,477.311 266.05,477.978 267,478.5C 269.137,476.875 270.803,477.208 272,479.5C 274.496,477.36 276.83,477.36 279,479.5C 281.137,477.875 282.803,478.208 284,480.5C 286.316,478.541 288.316,478.541 290,480.5C 292.316,478.541 294.316,478.541 296,480.5C 297.441,479.74 298.941,479.074 300.5,478.5C 300.833,479.333 301.167,480.167 301.5,481C 299.01,494.771 297.01,508.604 295.5,522.5C 303.833,522.5 312.167,522.5 320.5,522.5C 320.5,523.167 320.167,523.5 319.5,523.5C 295.833,523.5 272.167,523.5 248.5,523.5C 246.735,522.539 244.735,522.205 242.5,522.5C 243.302,512.81 244.302,503.143 245.5,493.5C 243.94,493.519 242.44,493.852 241,494.5C 238.708,493.069 236.208,492.236 233.5,492C 234.5,491.667 235.5,491.333 236.5,491C 233.063,489.165 229.563,488.665 226,489.5C 204.904,476.905 188.404,459.905 176.5,438.5C 175.898,428.815 176.898,419.315 179.5,410C 184.706,394.102 192.539,379.269 203,365.5C 218.48,346.393 236.48,330.393 257,317.5C 257.333,317.833 257.667,318.167 258,318.5C 264.029,312.142 270.696,306.475 278,301.5C 279.016,302.634 279.683,302.301 280,300.5C 281,300.5 282,300.5 283,300.5C 284,299.167 285,297.833 286,296.5C 286.333,296.833 286.667,297.167 287,297.5C 287.483,296.552 287.649,295.552 287.5,294.5C 289.144,294.286 290.644,294.62 292,295.5C 293.333,293.5 294.667,291.5 296,289.5C 296.333,289.833 296.667,290.167 297,290.5C 298.449,289.386 299.783,288.386 301,287.5C 301.718,288.451 302.551,288.617 303.5,288C 302.304,287.346 302.304,286.846 303.5,286.5C 304.451,287.326 305.451,287.492 306.5,287C 305.549,286.282 305.383,285.449 306,284.5C 308.734,287.293 309.734,286.959 309,283.5C 310.597,283.64 312.097,283.64 313.5,283.5C 323.407,257.687 334.407,232.354 346.5,207.5C 370.744,193.527 396.077,181.86 422.5,172.5 Z"/></g>
<g><path style="opacity:1" fill="#caf5dc" d="M 474.5,203.5 C 551.131,247.151 627.798,290.818 704.5,334.5C 692.214,349.787 679.214,364.453 665.5,378.5C 594.726,338.944 524.059,299.111 453.5,259C 452.663,257.989 452.33,256.822 452.5,255.5C 459.321,237.868 466.655,220.535 474.5,203.5 Z"/></g>
<g><path style="opacity:1" fill="#23d254" d="M 840.5,210.5 C 867.166,240.341 891,272.341 912,306.5C 937.238,348.14 959.738,391.306 979.5,436C 975.179,436.499 970.846,436.666 966.5,436.5C 959.313,436.825 952.313,436.491 945.5,435.5C 947.288,435.785 948.955,435.452 950.5,434.5C 918.733,365.232 878.233,301.898 829,244.5C 825.902,240.893 822.402,237.893 818.5,235.5C 825.118,226.548 832.451,218.215 840.5,210.5 Z"/></g>
<g><path style="opacity:1" fill="#2cc858" d="M 346.5,207.5 C 334.407,232.354 323.407,257.687 313.5,283.5C 312.097,283.64 310.597,283.64 309,283.5C 309.734,286.959 308.734,287.293 306,284.5C 305.383,285.449 305.549,286.282 306.5,287C 305.451,287.492 304.451,287.326 303.5,286.5C 302.304,286.846 302.304,287.346 303.5,288C 302.551,288.617 301.718,288.451 301,287.5C 299.783,288.386 298.449,289.386 297,290.5C 296.667,290.167 296.333,289.833 296,289.5C 294.667,291.5 293.333,293.5 292,295.5C 290.644,294.62 289.144,294.286 287.5,294.5C 287.649,295.552 287.483,296.552 287,297.5C 286.667,297.167 286.333,296.833 286,296.5C 285,297.833 284,299.167 283,300.5C 282,300.5 281,300.5 280,300.5C 279.683,302.301 279.016,302.634 278,301.5C 270.696,306.475 264.029,312.142 258,318.5C 257.667,318.167 257.333,317.833 257,317.5C 236.48,330.393 218.48,346.393 203,365.5C 192.539,379.269 184.706,394.102 179.5,410C 176.898,419.315 175.898,428.815 176.5,438.5C 173.182,432.689 170.515,426.522 168.5,420C 171.167,419.333 171.167,418.667 168.5,418C 171.167,417.333 171.167,416.667 168.5,416C 171.544,415.641 171.878,414.974 169.5,414C 172.167,413.333 172.167,412.667 169.5,412C 172.742,411.717 173.076,410.883 170.5,409.5C 171.376,408.749 172.376,408.249 173.5,408C 172.692,407.692 172.025,407.192 171.5,406.5C 172.5,405.833 173.5,405.167 174.5,404.5C 173.975,403.808 173.308,403.308 172.5,403C 173.565,401.371 174.899,400.204 176.5,399.5C 175.572,398.232 175.405,396.899 176,395.5C 177.469,390.87 180.135,387.204 184,384.5C 184.492,383.451 184.326,382.451 183.5,381.5C 184.908,380.757 186.241,379.923 187.5,379C 186.833,378.667 186.167,378.333 185.5,378C 186.623,376.956 187.956,376.29 189.5,376C 188.833,375.667 188.167,375.333 187.5,375C 188.623,373.956 189.956,373.29 191.5,373C 189.122,372.026 189.456,371.359 192.5,371C 191.72,369.927 191.887,368.76 193,367.5C 194.062,365.792 195.229,365.126 196.5,365.5C 196.291,364.914 195.957,364.414 195.5,364C 196.611,362.359 198.611,361.025 201.5,360C 199.071,359.549 198.904,358.715 201,357.5C 201.914,358.654 202.747,358.487 203.5,357C 203.167,356.667 202.833,356.333 202.5,356C 204.734,355.031 206.734,353.698 208.5,352C 207.833,351.667 207.167,351.333 206.5,351C 210.667,346.833 214.833,342.667 219,338.5C 219.333,339.167 219.667,339.833 220,340.5C 221.74,339.284 222.74,337.618 223,335.5C 224.281,335.619 225.448,335.119 226.5,334C 225.167,333.333 225.167,332.667 226.5,332C 227.449,331.383 228.282,331.549 229,332.5C 229.483,331.552 229.649,330.552 229.5,329.5C 230.552,329.649 231.552,329.483 232.5,329C 231.346,328.086 231.513,327.253 233,326.5C 233.333,327.167 233.667,327.833 234,328.5C 233.877,326.55 234.877,324.883 237,323.5C 238.84,324.833 239.34,324.666 238.5,323C 239.667,322.5 240.5,321.667 241,320.5C 242.84,321.833 243.34,321.666 242.5,320C 244.649,318.848 246.482,317.348 248,315.5C 248.333,316.167 248.667,316.833 249,317.5C 249.667,316.167 250.333,314.833 251,313.5C 251.333,314.167 251.667,314.833 252,315.5C 253.753,311.68 256.42,309.68 260,309.5C 263.009,306.179 266.009,304.512 269,304.5C 269.583,302.998 270.416,301.665 271.5,300.5C 276.221,297.271 281.054,294.271 286,291.5C 286.333,291.833 286.667,292.167 287,292.5C 293.879,272.029 301.045,251.696 308.5,231.5C 320.455,222.514 333.122,214.514 346.5,207.5 Z"/></g>
<g><path style="opacity:1" fill="#28cc56" d="M 845.5,204.5 C 875.738,221.086 903.738,240.753 929.5,263.5C 960.37,316.239 987.87,370.906 1012,427.5C 1024.62,458.706 1036.46,490.206 1047.5,522C 1039.51,522.5 1031.51,522.666 1023.5,522.5C 1015.86,498.224 1006.86,474.557 996.5,451.5C 998.436,446.611 997.436,442.444 993.5,439C 984.398,437.919 975.398,437.085 966.5,436.5C 970.846,436.666 975.179,436.499 979.5,436C 959.738,391.306 937.238,348.14 912,306.5C 891,272.341 867.166,240.341 840.5,210.5C 842.177,208.46 843.844,206.46 845.5,204.5 Z"/></g>
<g><path style="opacity:1" fill="#30c459" d="M 308.5,231.5 C 301.045,251.696 293.879,272.029 287,292.5C 286.667,292.167 286.333,291.833 286,291.5C 281.054,294.271 276.221,297.271 271.5,300.5C 270.416,301.665 269.583,302.998 269,304.5C 266.009,304.512 263.009,306.179 260,309.5C 256.42,309.68 253.753,311.68 252,315.5C 251.667,314.833 251.333,314.167 251,313.5C 250.333,314.833 249.667,316.167 249,317.5C 248.667,316.833 248.333,316.167 248,315.5C 246.482,317.348 244.649,318.848 242.5,320C 243.34,321.666 242.84,321.833 241,320.5C 240.5,321.667 239.667,322.5 238.5,323C 239.34,324.666 238.84,324.833 237,323.5C 234.877,324.883 233.877,326.55 234,328.5C 233.667,327.833 233.333,327.167 233,326.5C 231.513,327.253 231.346,328.086 232.5,329C 231.552,329.483 230.552,329.649 229.5,329.5C 229.649,330.552 229.483,331.552 229,332.5C 228.282,331.549 227.449,331.383 226.5,332C 225.167,332.667 225.167,333.333 226.5,334C 225.448,335.119 224.281,335.619 223,335.5C 222.74,337.618 221.74,339.284 220,340.5C 219.667,339.833 219.333,339.167 219,338.5C 214.833,342.667 210.667,346.833 206.5,351C 207.167,351.333 207.833,351.667 208.5,352C 206.734,353.698 204.734,355.031 202.5,356C 202.833,356.333 203.167,356.667 203.5,357C 202.747,358.487 201.914,358.654 201,357.5C 198.904,358.715 199.071,359.549 201.5,360C 198.611,361.025 196.611,362.359 195.5,364C 195.957,364.414 196.291,364.914 196.5,365.5C 195.229,365.126 194.062,365.792 193,367.5C 191.887,368.76 191.72,369.927 192.5,371C 189.456,371.359 189.122,372.026 191.5,373C 189.956,373.29 188.623,373.956 187.5,375C 188.167,375.333 188.833,375.667 189.5,376C 187.956,376.29 186.623,376.956 185.5,378C 186.167,378.333 186.833,378.667 187.5,379C 186.241,379.923 184.908,380.757 183.5,381.5C 184.326,382.451 184.492,383.451 184,384.5C 180.135,387.204 177.469,390.87 176,395.5C 175.405,396.899 175.572,398.232 176.5,399.5C 174.899,400.204 173.565,401.371 172.5,403C 173.308,403.308 173.975,403.808 174.5,404.5C 173.5,405.167 172.5,405.833 171.5,406.5C 172.025,407.192 172.692,407.692 173.5,408C 172.376,408.249 171.376,408.749 170.5,409.5C 173.076,410.883 172.742,411.717 169.5,412C 172.167,412.667 172.167,413.333 169.5,414C 171.878,414.974 171.544,415.641 168.5,416C 171.167,416.667 171.167,417.333 168.5,418C 171.167,418.667 171.167,419.333 168.5,420C 170.515,426.522 173.182,432.689 176.5,438.5C 188.404,459.905 204.904,476.905 226,489.5C 229.563,488.665 233.063,489.165 236.5,491C 235.5,491.333 234.5,491.667 233.5,492C 236.208,492.236 238.708,493.069 241,494.5C 242.44,493.852 243.94,493.519 245.5,493.5C 244.302,503.143 243.302,512.81 242.5,522.5C 244.735,522.205 246.735,522.539 248.5,523.5C 207.5,523.5 166.5,523.5 125.5,523.5C 126.909,510.713 129.076,498.046 132,485.5C 159.37,378.684 218.204,294.018 308.5,231.5 Z"/></g>
<g><path style="opacity:1" fill="#1fd652" d="M 818.5,235.5 C 822.402,237.893 825.902,240.893 829,244.5C 878.233,301.898 918.733,365.232 950.5,434.5C 948.955,435.452 947.288,435.785 945.5,435.5C 936.651,435.826 927.984,435.493 919.5,434.5C 920.873,434.657 922.207,434.49 923.5,434C 894.395,375.251 858.229,321.417 815,272.5C 809.909,266.902 804.409,261.902 798.5,257.5C 804.826,249.842 811.492,242.508 818.5,235.5 Z"/></g>
<g><path style="opacity:1" fill="#c4f5dc" d="M 452.5,255.5 C 452.33,256.822 452.663,257.989 453.5,259C 524.059,299.111 594.726,338.944 665.5,378.5C 654.393,391.728 643.059,404.728 631.5,417.5C 565.896,380.027 500.229,342.527 434.5,305C 433.423,304.53 432.423,304.697 431.5,305.5C 438.129,288.594 445.129,271.928 452.5,255.5 Z"/></g>
<g><path style="opacity:1" fill="#2dc758" d="M 929.5,263.5 C 1008.85,332.304 1056.18,418.971 1071.5,523.5C 1046.17,523.5 1020.83,523.5 995.5,523.5C 1004.65,522.506 1013.99,522.173 1023.5,522.5C 1031.51,522.666 1039.51,522.5 1047.5,522C 1036.46,490.206 1024.62,458.706 1012,427.5C 987.87,370.906 960.37,316.239 929.5,263.5 Z"/></g>
<g><path style="opacity:1" fill="#1ada50" d="M 798.5,257.5 C 804.409,261.902 809.909,266.902 815,272.5C 858.229,321.417 894.395,375.251 923.5,434C 922.207,434.49 920.873,434.657 919.5,434.5C 909.319,434.827 899.319,434.494 889.5,433.5C 861.987,380.844 826.653,333.344 783.5,291C 780.603,288.59 777.603,286.423 774.5,284.5C 782.529,275.474 790.529,266.474 798.5,257.5 Z"/></g>
<g><path style="opacity:1" fill="#bef5dc" d="M 631.5,417.5 C 627.529,421.437 624.029,425.77 621,430.5C 620.289,434.588 621.456,438.088 624.5,441C 644.895,443.012 665.228,444.512 685.5,445.5C 684.448,445.351 683.448,445.517 682.5,446C 748.739,483.756 815.073,521.256 881.5,558.5C 870.975,572.211 859.975,585.544 848.5,598.5C 703.825,514.825 558.491,432.158 412.5,350.5C 418.638,335.418 424.972,320.418 431.5,305.5C 432.423,304.697 433.423,304.53 434.5,305C 500.229,342.527 565.896,380.027 631.5,417.5 Z"/></g>
<g><path style="opacity:1" fill="#15e04e" d="M 774.5,284.5 C 777.603,286.423 780.603,288.59 783.5,291C 826.653,333.344 861.987,380.844 889.5,433.5C 872.977,433.661 856.643,432.994 840.5,431.5C 841.675,431.719 842.675,431.386 843.5,430.5C 816.132,388.128 782.465,351.462 742.5,320.5C 753.176,308.459 763.843,296.459 774.5,284.5 Z"/></g>
<g><path style="opacity:1" fill="#18dd4f" d="M 394.5,305.5 C 399.483,309.468 402.816,314.468 404.5,320.5C 400.403,331.016 396.069,341.35 391.5,351.5C 389.68,350.937 388.347,349.771 387.5,348C 388.504,346.202 389.004,344.368 389,342.5C 388.085,343.328 387.419,344.328 387,345.5C 386.206,342.529 385.539,339.529 385,336.5C 384.667,337.5 384.333,338.5 384,339.5C 382.48,336.618 381.147,333.618 380,330.5C 379.581,331.672 378.915,332.672 378,333.5C 376.684,332.026 375.684,330.359 375,328.5C 371.79,327.299 369.123,325.299 367,322.5C 366.833,323 366.667,323.5 366.5,324C 367.535,325.274 368.702,326.44 370,327.5C 370.667,328.5 370.667,329.5 370,330.5C 368.013,326.753 364.846,324.919 360.5,325C 361.833,324.667 363.167,324.333 364.5,324C 361.937,323.082 359.77,323.582 358,325.5C 355.828,324.415 353.828,323.081 352,321.5C 351.667,322.167 351.333,322.833 351,323.5C 350.15,322.576 349.15,322.576 348,323.5C 346.118,322.907 345.118,321.573 345,319.5C 344.085,323.491 341.751,324.491 338,322.5C 334.872,323.204 331.706,323.704 328.5,324C 329.5,324.333 330.5,324.667 331.5,325C 328.905,325.226 326.405,325.726 324,326.5C 321.398,326.101 318.898,326.101 316.5,326.5C 313.997,326.812 311.831,328.145 310,330.5C 308.192,330.112 306.525,330.112 305,330.5C 304.626,331.416 304.126,332.25 303.5,333C 300.637,334.399 297.637,335.399 294.5,336C 294.833,336.333 295.167,336.667 295.5,337C 292.711,337.241 290.044,337.908 287.5,339C 288.167,339.333 288.833,339.667 289.5,340C 267.655,350.879 250.822,368.046 239,391.5C 235.16,400.14 234.493,408.807 237,417.5C 239,420.833 241,424.167 243,427.5C 247.231,431.012 251.564,434.345 256,437.5C 256.308,436.692 256.808,436.025 257.5,435.5C 260.629,439.905 264.463,440.571 269,437.5C 270.473,437.903 271.806,438.57 273,439.5C 274.398,438.949 275.732,438.616 277,438.5C 277.667,439.167 278.333,439.833 279,440.5C 281.305,437.39 283.805,437.057 286.5,439.5C 286.833,438.833 287.167,438.167 287.5,437.5C 288.816,436.82 290.983,436.82 294,437.5C 295.897,437.104 297.397,436.104 298.5,434.5C 298.833,435.167 299.167,435.833 299.5,436.5C 303.639,435.017 307.806,433.35 312,431.5C 314.737,433.048 317.07,432.381 319,429.5C 320,429.5 321,429.5 322,429.5C 322.915,428.672 323.581,427.672 324,426.5C 325.373,426.404 326.873,426.57 328.5,427C 329.191,425.933 329.691,424.766 330,423.5C 331.871,424.668 333.371,424.168 334.5,422C 334.167,421.667 333.833,421.333 333.5,421C 334.996,420.493 336.163,420.993 337,422.5C 338.284,421.428 338.617,420.095 338,418.5C 338.718,419.451 339.551,419.617 340.5,419C 340.381,417.719 340.881,416.552 342,415.5C 342.667,416.167 343.333,416.833 344,417.5C 346.333,415.167 348.667,412.833 351,410.5C 351.333,411.167 351.667,411.833 352,412.5C 353.833,410.667 355.667,408.833 357.5,407C 358.784,406.316 359.951,406.483 361,407.5C 361.5,407 362,406.5 362.5,406C 361.167,405.667 359.833,405.333 358.5,405C 359.253,403.513 360.086,403.346 361,404.5C 362.399,403.773 363.899,403.273 365.5,403C 364.833,402.667 364.167,402.333 363.5,402C 364.623,400.956 365.956,400.29 367.5,400C 366.833,399.667 366.167,399.333 365.5,399C 367.112,398.28 368.612,398.446 370,399.5C 370.167,399.167 370.333,398.833 370.5,398.5C 369.624,397.749 368.624,397.249 367.5,397C 371.852,396.581 372.185,395.914 368.5,395C 369.849,394.228 370.682,393.061 371,391.5C 371.308,392.308 371.808,392.975 372.5,393.5C 373.696,393.154 373.696,392.654 372.5,392C 373.244,390.961 374.244,390.461 375.5,390.5C 369.362,405.582 363.028,420.582 356.5,435.5C 354.321,437.164 352.488,436.83 351,434.5C 350.395,436.481 349.395,436.815 348,435.5C 347.383,436.449 347.549,437.282 348.5,438C 347.069,438.465 345.903,439.299 345,440.5C 342.047,438.113 339.714,438.779 338,442.5C 337.333,441.833 336.667,441.167 336,440.5C 334.345,440.802 333.012,442.136 332,444.5C 330.627,444.596 329.127,444.43 327.5,444C 328.654,444.914 328.487,445.747 327,446.5C 324.236,446.607 321.903,445.941 320,444.5C 318.513,445.253 318.346,446.086 319.5,447C 317.572,449.455 315.738,449.622 314,447.5C 313.667,448.167 313.333,448.833 313,449.5C 311.235,450.239 309.235,450.239 307,449.5C 306.667,450.167 306.333,450.833 306,451.5C 305.282,450.549 304.449,450.383 303.5,451C 304.696,451.654 304.696,452.154 303.5,452.5C 302.167,451.833 300.833,451.167 299.5,450.5C 298.304,450.846 298.304,451.346 299.5,452C 295.928,451.213 292.594,451.713 289.5,453.5C 286.968,453.086 284.468,452.752 282,452.5C 280.43,453.358 278.763,454.025 277,454.5C 275.192,453.31 273.359,453.31 271.5,454.5C 269.971,454.471 268.804,453.804 268,452.5C 266.054,452.588 264.054,452.921 262,453.5C 260.238,453.056 260.405,452.556 262.5,452C 262,451.833 261.5,451.667 261,451.5C 256.048,453.387 251.882,452.387 248.5,448.5C 247.808,449.025 247.308,449.692 247,450.5C 246.401,447.277 244.401,445.61 241,445.5C 238.659,443.498 236.325,441.498 234,439.5C 233.667,439.833 233.333,440.167 233,440.5C 230.333,437.833 227.667,435.167 225,432.5C 224.667,433.5 224.333,434.5 224,435.5C 223.28,433.888 223.446,432.388 224.5,431C 218.864,420.99 218.03,410.49 222,399.5C 224.832,389.404 230.332,379.904 238.5,371C 236.122,370.026 236.456,369.359 239.5,369C 251.22,356.932 264.22,344.932 278.5,333C 279.449,332.383 280.282,332.549 281,333.5C 282.378,330.892 284.545,329.392 287.5,329C 286.833,328.667 286.167,328.333 285.5,328C 289.064,326.385 292.73,325.052 296.5,324C 295.833,323.667 295.167,323.333 294.5,323C 296.952,322.71 299.285,322.044 301.5,321C 301.167,320.667 300.833,320.333 300.5,320C 312.545,314.423 325.379,309.923 339,306.5C 339.772,306.645 340.439,306.978 341,307.5C 342.34,306.132 343.674,304.799 345,303.5C 346.531,304.217 347.864,305.217 349,306.5C 350.563,305.898 350.396,305.065 348.5,304C 349.784,303.316 350.951,303.483 352,304.5C 353.418,301.999 354.418,302.332 355,305.5C 356,301.5 357,301.5 358,305.5C 358.448,303.776 359.282,303.109 360.5,303.5C 360.291,302.914 359.957,302.414 359.5,302C 361.931,301.748 364.265,302.248 366.5,303.5C 367.167,302.833 367.833,302.167 368.5,301.5C 370.811,302.214 372.978,303.214 375,304.5C 375.388,303.572 376.055,302.905 377,302.5C 378.808,303.69 380.641,303.69 382.5,302.5C 386.315,304.05 390.315,305.05 394.5,305.5 Z"/></g>
<g><path style="opacity:1" fill="#11e44c" d="M 742.5,320.5 C 782.465,351.462 816.132,388.128 843.5,430.5C 842.675,431.386 841.675,431.719 840.5,431.5C 820.99,431.37 801.656,430.703 782.5,429.5C 788.842,429.666 795.175,429.5 801.5,429C 776.932,398.253 747.932,372.753 714.5,352.5C 723.461,341.537 732.794,330.871 742.5,320.5 Z"/></g>
<g><path style="opacity:1" fill="#1dd851" d="M 394.5,305.5 C 390.315,305.05 386.315,304.05 382.5,302.5C 380.641,303.69 378.808,303.69 377,302.5C 376.055,302.905 375.388,303.572 375,304.5C 372.978,303.214 370.811,302.214 368.5,301.5C 367.833,302.167 367.167,302.833 366.5,303.5C 364.265,302.248 361.931,301.748 359.5,302C 359.957,302.414 360.291,302.914 360.5,303.5C 359.282,303.109 358.448,303.776 358,305.5C 357,301.5 356,301.5 355,305.5C 354.418,302.332 353.418,301.999 352,304.5C 350.951,303.483 349.784,303.316 348.5,304C 350.396,305.065 350.563,305.898 349,306.5C 347.864,305.217 346.531,304.217 345,303.5C 343.674,304.799 342.34,306.132 341,307.5C 340.439,306.978 339.772,306.645 339,306.5C 325.379,309.923 312.545,314.423 300.5,320C 300.833,320.333 301.167,320.667 301.5,321C 299.285,322.044 296.952,322.71 294.5,323C 295.167,323.333 295.833,323.667 296.5,324C 292.73,325.052 289.064,326.385 285.5,328C 286.167,328.333 286.833,328.667 287.5,329C 284.545,329.392 282.378,330.892 281,333.5C 280.282,332.549 279.449,332.383 278.5,333C 264.22,344.932 251.22,356.932 239.5,369C 236.456,369.359 236.122,370.026 238.5,371C 230.332,379.904 224.832,389.404 222,399.5C 218.03,410.49 218.864,420.99 224.5,431C 223.446,432.388 223.28,433.888 224,435.5C 224.333,434.5 224.667,433.5 225,432.5C 227.667,435.167 230.333,437.833 233,440.5C 233.333,440.167 233.667,439.833 234,439.5C 236.325,441.498 238.659,443.498 241,445.5C 244.401,445.61 246.401,447.277 247,450.5C 247.308,449.692 247.808,449.025 248.5,448.5C 251.882,452.387 256.048,453.387 261,451.5C 261.5,451.667 262,451.833 262.5,452C 260.405,452.556 260.238,453.056 262,453.5C 264.054,452.921 266.054,452.588 268,452.5C 268.804,453.804 269.971,454.471 271.5,454.5C 273.359,453.31 275.192,453.31 277,454.5C 278.763,454.025 280.43,453.358 282,452.5C 284.468,452.752 286.968,453.086 289.5,453.5C 292.594,451.713 295.928,451.213 299.5,452C 298.304,451.346 298.304,450.846 299.5,450.5C 300.833,451.167 302.167,451.833 303.5,452.5C 304.696,452.154 304.696,451.654 303.5,451C 304.449,450.383 305.282,450.549 306,451.5C 306.333,450.833 306.667,450.167 307,449.5C 309.235,450.239 311.235,450.239 313,449.5C 313.333,448.833 313.667,448.167 314,447.5C 315.738,449.622 317.572,449.455 319.5,447C 318.346,446.086 318.513,445.253 320,444.5C 321.903,445.941 324.236,446.607 327,446.5C 328.487,445.747 328.654,444.914 327.5,444C 329.127,444.43 330.627,444.596 332,444.5C 333.012,442.136 334.345,440.802 336,440.5C 336.667,441.167 337.333,441.833 338,442.5C 339.714,438.779 342.047,438.113 345,440.5C 345.903,439.299 347.069,438.465 348.5,438C 347.549,437.282 347.383,436.449 348,435.5C 349.395,436.815 350.395,436.481 351,434.5C 352.488,436.83 354.321,437.164 356.5,435.5C 355.03,439.912 353.363,444.245 351.5,448.5C 349.926,448.937 348.759,449.937 348,451.5C 347.167,450.667 346.333,449.833 345.5,449C 345.944,447.467 346.277,445.967 346.5,444.5C 346.192,443.692 345.692,443.025 345,442.5C 344,443.833 343,445.167 342,446.5C 341.667,446.167 341.333,445.833 341,445.5C 340.558,447.679 339.558,448.345 338,447.5C 336.333,449.167 334.667,450.833 333,452.5C 332.667,452.167 332.333,451.833 332,451.5C 331.121,453.896 330.454,456.229 330,458.5C 329.667,458.167 329.333,457.833 329,457.5C 326.472,460.585 324.638,460.919 323.5,458.5C 321.587,459.373 319.753,460.373 318,461.5C 317.667,460.833 317.333,460.167 317,459.5C 315.247,460.627 313.413,461.627 311.5,462.5C 311.167,461.833 310.833,461.167 310.5,460.5C 308.587,461.373 306.753,462.373 305,463.5C 304.692,462.692 304.192,462.025 303.5,461.5C 302.167,462.167 300.833,462.833 299.5,463.5C 298.808,462.975 298.308,462.308 298,461.5C 296.088,462.692 294.088,463.692 292,464.5C 291.667,463.833 291.333,463.167 291,462.5C 288.684,464.459 286.684,464.459 285,462.5C 283.559,463.26 282.059,463.926 280.5,464.5C 278.5,463.167 276.5,463.167 274.5,464.5C 273.833,463.833 273.167,463.167 272.5,462.5C 269.167,462.833 265.833,463.167 262.5,463.5C 260.792,461.309 258.792,460.976 256.5,462.5C 250.491,459.497 244.157,457.497 237.5,456.5C 237.5,455.5 237.5,454.5 237.5,453.5C 235.436,453.313 233.436,452.813 231.5,452C 212.149,442.791 204.982,427.625 210,406.5C 214.932,389.26 223.599,374.26 236,361.5C 251.102,346.588 267.436,333.255 285,321.5C 285.333,321.833 285.667,322.167 286,322.5C 286.317,320.699 286.984,320.366 288,321.5C 288.249,320.376 288.749,319.376 289.5,318.5C 291.664,318.002 293.331,316.836 294.5,315C 297.938,314.08 300.938,312.413 303.5,310C 305.813,309.338 308.146,308.838 310.5,308.5C 310.5,307.5 310.5,306.5 310.5,305.5C 313.216,305.322 315.883,304.822 318.5,304C 321.932,302.456 325.266,300.789 328.5,299C 337.47,296.821 346.137,294.154 354.5,291C 357.099,290.231 359.599,290.398 362,291.5C 362.483,290.552 362.649,289.552 362.5,288.5C 364.884,288.443 367.218,288.777 369.5,289.5C 371.336,288.067 373.336,287.567 375.5,288C 382.63,292.963 388.963,298.797 394.5,305.5 Z"/></g>
<g><path style="opacity:1" fill="#11e44c" d="M 391.5,351.5 C 386.44,364.618 381.107,377.618 375.5,390.5C 374.244,390.461 373.244,390.961 372.5,392C 373.696,392.654 373.696,393.154 372.5,393.5C 371.808,392.975 371.308,392.308 371,391.5C 370.682,393.061 369.849,394.228 368.5,395C 372.185,395.914 371.852,396.581 367.5,397C 368.624,397.249 369.624,397.749 370.5,398.5C 370.333,398.833 370.167,399.167 370,399.5C 368.612,398.446 367.112,398.28 365.5,399C 366.167,399.333 366.833,399.667 367.5,400C 365.956,400.29 364.623,400.956 363.5,402C 364.167,402.333 364.833,402.667 365.5,403C 363.899,403.273 362.399,403.773 361,404.5C 360.086,403.346 359.253,403.513 358.5,405C 359.833,405.333 361.167,405.667 362.5,406C 362,406.5 361.5,407 361,407.5C 359.951,406.483 358.784,406.316 357.5,407C 355.667,408.833 353.833,410.667 352,412.5C 351.667,411.833 351.333,411.167 351,410.5C 348.667,412.833 346.333,415.167 344,417.5C 343.333,416.833 342.667,416.167 342,415.5C 340.881,416.552 340.381,417.719 340.5,419C 339.551,419.617 338.718,419.451 338,418.5C 338.617,420.095 338.284,421.428 337,422.5C 336.163,420.993 334.996,420.493 333.5,421C 333.833,421.333 334.167,421.667 334.5,422C 333.371,424.168 331.871,424.668 330,423.5C 329.691,424.766 329.191,425.933 328.5,427C 326.873,426.57 325.373,426.404 324,426.5C 323.581,427.672 322.915,428.672 322,429.5C 321,429.5 320,429.5 319,429.5C 317.07,432.381 314.737,433.048 312,431.5C 307.806,433.35 303.639,435.017 299.5,436.5C 299.167,435.833 298.833,435.167 298.5,434.5C 297.397,436.104 295.897,437.104 294,437.5C 290.983,436.82 288.816,436.82 287.5,437.5C 287.167,438.167 286.833,438.833 286.5,439.5C 283.805,437.057 281.305,437.39 279,440.5C 278.333,439.833 277.667,439.167 277,438.5C 275.732,438.616 274.398,438.949 273,439.5C 271.806,438.57 270.473,437.903 269,437.5C 264.463,440.571 260.629,439.905 257.5,435.5C 256.808,436.025 256.308,436.692 256,437.5C 251.564,434.345 247.231,431.012 243,427.5C 241,424.167 239,420.833 237,417.5C 234.493,408.807 235.16,400.14 239,391.5C 250.822,368.046 267.655,350.879 289.5,340C 288.833,339.667 288.167,339.333 287.5,339C 290.044,337.908 292.711,337.241 295.5,337C 295.167,336.667 294.833,336.333 294.5,336C 297.637,335.399 300.637,334.399 303.5,333C 304.126,332.25 304.626,331.416 305,330.5C 306.525,330.112 308.192,330.112 310,330.5C 311.831,328.145 313.997,326.812 316.5,326.5C 318.898,326.101 321.398,326.101 324,326.5C 326.405,325.726 328.905,325.226 331.5,325C 330.5,324.667 329.5,324.333 328.5,324C 331.706,323.704 334.872,323.204 338,322.5C 341.751,324.491 344.085,323.491 345,319.5C 345.118,321.573 346.118,322.907 348,323.5C 349.15,322.576 350.15,322.576 351,323.5C 351.333,322.833 351.667,322.167 352,321.5C 353.828,323.081 355.828,324.415 358,325.5C 359.77,323.582 361.937,323.082 364.5,324C 363.167,324.333 361.833,324.667 360.5,325C 364.846,324.919 368.013,326.753 370,330.5C 370.667,329.5 370.667,328.5 370,327.5C 368.702,326.44 367.535,325.274 366.5,324C 366.667,323.5 366.833,323 367,322.5C 369.123,325.299 371.79,327.299 375,328.5C 375.684,330.359 376.684,332.026 378,333.5C 378.915,332.672 379.581,331.672 380,330.5C 381.147,333.618 382.48,336.618 384,339.5C 384.333,338.5 384.667,337.5 385,336.5C 385.539,339.529 386.206,342.529 387,345.5C 387.419,344.328 388.085,343.328 389,342.5C 389.004,344.368 388.504,346.202 387.5,348C 388.347,349.771 389.68,350.937 391.5,351.5 Z"/></g>
<g><path style="opacity:1" fill="#0bea49" d="M 313.5,343.5 C 315.134,342.839 316.967,342.506 319,342.5C 321.379,342.654 323.546,343.32 325.5,344.5C 326.192,343.975 326.692,343.308 327,342.5C 328.458,343.747 329.958,343.747 331.5,342.5C 333.16,346.079 335.327,346.412 338,343.5C 338.11,346.646 339.443,347.646 342,346.5C 345.317,349.806 348.151,353.472 350.5,357.5C 350.481,360.319 350.148,363.153 349.5,366C 350.428,366.388 351.095,367.055 351.5,368C 350.592,371.983 349.258,375.816 347.5,379.5C 346.5,380.167 345.5,380.833 344.5,381.5C 343.359,382.425 343.359,383.259 344.5,384C 343.833,386 342.5,387.333 340.5,388C 341.345,389.558 340.679,390.558 338.5,391C 338.833,391.333 339.167,391.667 339.5,392C 337.951,393.214 336.785,394.714 336,396.5C 335.333,397.833 334.667,397.833 334,396.5C 331.672,400.352 328.838,403.018 325.5,404.5C 324.264,405.246 322.93,405.579 321.5,405.5C 320.861,407.76 319.694,409.76 318,411.5C 317.667,410.833 317.333,410.167 317,409.5C 315.196,411.34 312.863,413.34 310,415.5C 308.475,415.888 306.808,415.888 305,415.5C 301.648,419.481 297.814,420.814 293.5,419.5C 293.089,420.262 292.923,421.262 293,422.5C 291.915,421.707 290.748,421.04 289.5,420.5C 289.323,423.078 288.157,423.078 286,420.5C 285.751,421.624 285.251,422.624 284.5,423.5C 282.809,421.744 280.809,421.244 278.5,422C 279.672,422.419 280.672,423.085 281.5,424C 279.212,423.947 276.879,423.614 274.5,423C 276.929,422.549 277.096,421.715 275,420.5C 273.318,420.807 271.652,421.14 270,421.5C 262.738,419.361 257.238,415.528 253.5,410C 254.276,408.23 254.11,406.397 253,404.5C 252.667,404.833 252.333,405.167 252,405.5C 251.333,402.833 251.333,400.167 252,397.5C 252.333,399.167 252.667,400.833 253,402.5C 253.184,398.35 254.018,394.35 255.5,390.5C 255.291,389.914 254.957,389.414 254.5,389C 255.833,388.333 256.833,387.333 257.5,386C 257.5,385 257.5,384 257.5,383C 261.933,376.791 267.433,370.291 274,363.5C 275.281,363.619 276.448,363.119 277.5,362C 276.833,361.667 276.167,361.333 275.5,361C 276.784,360.316 277.951,360.483 279,361.5C 281.096,360.285 280.929,359.451 278.5,359C 279.784,358.316 280.951,358.483 282,359.5C 284.786,356.19 288.286,354.023 292.5,353C 291.72,351.927 291.887,350.76 293,349.5C 294.667,349.833 296.333,350.167 298,350.5C 299.333,349.167 300.667,347.833 302,346.5C 303,346.833 304,347.167 305,347.5C 305.333,346.833 305.667,346.167 306,345.5C 308.217,345.063 310.551,345.063 313,345.5C 315.665,344.526 315.831,343.859 313.5,343.5 Z"/></g>
<g><path style="opacity:1" fill="#b8f5dc" d="M 412.5,350.5 C 558.491,432.158 703.825,514.825 848.5,598.5C 837.846,611.818 826.846,624.818 815.5,637.5C 815.063,635.926 814.063,634.759 812.5,634C 672.806,554.821 533.139,475.655 393.5,396.5C 399.835,381.162 406.168,365.828 412.5,350.5 Z"/></g>
<g><path style="opacity:1" fill="#0cea4a" d="M 714.5,352.5 C 747.932,372.753 776.932,398.253 801.5,429C 795.175,429.5 788.842,429.666 782.5,429.5C 744.162,428.273 705.828,426.94 667.5,425.5C 662.167,424.833 656.833,424.167 651.5,423.5C 672.157,399.511 693.157,375.844 714.5,352.5 Z"/></g>
<g><path style="opacity:1" fill="#05f046" d="M 302.5,361.5 C 306.429,361.937 310.429,362.104 314.5,362C 318.066,362.7 320.9,364.533 323,367.5C 324.161,371.291 324.661,375.124 324.5,379C 322.058,381.371 320.224,384.204 319,387.5C 311.381,395.656 302.381,401.989 292,406.5C 291.667,406.167 291.333,405.833 291,405.5C 287.859,407.03 284.692,407.697 281.5,407.5C 280.201,406.91 279.368,405.91 279,404.5C 278.692,405.308 278.192,405.975 277.5,406.5C 275.833,405.667 274.167,404.833 272.5,404C 276.226,402.957 275.893,402.457 271.5,402.5C 271.657,401.127 271.49,399.793 271,398.5C 270.667,399.167 270.333,399.833 270,400.5C 267.855,398.105 268.022,395.938 270.5,394C 267.999,392.582 268.332,391.582 271.5,391C 270.692,390.692 270.025,390.192 269.5,389.5C 270.167,389.167 270.833,388.833 271.5,388.5C 270.238,385.72 271.238,384.054 274.5,383.5C 273.45,381.898 274.117,381.065 276.5,381C 275.833,380.667 275.167,380.333 274.5,380C 275.716,378.26 277.382,377.26 279.5,377C 279.167,376.667 278.833,376.333 278.5,376C 282.656,370.994 288.322,367.66 295.5,366C 295.167,365.667 294.833,365.333 294.5,365C 297.309,363.907 299.976,362.74 302.5,361.5 Z"/></g>
<g><path style="opacity:1" fill="#b1f5dc" d="M 393.5,396.5 C 533.139,475.655 672.806,554.821 812.5,634C 814.063,634.759 815.063,635.926 815.5,637.5C 803.536,653.096 790.869,668.096 777.5,682.5C 776.358,680.567 774.692,679.067 772.5,678C 638.919,602.293 505.419,526.46 372,450.5C 371.617,451.056 371.117,451.389 370.5,451.5C 377.893,433.047 385.56,414.714 393.5,396.5 Z"/></g>
<g><path style="opacity:1" fill="#27b890" d="M 651.5,423.5 C 656.833,424.167 662.167,424.833 667.5,425.5C 661.794,425.829 656.128,425.495 650.5,424.5C 650.624,423.893 650.957,423.56 651.5,423.5 Z"/></g>
<g><path style="opacity:1" fill="#c4f5dc" d="M 685.5,445.5 C 721.345,446.272 757.011,447.605 792.5,449.5C 791.761,449.369 791.094,449.536 790.5,450C 831.446,473.97 872.779,497.137 914.5,519.5C 903.846,532.818 892.846,545.818 881.5,558.5C 815.073,521.256 748.739,483.756 682.5,446C 683.448,445.517 684.448,445.351 685.5,445.5 Z"/></g>
<g><path style="opacity:1" fill="#caf5dc" d="M 792.5,449.5 C 851.19,450.988 909.857,453.154 968.5,456C 950.635,477.358 932.635,498.525 914.5,519.5C 872.779,497.137 831.446,473.97 790.5,450C 791.094,449.536 791.761,449.369 792.5,449.5 Z"/></g>
<g><path style="opacity:1" fill="#abf5dc" d="M 777.5,682.5 C 767.18,695.485 756.513,708.151 745.5,720.5C 614.446,645.469 483.112,570.802 351.5,496.5C 357.638,481.418 363.972,466.418 370.5,451.5C 371.117,451.389 371.617,451.056 372,450.5C 505.419,526.46 638.919,602.293 772.5,678C 774.692,679.067 776.358,680.567 777.5,682.5 Z"/></g>
<g><path style="opacity:1" fill="#23d254" d="M 996.5,451.5 C 1006.86,474.557 1015.86,498.224 1023.5,522.5C 1013.99,522.173 1004.65,522.506 995.5,523.5C 975.833,523.5 956.167,523.5 936.5,523.5C 956.153,499.183 976.153,475.183 996.5,451.5 Z"/></g>
<g><path style="opacity:1" fill="#a4f5dc" d="M 351.5,496.5 C 483.112,570.802 614.446,645.469 745.5,720.5C 735.306,733.546 724.64,746.213 713.5,758.5C 649.5,722.5 585.5,686.5 521.5,650.5C 523.32,642.883 524.987,635.216 526.5,627.5C 526.751,623.497 525.084,620.664 521.5,619C 451.745,609.464 382.078,599.464 312.5,589C 325.796,558.277 338.796,527.444 351.5,496.5 Z"/></g>
<g><path style="opacity:0.981" fill="#666666" d="M 85.5,522.5 C 98.6562,523.496 111.99,523.829 125.5,523.5C 166.5,523.5 207.5,523.5 248.5,523.5C 272.167,523.5 295.833,523.5 319.5,523.5C 317.774,528.617 315.774,533.617 313.5,538.5C 214.167,538.5 114.833,538.5 15.5,538.5C 16.1612,544.482 17.8279,550.148 20.5,555.5C 15.2914,554.023 9.95804,553.023 4.5,552.5C 3.89333,552.624 3.55999,552.957 3.5,553.5C 1.69924,549.293 0.365904,544.96 -0.5,540.5C -0.5,536.167 -0.5,531.833 -0.5,527.5C 0.854084,525.304 2.85408,523.804 5.5,523C 32.1646,522.5 58.8313,522.333 85.5,522.5 Z"/></g>
<g><path style="opacity:0.983" fill="#676767" d="M 1111.5,522.5 C 1133.23,522.033 1154.9,522.533 1176.5,524C 1190.18,536.199 1197.85,551.366 1199.5,569.5C 1199.5,588.833 1199.5,608.167 1199.5,627.5C 1195.93,633.641 1192.59,639.974 1189.5,646.5C 1183.86,645.866 1178.19,645.532 1172.5,645.5C 1174.58,641.007 1176.91,636.674 1179.5,632.5C 1182.66,627.18 1184.99,621.513 1186.5,615.5C 1188.5,608.675 1189,601.675 1188,594.5C 1185.27,584.342 1183.61,574.009 1183,563.5C 1181.23,553.783 1176.73,545.616 1169.5,539C 1087.5,538.5 1005.5,538.333 923.5,538.5C 927.489,533.179 931.822,528.179 936.5,523.5C 956.167,523.5 975.833,523.5 995.5,523.5C 1020.83,523.5 1046.17,523.5 1071.5,523.5C 1085.01,523.829 1098.34,523.496 1111.5,522.5 Z"/></g>
<g><path style="opacity:1" fill="#bfbfbf" d="M 313.5,538.5 C 306.289,556.593 298.789,574.593 291,592.5C 289.142,598.581 290.975,603.081 296.5,606C 316.869,608.677 337.203,611.511 357.5,614.5C 251.001,615.499 144.335,615.833 37.5,615.5C 37.5,613.5 37.5,611.5 37.5,609.5C 40.9622,602.191 45.4622,595.525 51,589.5C 51.6667,586.833 51.6667,584.167 51,581.5C 44.7821,576.281 38.2821,571.448 31.5,567C 27.6019,563.271 23.9352,559.438 20.5,555.5C 17.8279,550.148 16.1612,544.482 15.5,538.5C 114.833,538.5 214.167,538.5 313.5,538.5 Z"/></g>
<g><path style="opacity:1" fill="#bfbfbf" d="M 923.5,538.5 C 1005.5,538.333 1087.5,538.5 1169.5,539C 1176.73,545.616 1181.23,553.783 1183,563.5C 1183.61,574.009 1185.27,584.342 1188,594.5C 1189,601.675 1188.5,608.675 1186.5,615.5C 1077.67,615.833 968.999,615.499 860.5,614.5C 881.477,589.186 902.477,563.853 923.5,538.5 Z"/></g>
<g><path style="opacity:0.966" fill="#484848" d="M 20.5,555.5 C 23.9352,559.438 27.6019,563.271 31.5,567C 38.2821,571.448 44.7821,576.281 51,581.5C 51.6667,584.167 51.6667,586.833 51,589.5C 45.4622,595.525 40.9622,602.191 37.5,609.5C 32.5275,608.836 27.5275,608.503 22.5,608.5C 24.9737,600.719 28.6404,593.552 33.5,587C 22.7596,580.927 13.9263,572.761 7,562.5C 5.25889,559.691 4.09223,556.691 3.5,553.5C 3.55999,552.957 3.89333,552.624 4.5,552.5C 9.95804,553.023 15.2914,554.023 20.5,555.5 Z"/></g>
<g><path style="opacity:1" fill="#b3b3b3" d="M 357.5,614.5 C 397.426,620.375 437.426,626.042 477.5,631.5C 335.001,632.5 192.334,632.833 49.5,632.5C 47.205,629.703 44.705,627.036 42,624.5C 39.9617,621.757 38.4617,618.757 37.5,615.5C 144.335,615.833 251.001,615.499 357.5,614.5 Z"/></g>
<g><path style="opacity:1" fill="#b3b3b3" d="M 860.5,614.5 C 968.999,615.499 1077.67,615.833 1186.5,615.5C 1184.99,621.513 1182.66,627.18 1179.5,632.5C 1068.17,632.5 956.833,632.5 845.5,632.5C 849.753,625.91 854.753,619.91 860.5,614.5 Z"/></g>
<g><path style="opacity:1" fill="#a7a7a7" d="M 477.5,631.5 C 486.897,632.795 496.231,634.462 505.5,636.5C 504.369,640.165 503.369,643.831 502.5,647.5C 353.833,647.5 205.167,647.5 56.5,647.5C 55.5125,641.859 53.1792,636.859 49.5,632.5C 192.334,632.833 335.001,632.5 477.5,631.5 Z"/></g>
<g><path style="opacity:1" fill="#a7a7a7" d="M 845.5,632.5 C 956.833,632.5 1068.17,632.5 1179.5,632.5C 1176.91,636.674 1174.58,641.007 1172.5,645.5C 1172.17,646.167 1171.83,646.833 1171.5,647.5C 1058.67,647.833 945.999,647.5 833.5,646.5C 837.037,641.421 841.037,636.754 845.5,632.5 Z"/></g>
<g><path style="opacity:0.971" fill="#2f2f2f" d="M 22.5,608.5 C 27.5275,608.503 32.5275,608.836 37.5,609.5C 37.5,611.5 37.5,613.5 37.5,615.5C 38.4617,618.757 39.9617,621.757 42,624.5C 44.705,627.036 47.205,629.703 49.5,632.5C 53.1792,636.859 55.5125,641.859 56.5,647.5C 56.5,652.167 56.5,656.833 56.5,661.5C 55.8333,662.833 55.1667,664.167 54.5,665.5C 49.8333,664.5 45.1667,663.5 40.5,662.5C 41.4964,657.537 41.6631,652.537 41,647.5C 35.4241,640.68 30.0907,633.68 25,626.5C 22.8491,620.7 22.0157,614.7 22.5,608.5 Z"/></g>
<g><path style="opacity:1" fill="#9ff5dc" d="M 521.5,650.5 C 585.5,686.5 649.5,722.5 713.5,758.5C 703.248,772.421 692.248,785.755 680.5,798.5C 627.889,767.521 574.889,737.021 521.5,707C 516.89,704.526 512.223,702.359 507.5,700.5C 511.595,683.566 516.261,666.899 521.5,650.5 Z"/></g>
<g><path style="opacity:1" fill="#9a9a9a" d="M 56.5,647.5 C 205.167,647.5 353.833,647.5 502.5,647.5C 501.21,653.287 499.543,658.953 497.5,664.5C 350.5,664.5 203.5,664.5 56.5,664.5C 56.5,663.5 56.5,662.5 56.5,661.5C 56.5,656.833 56.5,652.167 56.5,647.5 Z"/></g>
<g><path style="opacity:1" fill="#9a9a9b" d="M 833.5,646.5 C 945.999,647.5 1058.67,647.833 1171.5,647.5C 1168.84,652.153 1167.17,657.153 1166.5,662.5C 1108.71,663.829 1050.71,664.496 992.5,664.5C 934.496,664.5 876.829,663.833 819.5,662.5C 823.823,656.845 828.49,651.512 833.5,646.5 Z"/></g>
<g><path style="opacity:1" fill="#929292" d="M 819.5,662.5 C 876.829,663.833 934.496,664.5 992.5,664.5C 1050.71,664.496 1108.71,663.829 1166.5,662.5C 1166.5,665.833 1166.5,669.167 1166.5,672.5C 1048.33,672.833 930.332,672.5 812.5,671.5C 814.482,668.19 816.815,665.19 819.5,662.5 Z"/></g>
<g><path style="opacity:1" fill="#8e8e8e" d="M 56.5,661.5 C 56.5,662.5 56.5,663.5 56.5,664.5C 203.5,664.5 350.5,664.5 497.5,664.5C 496.303,669.629 494.969,674.629 493.5,679.5C 343.999,679.833 194.666,679.5 45.5,678.5C 50.2263,675.387 53.2263,671.053 54.5,665.5C 55.1667,664.167 55.8333,662.833 56.5,661.5 Z"/></g>
<g><path style="opacity:1" fill="#888888" d="M 812.5,671.5 C 930.332,672.5 1048.33,672.833 1166.5,672.5C 1167.62,676.295 1168.28,680.295 1168.5,684.5C 1168.5,685.5 1168.5,686.5 1168.5,687.5C 1045.33,687.833 922.332,687.5 799.5,686.5C 803.489,681.179 807.822,676.179 812.5,671.5 Z"/></g>
<g><path style="opacity:0.972" fill="#4e4e4e" d="M 1172.5,645.5 C 1178.19,645.532 1183.86,645.866 1189.5,646.5C 1185.04,652.601 1182.37,659.434 1181.5,667C 1183.54,678.091 1184.87,689.258 1185.5,700.5C 1180.61,699.279 1175.61,698.612 1170.5,698.5C 1170.47,693.609 1169.8,688.943 1168.5,684.5C 1168.28,680.295 1167.62,676.295 1166.5,672.5C 1166.5,669.167 1166.5,665.833 1166.5,662.5C 1167.17,657.153 1168.84,652.153 1171.5,647.5C 1171.83,646.833 1172.17,646.167 1172.5,645.5 Z"/></g>
<g><path style="opacity:1" fill="#828282" d="M 45.5,678.5 C 194.666,679.5 343.999,679.833 493.5,679.5C 492.451,685.464 490.784,691.131 488.5,696.5C 335.833,696.5 183.167,696.5 30.5,696.5C 30.5,695.5 30.5,694.5 30.5,693.5C 30.4914,691.692 30.9914,690.025 32,688.5C 36.0843,684.548 40.5843,681.214 45.5,678.5 Z"/></g>
<g><path style="opacity:0.988" fill="#161716" d="M 40.5,662.5 C 45.1667,663.5 49.8333,664.5 54.5,665.5C 53.2263,671.053 50.2263,675.387 45.5,678.5C 40.5843,681.214 36.0843,684.548 32,688.5C 30.9914,690.025 30.4914,691.692 30.5,693.5C 28.8255,696.507 28.1588,699.84 28.5,703.5C 90.8392,704.355 153.173,705.355 215.5,706.5C 271.167,711.833 326.833,717.167 382.5,722.5C 371.5,722.5 360.5,722.5 349.5,722.5C 347.833,722.5 346.167,722.5 344.5,722.5C 324.34,721.503 304.007,721.17 283.5,721.5C 277.833,721.5 272.167,721.5 266.5,721.5C 243.006,720.502 219.339,720.169 195.5,720.5C 180.319,720.247 165.319,720.247 150.5,720.5C 136.245,719.518 121.912,719.184 107.5,719.5C 77.0752,719.54 46.7418,718.707 16.5,717C 15.2986,716.097 14.4652,714.931 14,713.5C 12.8175,703.592 13.8175,693.925 17,684.5C 18.8865,680.56 21.3865,677.06 24.5,674C 30.0391,670.402 35.3724,666.569 40.5,662.5 Z"/></g>
<g><path style="opacity:1" fill="#787878" d="M 30.5,693.5 C 30.5,694.5 30.5,695.5 30.5,696.5C 183.167,696.5 335.833,696.5 488.5,696.5C 487.808,700.89 486.808,705.224 485.5,709.5C 395.501,708.333 305.501,707.333 215.5,706.5C 153.173,705.355 90.8392,704.355 28.5,703.5C 28.1588,699.84 28.8255,696.507 30.5,693.5 Z"/></g>
<g><path style="opacity:1" fill="#7b7b7b" d="M 1168.5,684.5 C 1169.8,688.943 1170.47,693.609 1170.5,698.5C 1170.46,705.316 1169.46,711.983 1167.5,718.5C 1073.83,717.219 980.166,715.886 886.5,714.5C 850.162,714.544 813.829,714.21 777.5,713.5C 784.118,703.941 791.451,694.941 799.5,686.5C 922.332,687.5 1045.33,687.833 1168.5,687.5C 1168.5,686.5 1168.5,685.5 1168.5,684.5 Z"/></g>
<g><path style="opacity:1" fill="#98f5dc" d="M 507.5,700.5 C 512.223,702.359 516.89,704.526 521.5,707C 574.889,737.021 627.889,767.521 680.5,798.5C 668.061,813.725 655.394,828.725 642.5,843.5C 592.974,814.481 543.141,785.815 493,757.5C 492.617,758.056 492.117,758.389 491.5,758.5C 496.636,739.094 501.97,719.76 507.5,700.5 Z"/></g>
<g><path style="opacity:1" fill="#1c1d1d" d="M 215.5,706.5 C 305.501,707.333 395.501,708.333 485.5,709.5C 484.169,714.155 482.836,718.821 481.5,723.5C 460.5,723.5 439.5,723.5 418.5,723.5C 406.678,722.505 394.678,722.172 382.5,722.5C 326.833,717.167 271.167,711.833 215.5,706.5 Z"/></g>
<g><path style="opacity:1" fill="#2d302e" d="M 777.5,713.5 C 813.829,714.21 850.162,714.544 886.5,714.5C 950.902,719.264 1015.24,724.93 1079.5,731.5C 1067.17,731.5 1054.83,731.5 1042.5,731.5C 1021.49,731.523 1000.49,731.19 979.5,730.5C 974.5,730.5 969.5,730.5 964.5,730.5C 955.5,730.5 946.5,730.5 937.5,730.5C 924.509,729.874 911.509,729.54 898.5,729.5C 853.836,728.91 809.169,728.576 764.5,728.5C 768.489,723.179 772.822,718.179 777.5,713.5 Z"/></g>
<g><path style="opacity:0.984" fill="#363636" d="M 1170.5,698.5 C 1175.61,698.612 1180.61,699.279 1185.5,700.5C 1185.69,710.698 1183.53,720.365 1179,729.5C 1177.83,730.667 1176.67,731.833 1175.5,733C 1145.17,733.287 1114.83,733.12 1084.5,732.5C 1083.08,731.549 1081.41,731.216 1079.5,731.5C 1015.24,724.93 950.902,719.264 886.5,714.5C 980.166,715.886 1073.83,717.219 1167.5,718.5C 1169.46,711.983 1170.46,705.316 1170.5,698.5 Z"/></g>
<g><path style="opacity:0.992" fill="#000a20" d="M 107.5,719.5 C 121.912,719.184 136.245,719.518 150.5,720.5C 173.181,777.154 206.515,826.488 250.5,868.5C 264.322,882.663 279.322,895.329 295.5,906.5C 314.799,921.77 335.466,935.103 357.5,946.5C 366.765,951.966 376.432,956.632 386.5,960.5C 395.312,965.33 404.646,968.996 414.5,971.5C 410.641,984.618 406.641,997.618 402.5,1010.5C 285.122,966.283 195.622,889.616 134,780.5C 123.702,760.761 114.868,740.428 107.5,719.5 Z"/></g>
<g><path style="opacity:1" fill="#30c359" d="M 195.5,720.5 C 190.21,759.471 202.21,791.971 231.5,818C 233.405,819.421 235.405,820.588 237.5,821.5C 239.052,823.805 240.385,826.305 241.5,829C 241.167,829.333 240.833,829.667 240.5,830C 242.249,831.292 244.082,832.458 246,833.5C 247.683,845.151 249.183,856.818 250.5,868.5C 206.515,826.488 173.181,777.154 150.5,720.5C 165.319,720.247 180.319,720.247 195.5,720.5 Z"/></g>
<g><path style="opacity:1" fill="#2ec963" d="M 195.5,720.5 C 219.339,720.169 243.006,720.502 266.5,721.5C 256.833,721.5 247.167,721.5 237.5,721.5C 238.401,727.104 237.735,732.604 235.5,738C 235.667,738.833 235.833,739.667 236,740.5C 236.667,739.167 237.333,737.833 238,736.5C 238.442,739.305 237.942,741.972 236.5,744.5C 236.899,746.197 237.399,747.863 238,749.5C 238.654,748.304 239.154,748.304 239.5,749.5C 239.229,752.76 239.229,755.927 239.5,759C 239.903,760.473 240.57,761.806 241.5,763C 241.039,765.447 240.706,767.947 240.5,770.5C 242.439,774.434 244.772,778.101 247.5,781.5C 246.195,784.817 246.528,787.984 248.5,791C 247.892,792.231 247.559,793.564 247.5,795C 248.231,803.204 249.231,811.37 250.5,819.5C 254.407,820.74 256.407,823.406 256.5,827.5C 254.695,826.763 253.029,825.763 251.5,824.5C 251.704,825.529 251.204,826.529 250,827.5C 246.414,825.291 242.914,822.957 239.5,820.5C 238.817,820.863 238.15,821.196 237.5,821.5C 235.405,820.588 233.405,819.421 231.5,818C 202.21,791.971 190.21,759.471 195.5,720.5 Z"/></g>
<g><path style="opacity:1" fill="#2bdb66" d="M 283.5,721.5 C 304.007,721.17 324.34,721.503 344.5,722.5C 333.5,722.5 322.5,722.5 311.5,722.5C 311.223,726.542 310.89,730.375 310.5,734C 312.637,737.636 314.971,741.136 317.5,744.5C 317.37,746.423 317.036,748.256 316.5,750C 318.125,750.853 318.458,751.853 317.5,753C 318.167,753.667 318.833,754.333 319.5,755C 318.549,755.718 318.383,756.551 319,757.5C 321.119,757.507 322.953,758.674 324.5,761C 323.397,762.68 323.73,764.18 325.5,765.5C 325.023,766.478 324.357,767.311 323.5,768C 324.167,768.333 324.833,768.667 325.5,769C 324.424,770.726 324.257,772.559 325,774.5C 326.667,775.5 328.333,776.5 330,777.5C 330.617,778.449 330.451,779.282 329.5,780C 331.125,780.853 331.458,781.853 330.5,783C 336.985,784.269 338.318,787.269 334.5,792C 335.744,792.456 336.577,791.956 337,790.5C 337.5,791 338,791.5 338.5,792C 337.424,793.726 337.257,795.559 338,797.5C 338.333,796.167 338.667,794.833 339,793.5C 339.893,792.289 340.726,792.289 341.5,793.5C 340.627,795.413 339.627,797.247 338.5,799C 340.908,798.233 342.408,796.4 343,793.5C 343.348,796.465 344.515,798.965 346.5,801C 346.025,802.763 345.358,804.43 344.5,806C 346.557,806.305 348.557,806.305 350.5,806C 349.667,808.081 349.667,810.248 350.5,812.5C 352.288,812.215 353.955,812.548 355.5,813.5C 355.333,813.833 355.167,814.167 355,814.5C 353.274,813.424 351.441,813.257 349.5,814C 350.833,814.333 352.167,814.667 353.5,815C 349.776,815.797 346.11,816.797 342.5,818C 342.833,818.333 343.167,818.667 343.5,819C 340.681,819.068 338.514,820.234 337,822.5C 335.274,821.424 333.441,821.257 331.5,822C 333.259,823.764 333.426,825.931 332,828.5C 330.644,827.62 329.144,827.286 327.5,827.5C 327.657,828.873 327.49,830.207 327,831.5C 325.644,830.62 324.144,830.286 322.5,830.5C 322.5,831.5 322.5,832.5 322.5,833.5C 329.167,834.167 329.167,834.833 322.5,835.5C 322.5,836.5 322.5,837.5 322.5,838.5C 317.833,838.167 313.167,837.833 308.5,837.5C 307.003,836.694 305.336,836.028 303.5,835.5C 303.704,836.529 303.204,837.529 302,838.5C 298.157,837.274 294.323,835.941 290.5,834.5C 289.893,834.624 289.56,834.957 289.5,835.5C 286.661,835.385 284.661,834.052 283.5,831.5C 285.401,830.769 287.401,830.769 289.5,831.5C 289.5,830.5 289.5,829.5 289.5,828.5C 286.686,828.597 284.686,827.431 283.5,825C 283.833,824.5 284.167,824 284.5,823.5C 285.736,824.246 287.07,824.579 288.5,824.5C 289.035,821.762 288.035,819.928 285.5,819C 286.167,818.667 286.833,818.333 287.5,818C 286.167,817.333 286.167,816.667 287.5,816C 289.57,815.621 291.07,816.455 292,818.5C 293.399,817.773 294.899,817.273 296.5,817C 294.14,814.647 291.473,812.647 288.5,811C 289.549,810.508 290.549,810.674 291.5,811.5C 292.281,810.271 292.781,808.938 293,807.5C 294.667,808.5 296.333,809.5 298,810.5C 297.737,809.049 297.904,807.716 298.5,806.5C 299.833,807.167 301.167,807.833 302.5,808.5C 303.39,806.174 303.557,803.841 303,801.5C 303.667,802.833 304.333,802.833 305,801.5C 305.317,803.301 305.984,803.634 307,802.5C 307.333,803.167 307.667,803.833 308,804.5C 309.666,802.333 310.5,800.167 310.5,798C 305.168,797.203 302.834,794.37 303.5,789.5C 301.972,788.139 300.305,786.972 298.5,786C 299.253,784.513 300.086,784.346 301,785.5C 303.562,784.102 303.895,782.435 302,780.5C 300.667,780.5 299.333,780.5 298,780.5C 297.333,779.833 297.333,779.167 298,778.5C 298.654,779.696 299.154,779.696 299.5,778.5C 298.352,776.851 297.019,775.351 295.5,774C 295.665,772.883 295.998,771.716 296.5,770.5C 293.978,767.812 291.644,764.979 289.5,762C 289.184,759.268 289.517,756.768 290.5,754.5C 286.58,748.831 283.913,742.664 282.5,736C 283.126,735.25 283.626,734.416 284,733.5C 284.803,736.244 285.803,738.911 287,741.5C 286.487,734.766 285.32,728.099 283.5,721.5 Z"/></g>
<g><path style="opacity:1" fill="#04f046" d="M 764.5,728.5 C 809.169,728.576 853.836,728.91 898.5,729.5C 899.878,730.234 901.378,730.901 903,731.5C 915.385,782.479 923.219,834.145 926.5,886.5C 876.765,929.888 820.099,961.721 756.5,982C 684.007,1003.99 610.007,1010.83 534.5,1002.5C 565.82,964.516 597.487,926.849 629.5,889.5C 636.656,912.481 647.489,933.481 662,952.5C 669.808,961.477 678.974,968.644 689.5,974C 707.101,980.89 722.601,977.723 736,964.5C 750.982,945.511 759.649,923.844 762,899.5C 767.236,853.486 760.903,809.153 743,766.5C 741.974,763.761 740.474,761.428 738.5,759.5C 746.463,748.571 755.13,738.238 764.5,728.5 Z"/></g>
<g><path style="opacity:1" fill="#0aea49" d="M 898.5,729.5 C 911.509,729.54 924.509,729.874 937.5,730.5C 946.774,772.415 953.44,814.748 957.5,857.5C 948.077,868.261 937.743,877.927 926.5,886.5C 923.219,834.145 915.385,782.479 903,731.5C 901.378,730.901 899.878,730.234 898.5,729.5 Z"/></g>
<g><path style="opacity:1" fill="#10e44b" d="M 937.5,730.5 C 946.5,730.5 955.5,730.5 964.5,730.5C 971.253,763.684 976.92,797.018 981.5,830.5C 974.214,840.12 966.214,849.12 957.5,857.5C 953.44,814.748 946.774,772.415 937.5,730.5 Z"/></g>
<g><path style="opacity:1" fill="#15df4e" d="M 964.5,730.5 C 969.5,730.5 974.5,730.5 979.5,730.5C 985.769,730.882 991.935,731.882 998,733.5C 1002.21,753.386 1005.71,773.386 1008.5,793.5C 1000.63,806.698 991.628,819.031 981.5,830.5C 976.92,797.018 971.253,763.684 964.5,730.5 Z"/></g>
<g><path style="opacity:1" fill="#1bd750" d="M 979.5,730.5 C 1000.49,731.19 1021.49,731.523 1042.5,731.5C 1033.17,753.437 1021.84,774.104 1008.5,793.5C 1005.71,773.386 1002.21,753.386 998,733.5C 991.935,731.882 985.769,730.882 979.5,730.5 Z"/></g>
<g><path style="opacity:0.992" fill="#000a20" d="M 1042.5,731.5 C 1054.83,731.5 1067.17,731.5 1079.5,731.5C 1081.41,731.216 1083.08,731.549 1084.5,732.5C 1059.36,797.126 1021.69,853.293 971.5,901C 866.358,996.771 742.191,1044.94 599,1045.5C 567.312,1045.62 535.812,1043.29 504.5,1038.5C 514.153,1026.18 524.153,1014.18 534.5,1002.5C 610.007,1010.83 684.007,1003.99 756.5,982C 820.099,961.721 876.765,929.888 926.5,886.5C 937.743,877.927 948.077,868.261 957.5,857.5C 966.214,849.12 974.214,840.12 981.5,830.5C 991.628,819.031 1000.63,806.698 1008.5,793.5C 1021.84,774.104 1033.17,753.437 1042.5,731.5 Z"/></g>
<g><path style="opacity:1" fill="#44e85e" d="M 349.5,722.5 C 360.5,722.5 371.5,722.5 382.5,722.5C 394.678,722.172 406.678,722.505 418.5,723.5C 408.828,723.334 399.161,723.5 389.5,724C 390.126,724.75 390.626,725.584 391,726.5C 391.333,726.167 391.667,725.833 392,725.5C 394.778,726.612 396.945,728.445 398.5,731C 403.383,732.072 408.05,733.739 412.5,736C 417.143,736.83 421.81,737.497 426.5,738C 422.082,738.182 417.749,738.348 413.5,738.5C 411.167,737.833 408.833,737.167 406.5,736.5C 405.502,738.49 404.502,740.49 403.5,742.5C 404.689,743.429 406.022,743.762 407.5,743.5C 407.238,742.022 407.571,740.689 408.5,739.5C 408.833,739.833 409.167,740.167 409.5,740.5C 408.593,743.421 408.26,746.421 408.5,749.5C 410.781,749.077 412.448,749.744 413.5,751.5C 413.5,752.5 413.5,753.5 413.5,754.5C 417.833,754.167 419.833,756.167 419.5,760.5C 421.604,760.201 423.604,760.534 425.5,761.5C 422.156,762.757 418.823,762.757 415.5,761.5C 414.614,762.325 414.281,763.325 414.5,764.5C 418.512,763.887 420.512,765.554 420.5,769.5C 422.819,768.833 425.153,768.666 427.5,769C 426.244,769.417 425.577,770.25 425.5,771.5C 419.254,771.408 413.087,772.075 407,773.5C 400.077,773.008 393.244,772.008 386.5,770.5C 387,770.167 387.5,769.833 388,769.5C 391.333,770.167 394.667,770.833 398,771.5C 398.5,771.167 399,770.833 399.5,770.5C 395.251,769.274 390.917,768.607 386.5,768.5C 386.5,767.5 386.5,766.5 386.5,765.5C 382.378,765.303 378.378,764.47 374.5,763C 372.424,760.416 369.757,758.749 366.5,758C 367.025,757.308 367.692,756.808 368.5,756.5C 369.768,757.428 371.101,757.595 372.5,757C 368.952,755.059 365.286,753.393 361.5,752C 362.774,751.023 362.774,750.189 361.5,749.5C 362.854,746.967 362.02,745.3 359,744.5C 358.667,744.833 358.333,745.167 358,745.5C 356.706,744.146 356.54,742.812 357.5,741.5C 357.023,740.522 356.357,739.689 355.5,739C 356.517,737.951 356.684,736.784 356,735.5C 351.785,733.81 350.285,731.31 351.5,728C 350.833,727.333 350.167,726.667 349.5,726C 350.684,724.855 350.684,723.688 349.5,722.5 Z"/></g>
<g><path style="opacity:1" fill="#51ef57" d="M 418.5,723.5 C 439.5,723.5 460.5,723.5 481.5,723.5C 479.834,730.165 478.167,736.832 476.5,743.5C 455.584,747.739 434.584,750.406 413.5,751.5C 412.448,749.744 410.781,749.077 408.5,749.5C 408.26,746.421 408.593,743.421 409.5,740.5C 409.167,740.167 408.833,739.833 408.5,739.5C 407.571,740.689 407.238,742.022 407.5,743.5C 406.022,743.762 404.689,743.429 403.5,742.5C 404.502,740.49 405.502,738.49 406.5,736.5C 408.833,737.167 411.167,737.833 413.5,738.5C 417.749,738.348 422.082,738.182 426.5,738C 421.81,737.497 417.143,736.83 412.5,736C 408.05,733.739 403.383,732.072 398.5,731C 396.945,728.445 394.778,726.612 392,725.5C 391.667,725.833 391.333,726.167 391,726.5C 390.626,725.584 390.126,724.75 389.5,724C 399.161,723.5 408.828,723.334 418.5,723.5 Z"/></g>
<g><path style="opacity:1" fill="#01f445" d="M 738.5,759.5 C 740.474,761.428 741.974,763.761 743,766.5C 760.903,809.153 767.236,853.486 762,899.5C 759.649,923.844 750.982,945.511 736,964.5C 722.601,977.723 707.101,980.89 689.5,974C 678.974,968.644 669.808,961.477 662,952.5C 647.489,933.481 636.656,912.481 629.5,889.5C 665.111,845.557 701.444,802.223 738.5,759.5 Z"/></g>
<g><path style="opacity:1" fill="#2ad366" d="M 266.5,721.5 C 272.167,721.5 277.833,721.5 283.5,721.5C 285.32,728.099 286.487,734.766 287,741.5C 285.803,738.911 284.803,736.244 284,733.5C 283.626,734.416 283.126,735.25 282.5,736C 283.913,742.664 286.58,748.831 290.5,754.5C 289.517,756.768 289.184,759.268 289.5,762C 291.644,764.979 293.978,767.812 296.5,770.5C 295.998,771.716 295.665,772.883 295.5,774C 297.019,775.351 298.352,776.851 299.5,778.5C 299.154,779.696 298.654,779.696 298,778.5C 297.333,779.167 297.333,779.833 298,780.5C 299.333,780.5 300.667,780.5 302,780.5C 303.895,782.435 303.562,784.102 301,785.5C 300.086,784.346 299.253,784.513 298.5,786C 300.305,786.972 301.972,788.139 303.5,789.5C 302.834,794.37 305.168,797.203 310.5,798C 310.5,800.167 309.666,802.333 308,804.5C 307.667,803.833 307.333,803.167 307,802.5C 305.984,803.634 305.317,803.301 305,801.5C 304.333,802.833 303.667,802.833 303,801.5C 303.557,803.841 303.39,806.174 302.5,808.5C 301.167,807.833 299.833,807.167 298.5,806.5C 297.904,807.716 297.737,809.049 298,810.5C 296.333,809.5 294.667,808.5 293,807.5C 292.781,808.938 292.281,810.271 291.5,811.5C 290.549,810.674 289.549,810.508 288.5,811C 291.473,812.647 294.14,814.647 296.5,817C 294.899,817.273 293.399,817.773 292,818.5C 291.07,816.455 289.57,815.621 287.5,816C 286.167,816.667 286.167,817.333 287.5,818C 286.833,818.333 286.167,818.667 285.5,819C 288.035,819.928 289.035,821.762 288.5,824.5C 287.07,824.579 285.736,824.246 284.5,823.5C 284.167,824 283.833,824.5 283.5,825C 284.686,827.431 286.686,828.597 289.5,828.5C 289.5,829.5 289.5,830.5 289.5,831.5C 287.401,830.769 285.401,830.769 283.5,831.5C 284.661,834.052 286.661,835.385 289.5,835.5C 289.5,836.167 289.5,836.833 289.5,837.5C 285.226,836.13 281.059,834.464 277,832.5C 274.904,833.715 275.071,834.549 277.5,835C 272.699,834.192 268.199,832.359 264,829.5C 263.667,830.167 263.333,830.833 263,831.5C 260.722,830.281 258.555,828.948 256.5,827.5C 256.407,823.406 254.407,820.74 250.5,819.5C 249.231,811.37 248.231,803.204 247.5,795C 247.559,793.564 247.892,792.231 248.5,791C 246.528,787.984 246.195,784.817 247.5,781.5C 244.772,778.101 242.439,774.434 240.5,770.5C 240.706,767.947 241.039,765.447 241.5,763C 240.57,761.806 239.903,760.473 239.5,759C 239.229,755.927 239.229,752.76 239.5,749.5C 239.154,748.304 238.654,748.304 238,749.5C 237.399,747.863 236.899,746.197 236.5,744.5C 237.942,741.972 238.442,739.305 238,736.5C 237.333,737.833 236.667,739.167 236,740.5C 235.833,739.667 235.667,738.833 235.5,738C 237.735,732.604 238.401,727.104 237.5,721.5C 247.167,721.5 256.833,721.5 266.5,721.5 Z"/></g>
<g><path style="opacity:1" fill="#25ee5f" d="M 476.5,743.5 C 467.482,775.583 458.482,807.583 449.5,839.5C 447.876,839.36 446.71,840.027 446,841.5C 444.951,840.483 443.784,840.316 442.5,841C 443.634,842.016 443.301,842.683 441.5,843C 437.886,843.936 434.22,844.436 430.5,844.5C 430.649,845.552 430.483,846.552 430,847.5C 426.611,846.72 423.444,846.72 420.5,847.5C 420.66,845.801 420.494,844.134 420,842.5C 418.829,844.616 417.329,845.282 415.5,844.5C 422.179,841.158 421.846,838.491 414.5,836.5C 413.181,834.468 413.181,832.468 414.5,830.5C 416.925,830.316 416.925,829.649 414.5,828.5C 417.119,828.024 419.119,826.691 420.5,824.5C 422.444,823.811 424.444,823.311 426.5,823C 425.5,822.667 424.5,822.333 423.5,822C 426.825,822.225 429.158,820.892 430.5,818C 432.167,817.667 433.833,817.333 435.5,817C 435.167,816.667 434.833,816.333 434.5,816C 438.292,814.363 441.959,812.53 445.5,810.5C 444.693,806.603 443.026,805.937 440.5,808.5C 440.167,808 439.833,807.5 439.5,807C 440.8,804.699 442.467,802.699 444.5,801C 444.333,800.5 444.167,800 444,799.5C 442.333,801.167 440.667,802.833 439,804.5C 438.833,804 438.667,803.5 438.5,803C 439.487,800.679 441.154,799.013 443.5,798C 440.371,799.41 437.038,800.41 433.5,801C 434.966,800.365 436.3,799.531 437.5,798.5C 438.1,796.424 438.433,794.424 438.5,792.5C 436.865,791.319 435.198,791.319 433.5,792.5C 432.24,790.647 432.24,788.814 433.5,787C 432.051,785.883 430.384,785.216 428.5,785C 430.5,784.167 432.5,783.333 434.5,782.5C 431.812,781.203 429.312,781.536 427,783.5C 426.333,782.5 426.333,781.5 427,780.5C 430.094,780.207 431.594,778.541 431.5,775.5C 427.875,776.063 424.375,777.063 421,778.5C 420.312,777.668 420.479,777.002 421.5,776.5C 423.115,775.846 424.782,775.346 426.5,775C 425.663,773.989 425.33,772.822 425.5,771.5C 425.577,770.25 426.244,769.417 427.5,769C 425.153,768.666 422.819,768.833 420.5,769.5C 420.512,765.554 418.512,763.887 414.5,764.5C 414.281,763.325 414.614,762.325 415.5,761.5C 418.823,762.757 422.156,762.757 425.5,761.5C 423.604,760.534 421.604,760.201 419.5,760.5C 419.833,756.167 417.833,754.167 413.5,754.5C 413.5,753.5 413.5,752.5 413.5,751.5C 434.584,750.406 455.584,747.739 476.5,743.5 Z"/></g>
<g><path style="opacity:1" fill="#1fe961" d="M 361.5,749.5 C 362.774,750.189 362.774,751.023 361.5,752C 365.286,753.393 368.952,755.059 372.5,757C 371.101,757.595 369.768,757.428 368.5,756.5C 367.692,756.808 367.025,757.308 366.5,758C 369.757,758.749 372.424,760.416 374.5,763C 378.378,764.47 382.378,765.303 386.5,765.5C 386.5,766.5 386.5,767.5 386.5,768.5C 390.917,768.607 395.251,769.274 399.5,770.5C 399,770.833 398.5,771.167 398,771.5C 394.667,770.833 391.333,770.167 388,769.5C 387.5,769.833 387,770.167 386.5,770.5C 393.244,772.008 400.077,773.008 407,773.5C 413.087,772.075 419.254,771.408 425.5,771.5C 425.33,772.822 425.663,773.989 426.5,775C 424.782,775.346 423.115,775.846 421.5,776.5C 420.479,777.002 420.312,777.668 421,778.5C 424.375,777.063 427.875,776.063 431.5,775.5C 431.594,778.541 430.094,780.207 427,780.5C 426.333,781.5 426.333,782.5 427,783.5C 429.312,781.536 431.812,781.203 434.5,782.5C 432.5,783.333 430.5,784.167 428.5,785C 430.384,785.216 432.051,785.883 433.5,787C 432.24,788.814 432.24,790.647 433.5,792.5C 435.198,791.319 436.865,791.319 438.5,792.5C 438.433,794.424 438.1,796.424 437.5,798.5C 436.3,799.531 434.966,800.365 433.5,801C 437.038,800.41 440.371,799.41 443.5,798C 441.154,799.013 439.487,800.679 438.5,803C 438.667,803.5 438.833,804 439,804.5C 440.667,802.833 442.333,801.167 444,799.5C 444.167,800 444.333,800.5 444.5,801C 442.467,802.699 440.8,804.699 439.5,807C 439.833,807.5 440.167,808 440.5,808.5C 443.026,805.937 444.693,806.603 445.5,810.5C 441.959,812.53 438.292,814.363 434.5,816C 434.833,816.333 435.167,816.667 435.5,817C 433.833,817.333 432.167,817.667 430.5,818C 429.158,820.892 426.825,822.225 423.5,822C 424.5,822.333 425.5,822.667 426.5,823C 424.444,823.311 422.444,823.811 420.5,824.5C 419.119,826.691 417.119,828.024 414.5,828.5C 416.925,829.649 416.925,830.316 414.5,830.5C 412.833,830.5 411.167,830.5 409.5,830.5C 409.5,831.833 409.5,833.167 409.5,834.5C 407.833,834.5 406.167,834.5 404.5,834.5C 404.5,835.833 404.5,837.167 404.5,838.5C 402.833,838.5 401.167,838.5 399.5,838.5C 399.5,839.833 399.5,841.167 399.5,842.5C 400.552,842.351 401.552,842.517 402.5,843C 396.581,843.341 390.747,844.175 385,845.5C 383.014,845.569 381.514,846.235 380.5,847.5C 379.167,847.5 377.833,847.5 376.5,847.5C 375.908,844.873 375.575,842.206 375.5,839.5C 374.041,839.567 372.708,839.234 371.5,838.5C 370.503,838.53 369.836,838.03 369.5,837C 370.707,835.7 371.374,834.2 371.5,832.5C 373.167,832.5 374.833,832.5 376.5,832.5C 376.238,831.022 376.571,829.689 377.5,828.5C 378.736,829.246 380.07,829.579 381.5,829.5C 381.5,828.5 381.5,827.5 381.5,826.5C 383.199,826.66 384.866,826.494 386.5,826C 380.062,824.42 380.062,823.587 386.5,823.5C 386.5,822.5 386.5,821.5 386.5,820.5C 391.238,819.404 395.905,818.071 400.5,816.5C 400.5,814.5 400.5,812.5 400.5,810.5C 402.308,810.509 403.975,810.009 405.5,809C 401.848,808.501 398.182,808.335 394.5,808.5C 394.5,807.167 394.5,805.833 394.5,804.5C 398.541,802.978 396.708,803.311 389,805.5C 388.517,804.552 388.351,803.552 388.5,802.5C 390.527,802.662 392.527,802.495 394.5,802C 393.667,798.5 391.5,796.333 388,795.5C 387.64,793.392 386.973,791.392 386,789.5C 384.644,790.38 383.144,790.714 381.5,790.5C 381.5,788.5 381.5,786.5 381.5,784.5C 380.167,784.5 378.833,784.5 377.5,784.5C 377.833,781.833 378.167,779.167 378.5,776.5C 376.857,776.48 375.524,777.147 374.5,778.5C 373.253,776.994 373.253,775.494 374.5,774C 371.936,773.55 370.436,774.716 370,777.5C 369.463,774.813 369.963,772.313 371.5,770C 369.072,768.838 368.405,767.171 369.5,765C 368.318,763.265 366.651,762.265 364.5,762C 363.897,760.175 363.23,758.341 362.5,756.5C 359.924,755.718 357.924,754.218 356.5,752C 357.167,751.333 357.833,750.667 358.5,750C 357.549,749.282 357.383,748.449 358,747.5C 358.816,748.823 359.983,749.489 361.5,749.5 Z"/></g>
<g><path style="opacity:1" fill="#28e263" d="M 344.5,722.5 C 346.167,722.5 347.833,722.5 349.5,722.5C 350.684,723.688 350.684,724.855 349.5,726C 350.167,726.667 350.833,727.333 351.5,728C 350.285,731.31 351.785,733.81 356,735.5C 356.684,736.784 356.517,737.951 355.5,739C 356.357,739.689 357.023,740.522 357.5,741.5C 356.54,742.812 356.706,744.146 358,745.5C 358.333,745.167 358.667,744.833 359,744.5C 362.02,745.3 362.854,746.967 361.5,749.5C 359.983,749.489 358.816,748.823 358,747.5C 357.383,748.449 357.549,749.282 358.5,750C 357.833,750.667 357.167,751.333 356.5,752C 357.924,754.218 359.924,755.718 362.5,756.5C 363.23,758.341 363.897,760.175 364.5,762C 366.651,762.265 368.318,763.265 369.5,765C 368.405,767.171 369.072,768.838 371.5,770C 369.963,772.313 369.463,774.813 370,777.5C 370.436,774.716 371.936,773.55 374.5,774C 373.253,775.494 373.253,776.994 374.5,778.5C 375.524,777.147 376.857,776.48 378.5,776.5C 378.167,779.167 377.833,781.833 377.5,784.5C 378.833,784.5 380.167,784.5 381.5,784.5C 381.5,786.5 381.5,788.5 381.5,790.5C 383.144,790.714 384.644,790.38 386,789.5C 386.973,791.392 387.64,793.392 388,795.5C 391.5,796.333 393.667,798.5 394.5,802C 392.527,802.495 390.527,802.662 388.5,802.5C 388.351,803.552 388.517,804.552 389,805.5C 396.708,803.311 398.541,802.978 394.5,804.5C 394.5,805.833 394.5,807.167 394.5,808.5C 398.182,808.335 401.848,808.501 405.5,809C 403.975,810.009 402.308,810.509 400.5,810.5C 400.5,812.5 400.5,814.5 400.5,816.5C 395.905,818.071 391.238,819.404 386.5,820.5C 386.5,821.5 386.5,822.5 386.5,823.5C 380.062,823.587 380.062,824.42 386.5,826C 384.866,826.494 383.199,826.66 381.5,826.5C 381.5,827.5 381.5,828.5 381.5,829.5C 380.07,829.579 378.736,829.246 377.5,828.5C 376.571,829.689 376.238,831.022 376.5,832.5C 374.833,832.5 373.167,832.5 371.5,832.5C 371.374,834.2 370.707,835.7 369.5,837C 369.836,838.03 370.503,838.53 371.5,838.5C 370.081,839.451 368.415,839.784 366.5,839.5C 366.286,841.144 366.62,842.644 367.5,844C 365.527,844.495 363.527,844.662 361.5,844.5C 361.33,845.822 361.663,846.989 362.5,848C 357.805,849.699 352.472,850.533 346.5,850.5C 343.91,850.396 341.577,851.063 339.5,852.5C 336.467,849.847 332.633,849.847 328,852.5C 324.814,851.879 321.648,851.212 318.5,850.5C 316.463,852.77 314.796,852.27 313.5,849C 314.148,847.56 314.481,846.06 314.5,844.5C 313.5,844.5 312.5,844.5 311.5,844.5C 311.785,846.288 311.452,847.955 310.5,849.5C 309.56,846.197 308.727,842.864 308,839.5C 307.751,840.624 307.251,841.624 306.5,842.5C 306.167,842.167 305.833,841.833 305.5,841.5C 306.172,839.84 307.172,838.507 308.5,837.5C 313.167,837.833 317.833,838.167 322.5,838.5C 322.5,837.5 322.5,836.5 322.5,835.5C 329.167,834.833 329.167,834.167 322.5,833.5C 322.5,832.5 322.5,831.5 322.5,830.5C 324.144,830.286 325.644,830.62 327,831.5C 327.49,830.207 327.657,828.873 327.5,827.5C 329.144,827.286 330.644,827.62 332,828.5C 333.426,825.931 333.259,823.764 331.5,822C 333.441,821.257 335.274,821.424 337,822.5C 338.514,820.234 340.681,819.068 343.5,819C 343.167,818.667 342.833,818.333 342.5,818C 346.11,816.797 349.776,815.797 353.5,815C 352.167,814.667 350.833,814.333 349.5,814C 351.441,813.257 353.274,813.424 355,814.5C 355.167,814.167 355.333,813.833 355.5,813.5C 353.955,812.548 352.288,812.215 350.5,812.5C 349.667,810.248 349.667,808.081 350.5,806C 348.557,806.305 346.557,806.305 344.5,806C 345.358,804.43 346.025,802.763 346.5,801C 344.515,798.965 343.348,796.465 343,793.5C 342.408,796.4 340.908,798.233 338.5,799C 339.627,797.247 340.627,795.413 341.5,793.5C 340.726,792.289 339.893,792.289 339,793.5C 338.667,794.833 338.333,796.167 338,797.5C 337.257,795.559 337.424,793.726 338.5,792C 338,791.5 337.5,791 337,790.5C 336.577,791.956 335.744,792.456 334.5,792C 338.318,787.269 336.985,784.269 330.5,783C 331.458,781.853 331.125,780.853 329.5,780C 330.451,779.282 330.617,778.449 330,777.5C 328.333,776.5 326.667,775.5 325,774.5C 324.257,772.559 324.424,770.726 325.5,769C 324.833,768.667 324.167,768.333 323.5,768C 324.357,767.311 325.023,766.478 325.5,765.5C 323.73,764.18 323.397,762.68 324.5,761C 322.953,758.674 321.119,757.507 319,757.5C 318.383,756.551 318.549,755.718 319.5,755C 318.833,754.333 318.167,753.667 317.5,753C 318.458,751.853 318.125,750.853 316.5,750C 317.036,748.256 317.37,746.423 317.5,744.5C 314.971,741.136 312.637,737.636 310.5,734C 310.89,730.375 311.223,726.542 311.5,722.5C 322.5,722.5 333.5,722.5 344.5,722.5 Z"/></g>
<g><path style="opacity:1" fill="#8ef5dc" d="M 642.5,843.5 C 621.513,869.151 600.18,894.485 578.5,919.5C 540.532,899.43 503.032,878.43 466,856.5C 465.617,857.056 465.117,857.389 464.5,857.5C 473.344,824.456 482.344,791.456 491.5,758.5C 492.117,758.389 492.617,758.056 493,757.5C 543.141,785.815 592.974,814.481 642.5,843.5 Z"/></g>
<g><path style="opacity:1" fill="#29cb57" d="M 256.5,827.5 C 258.555,828.948 260.722,830.281 263,831.5C 263.333,830.833 263.667,830.167 264,829.5C 268.199,832.359 272.699,834.192 277.5,835C 275.071,834.549 274.904,833.715 277,832.5C 281.059,834.464 285.226,836.13 289.5,837.5C 290.434,838.568 290.768,839.901 290.5,841.5C 288.669,840.948 287.003,840.948 285.5,841.5C 290.723,842.945 292.556,846.278 291,851.5C 289.989,850.663 288.822,850.33 287.5,850.5C 289.519,869.298 292.185,887.965 295.5,906.5C 279.322,895.329 264.322,882.663 250.5,868.5C 249.183,856.818 247.683,845.151 246,833.5C 244.082,832.458 242.249,831.292 240.5,830C 240.833,829.667 241.167,829.333 241.5,829C 240.385,826.305 239.052,823.805 237.5,821.5C 238.15,821.196 238.817,820.863 239.5,820.5C 242.914,822.957 246.414,825.291 250,827.5C 251.204,826.529 251.704,825.529 251.5,824.5C 253.029,825.763 254.695,826.763 256.5,827.5 Z"/></g>
<g><path style="opacity:1" fill="#10e54d" d="M 449.5,839.5 C 439.665,877.171 429.665,914.838 419.5,952.5C 418.351,952.209 417.684,951.376 417.5,950C 410.423,918.448 405.089,886.615 401.5,854.5C 400.022,854.762 398.689,854.429 397.5,853.5C 399.598,852.55 401.765,852.55 404,853.5C 405.607,853.231 406.774,852.397 407.5,851C 410.5,850.667 413.5,850.333 416.5,850C 417.736,848.915 419.069,848.082 420.5,847.5C 423.444,846.72 426.611,846.72 430,847.5C 430.483,846.552 430.649,845.552 430.5,844.5C 434.22,844.436 437.886,843.936 441.5,843C 443.301,842.683 443.634,842.016 442.5,841C 443.784,840.316 444.951,840.483 446,841.5C 446.71,840.027 447.876,839.36 449.5,839.5 Z"/></g>
<g><path style="opacity:1" fill="#22d254" d="M 308.5,837.5 C 307.172,838.507 306.172,839.84 305.5,841.5C 305.833,841.833 306.167,842.167 306.5,842.5C 307.251,841.624 307.751,840.624 308,839.5C 308.727,842.864 309.56,846.197 310.5,849.5C 311.452,847.955 311.785,846.288 311.5,844.5C 312.5,844.5 313.5,844.5 314.5,844.5C 314.481,846.06 314.148,847.56 313.5,849C 314.796,852.27 316.463,852.77 318.5,850.5C 321.648,851.212 324.814,851.879 328,852.5C 332.633,849.847 336.467,849.847 339.5,852.5C 341.577,851.063 343.91,850.396 346.5,850.5C 348.5,853.651 351.334,855.985 355,857.5C 355.49,858.793 355.657,860.127 355.5,861.5C 351.486,861.334 347.486,861.501 343.5,862C 347.674,890.214 352.341,918.381 357.5,946.5C 335.466,935.103 314.799,921.77 295.5,906.5C 292.185,887.965 289.519,869.298 287.5,850.5C 288.822,850.33 289.989,850.663 291,851.5C 292.556,846.278 290.723,842.945 285.5,841.5C 287.003,840.948 288.669,840.948 290.5,841.5C 290.768,839.901 290.434,838.568 289.5,837.5C 289.5,836.833 289.5,836.167 289.5,835.5C 289.56,834.957 289.893,834.624 290.5,834.5C 294.323,835.941 298.157,837.274 302,838.5C 303.204,837.529 303.704,836.529 303.5,835.5C 305.336,836.028 307.003,836.694 308.5,837.5 Z"/></g>
<g><path style="opacity:1" fill="#15df4e" d="M 414.5,830.5 C 413.181,832.468 413.181,834.468 414.5,836.5C 421.846,838.491 422.179,841.158 415.5,844.5C 417.329,845.282 418.829,844.616 420,842.5C 420.494,844.134 420.66,845.801 420.5,847.5C 419.069,848.082 417.736,848.915 416.5,850C 413.5,850.333 410.5,850.667 407.5,851C 406.774,852.397 405.607,853.231 404,853.5C 401.765,852.55 399.598,852.55 397.5,853.5C 398.689,854.429 400.022,854.762 401.5,854.5C 405.089,886.615 410.423,918.448 417.5,950C 417.684,951.376 418.351,952.209 419.5,952.5C 417.368,958.695 415.701,965.028 414.5,971.5C 404.646,968.996 395.312,965.33 386.5,960.5C 379.341,926.705 373.341,892.705 368.5,858.5C 371.802,857.444 375.135,857.444 378.5,858.5C 381.364,856.207 384.698,854.874 388.5,854.5C 388.649,853.448 388.483,852.448 388,851.5C 386.333,852.5 384.667,853.5 383,854.5C 382.517,853.552 382.351,852.552 382.5,851.5C 378.689,851.404 378.689,850.738 382.5,849.5C 382.145,848.478 381.478,847.811 380.5,847.5C 381.514,846.235 383.014,845.569 385,845.5C 390.747,844.175 396.581,843.341 402.5,843C 401.552,842.517 400.552,842.351 399.5,842.5C 399.5,841.167 399.5,839.833 399.5,838.5C 401.167,838.5 402.833,838.5 404.5,838.5C 404.5,837.167 404.5,835.833 404.5,834.5C 406.167,834.5 407.833,834.5 409.5,834.5C 409.5,833.167 409.5,831.833 409.5,830.5C 411.167,830.5 412.833,830.5 414.5,830.5 Z"/></g>
<g><path style="opacity:1" fill="#84f5dc" d="M 578.5,919.5 C 559.889,943.111 540.556,966.111 520.5,988.5C 494.429,973.108 468.095,958.108 441.5,943.5C 448.853,914.753 456.52,886.087 464.5,857.5C 465.117,857.389 465.617,857.056 466,856.5C 503.032,878.43 540.532,899.43 578.5,919.5 Z"/></g>
<g><path style="opacity:1" fill="#1adb51" d="M 371.5,838.5 C 372.708,839.234 374.041,839.567 375.5,839.5C 375.575,842.206 375.908,844.873 376.5,847.5C 377.833,847.5 379.167,847.5 380.5,847.5C 381.478,847.811 382.145,848.478 382.5,849.5C 378.689,850.738 378.689,851.404 382.5,851.5C 382.351,852.552 382.517,853.552 383,854.5C 384.667,853.5 386.333,852.5 388,851.5C 388.483,852.448 388.649,853.448 388.5,854.5C 384.698,854.874 381.364,856.207 378.5,858.5C 375.135,857.444 371.802,857.444 368.5,858.5C 373.341,892.705 379.341,926.705 386.5,960.5C 376.432,956.632 366.765,951.966 357.5,946.5C 352.341,918.381 347.674,890.214 343.5,862C 347.486,861.501 351.486,861.334 355.5,861.5C 355.657,860.127 355.49,858.793 355,857.5C 351.334,855.985 348.5,853.651 346.5,850.5C 352.472,850.533 357.805,849.699 362.5,848C 361.663,846.989 361.33,845.822 361.5,844.5C 363.527,844.662 365.527,844.495 367.5,844C 366.62,842.644 366.286,841.144 366.5,839.5C 368.415,839.784 370.081,839.451 371.5,838.5 Z"/></g>
<g><path style="opacity:1" fill="#01ad9b" d="M 441.5,943.5 C 468.095,958.108 494.429,973.108 520.5,988.5C 475.901,1042.27 431.068,1095.94 386,1149.5C 403.571,1080.55 422.071,1011.88 441.5,943.5 Z"/></g>
</svg>
