<?xml version="1.0" encoding="UTF-8"?>
<!DOCTYPE svg PUBLIC "-//W3C//DTD SVG 1.1//EN" "http://www.w3.org/Graphics/SVG/1.1/DTD/svg11.dtd">
<svg xmlns="http://www.w3.org/2000/svg" version="1.1" width="1279px" height="1280px" style="shape-rendering:geometricPrecision; text-rendering:geometricPrecision; image-rendering:optimizeQuality; fill-rule:evenodd; clip-rule:evenodd" xmlns:xlink="http://www.w3.org/1999/xlink">
<g><path style="opacity:1" fill="#19999e" d="M 614.5,0.5 C 657.644,-0.824375 700.311,2.17563 742.5,9.5C 742.062,9.43456 741.728,9.60123 741.5,10C 742.832,156.961 744.165,303.794 745.5,450.5C 703.237,478.93 667.737,514.263 639,556.5C 622.438,531.762 603.271,509.095 581.5,488.5C 580.17,327.291 580.17,166.125 581.5,5C 580.5,4.66667 579.5,4.33333 578.5,4C 580.708,3.80912 582.708,3.30912 584.5,2.5C 594.413,1.33854 604.413,0.671874 614.5,0.5 Z"/></g>
<g><path style="opacity:1" fill="#179ba1" d="M 584.5,2.5 C 582.708,3.30912 580.708,3.80912 578.5,4C 579.5,4.33333 580.5,4.66667 581.5,5C 580.17,166.125 580.17,327.291 581.5,488.5C 538.032,446.935 486.366,421.601 426.5,412.5C 425.504,287.54 425.17,162.54 425.5,37.5C 476.73,18.5839 529.73,6.91728 584.5,2.5 Z"/></g>
<g><path style="opacity:1" fill="#19979c" d="M 742.5,9.5 C 755.083,10.6836 767.416,13.0169 779.5,16.5C 780.498,155.068 780.832,293.402 780.5,431.5C 768.74,437.549 757.073,443.882 745.5,450.5C 744.165,303.794 742.832,156.961 741.5,10C 741.728,9.60123 742.062,9.43456 742.5,9.5 Z"/></g>
<g><path style="opacity:1" fill="#18959b" d="M 779.5,16.5 C 801.357,20.9616 822.69,26.9616 843.5,34.5C 841.502,160.162 840.835,286.162 841.5,412.5C 843.167,412.5 844.833,412.5 846.5,412.5C 823.87,416.472 801.87,422.806 780.5,431.5C 780.832,293.402 780.498,155.068 779.5,16.5 Z"/></g>
<g><path style="opacity:1" fill="#159398" d="M 843.5,34.5 C 894.485,50.8671 942.152,73.8671 986.5,103.5C 984.831,212.565 983.831,321.899 983.5,431.5C 955.405,419.483 926.071,412.816 895.5,411.5C 890.177,410.834 884.677,410.501 879,410.5C 870.94,410.307 863.107,410.973 855.5,412.5C 852.5,412.5 849.5,412.5 846.5,412.5C 844.833,412.5 843.167,412.5 841.5,412.5C 840.835,286.162 841.502,160.162 843.5,34.5 Z"/></g>
<g><path style="opacity:1" fill="#119ba1" d="M 425.5,37.5 C 425.17,162.54 425.504,287.54 426.5,412.5C 376.454,406.563 328.787,414.563 283.5,436.5C 284.165,327.495 283.498,218.828 281.5,110.5C 325.812,79.3428 373.812,55.0095 425.5,37.5 Z"/></g>
<g><path style="opacity:1" fill="#119196" d="M 986.5,103.5 C 1001.39,112.721 1015.72,122.721 1029.5,133.5C 1028.5,241.763 1028.17,350.096 1028.5,458.5C 1014.29,448.228 999.293,439.228 983.5,431.5C 983.831,321.899 984.831,212.565 986.5,103.5 Z"/></g>
<g><path style="opacity:1" fill="#0a9aa0" d="M 281.5,110.5 C 283.498,218.828 284.165,327.495 283.5,436.5C 256.031,451.753 231.698,471.087 210.5,494.5C 210.661,385.707 210.494,276.707 210,167.5C 208.549,169.464 206.716,170.797 204.5,171.5C 228.147,148.509 253.814,128.175 281.5,110.5 Z"/></g>
<g><path style="opacity:0.506" fill="#77c2c4" d="M 614.5,0.5 C 614.5,0.166667 614.5,-0.166667 614.5,-0.5C 637.167,-0.5 659.833,-0.5 682.5,-0.5C 850.389,13.4705 992.222,81.1372 1108,202.5C 1114.11,208.768 1119.61,215.435 1124.5,222.5C 1116.5,214.167 1108.5,205.833 1100.5,197.5C 1078.57,174.07 1054.91,152.737 1029.5,133.5C 1015.72,122.721 1001.39,112.721 986.5,103.5C 942.152,73.8671 894.485,50.8671 843.5,34.5C 822.69,26.9616 801.357,20.9616 779.5,16.5C 767.416,13.0169 755.083,10.6836 742.5,9.5C 700.311,2.17563 657.644,-0.824375 614.5,0.5 Z"/></g>
<g><path style="opacity:1" fill="#0e9094" d="M 1029.5,133.5 C 1054.91,152.737 1078.57,174.07 1100.5,197.5C 1098.83,311.565 1097.83,425.899 1097.5,540.5C 1080.62,508.111 1057.62,480.777 1028.5,458.5C 1028.17,350.096 1028.5,241.763 1029.5,133.5 Z"/></g>
<g><path style="opacity:1" fill="#01979d" d="M 210.5,494.5 C 157.701,561.352 144.868,635.352 172,716.5C 181.351,741.555 194.517,764.222 211.5,784.5C 211.082,785.222 210.416,785.722 209.5,786C 210.833,894.598 210.833,1003.1 209.5,1111.5C 195.171,1098.84 181.504,1085.5 168.5,1071.5C 66.6428,958.381 10.8094,825.381 1,672.5C -5.35961,496.212 49.3071,342.212 165,210.5C 177.37,196.629 190.537,183.629 204.5,171.5C 206.716,170.797 208.549,169.464 210,167.5C 210.494,276.707 210.661,385.707 210.5,494.5 Z"/></g>
<g><path style="opacity:1" fill="#0a8e93" d="M 1100.5,197.5 C 1108.5,205.833 1116.5,214.167 1124.5,222.5C 1127.46,227.399 1131.12,231.732 1135.5,235.5C 1137.59,236.585 1138.92,238.251 1139.5,240.5C 1141.11,244.051 1143.44,247.051 1146.5,249.5C 1158.31,263.107 1168.64,277.773 1177.5,293.5C 1180.01,300.19 1183.35,306.523 1187.5,312.5C 1186.17,530 1186.17,747.667 1187.5,965.5C 1190.33,961.167 1193.17,956.833 1196,952.5C 1196.46,953.094 1196.63,953.761 1196.5,954.5C 1170.2,1001.14 1138.53,1043.8 1101.5,1082.5C 1101.61,1080.35 1100.94,1080.02 1099.5,1081.5C 1098.83,966.795 1098.16,852.128 1097.5,737.5C 1108.55,713.293 1115.55,687.96 1118.5,661.5C 1119.96,655.566 1120.63,649.399 1120.5,643C 1120.5,638.985 1120.17,635.151 1119.5,631.5C 1118.29,599.664 1110.96,569.33 1097.5,540.5C 1097.83,425.899 1098.83,311.565 1100.5,197.5 Z"/></g>
<g><path style="opacity:0.78" fill="#79c2c4" d="M 1124.5,222.5 C 1128.88,226.268 1132.54,230.601 1135.5,235.5C 1131.12,231.732 1127.46,227.399 1124.5,222.5 Z"/></g>
<g><path style="opacity:0.773" fill="#72bec0" d="M 1139.5,240.5 C 1142.56,242.949 1144.89,245.949 1146.5,249.5C 1143.44,247.051 1141.11,244.051 1139.5,240.5 Z"/></g>
<g><path style="opacity:1" fill="#058d91" d="M 1187.5,312.5 C 1194.83,324.484 1201.66,336.818 1208,349.5C 1208.76,351.063 1209.93,352.063 1211.5,352.5C 1211.84,356.836 1213.5,360.503 1216.5,363.5C 1228.31,391.286 1239.31,419.286 1249.5,447.5C 1251.94,452.5 1253.61,457.834 1254.5,463.5C 1254.34,466.187 1254.5,468.854 1255,471.5C 1258,480.515 1260.83,489.515 1263.5,498.5C 1263.5,498.833 1263.5,499.167 1263.5,499.5C 1267.73,524.418 1271.56,549.418 1275,574.5C 1279.18,624.633 1278.01,674.633 1271.5,724.5C 1271.34,726.355 1272.01,727.688 1273.5,728.5C 1271.24,744.422 1268.24,760.089 1264.5,775.5C 1264.19,774.262 1263.69,774.262 1263,775.5C 1258.58,794.381 1253.41,813.048 1247.5,831.5C 1247.96,832.298 1248.62,832.631 1249.5,832.5C 1236.19,875.122 1218.52,915.789 1196.5,954.5C 1196.63,953.761 1196.46,953.094 1196,952.5C 1193.17,956.833 1190.33,961.167 1187.5,965.5C 1186.17,747.667 1186.17,530 1187.5,312.5 Z"/></g>
<g><path style="opacity:0.945" fill="#57b0b2" d="M 1177.5,293.5 C 1190.42,312.129 1201.76,331.795 1211.5,352.5C 1209.93,352.063 1208.76,351.063 1208,349.5C 1201.66,336.818 1194.83,324.484 1187.5,312.5C 1183.35,306.523 1180.01,300.19 1177.5,293.5 Z"/></g>
<g><path style="opacity:0.863" fill="#6dbbbd" d="M 1211.5,352.5 C 1213.95,355.74 1215.62,359.407 1216.5,363.5C 1213.5,360.503 1211.84,356.836 1211.5,352.5 Z"/></g>
<g><path style="opacity:0.976" fill="#5fb4b6" d="M 1216.5,363.5 C 1230.25,390.34 1241.25,418.34 1249.5,447.5C 1239.31,419.286 1228.31,391.286 1216.5,363.5 Z"/></g>
<g><path style="opacity:1" fill="#c0e2e3" d="M 895.5,411.5 C 882.149,411.334 868.815,411.667 855.5,412.5C 863.107,410.973 870.94,410.307 879,410.5C 884.677,410.501 890.177,410.834 895.5,411.5 Z"/></g>
<g><path style="opacity:1" fill="#fefefe" d="M 426.5,412.5 C 486.366,421.601 538.032,446.935 581.5,488.5C 603.271,509.095 622.438,531.762 639,556.5C 667.737,514.263 703.237,478.93 745.5,450.5C 757.073,443.882 768.74,437.549 780.5,431.5C 801.87,422.806 823.87,416.472 846.5,412.5C 849.5,412.5 852.5,412.5 855.5,412.5C 868.815,411.667 882.149,411.334 895.5,411.5C 926.071,412.816 955.405,419.483 983.5,431.5C 999.293,439.228 1014.29,448.228 1028.5,458.5C 1057.62,480.777 1080.62,508.111 1097.5,540.5C 1110.96,569.33 1118.29,599.664 1119.5,631.5C 1119.59,641.518 1119.26,651.518 1118.5,661.5C 1115.55,687.96 1108.55,713.293 1097.5,737.5C 1071.92,786.748 1033.92,823.082 983.5,846.5C 931.783,868.194 878.45,873.194 823.5,861.5C 795.663,853.75 769.329,842.417 744.5,827.5C 715.151,807.999 688.985,784.665 666,757.5C 656.975,745.814 647.975,734.147 639,722.5C 622.165,745.795 603.665,767.795 583.5,788.5C 562.994,807.096 540.661,823.263 516.5,837C 491.426,849.858 465.092,859.024 437.5,864.5C 384.44,873.111 333.773,865.777 285.5,842.5C 257.167,827.982 232.501,808.648 211.5,784.5C 194.517,764.222 181.351,741.555 172,716.5C 144.868,635.352 157.701,561.352 210.5,494.5C 231.698,471.087 256.031,451.753 283.5,436.5C 328.787,414.563 376.454,406.563 426.5,412.5 Z"/></g>
<g><path style="opacity:0.514" fill="#53aeb0" d="M 1254.5,463.5 C 1258.26,474.866 1261.26,486.533 1263.5,498.5C 1260.83,489.515 1258,480.515 1255,471.5C 1254.5,468.854 1254.34,466.187 1254.5,463.5 Z"/></g>
<g><path style="opacity:1" fill="#119ba1" d="M 429.5,495.5 C 428.167,495.5 426.833,495.5 425.5,495.5C 425.5,535.5 425.5,575.5 425.5,615.5C 427.415,615.216 429.081,615.549 430.5,616.5C 396.833,616.5 363.167,616.5 329.5,616.5C 329.5,631.833 329.5,647.167 329.5,662.5C 376.665,663.333 423.998,663.833 471.5,664C 456.17,664.5 440.837,664.667 425.5,664.5C 425.5,704.167 425.5,743.833 425.5,783.5C 422.781,784.913 419.781,785.58 416.5,785.5C 405.518,786.286 394.518,786.619 383.5,786.5C 327.138,781.588 284.638,754.921 256,706.5C 225.343,639.597 236.509,580.763 289.5,530C 330.695,496.201 377.362,484.701 429.5,495.5 Z"/></g>
<g><path style="opacity:1" fill="#169399" d="M 985.5,528.5 C 984.167,602.167 984.167,675.833 985.5,749.5C 962.764,768.86 936.43,780.693 906.5,785C 874.485,789.613 843.818,785.446 814.5,772.5C 813.472,771.213 813.805,770.046 815.5,769C 814.425,734.516 814.425,699.683 815.5,664.5C 820.457,663.345 832.79,663.012 852.5,663.5C 852.5,679.5 852.5,695.5 852.5,711.5C 868.009,711.83 883.342,711.496 898.5,710.5C 899.496,695.009 899.83,679.342 899.5,663.5C 915.342,663.83 931.009,663.496 946.5,662.5C 947.496,647.342 947.83,632.009 947.5,616.5C 931.5,616.5 915.5,616.5 899.5,616.5C 899.83,600.325 899.496,584.325 898.5,568.5C 883.167,568.5 867.833,568.5 852.5,568.5C 852.5,584.5 852.5,600.5 852.5,616.5C 836.5,616.5 820.5,616.5 804.5,616.5C 807.962,615.518 811.629,615.185 815.5,615.5C 815.102,578.29 815.102,541.623 815.5,505.5C 869.83,483.337 922.164,487.504 972.5,518C 977.269,521.04 981.603,524.54 985.5,528.5 Z"/></g>
<g><path style="opacity:1" fill="#189ba1" d="M 429.5,495.5 C 462.827,502.663 492.16,517.496 517.5,540C 549.337,568.15 574.671,601.15 593.5,639C 569.96,685.884 536.96,724.884 494.5,756C 473.487,770.174 450.487,779.341 425.5,783.5C 425.5,743.833 425.5,704.167 425.5,664.5C 440.837,664.667 456.17,664.5 471.5,664C 423.998,663.833 376.665,663.333 329.5,662.5C 329.833,662.5 330.167,662.5 330.5,662.5C 377.5,662.5 424.5,662.5 471.5,662.5C 472.496,647.342 472.83,632.009 472.5,616.5C 458.5,616.5 444.5,616.5 430.5,616.5C 429.081,615.549 427.415,615.216 425.5,615.5C 425.5,575.5 425.5,535.5 425.5,495.5C 426.833,495.5 428.167,495.5 429.5,495.5 Z"/></g>
<g><path style="opacity:1" fill="#139196" d="M 985.5,528.5 C 1030.33,566.49 1046.83,614.49 1035,672.5C 1027.02,703.824 1010.52,729.491 985.5,749.5C 984.167,675.833 984.167,602.167 985.5,528.5 Z"/></g>
<g><path style="opacity:1" fill="#1a979c" d="M 815.5,505.5 C 815.102,541.623 815.102,578.29 815.5,615.5C 811.629,615.185 807.962,615.518 804.5,616.5C 804.17,632.009 804.504,647.342 805.5,662.5C 821.167,662.5 836.833,662.5 852.5,662.5C 852.5,662.833 852.5,663.167 852.5,663.5C 832.79,663.012 820.457,663.345 815.5,664.5C 814.425,699.683 814.425,734.516 815.5,769C 813.805,770.046 813.472,771.213 814.5,772.5C 783.95,758.472 757.45,738.805 735,713.5C 715.2,690.865 698.367,666.199 684.5,639.5C 709.672,587.492 746.672,545.992 795.5,515C 802.067,511.549 808.734,508.382 815.5,505.5 Z"/></g>
<g><path style="opacity:1" fill="#bee1e2" d="M 898.5,568.5 C 898.5,568.833 898.5,569.167 898.5,569.5C 883.5,569.5 868.5,569.5 853.5,569.5C 853.83,585.342 853.496,601.009 852.5,616.5C 852.5,600.5 852.5,584.5 852.5,568.5C 867.833,568.5 883.167,568.5 898.5,568.5 Z"/></g>
<g><path style="opacity:1" fill="#fefefe" d="M 898.5,569.5 C 898.5,585.5 898.5,601.5 898.5,617.5C 914.5,617.5 930.5,617.5 946.5,617.5C 946.5,632.5 946.5,647.5 946.5,662.5C 930.5,662.5 914.5,662.5 898.5,662.5C 898.5,678.5 898.5,694.5 898.5,710.5C 883.5,710.5 868.5,710.5 853.5,710.5C 853.83,694.325 853.496,678.325 852.5,662.5C 836.833,662.5 821.167,662.5 805.5,662.5C 805.5,647.5 805.5,632.5 805.5,617.5C 821.342,617.83 837.009,617.496 852.5,616.5C 853.496,601.009 853.83,585.342 853.5,569.5C 868.5,569.5 883.5,569.5 898.5,569.5 Z"/></g>
<g><path style="opacity:1" fill="#a7dadc" d="M 430.5,616.5 C 444.5,616.5 458.5,616.5 472.5,616.5C 472.83,632.009 472.496,647.342 471.5,662.5C 471.5,647.5 471.5,632.5 471.5,617.5C 424.5,617.5 377.5,617.5 330.5,617.5C 330.5,632.5 330.5,647.5 330.5,662.5C 330.167,662.5 329.833,662.5 329.5,662.5C 329.5,647.167 329.5,631.833 329.5,616.5C 363.167,616.5 396.833,616.5 430.5,616.5 Z"/></g>
<g><path style="opacity:1" fill="#fefefe" d="M 471.5,662.5 C 424.5,662.5 377.5,662.5 330.5,662.5C 330.5,647.5 330.5,632.5 330.5,617.5C 377.5,617.5 424.5,617.5 471.5,617.5C 471.5,632.5 471.5,647.5 471.5,662.5 Z"/></g>
<g><path style="opacity:1" fill="#c0e2e4" d="M 804.5,616.5 C 820.5,616.5 836.5,616.5 852.5,616.5C 837.009,617.496 821.342,617.83 805.5,617.5C 805.5,632.5 805.5,647.5 805.5,662.5C 804.504,647.342 804.17,632.009 804.5,616.5 Z"/></g>
<g><path style="opacity:1" fill="#84c6c8" d="M 898.5,568.5 C 899.496,584.325 899.83,600.325 899.5,616.5C 915.5,616.5 931.5,616.5 947.5,616.5C 947.83,632.009 947.496,647.342 946.5,662.5C 946.5,647.5 946.5,632.5 946.5,617.5C 930.5,617.5 914.5,617.5 898.5,617.5C 898.5,601.5 898.5,585.5 898.5,569.5C 898.5,569.167 898.5,568.833 898.5,568.5 Z"/></g>
<g><path style="opacity:1" fill="#56afb2" d="M 1119.5,631.5 C 1120.17,635.151 1120.5,638.985 1120.5,643C 1120.63,649.399 1119.96,655.566 1118.5,661.5C 1119.26,651.518 1119.59,641.518 1119.5,631.5 Z"/></g>
<g><path style="opacity:1" fill="#5db4b8" d="M 946.5,662.5 C 931.009,663.496 915.342,663.83 899.5,663.5C 899.83,679.342 899.496,695.009 898.5,710.5C 898.5,694.5 898.5,678.5 898.5,662.5C 914.5,662.5 930.5,662.5 946.5,662.5 Z"/></g>
<g><path style="opacity:0.724" fill="#3fa5a7" d="M 1263.5,499.5 C 1270.92,531.132 1275.92,563.132 1278.5,595.5C 1278.5,624.833 1278.5,654.167 1278.5,683.5C 1276.91,698.365 1275.25,713.365 1273.5,728.5C 1272.01,727.688 1271.34,726.355 1271.5,724.5C 1278.01,674.633 1279.18,624.633 1275,574.5C 1271.56,549.418 1267.73,524.418 1263.5,499.5 Z"/></g>
<g><path style="opacity:1" fill="#94cdd0" d="M 852.5,662.5 C 853.496,678.325 853.83,694.325 853.5,710.5C 868.5,710.5 883.5,710.5 898.5,710.5C 883.342,711.496 868.009,711.83 852.5,711.5C 852.5,695.5 852.5,679.5 852.5,663.5C 852.5,663.167 852.5,662.833 852.5,662.5 Z"/></g>
<g><path style="opacity:1" fill="#19999e" d="M 744.5,827.5 C 743.833,974.236 743.166,1121.07 742.5,1268C 743.448,1268.48 744.448,1268.65 745.5,1268.5C 727.154,1272.29 708.487,1274.79 689.5,1276C 663.517,1277.29 637.517,1277.79 611.5,1277.5C 602.415,1277.27 593.415,1276.61 584.5,1275.5C 583.713,1273.9 582.38,1273.23 580.5,1273.5C 580.333,1112.83 580.5,952.166 581,791.5C 582.045,790.627 582.878,789.627 583.5,788.5C 603.665,767.795 622.165,745.795 639,722.5C 647.975,734.147 656.975,745.814 666,757.5C 688.985,784.665 715.151,807.999 744.5,827.5 Z"/></g>
<g><path style="opacity:0.145" fill="#7dc6c9" d="M 595.5,-0.5 C 601.833,-0.5 608.167,-0.5 614.5,-0.5C 614.5,-0.166667 614.5,0.166667 614.5,0.5C 604.413,0.671874 594.413,1.33854 584.5,2.5C 529.73,6.91728 476.73,18.5839 425.5,37.5C 373.812,55.0095 325.812,79.3428 281.5,110.5C 253.814,128.175 228.147,148.509 204.5,171.5C 190.537,183.629 177.37,196.629 165,210.5C 49.3071,342.212 -5.35961,496.212 1,672.5C 10.8094,825.381 66.6428,958.381 168.5,1071.5C 168.5,1072.17 168.5,1072.83 168.5,1073.5C 67.7394,962.92 11.4061,832.586 -0.5,682.5C -0.5,653.5 -0.5,624.5 -0.5,595.5C 16.9991,400.726 102.666,243.893 256.5,125C 357.371,51.0907 470.371,9.25741 595.5,-0.5 Z"/></g>
<g><path style="opacity:1" fill="#0a9aa0" d="M 211.5,784.5 C 232.501,808.648 257.167,827.982 285.5,842.5C 283.672,950.956 282.838,1059.62 283,1168.5C 282.329,1167.75 281.496,1167.41 280.5,1167.5C 255.104,1151.11 231.437,1132.45 209.5,1111.5C 210.833,1003.1 210.833,894.598 209.5,786C 210.416,785.722 211.082,785.222 211.5,784.5 Z"/></g>
<g><path style="opacity:1" fill="#cde9eb" d="M 416.5,785.5 C 410.064,786.987 403.398,787.654 396.5,787.5C 391.987,787.499 387.653,787.166 383.5,786.5C 394.518,786.619 405.518,786.286 416.5,785.5 Z"/></g>
<g><path style="opacity:1" fill="#179ba1" d="M 583.5,788.5 C 582.878,789.627 582.045,790.627 581,791.5C 580.5,952.166 580.333,1112.83 580.5,1273.5C 582.38,1273.23 583.713,1273.9 584.5,1275.5C 529.774,1271.56 476.774,1260.22 425.5,1241.5C 425.495,1116.71 425.495,991.707 425.5,866.5C 429.733,866.461 433.733,865.795 437.5,864.5C 465.092,859.024 491.426,849.858 516.5,837C 540.661,823.263 562.994,807.096 583.5,788.5 Z"/></g>
<g><path style="opacity:0.141" fill="#339da0" d="M 1264.5,775.5 C 1260.9,794.893 1255.9,813.893 1249.5,832.5C 1248.62,832.631 1247.96,832.298 1247.5,831.5C 1253.41,813.048 1258.58,794.381 1263,775.5C 1263.69,774.262 1264.19,774.262 1264.5,775.5 Z"/></g>
<g><path style="opacity:1" fill="#119195" d="M 1097.5,737.5 C 1098.16,852.128 1098.83,966.795 1099.5,1081.5C 1100.94,1080.02 1101.61,1080.35 1101.5,1082.5C 1082.06,1102.94 1061.39,1121.94 1039.5,1139.5C 1039.48,1137.97 1038.82,1137.47 1037.5,1138C 1020.85,1151.49 1003.51,1163.99 985.5,1175.5C 985.164,1066.29 984.164,957.124 982.5,848C 983.056,847.617 983.389,847.117 983.5,846.5C 1033.92,823.082 1071.92,786.748 1097.5,737.5 Z"/></g>
<g><path style="opacity:1" fill="#119ba1" d="M 285.5,842.5 C 333.773,865.777 384.44,873.111 437.5,864.5C 433.733,865.795 429.733,866.461 425.5,866.5C 425.495,991.707 425.495,1116.71 425.5,1241.5C 402.502,1233.49 380.169,1224.16 358.5,1213.5C 331.174,1200.18 305.174,1184.85 280.5,1167.5C 281.496,1167.41 282.329,1167.75 283,1168.5C 282.838,1059.62 283.672,950.956 285.5,842.5 Z"/></g>
<g><path style="opacity:1" fill="#18969b" d="M 744.5,827.5 C 769.329,842.417 795.663,853.75 823.5,861.5C 823.062,861.435 822.728,861.601 822.5,862C 822.832,991.434 823.832,1120.6 825.5,1249.5C 815.219,1252.99 804.886,1256.32 794.5,1259.5C 778.209,1262.71 761.876,1265.71 745.5,1268.5C 744.448,1268.65 743.448,1268.48 742.5,1268C 743.166,1121.07 743.833,974.236 744.5,827.5 Z"/></g>
<g><path style="opacity:1" fill="#159398" d="M 983.5,846.5 C 983.389,847.117 983.056,847.617 982.5,848C 984.164,957.124 985.164,1066.29 985.5,1175.5C 936.042,1208.22 882.709,1232.89 825.5,1249.5C 823.832,1120.6 822.832,991.434 822.5,862C 822.728,861.601 823.062,861.435 823.5,861.5C 878.45,873.194 931.783,868.194 983.5,846.5 Z"/></g>
<g><path style="opacity:0.231" fill="#8fc7ca" d="M 168.5,1071.5 C 181.504,1085.5 195.171,1098.84 209.5,1111.5C 231.437,1132.45 255.104,1151.11 280.5,1167.5C 305.174,1184.85 331.174,1200.18 358.5,1213.5C 358.833,1214.17 359.167,1214.83 359.5,1215.5C 286.754,1180.43 223.088,1133.09 168.5,1073.5C 168.5,1072.83 168.5,1072.17 168.5,1071.5 Z"/></g>
<g><path style="opacity:0.6" fill="#4b9b9f" d="M 1039.5,1139.5 C 966.661,1198.42 884.328,1239.08 792.5,1261.5C 793.167,1260.83 793.833,1260.17 794.5,1259.5C 804.886,1256.32 815.219,1252.99 825.5,1249.5C 882.709,1232.89 936.042,1208.22 985.5,1175.5C 1003.51,1163.99 1020.85,1151.49 1037.5,1138C 1038.82,1137.47 1039.48,1137.97 1039.5,1139.5 Z"/></g>
<g><path style="opacity:0.599" fill="#5fa7aa" d="M 794.5,1259.5 C 793.833,1260.17 793.167,1260.83 792.5,1261.5C 754.914,1270.77 716.914,1276.77 678.5,1279.5C 672.5,1279.5 666.5,1279.5 660.5,1279.5C 644.167,1278.83 627.833,1278.17 611.5,1277.5C 637.517,1277.79 663.517,1277.29 689.5,1276C 708.487,1274.79 727.154,1272.29 745.5,1268.5C 761.876,1265.71 778.209,1262.71 794.5,1259.5 Z"/></g>
<g><path style="opacity:0.306" fill="#7cb5b8" d="M 358.5,1213.5 C 380.169,1224.16 402.502,1233.49 425.5,1241.5C 476.774,1260.22 529.774,1271.56 584.5,1275.5C 593.415,1276.61 602.415,1277.27 611.5,1277.5C 627.833,1278.17 644.167,1278.83 660.5,1279.5C 640.833,1279.5 621.167,1279.5 601.5,1279.5C 516.551,1274.29 435.884,1252.96 359.5,1215.5C 359.167,1214.83 358.833,1214.17 358.5,1213.5 Z"/></g>
</svg>
