<?xml version="1.0" encoding="UTF-8"?>
<!DOCTYPE svg PUBLIC "-//W3C//DTD SVG 1.1//EN" "http://www.w3.org/Graphics/SVG/1.1/DTD/svg11.dtd">
<svg xmlns="http://www.w3.org/2000/svg" version="1.1" width="600px" height="315px" style="shape-rendering:geometricPrecision; text-rendering:geometricPrecision; image-rendering:optimizeQuality; fill-rule:evenodd; clip-rule:evenodd" xmlns:xlink="http://www.w3.org/1999/xlink">
<g><path style="opacity:0.995" fill="#fef7f1" d="M 171.5,28.5 C 256.833,28.5 342.167,28.5 427.5,28.5C 427.5,113.833 427.5,199.167 427.5,284.5C 342.167,284.5 256.833,284.5 171.5,284.5C 171.5,199.167 171.5,113.833 171.5,28.5 Z"/></g>
<g><path style="opacity:1" fill="#f9dcbe" d="M 243.5,38.5 C 247.312,39.3238 251.312,39.8238 255.5,40C 259.037,43.3691 262.371,46.8691 265.5,50.5C 261.702,51.4834 257.702,51.8168 253.5,51.5C 250.552,51.2229 247.719,51.5562 245,52.5C 244.5,66.8295 244.333,81.1628 244.5,95.5C 225.701,77.2017 207.035,58.7017 188.5,40C 186.527,39.5045 184.527,39.3379 182.5,39.5C 182.823,45.69 182.49,51.69 181.5,57.5C 181.5,51.1667 181.5,44.8333 181.5,38.5C 202.167,38.5 222.833,38.5 243.5,38.5 Z"/></g>
<g><path style="opacity:1" fill="#f9e0c7" d="M 243.5,38.5 C 259.833,38.5 276.167,38.5 292.5,38.5C 296.647,39.3247 300.981,39.8247 305.5,40C 309.632,45.3397 314.632,49.1731 320.5,51.5C 318.167,51.5 315.833,51.5 313.5,51.5C 303.249,50.525 292.915,50.1917 282.5,50.5C 281.5,50.5 280.5,50.5 279.5,50.5C 274.833,50.5 270.167,50.5 265.5,50.5C 262.371,46.8691 259.037,43.3691 255.5,40C 251.312,39.8238 247.312,39.3238 243.5,38.5 Z"/></g>
<g><path style="opacity:1" fill="#fbe6d1" d="M 292.5,38.5 C 304.833,38.5 317.167,38.5 329.5,38.5C 333.647,39.3247 337.981,39.8247 342.5,40C 367.368,65.0349 392.368,89.8682 417.5,114.5C 417.5,126.833 417.5,139.167 417.5,151.5C 397.535,132.035 377.701,112.368 358,92.5C 357.814,89.9644 357.314,87.631 356.5,85.5C 356.094,77.3988 354.928,69.3988 353,61.5C 346.383,56.3498 338.883,53.6831 330.5,53.5C 327.344,52.5661 324.011,51.8994 320.5,51.5C 314.632,49.1731 309.632,45.3397 305.5,40C 300.981,39.8247 296.647,39.3247 292.5,38.5 Z"/></g>
<g><path style="opacity:1" fill="#fcead8" d="M 329.5,38.5 C 358.833,38.5 388.167,38.5 417.5,38.5C 417.5,63.8333 417.5,89.1667 417.5,114.5C 392.368,89.8682 367.368,65.0349 342.5,40C 337.981,39.8247 333.647,39.3247 329.5,38.5 Z"/></g>
<g><path style="opacity:1" fill="#b87635" d="M 279.5,50.5 C 280.5,50.5 281.5,50.5 282.5,50.5C 284.06,52.9535 285.06,55.6202 285.5,58.5C 287.548,58.1596 288.548,58.4929 288.5,59.5C 279.161,58.1103 269.828,56.6103 260.5,55C 266.362,54.8358 272.195,55.3358 278,56.5C 279.167,56.1667 280.333,55.8333 281.5,55.5C 280.544,53.9246 279.877,52.258 279.5,50.5 Z"/></g>
<g><path style="opacity:1" fill="#b96b20" d="M 282.5,50.5 C 292.915,50.1917 303.249,50.525 313.5,51.5C 314.81,56.2883 316.81,60.7883 319.5,65C 316.843,65.1747 314.176,65.0081 311.5,64.5C 307.671,62.2017 303.671,61.5351 299.5,62.5C 295.767,61.3874 292.1,60.3874 288.5,59.5C 288.548,58.4929 287.548,58.1596 285.5,58.5C 285.06,55.6202 284.06,52.9535 282.5,50.5 Z"/></g>
<g><path style="opacity:1" fill="#ca7726" d="M 313.5,51.5 C 315.833,51.5 318.167,51.5 320.5,51.5C 324.011,51.8994 327.344,52.5661 330.5,53.5C 329.957,53.56 329.624,53.8933 329.5,54.5C 333.013,60.52 335.68,66.8533 337.5,73.5C 328.748,70.4726 320.081,67.4726 311.5,64.5C 314.176,65.0081 316.843,65.1747 319.5,65C 316.81,60.7883 314.81,56.2883 313.5,51.5 Z"/></g>
<g><path style="opacity:1" fill="#bf8651" d="M 253.5,51.5 C 253.167,52.1667 252.833,52.8333 252.5,53.5C 250.265,53.2053 248.265,53.5386 246.5,54.5C 245.507,63.3178 245.173,72.3178 245.5,81.5C 245.5,89.1667 245.5,96.8333 245.5,104.5C 245.167,104.5 244.833,104.5 244.5,104.5C 244.5,101.5 244.5,98.5 244.5,95.5C 244.333,81.1628 244.5,66.8295 245,52.5C 247.719,51.5562 250.552,51.2229 253.5,51.5 Z"/></g>
<g><path style="opacity:1" fill="#d67d27" d="M 330.5,53.5 C 338.883,53.6831 346.383,56.3498 353,61.5C 354.928,69.3988 356.094,77.3988 356.5,85.5C 356.5,86.1667 356.5,86.8333 356.5,87.5C 351.094,81.6249 344.761,76.9582 337.5,73.5C 335.68,66.8533 333.013,60.52 329.5,54.5C 329.624,53.8933 329.957,53.56 330.5,53.5 Z"/></g>
<g><path style="opacity:1" fill="#f9d8b7" d="M 244.5,95.5 C 244.5,98.5 244.5,101.5 244.5,104.5C 244.666,113.839 244.5,123.173 244,132.5C 223.667,112.167 203.333,91.8333 183,71.5C 182.829,79.6772 182.329,87.6772 181.5,95.5C 181.5,82.8333 181.5,70.1667 181.5,57.5C 182.49,51.69 182.823,45.69 182.5,39.5C 184.527,39.3379 186.527,39.5045 188.5,40C 207.035,58.7017 225.701,77.2017 244.5,95.5 Z"/></g>
<g><path style="opacity:1" fill="#a05a1a" d="M 265.5,50.5 C 270.167,50.5 274.833,50.5 279.5,50.5C 279.877,52.258 280.544,53.9246 281.5,55.5C 280.333,55.8333 279.167,56.1667 278,56.5C 272.195,55.3358 266.362,54.8358 260.5,55C 269.828,56.6103 279.161,58.1103 288.5,59.5C 292.1,60.3874 295.767,61.3874 299.5,62.5C 303.476,63.2952 307.476,63.9619 311.5,64.5C 320.081,67.4726 328.748,70.4726 337.5,73.5C 344.761,76.9582 351.094,81.6249 356.5,87.5C 356.5,88.8333 356.5,90.1667 356.5,91.5C 354.5,91.8333 352.5,92.1667 350.5,92.5C 317.716,79.734 284.716,67.234 251.5,55C 254.167,54.6667 256.833,54.3333 259.5,54C 257.19,53.5034 254.857,53.3367 252.5,53.5C 252.833,52.8333 253.167,52.1667 253.5,51.5C 257.702,51.8168 261.702,51.4834 265.5,50.5 Z"/></g>
<g><path style="opacity:1" fill="#aa611c" d="M 252.5,53.5 C 254.857,53.3367 257.19,53.5034 259.5,54C 256.833,54.3333 254.167,54.6667 251.5,55C 284.716,67.234 317.716,79.734 350.5,92.5C 347.272,93.4137 343.939,93.7471 340.5,93.5C 336.833,93.5 333.167,93.5 329.5,93.5C 305.186,83.7266 280.519,74.7266 255.5,66.5C 252.025,62.8962 249.025,58.8962 246.5,54.5C 248.265,53.5386 250.265,53.2053 252.5,53.5 Z"/></g>
<g><path style="opacity:1" fill="#dba15d" d="M 299.5,62.5 C 303.671,61.5351 307.671,62.2017 311.5,64.5C 307.476,63.9619 303.476,63.2952 299.5,62.5 Z"/></g>
<g><path style="opacity:1" fill="#b3661e" d="M 255.5,66.5 C 280.519,74.7266 305.186,83.7266 329.5,93.5C 318.833,93.5 308.167,93.5 297.5,93.5C 287.108,90.3134 276.774,86.8134 266.5,83C 264.65,82.3103 263.316,81.1436 262.5,79.5C 259.916,75.3338 257.583,71.0004 255.5,66.5 Z"/></g>
<g><path style="opacity:1" fill="#9e591c" d="M 246.5,54.5 C 249.025,58.8962 252.025,62.8962 255.5,66.5C 257.583,71.0004 259.916,75.3338 262.5,79.5C 262.402,81.5529 263.069,83.2196 264.5,84.5C 265.5,88.5 266.5,92.5 267.5,96.5C 260.167,91.5 252.833,86.5 245.5,81.5C 245.173,72.3178 245.507,63.3178 246.5,54.5 Z"/></g>
<g><path style="opacity:1" fill="#f8d5b1" d="M 244.5,104.5 C 244.833,104.5 245.167,104.5 245.5,104.5C 245.5,104.833 245.5,105.167 245.5,105.5C 245.5,113.833 245.5,122.167 245.5,130.5C 245.5,139.833 245.5,149.167 245.5,158.5C 245.5,164.833 245.5,171.167 245.5,177.5C 224.895,156.395 204.062,135.395 183,114.5C 182.83,124.675 182.33,134.675 181.5,144.5C 181.5,128.167 181.5,111.833 181.5,95.5C 182.329,87.6772 182.829,79.6772 183,71.5C 203.333,91.8333 223.667,112.167 244,132.5C 244.5,123.173 244.666,113.839 244.5,104.5 Z"/></g>
<g><path style="opacity:1" fill="#c06e20" d="M 262.5,79.5 C 263.316,81.1436 264.65,82.3103 266.5,83C 276.774,86.8134 287.108,90.3134 297.5,93.5C 291.679,95.3286 288.346,99.3286 287.5,105.5C 281.943,102.979 276.276,100.645 270.5,98.5C 268.681,93.6959 266.681,89.0292 264.5,84.5C 263.069,83.2196 262.402,81.5529 262.5,79.5 Z"/></g>
<g><path style="opacity:1" fill="#fae2ca" d="M 356.5,85.5 C 357.314,87.631 357.814,89.9644 358,92.5C 377.701,112.368 397.535,132.035 417.5,151.5C 417.5,166.167 417.5,180.833 417.5,195.5C 384.395,161.895 351.062,128.395 317.5,95C 325.344,94.829 333.011,94.329 340.5,93.5C 343.939,93.7471 347.272,93.4137 350.5,92.5C 352.5,92.1667 354.5,91.8333 356.5,91.5C 356.5,90.1667 356.5,88.8333 356.5,87.5C 356.5,86.8333 356.5,86.1667 356.5,85.5 Z"/></g>
<g><path style="opacity:1" fill="#aa611f" d="M 245.5,81.5 C 252.833,86.5 260.167,91.5 267.5,96.5C 268.632,99.5513 269.632,102.551 270.5,105.5C 270.966,111.491 271.299,117.491 271.5,123.5C 262.833,117.5 254.167,111.5 245.5,105.5C 245.5,105.167 245.5,104.833 245.5,104.5C 245.5,96.8333 245.5,89.1667 245.5,81.5 Z"/></g>
<g><path style="opacity:1" fill="#d07924" d="M 264.5,84.5 C 266.681,89.0292 268.681,93.6959 270.5,98.5C 276.276,100.645 281.943,102.979 287.5,105.5C 286.835,113.014 290.168,117.514 297.5,119C 312.076,121.255 326.742,122.422 341.5,122.5C 334.833,124.5 328.167,126.5 321.5,128.5C 317.443,128.848 313.443,129.514 309.5,130.5C 297.398,125.462 285.064,120.796 272.5,116.5C 272.354,112.613 271.687,108.946 270.5,105.5C 269.632,102.551 268.632,99.5513 267.5,96.5C 266.5,92.5 265.5,88.5 264.5,84.5 Z"/></g>
<g><path style="opacity:1" fill="#f8d1ab" d="M 245.5,177.5 C 245.5,178.167 245.5,178.833 245.5,179.5C 224.158,179.408 202.825,179.741 181.5,180.5C 181.5,168.5 181.5,156.5 181.5,144.5C 182.33,134.675 182.83,124.675 183,114.5C 204.062,135.395 224.895,156.395 245.5,177.5 Z"/></g>
<g><path style="opacity:1" fill="#b66a22" d="M 245.5,105.5 C 254.167,111.5 262.833,117.5 271.5,123.5C 271.61,131.525 271.276,139.525 270.5,147.5C 261.911,142.25 253.577,136.583 245.5,130.5C 245.5,122.167 245.5,113.833 245.5,105.5 Z"/></g>
<g><path style="opacity:1" fill="#da7e24" d="M 272.5,116.5 C 285.064,120.796 297.398,125.462 309.5,130.5C 298.075,133.461 288.242,139.127 280,147.5C 279.536,148.094 279.369,148.761 279.5,149.5C 275.876,153.365 274.209,158.032 274.5,163.5C 273.849,164.091 273.182,164.757 272.5,165.5C 271.264,164.754 269.93,164.421 268.5,164.5C 271.929,148.692 273.263,132.692 272.5,116.5 Z"/></g>
<g><path style="opacity:1" fill="#c28036" d="M 341.5,122.5 C 346.606,135.655 342.606,145.155 329.5,151C 321.246,153.012 312.913,154.512 304.5,155.5C 301.5,155.5 298.5,155.5 295.5,155.5C 299.982,154.674 304.649,154.174 309.5,154C 317.202,147.097 322.202,138.597 324.5,128.5C 323.5,128.5 322.5,128.5 321.5,128.5C 328.167,126.5 334.833,124.5 341.5,122.5 Z"/></g>
<g><path style="opacity:1" fill="#b5752f" d="M 321.5,128.5 C 322.5,128.5 323.5,128.5 324.5,128.5C 322.202,138.597 317.202,147.097 309.5,154C 304.649,154.174 299.982,154.674 295.5,155.5C 288.492,157.521 285.492,162.187 286.5,169.5C 282.901,170.344 279.234,170.677 275.5,170.5C 274.7,163.049 276.033,156.049 279.5,149.5C 279.369,148.761 279.536,148.094 280,147.5C 288.242,139.127 298.075,133.461 309.5,130.5C 313.443,129.514 317.443,128.848 321.5,128.5 Z"/></g>
<g><path style="opacity:1" fill="#fadec2" d="M 297.5,93.5 C 308.167,93.5 318.833,93.5 329.5,93.5C 333.167,93.5 336.833,93.5 340.5,93.5C 333.011,94.329 325.344,94.829 317.5,95C 351.062,128.395 384.395,161.895 417.5,195.5C 417.829,201.206 417.495,206.872 416.5,212.5C 410.961,210.098 405.294,208.098 399.5,206.5C 387.358,201.331 374.692,197.664 361.5,195.5C 359.698,194.542 357.698,193.875 355.5,193.5C 355.5,190.833 355.5,188.167 355.5,185.5C 349.69,184.51 343.69,184.177 337.5,184.5C 335.5,184.5 333.5,184.5 331.5,184.5C 322.133,175.134 313.133,165.468 304.5,155.5C 312.913,154.512 321.246,153.012 329.5,151C 342.606,145.155 346.606,135.655 341.5,122.5C 326.742,122.422 312.076,121.255 297.5,119C 290.168,117.514 286.835,113.014 287.5,105.5C 288.346,99.3286 291.679,95.3286 297.5,93.5 Z"/></g>
<g><path style="opacity:1" fill="#c27226" d="M 245.5,130.5 C 253.577,136.583 261.911,142.25 270.5,147.5C 268.839,155.472 267.172,163.472 265.5,171.5C 258.851,167.193 252.184,162.859 245.5,158.5C 245.5,149.167 245.5,139.833 245.5,130.5 Z"/></g>
<g><path style="opacity:1" fill="#e5a75f" d="M 270.5,105.5 C 271.687,108.946 272.354,112.613 272.5,116.5C 273.263,132.692 271.929,148.692 268.5,164.5C 267.897,167.672 266.897,170.006 265.5,171.5C 267.172,163.472 268.839,155.472 270.5,147.5C 271.276,139.525 271.61,131.525 271.5,123.5C 271.299,117.491 270.966,111.491 270.5,105.5 Z"/></g>
<g><path style="opacity:1" fill="#f9d8b7" d="M 295.5,155.5 C 298.5,155.5 301.5,155.5 304.5,155.5C 313.133,165.468 322.133,175.134 331.5,184.5C 327.833,184.5 324.167,184.5 320.5,184.5C 312.416,184.49 304.416,183.656 296.5,182C 290.895,179.609 287.561,175.442 286.5,169.5C 285.492,162.187 288.492,157.521 295.5,155.5 Z"/></g>
<g><path style="opacity:1" fill="#ce7a2a" d="M 245.5,158.5 C 252.184,162.859 258.851,167.193 265.5,171.5C 266.897,170.006 267.897,167.672 268.5,164.5C 269.93,164.421 271.264,164.754 272.5,165.5C 273.182,164.757 273.849,164.091 274.5,163.5C 274.123,170.698 275.79,177.364 279.5,183.5C 274.28,182.969 269.113,182.303 264,181.5C 262.075,186.347 259.908,191.013 257.5,195.5C 257.657,194.127 257.49,192.793 257,191.5C 253.922,189.045 250.756,186.711 247.5,184.5C 246.501,196.148 246.168,207.814 246.5,219.5C 246.5,220.167 246.167,220.5 245.5,220.5C 245.5,220.167 245.5,219.833 245.5,219.5C 245.5,207.167 245.5,194.833 245.5,182.5C 245.5,181.833 245.5,181.167 245.5,180.5C 245.5,180.167 245.5,179.833 245.5,179.5C 245.5,178.833 245.5,178.167 245.5,177.5C 245.5,171.167 245.5,164.833 245.5,158.5 Z"/></g>
<g><path style="opacity:1" fill="#fae3cc" d="M 245.5,179.5 C 245.5,179.833 245.5,180.167 245.5,180.5C 230.5,180.5 215.5,180.5 200.5,180.5C 200.5,211.833 200.5,243.167 200.5,274.5C 194.167,274.5 187.833,274.5 181.5,274.5C 181.5,243.167 181.5,211.833 181.5,180.5C 202.825,179.741 224.158,179.408 245.5,179.5 Z"/></g>
<g><path style="opacity:1" fill="#fbe5d1" d="M 245.5,180.5 C 245.5,181.167 245.5,181.833 245.5,182.5C 235.828,182.334 226.161,182.5 216.5,183C 214.208,184.29 212.208,185.957 210.5,188C 220.031,196.7 229.365,205.533 238.5,214.5C 238.5,234.5 238.5,254.5 238.5,274.5C 225.833,274.5 213.167,274.5 200.5,274.5C 200.5,243.167 200.5,211.833 200.5,180.5C 215.5,180.5 230.5,180.5 245.5,180.5 Z"/></g>
<g><path style="opacity:1" fill="#fadfc4" d="M 245.5,182.5 C 245.5,194.833 245.5,207.167 245.5,219.5C 243.343,217.588 241.009,215.921 238.5,214.5C 229.365,205.533 220.031,196.7 210.5,188C 212.208,185.957 214.208,184.29 216.5,183C 226.161,182.5 235.828,182.334 245.5,182.5 Z"/></g>
<g><path style="opacity:1" fill="#d08c3c" d="M 279.5,149.5 C 276.033,156.049 274.7,163.049 275.5,170.5C 279.234,170.677 282.901,170.344 286.5,169.5C 287.561,175.442 290.895,179.609 296.5,182C 304.416,183.656 312.416,184.49 320.5,184.5C 312.053,190.1 302.72,193.766 292.5,195.5C 289.147,192.478 285.813,189.478 282.5,186.5C 281.272,185.694 280.272,184.694 279.5,183.5C 275.79,177.364 274.123,170.698 274.5,163.5C 274.209,158.032 275.876,153.365 279.5,149.5 Z"/></g>
<g><path style="opacity:1" fill="#dd9844" d="M 320.5,184.5 C 324.167,184.5 327.833,184.5 331.5,184.5C 333.5,184.5 335.5,184.5 337.5,184.5C 337.489,186.017 336.823,187.184 335.5,188C 325.88,195.142 315.213,200.142 303.5,203C 305.727,203.941 307.727,205.108 309.5,206.5C 305.922,205.708 302.588,204.375 299.5,202.5C 292.553,198.554 286.886,193.221 282.5,186.5C 285.813,189.478 289.147,192.478 292.5,195.5C 302.72,193.766 312.053,190.1 320.5,184.5 Z"/></g>
<g><path style="opacity:1" fill="#db8027" d="M 257.5,195.5 C 257.567,196.959 257.234,198.292 256.5,199.5C 254.972,202.749 253.639,206.082 252.5,209.5C 250.5,212.833 248.5,216.167 246.5,219.5C 246.168,207.814 246.501,196.148 247.5,184.5C 250.756,186.711 253.922,189.045 257,191.5C 257.49,192.793 257.657,194.127 257.5,195.5 Z"/></g>
<g><path style="opacity:1" fill="#e8a047" d="M 337.5,184.5 C 343.69,184.177 349.69,184.51 355.5,185.5C 352.841,188.243 351.008,191.577 350,195.5C 348.91,202.142 348.077,208.808 347.5,215.5C 346.791,216.404 345.791,216.737 344.5,216.5C 336.207,215.139 327.874,213.305 319.5,211C 315.939,209.768 312.606,208.268 309.5,206.5C 307.727,205.108 305.727,203.941 303.5,203C 315.213,200.142 325.88,195.142 335.5,188C 336.823,187.184 337.489,186.017 337.5,184.5 Z"/></g>
<g><path style="opacity:1" fill="#b4661d" d="M 279.5,183.5 C 280.272,184.694 281.272,185.694 282.5,186.5C 286.886,193.221 292.553,198.554 299.5,202.5C 285.196,201.114 270.862,200.114 256.5,199.5C 257.234,198.292 257.567,196.959 257.5,195.5C 259.908,191.013 262.075,186.347 264,181.5C 269.113,182.303 274.28,182.969 279.5,183.5 Z"/></g>
<g><path style="opacity:1" fill="#fceddf" d="M 355.5,193.5 C 357.698,193.875 359.698,194.542 361.5,195.5C 361.5,221.833 361.5,248.167 361.5,274.5C 346.5,274.5 331.5,274.5 316.5,274.5C 316.5,271.5 316.5,268.5 316.5,265.5C 321.184,267.108 325.518,266.441 329.5,263.5C 330.842,265.005 332.508,265.672 334.5,265.5C 334.5,259.833 334.5,254.167 334.5,248.5C 330.833,248.5 327.167,248.5 323.5,248.5C 323.5,249.833 323.5,251.167 323.5,252.5C 325.5,252.5 327.5,252.5 329.5,252.5C 330.721,259.777 327.721,262.944 320.5,262C 318.951,260.786 317.785,259.286 317,257.5C 316.333,252.5 316.333,247.5 317,242.5C 320.742,236.291 324.909,235.958 329.5,241.5C 331.045,242.452 332.712,242.785 334.5,242.5C 334.276,238.438 332.276,235.605 328.5,234C 324.745,233.245 321.078,233.411 317.5,234.5C 316.515,230.366 316.182,226.032 316.5,221.5C 317.791,221.737 318.791,221.404 319.5,220.5C 325.843,219.915 332.176,219.249 338.5,218.5C 340.579,218.029 342.579,217.363 344.5,216.5C 345.791,216.737 346.791,216.404 347.5,215.5C 349.55,215.039 351.55,214.372 353.5,213.5C 354.167,206.679 354.833,200.012 355.5,193.5 Z"/></g>
<g><path style="opacity:1" fill="#fdf2e8" d="M 361.5,195.5 C 374.692,197.664 387.358,201.331 399.5,206.5C 399.5,229.167 399.5,251.833 399.5,274.5C 386.833,274.5 374.167,274.5 361.5,274.5C 361.5,248.167 361.5,221.833 361.5,195.5 Z"/></g>
<g><path style="opacity:1" fill="#c16f21" d="M 355.5,185.5 C 355.5,188.167 355.5,190.833 355.5,193.5C 354.833,200.012 354.167,206.679 353.5,213.5C 351.55,214.372 349.55,215.039 347.5,215.5C 348.077,208.808 348.91,202.142 350,195.5C 351.008,191.577 352.841,188.243 355.5,185.5 Z"/></g>
<g><path style="opacity:1" fill="#a75e1b" d="M 256.5,199.5 C 270.862,200.114 285.196,201.114 299.5,202.5C 302.588,204.375 305.922,205.708 309.5,206.5C 312.606,208.268 315.939,209.768 319.5,211C 327.874,213.305 336.207,215.139 344.5,216.5C 342.579,217.363 340.579,218.029 338.5,218.5C 338.611,217.883 338.944,217.383 339.5,217C 310.469,214.664 281.469,212.164 252.5,209.5C 253.639,206.082 254.972,202.749 256.5,199.5 Z"/></g>
<g><path style="opacity:1" fill="#9f5a1c" d="M 252.5,209.5 C 281.469,212.164 310.469,214.664 339.5,217C 338.944,217.383 338.611,217.883 338.5,218.5C 332.176,219.249 325.843,219.915 319.5,220.5C 294.677,221.757 270.01,221.757 245.5,220.5C 246.167,220.5 246.5,220.167 246.5,219.5C 248.5,216.167 250.5,212.833 252.5,209.5 Z"/></g>
<g><path style="opacity:1" fill="#fce9d8" d="M 238.5,214.5 C 241.009,215.921 243.343,217.588 245.5,219.5C 245.5,219.833 245.5,220.167 245.5,220.5C 270.01,221.757 294.677,221.757 319.5,220.5C 318.791,221.404 317.791,221.737 316.5,221.5C 316.182,226.032 316.515,230.366 317.5,234.5C 312.365,238.296 310.365,243.462 311.5,250C 310.492,256.14 312.159,261.307 316.5,265.5C 316.5,268.5 316.5,271.5 316.5,274.5C 290.5,274.5 264.5,274.5 238.5,274.5C 238.5,254.5 238.5,234.5 238.5,214.5 Z"/></g>
<g><path style="opacity:1" fill="#ee8a27" d="M 316.5,265.5 C 312.159,261.307 310.492,256.14 311.5,250C 310.365,243.462 312.365,238.296 317.5,234.5C 321.078,233.411 324.745,233.245 328.5,234C 332.276,235.605 334.276,238.438 334.5,242.5C 332.712,242.785 331.045,242.452 329.5,241.5C 324.909,235.958 320.742,236.291 317,242.5C 316.333,247.5 316.333,252.5 317,257.5C 317.785,259.286 318.951,260.786 320.5,262C 327.721,262.944 330.721,259.777 329.5,252.5C 327.5,252.5 325.5,252.5 323.5,252.5C 323.5,251.167 323.5,249.833 323.5,248.5C 327.167,248.5 330.833,248.5 334.5,248.5C 334.5,254.167 334.5,259.833 334.5,265.5C 332.508,265.672 330.842,265.005 329.5,263.5C 325.518,266.441 321.184,267.108 316.5,265.5 Z"/></g>
<g><path style="opacity:1" fill="#ed8821" d="M 277.5,234.5 C 277.5,235.833 277.5,237.167 277.5,238.5C 273.298,238.183 269.298,238.517 265.5,239.5C 265.5,242.167 265.5,244.833 265.5,247.5C 269.167,247.5 272.833,247.5 276.5,247.5C 276.5,248.833 276.5,250.167 276.5,251.5C 272.833,251.5 269.167,251.5 265.5,251.5C 265.5,254.833 265.5,258.167 265.5,261.5C 269.5,261.5 273.5,261.5 277.5,261.5C 277.5,262.833 277.5,264.167 277.5,265.5C 271.833,265.5 266.167,265.5 260.5,265.5C 260.5,255.167 260.5,244.833 260.5,234.5C 266.167,234.5 271.833,234.5 277.5,234.5 Z"/></g>
<g><path style="opacity:1" fill="#ee8c2b" d="M 290.5,234.5 C 293.448,234.223 296.281,234.556 299,235.5C 302.347,245.372 305.18,255.372 307.5,265.5C 305.712,265.785 304.045,265.452 302.5,264.5C 301.833,262.5 301.167,260.5 300.5,258.5C 296.62,257.205 292.786,257.205 289,258.5C 288.023,260.74 287.523,263.073 287.5,265.5C 285.396,265.799 283.396,265.466 281.5,264.5C 284.51,254.472 287.51,244.472 290.5,234.5 Z"/></g>
<g><path style="opacity:1" fill="#ed8821" d="M 347.5,260.5 C 351.298,261.483 355.298,261.817 359.5,261.5C 359.5,262.833 359.5,264.167 359.5,265.5C 353.833,265.5 348.167,265.5 342.5,265.5C 342.5,255.167 342.5,244.833 342.5,234.5C 344.167,234.5 345.833,234.5 347.5,234.5C 347.5,243.167 347.5,251.833 347.5,260.5 Z"/></g>
<g><path style="opacity:1" fill="#ed8821" d="M 366.5,234.5 C 372.167,234.5 377.833,234.5 383.5,234.5C 383.5,235.833 383.5,237.167 383.5,238.5C 379.5,238.5 375.5,238.5 371.5,238.5C 371.5,241.5 371.5,244.5 371.5,247.5C 375.167,247.5 378.833,247.5 382.5,247.5C 382.5,248.833 382.5,250.167 382.5,251.5C 378.833,251.5 375.167,251.5 371.5,251.5C 371.5,254.833 371.5,258.167 371.5,261.5C 375.5,261.5 379.5,261.5 383.5,261.5C 383.5,262.833 383.5,264.167 383.5,265.5C 377.833,265.5 372.167,265.5 366.5,265.5C 366.5,255.167 366.5,244.833 366.5,234.5 Z"/></g>
<g><path style="opacity:1" fill="#f7cda3" d="M 277.5,234.5 C 278.451,235.919 278.784,237.585 278.5,239.5C 274.167,239.5 269.833,239.5 265.5,239.5C 269.298,238.517 273.298,238.183 277.5,238.5C 277.5,237.167 277.5,235.833 277.5,234.5 Z"/></g>
<g><path style="opacity:1" fill="#fbe2ca" d="M 298.5,252.5 C 295.612,253.01 293.279,252.344 291.5,250.5C 292.053,246.281 293.22,242.281 295,238.5C 296.171,243.186 297.338,247.852 298.5,252.5 Z"/></g>
<g><path style="opacity:1" fill="#f5bc83" d="M 291.5,250.5 C 293.279,252.344 295.612,253.01 298.5,252.5C 296.052,253.473 293.385,253.806 290.5,253.5C 290.263,252.209 290.596,251.209 291.5,250.5 Z"/></g>
<g><path style="opacity:1" fill="#f6c18c" d="M 347.5,260.5 C 351.833,260.5 356.167,260.5 360.5,260.5C 360.784,262.415 360.451,264.081 359.5,265.5C 359.5,264.167 359.5,262.833 359.5,261.5C 355.298,261.817 351.298,261.483 347.5,260.5 Z"/></g>
</svg>
