<?xml version="1.0" encoding="UTF-8"?>
<!DOCTYPE svg PUBLIC "-//W3C//DTD SVG 1.1//EN" "http://www.w3.org/Graphics/SVG/1.1/DTD/svg11.dtd">
<svg xmlns="http://www.w3.org/2000/svg" version="1.1" width="400px" height="95px" style="shape-rendering:geometricPrecision; text-rendering:geometricPrecision; image-rendering:optimizeQuality; fill-rule:evenodd; clip-rule:evenodd" xmlns:xlink="http://www.w3.org/1999/xlink">
<g><path style="opacity:1" fill="#efefef" d="M -0.5,-0.5 C 16.5,-0.5 33.5,-0.5 50.5,-0.5C 52.5566,3.06698 55.2232,6.23365 58.5,9C 55.9556,10.092 53.2889,10.7586 50.5,11C 53.1557,15.4997 56.8224,18.6663 61.5,20.5C 61.3359,17.8127 61.5026,15.146 62,12.5C 64.8333,15.3333 67.6667,18.1667 70.5,21C 61.8333,21.3333 53.1667,21.6667 44.5,22C 53.343,22.1704 62.0097,22.6704 70.5,23.5C 61.8333,23.5 53.1667,23.5 44.5,23.5C 44.5,41.5 44.5,59.5 44.5,77.5C 43.6683,59.6713 43.1683,41.6713 43,23.5C 42.8264,41.7402 42.3264,59.9068 41.5,78C 43.8333,80.3333 46.1667,82.6667 48.5,85C 45.4465,85.1786 42.4465,85.6786 39.5,86.5C 41.8558,89.1864 44.1891,91.853 46.5,94.5C 30.8333,94.5 15.1667,94.5 -0.5,94.5C -0.5,62.8333 -0.5,31.1667 -0.5,-0.5 Z"/></g>
<g><path style="opacity:1" fill="#f7f8f7" d="M 50.5,-0.5 C 120.833,-0.5 191.167,-0.5 261.5,-0.5C 262.029,1.58337 263.029,3.41671 264.5,5C 264.167,5.33333 263.833,5.66667 263.5,6C 268.121,9.0437 271.455,13.2104 273.5,18.5C 272.975,19.1924 272.308,19.6924 271.5,20C 274.634,20.1122 276.967,20.6122 278.5,21.5C 270.697,20.9686 266.697,24.6353 266.5,32.5C 263.833,32.5 261.167,32.5 258.5,32.5C 258.167,26.8333 260.833,24.1667 266.5,24.5C 266.5,23.5 266.5,22.5 266.5,21.5C 264.143,21.3367 261.81,21.5034 259.5,22C 258.619,22.7083 257.953,23.5416 257.5,24.5C 254.828,26.3914 253.828,29.0581 254.5,32.5C 253.167,32.5 251.833,32.5 250.5,32.5C 250.5,33.8333 250.5,35.1667 250.5,36.5C 251.833,36.5 253.167,36.5 254.5,36.5C 254.5,42.8333 254.5,49.1667 254.5,55.5C 255.833,55.5 257.167,55.5 258.5,55.5C 258.5,49.1667 258.5,42.8333 258.5,36.5C 261.167,36.5 263.833,36.5 266.5,36.5C 266.177,43.0221 266.51,49.3554 267.5,55.5C 268.5,55.5 269.5,55.5 270.5,55.5C 271.49,49.3554 271.823,43.0221 271.5,36.5C 273.167,36.5 274.833,36.5 276.5,36.5C 276.5,35.1667 276.5,33.8333 276.5,32.5C 274.833,32.5 273.167,32.5 271.5,32.5C 271.338,30.4727 271.505,28.4727 272,26.5C 272.383,25.944 272.883,25.6107 273.5,25.5C 275.265,26.4614 277.265,26.7947 279.5,26.5C 279.351,27.552 279.517,28.552 280,29.5C 280.69,30.7383 281.19,30.7383 281.5,29.5C 281.833,29.5 282.167,29.5 282.5,29.5C 283.6,30.5585 284.934,31.3918 286.5,32C 284.618,32.1981 282.952,32.6981 281.5,33.5C 281.5,34.1667 281.5,34.8333 281.5,35.5C 280.509,42.3134 280.175,49.3134 280.5,56.5C 286.167,56.6636 286.5,56.9969 281.5,57.5C 282.055,61.5841 281.055,62.2508 278.5,59.5C 277.614,60.325 277.281,61.325 277.5,62.5C 276.448,62.3505 275.448,62.5172 274.5,63C 276.473,63.4955 278.473,63.6621 280.5,63.5C 280.975,66.3126 279.975,68.3126 277.5,69.5C 275.336,68.7215 273.17,68.3882 271,68.5C 270.333,71.5 270.333,74.5 271,77.5C 271.333,75.5 271.667,73.5 272,71.5C 273.079,69.6063 274.413,69.273 276,70.5C 276.497,72.8098 276.663,75.1432 276.5,77.5C 276.918,78.2216 277.584,78.7216 278.5,79C 277.216,79.6838 276.049,79.5171 275,78.5C 274.667,76.1667 274.333,73.8333 274,71.5C 273.219,76.5544 273.386,81.5544 274.5,86.5C 273.487,89.1878 272.487,91.8544 271.5,94.5C 196.5,94.5 121.5,94.5 46.5,94.5C 44.1891,91.853 41.8558,89.1864 39.5,86.5C 42.4465,85.6786 45.4465,85.1786 48.5,85C 46.1667,82.6667 43.8333,80.3333 41.5,78C 42.3264,59.9068 42.8264,41.7402 43,23.5C 43.1683,41.6713 43.6683,59.6713 44.5,77.5C 59.1667,77.5 73.8333,77.5 88.5,77.5C 89.6595,66.0073 89.8261,54.3407 89,42.5C 83.329,35.6627 77.1624,29.3293 70.5,23.5C 62.0097,22.6704 53.343,22.1704 44.5,22C 53.1667,21.6667 61.8333,21.3333 70.5,21C 67.6667,18.1667 64.8333,15.3333 62,12.5C 61.5026,15.146 61.3359,17.8127 61.5,20.5C 56.8224,18.6663 53.1557,15.4997 50.5,11C 53.2889,10.7586 55.9556,10.092 58.5,9C 55.2232,6.23365 52.5566,3.06698 50.5,-0.5 Z"/></g>
<g><path style="opacity:1" fill="#f3f3f3" d="M 261.5,-0.5 C 307.5,-0.5 353.5,-0.5 399.5,-0.5C 399.5,31.1667 399.5,62.8333 399.5,94.5C 356.833,94.5 314.167,94.5 271.5,94.5C 272.487,91.8544 273.487,89.1878 274.5,86.5C 273.386,81.5544 273.219,76.5544 274,71.5C 274.333,73.8333 274.667,76.1667 275,78.5C 276.049,79.5171 277.216,79.6838 278.5,79C 277.584,78.7216 276.918,78.2216 276.5,77.5C 277.473,75.0521 277.806,72.3854 277.5,69.5C 279.975,68.3126 280.975,66.3126 280.5,63.5C 278.473,63.6621 276.473,63.4955 274.5,63C 275.448,62.5172 276.448,62.3505 277.5,62.5C 277.281,61.325 277.614,60.325 278.5,59.5C 281.055,62.2508 282.055,61.5841 281.5,57.5C 286.5,56.9969 286.167,56.6636 280.5,56.5C 280.175,49.3134 280.509,42.3134 281.5,35.5C 281.5,42.1667 281.5,48.8333 281.5,55.5C 282.833,55.5 284.167,55.5 285.5,55.5C 285.5,48.1667 285.5,40.8333 285.5,33.5C 284.167,33.5 282.833,33.5 281.5,33.5C 282.952,32.6981 284.618,32.1981 286.5,32C 284.934,31.3918 283.6,30.5585 282.5,29.5C 283.5,29.5 284.5,29.5 285.5,29.5C 285.5,28.1667 285.5,26.8333 285.5,25.5C 284.167,25.5 282.833,25.5 281.5,25.5C 281.5,26.8333 281.5,28.1667 281.5,29.5C 281.19,30.7383 280.69,30.7383 280,29.5C 279.517,28.552 279.351,27.552 279.5,26.5C 277.265,26.7947 275.265,26.4614 273.5,25.5C 274.952,24.6981 276.618,24.1981 278.5,24C 279.598,23.2303 279.598,22.397 278.5,21.5C 276.967,20.6122 274.634,20.1122 271.5,20C 272.308,19.6924 272.975,19.1924 273.5,18.5C 271.455,13.2104 268.121,9.0437 263.5,6C 263.833,5.66667 264.167,5.33333 264.5,5C 263.029,3.41671 262.029,1.58337 261.5,-0.5 Z"/></g>
<g><path style="opacity:1" fill="#5d5d5d" d="M 75.5,23.5 C 80.1667,23.5 84.8333,23.5 89.5,23.5C 89.5,27.8333 89.5,32.1667 89.5,36.5C 88.448,36.6495 87.448,36.4828 86.5,36C 82.23,32.2385 78.5633,28.0719 75.5,23.5 Z"/></g>
<g><path style="opacity:1" fill="#74c567" d="M 137.5,23.5 C 141.485,23.6294 142.818,25.4628 141.5,29C 135.546,30.2271 134.212,28.3938 137.5,23.5 Z"/></g>
<g><path style="opacity:1" fill="#414141" d="M 227.5,24.5 C 228.239,24.369 228.906,24.5357 229.5,25C 220.098,27.9599 217.432,33.7933 221.5,42.5C 223.55,52.192 229.216,55.0254 238.5,51C 241.078,48.7724 242.411,45.9391 242.5,42.5C 243.309,40.7078 243.809,38.7078 244,36.5C 244.174,40.9475 244.341,45.2808 244.5,49.5C 241.351,53.9057 237.018,55.9057 231.5,55.5C 224,55.5157 219.167,51.8491 217,44.5C 214.998,34.8332 218.498,28.1665 227.5,24.5 Z"/></g>
<g><path style="opacity:1" fill="#f8f8f8" d="M 242.5,42.5 C 242.411,45.9391 241.078,48.7724 238.5,51C 229.216,55.0254 223.55,52.192 221.5,42.5C 219.808,33.8642 223.141,28.5309 231.5,26.5C 240.594,28.0046 244.261,33.338 242.5,42.5 Z"/></g>
<g><path style="opacity:1" fill="#4a4a4a" d="M 282.5,29.5 C 282.167,29.5 281.833,29.5 281.5,29.5C 281.5,28.1667 281.5,26.8333 281.5,25.5C 282.833,25.5 284.167,25.5 285.5,25.5C 285.5,26.8333 285.5,28.1667 285.5,29.5C 284.5,29.5 283.5,29.5 282.5,29.5 Z"/></g>
<g><path style="opacity:1" fill="#646464" d="M 278.5,21.5 C 279.598,22.397 279.598,23.2303 278.5,24C 276.618,24.1981 274.952,24.6981 273.5,25.5C 272.883,25.6107 272.383,25.944 272,26.5C 271.505,28.4727 271.338,30.4727 271.5,32.5C 273.167,32.5 274.833,32.5 276.5,32.5C 276.5,33.8333 276.5,35.1667 276.5,36.5C 274.833,36.5 273.167,36.5 271.5,36.5C 271.823,43.0221 271.49,49.3554 270.5,55.5C 270.666,49.1579 270.5,42.8246 270,36.5C 269.667,37.5 269.333,38.5 269,39.5C 268.768,38.2625 268.268,37.2625 267.5,36.5C 267.5,36.1667 267.5,35.8333 267.5,35.5C 264.663,33.5977 261.329,32.931 257.5,33.5C 256.576,30.4467 256.576,27.4467 257.5,24.5C 257.953,23.5416 258.619,22.7083 259.5,22C 261.81,21.5034 264.143,21.3367 266.5,21.5C 266.5,22.5 266.5,23.5 266.5,24.5C 260.833,24.1667 258.167,26.8333 258.5,32.5C 261.167,32.5 263.833,32.5 266.5,32.5C 266.697,24.6353 270.697,20.9686 278.5,21.5 Z"/></g>
<g><path style="opacity:1" fill="#5dbd4e" d="M 170.5,46.5 C 170.662,44.4727 170.495,42.4727 170,40.5C 169.667,41.1667 169.333,41.8333 169,42.5C 168.28,40.9443 167.113,39.9443 165.5,39.5C 157.222,34.0837 153.222,36.417 153.5,46.5C 152.698,45.0484 152.198,43.3817 152,41.5C 151.581,42.6721 150.915,43.6721 150,44.5C 149.817,41.6353 149.317,38.9686 148.5,36.5C 148.5,31.5 148.5,26.5 148.5,21.5C 150.167,21.5 151.833,21.5 153.5,21.5C 153.334,26.1785 153.501,30.8452 154,35.5C 161.115,30.552 166.782,31.8853 171,39.5C 171.796,42.0385 171.629,44.3718 170.5,46.5 Z"/></g>
<g><path style="opacity:1" fill="#5d5d5d" d="M 70.5,23.5 C 77.1624,29.3293 83.329,35.6627 89,42.5C 89.8261,54.3407 89.6595,66.0073 88.5,77.5C 88.6665,66.495 88.4998,55.495 88,44.5C 87.8303,55.0081 87.3303,65.3415 86.5,75.5C 86.5,75.1667 86.5,74.8333 86.5,74.5C 86.6665,64.1613 86.4998,53.828 86,43.5C 80.2971,37.9647 74.7971,32.2981 69.5,26.5C 62.0182,25.508 54.3516,25.1746 46.5,25.5C 46.5,42.1667 46.5,58.8333 46.5,75.5C 45.5034,58.6749 45.1701,41.6749 45.5,24.5C 54.0168,24.8261 62.3501,24.4927 70.5,23.5 Z"/></g>
<g><path style="opacity:1" fill="#e2e2e2" d="M 69.5,26.5 C 62.1667,26.5 54.8333,26.5 47.5,26.5C 47.5,42.5 47.5,58.5 47.5,74.5C 60.5,74.5 73.5,74.5 86.5,74.5C 86.5,74.8333 86.5,75.1667 86.5,75.5C 73.1667,75.5 59.8333,75.5 46.5,75.5C 46.5,58.8333 46.5,42.1667 46.5,25.5C 54.3516,25.1746 62.0182,25.508 69.5,26.5 Z"/></g>
<g><path style="opacity:1" fill="#fefefe" d="M 69.5,26.5 C 74.7971,32.2981 80.2971,37.9647 86,43.5C 86.4998,53.828 86.6665,64.1613 86.5,74.5C 73.5,74.5 60.5,74.5 47.5,74.5C 47.5,58.5 47.5,42.5 47.5,26.5C 54.8333,26.5 62.1667,26.5 69.5,26.5 Z"/></g>
<g><path style="opacity:1" fill="#f7faf7" d="M 165.5,39.5 C 166.154,43.8394 165.154,47.6727 162.5,51C 157.618,52.7537 154.618,51.2537 153.5,46.5C 153.222,36.417 157.222,34.0837 165.5,39.5 Z"/></g>
<g><path style="opacity:1" fill="#4cb53b" d="M 176.5,32.5 C 178.167,32.5 179.833,32.5 181.5,32.5C 181.351,33.552 181.517,34.552 182,35.5C 183.734,33.5494 185.901,32.5494 188.5,32.5C 188.5,34.1667 188.5,35.8333 188.5,37.5C 185.192,36.9738 183.026,38.3072 182,41.5C 181.501,46.1548 181.334,50.8215 181.5,55.5C 179.833,55.5 178.167,55.5 176.5,55.5C 176.5,47.8333 176.5,40.1667 176.5,32.5 Z"/></g>
<g><path style="opacity:1" fill="#494949" d="M 257.5,24.5 C 256.576,27.4467 256.576,30.4467 257.5,33.5C 261.329,32.931 264.663,33.5977 267.5,35.5C 264.287,35.19 261.287,35.5233 258.5,36.5C 258.5,42.8333 258.5,49.1667 258.5,55.5C 257.167,55.5 255.833,55.5 254.5,55.5C 254.5,49.1667 254.5,42.8333 254.5,36.5C 253.167,36.5 251.833,36.5 250.5,36.5C 250.5,35.1667 250.5,33.8333 250.5,32.5C 251.833,32.5 253.167,32.5 254.5,32.5C 253.828,29.0581 254.828,26.3914 257.5,24.5 Z"/></g>
<g><path style="opacity:1" fill="#949494" d="M 258.5,36.5 C 261.287,35.5233 264.287,35.19 267.5,35.5C 267.5,35.8333 267.5,36.1667 267.5,36.5C 267.5,42.8333 267.5,49.1667 267.5,55.5C 266.51,49.3554 266.177,43.0221 266.5,36.5C 263.833,36.5 261.167,36.5 258.5,36.5 Z"/></g>
<g><path style="opacity:1" fill="#68be59" d="M 118.5,51.5 C 117.683,49.0314 117.183,46.3647 117,43.5C 115.442,44.3452 114.442,43.6785 114,41.5C 113.501,46.1548 113.334,50.8215 113.5,55.5C 112.506,45.0131 112.172,34.3464 112.5,23.5C 114.5,23.5 116.5,23.5 118.5,23.5C 118.5,32.8333 118.5,42.1667 118.5,51.5 Z"/></g>
<g><path style="opacity:1" fill="#555555" d="M 227.5,24.5 C 238.92,22.3849 245.586,27.2182 247.5,39C 247.377,42.8572 246.377,46.3572 244.5,49.5C 244.341,45.2808 244.174,40.9475 244,36.5C 243.809,38.7078 243.309,40.7078 242.5,42.5C 244.261,33.338 240.594,28.0046 231.5,26.5C 223.141,28.5309 219.808,33.8642 221.5,42.5C 217.432,33.7933 220.098,27.9599 229.5,25C 228.906,24.5357 228.239,24.369 227.5,24.5 Z"/></g>
<g><path style="opacity:1" fill="#54b844" d="M 196.5,47.5 C 195.491,46.0648 194.157,45.2315 192.5,45C 194.677,43.8139 195.677,41.9806 195.5,39.5C 194.041,39.4326 192.708,39.7659 191.5,40.5C 193.958,33.2703 198.958,30.7703 206.5,33C 210.795,36.0931 212.462,40.2597 211.5,45.5C 206.056,44.8917 201.056,45.5583 196.5,47.5 Z"/></g>
<g><path style="opacity:1" fill="#f2f8f0" d="M 198.5,36.5 C 203.175,35.3395 205.841,37.0061 206.5,41.5C 203.167,41.5 199.833,41.5 196.5,41.5C 196.392,39.4862 197.058,37.8195 198.5,36.5 Z"/></g>
<g><path style="opacity:1" fill="#414141" d="M 330.5,39.5 C 330.5,41.1667 330.5,42.8333 330.5,44.5C 325.305,44.1795 320.305,44.5128 315.5,45.5C 315.081,48.3245 316.081,50.4912 318.5,52C 321.894,52.7517 325.227,52.5851 328.5,51.5C 329.429,52.6888 329.762,54.0222 329.5,55.5C 314.672,57.8433 309.172,51.8433 313,37.5C 316.87,32.4371 321.704,31.2704 327.5,34C 329.16,35.4877 330.16,37.321 330.5,39.5 Z"/></g>
<g><path style="opacity:1" fill="#b0b0b0" d="M 316.5,39.5 C 317.694,40.7773 319.36,41.4439 321.5,41.5C 323.64,41.4439 325.306,40.7773 326.5,39.5C 327.404,40.209 327.737,41.209 327.5,42.5C 323.5,42.5 319.5,42.5 315.5,42.5C 315.263,41.209 315.596,40.209 316.5,39.5 Z"/></g>
<g><path style="opacity:1" fill="#ededed" d="M 326.5,39.5 C 325.306,40.7773 323.64,41.4439 321.5,41.5C 319.36,41.4439 317.694,40.7773 316.5,39.5C 317.957,35.9509 320.623,34.7842 324.5,36C 325.823,36.8159 326.489,37.9826 326.5,39.5 Z"/></g>
<g><path style="opacity:1" fill="#767676" d="M 330.5,39.5 C 331.461,41.2646 331.795,43.2646 331.5,45.5C 326.167,45.5 320.833,45.5 315.5,45.5C 320.305,44.5128 325.305,44.1795 330.5,44.5C 330.5,42.8333 330.5,41.1667 330.5,39.5 Z"/></g>
<g><path style="opacity:1" fill="#39ad27" d="M 148.5,36.5 C 149.317,38.9686 149.817,41.6353 150,44.5C 150.915,43.6721 151.581,42.6721 152,41.5C 152.198,43.3817 152.698,45.0484 153.5,46.5C 154.618,51.2537 157.618,52.7537 162.5,51C 165.154,47.6727 166.154,43.8394 165.5,39.5C 167.113,39.9443 168.28,40.9443 169,42.5C 169.333,41.8333 169.667,41.1667 170,40.5C 170.495,42.4727 170.662,44.4727 170.5,46.5C 167.966,56.1891 162.466,58.5224 154,53.5C 152.599,55.1922 150.766,55.8588 148.5,55.5C 148.5,49.1667 148.5,42.8333 148.5,36.5 Z"/></g>
<g><path style="opacity:1" fill="#3b3b3b" d="M 267.5,36.5 C 268.268,37.2625 268.768,38.2625 269,39.5C 269.333,38.5 269.667,37.5 270,36.5C 270.5,42.8246 270.666,49.1579 270.5,55.5C 269.5,55.5 268.5,55.5 267.5,55.5C 267.5,49.1667 267.5,42.8333 267.5,36.5 Z"/></g>
<g><path style="opacity:1" fill="#3dae2c" d="M 136.5,32.5 C 138.167,32.5 139.833,32.5 141.5,32.5C 141.5,40.1667 141.5,47.8333 141.5,55.5C 139.833,55.5 138.167,55.5 136.5,55.5C 136.5,47.8333 136.5,40.1667 136.5,32.5 Z"/></g>
<g><path style="opacity:1" fill="#434343" d="M 281.5,33.5 C 282.833,33.5 284.167,33.5 285.5,33.5C 285.5,40.8333 285.5,48.1667 285.5,55.5C 284.167,55.5 282.833,55.5 281.5,55.5C 281.5,48.8333 281.5,42.1667 281.5,35.5C 281.5,34.8333 281.5,34.1667 281.5,33.5 Z"/></g>
<g><path style="opacity:1" fill="#434343" d="M 306.5,52.5 C 307.404,53.209 307.737,54.209 307.5,55.5C 304.167,55.5 300.833,55.5 297.5,55.5C 294.725,54.688 292.558,53.0213 291,50.5C 288.848,36.4847 294.681,30.818 308.5,33.5C 308.719,34.675 308.386,35.675 307.5,36.5C 297.36,34.1388 293.193,38.1388 295,48.5C 295.465,49.9308 296.299,51.0975 297.5,52C 300.482,52.498 303.482,52.6646 306.5,52.5 Z"/></g>
<g><path style="opacity:1" fill="#30a91e" d="M 118.5,51.5 C 123.167,51.5 127.833,51.5 132.5,51.5C 132.5,52.8333 132.5,54.1667 132.5,55.5C 126.167,55.5 119.833,55.5 113.5,55.5C 113.334,50.8215 113.501,46.1548 114,41.5C 114.442,43.6785 115.442,44.3452 117,43.5C 117.183,46.3647 117.683,49.0314 118.5,51.5 Z"/></g>
<g><path style="opacity:1" fill="#37ac25" d="M 196.5,47.5 C 196.916,49.7525 198.249,51.2525 200.5,52C 203.507,52.3013 206.507,52.1346 209.5,51.5C 209.5,52.8333 209.5,54.1667 209.5,55.5C 204.249,57.2966 199.249,56.7966 194.5,54C 190.698,50.0175 189.698,45.5175 191.5,40.5C 192.708,39.7659 194.041,39.4326 195.5,39.5C 195.677,41.9806 194.677,43.8139 192.5,45C 194.157,45.2315 195.491,46.0648 196.5,47.5 Z"/></g>
<g><path style="opacity:1" fill="#b9b9b9" d="M 306.5,52.5 C 306.56,51.9569 306.893,51.6236 307.5,51.5C 308.452,53.0453 308.785,54.712 308.5,56.5C 304.629,56.815 300.962,56.4816 297.5,55.5C 300.833,55.5 304.167,55.5 307.5,55.5C 307.737,54.209 307.404,53.209 306.5,52.5 Z"/></g>
<g><path style="opacity:1" fill="#5d5d5d" d="M 112.5,64.5 C 115.898,64.1796 119.232,64.513 122.5,65.5C 121.311,66.4287 119.978,66.762 118.5,66.5C 117.833,81.1667 117.167,81.1667 116.5,66.5C 114.517,66.8432 113.183,66.1765 112.5,64.5 Z"/></g>
<g><path style="opacity:1" fill="#777777" d="M 125.5,64.5 C 124.515,68.6344 124.182,72.9677 124.5,77.5C 123.188,72.9848 123.188,68.3181 124.5,63.5C 125.107,63.6236 125.44,63.9569 125.5,64.5 Z"/></g>
<g><path style="opacity:1" fill="#505050" d="M 148.5,64.5 C 159.393,63.8504 162.059,68.017 156.5,77C 153.854,77.4974 151.187,77.6641 148.5,77.5C 148.5,73.1667 148.5,68.8333 148.5,64.5 Z"/></g>
<g><path style="opacity:1" fill="#f7f7f7" d="M 150.5,66.5 C 157.303,65.7348 159.303,68.5681 156.5,75C 154.655,76.128 152.655,76.628 150.5,76.5C 150.5,73.1667 150.5,69.8333 150.5,66.5 Z"/></g>
<g><path style="opacity:1" fill="#555656" d="M 239.5,64.5 C 241.924,64.1924 244.257,64.5258 246.5,65.5C 244.955,66.4519 243.288,66.7852 241.5,66.5C 241.5,67.8333 241.5,69.1667 241.5,70.5C 248.167,70.8333 248.167,71.1667 241.5,71.5C 241.799,73.604 241.466,75.604 240.5,77.5C 239.508,73.2172 239.174,68.8839 239.5,64.5 Z"/></g>
<g><path style="opacity:1" fill="#999999" d="M 287.5,64.5 C 287.56,63.9569 287.893,63.6236 288.5,63.5C 289.812,68.3181 289.812,72.9848 288.5,77.5C 288.818,72.9677 288.485,68.6344 287.5,64.5 Z"/></g>
<g><path style="opacity:1" fill="#2f2f2f" d="M 126.5,69.5 C 127.884,68.1991 129.384,68.1991 131,69.5C 131.497,72.146 131.664,74.8127 131.5,77.5C 130.833,75.1667 130.167,72.8333 129.5,70.5C 128.791,69.596 127.791,69.2627 126.5,69.5 Z"/></g>
<g><path style="opacity:1" fill="#3c3c3c" d="M 163.5,68.5 C 170.486,68.331 172.153,71.1643 168.5,77C 161.416,77.475 159.749,74.6417 163.5,68.5 Z"/></g>
<g><path style="opacity:1" fill="#343434" d="M 229.5,66.5 C 230.534,67.6871 231.867,68.5204 233.5,69C 232.552,69.4828 231.552,69.6495 230.5,69.5C 230.5,71.8333 230.5,74.1667 230.5,76.5C 234.172,77.0447 233.838,77.3781 229.5,77.5C 229.988,74.2893 229.321,71.456 227.5,69C 228.756,68.5831 229.423,67.7498 229.5,66.5 Z"/></g>
<g><path style="opacity:1" fill="#323232" d="M 250.5,68.5 C 252.467,68.2606 254.301,68.5939 256,69.5C 258.183,76.6512 255.85,78.9845 249,76.5C 248.109,73.5024 248.609,70.8357 250.5,68.5 Z"/></g>
<g><path style="opacity:1" fill="#363636" d="M 302.5,66.5 C 303.534,67.6871 304.867,68.5204 306.5,69C 305.552,69.4828 304.552,69.6495 303.5,69.5C 303.5,71.8333 303.5,74.1667 303.5,76.5C 307.172,77.0447 306.838,77.3781 302.5,77.5C 302.988,74.2893 302.321,71.456 300.5,69C 301.756,68.5831 302.423,67.7498 302.5,66.5 Z"/></g>
<g><path style="opacity:1" fill="#4b4b4b" d="M 192.5,68.5 C 196.586,69.0905 200.586,69.2572 204.5,69C 205.783,71.7947 205.783,74.6281 204.5,77.5C 203.005,67.1538 201.172,67.1538 199,77.5C 197.423,66.8643 195.59,66.8643 193.5,77.5C 192.516,74.5719 192.183,71.5719 192.5,68.5 Z"/></g>
<g><path style="opacity:1" fill="#353535" d="M 218.5,68.5 C 220.571,68.4977 222.738,68.8311 225,69.5C 225.667,72.1667 225.667,74.8333 225,77.5C 224.667,75.1667 224.333,72.8333 224,70.5C 222.413,69.273 221.079,69.6063 220,71.5C 219.667,73.5 219.333,75.5 219,77.5C 218.502,74.5184 218.335,71.5184 218.5,68.5 Z"/></g>
<g><path style="opacity:1" fill="#393939" d="M 277.5,69.5 C 277.806,72.3854 277.473,75.0521 276.5,77.5C 276.663,75.1432 276.497,72.8098 276,70.5C 274.413,69.273 273.079,69.6063 272,71.5C 271.667,73.5 271.333,75.5 271,77.5C 270.333,74.5 270.333,71.5 271,68.5C 273.17,68.3882 275.336,68.7215 277.5,69.5 Z"/></g>
<g><path style="opacity:1" fill="#f6f6f6" d="M 164.5,69.5 C 168.473,70.0755 169.473,72.2421 167.5,76C 166.216,76.6838 165.049,76.5171 164,75.5C 163.322,73.4024 163.489,71.4024 164.5,69.5 Z"/></g>
<g><path style="opacity:1" fill="#e6e6e6" d="M 251.5,69.5 C 255.473,70.0755 256.473,72.2421 254.5,76C 249.148,76.1754 248.148,74.0087 251.5,69.5 Z"/></g>
<g><path style="opacity:1" fill="#e5e5e5" d="M 286.5,69.5 C 287.833,71.8333 287.833,74.1667 286.5,76.5C 281.253,76.3602 280.253,74.1936 283.5,70C 284.448,69.5172 285.448,69.3505 286.5,69.5 Z"/></g>
<g><path style="opacity:1" fill="#939393" d="M 129.5,70.5 C 130.167,72.8333 130.833,75.1667 131.5,77.5C 131.44,78.0431 131.107,78.3764 130.5,78.5C 129.52,75.9135 129.187,73.2469 129.5,70.5 Z"/></g>
<g><path style="opacity:1" fill="#4c4c4c" d="M 181.5,68.5 C 183.369,70.6353 184.036,73.3019 183.5,76.5C 184.822,76.67 185.989,76.3366 187,75.5C 187.186,73.0995 187.686,70.7662 188.5,68.5C 189.484,71.4281 189.817,74.4281 189.5,77.5C 186.881,77.7683 184.381,77.435 182,76.5C 181.503,73.854 181.336,71.1873 181.5,68.5 Z"/></g>
<g><path style="opacity:1" fill="#404040" d="M 209.5,68.5 C 213.938,67.4251 215.938,69.0917 215.5,73.5C 207.979,73.5742 207.646,74.7408 214.5,77C 207.416,77.475 205.749,74.6417 209.5,68.5 Z"/></g>
<g><path style="opacity:1" fill="#bebebe" d="M 210.5,69.5 C 212.346,69.2222 213.68,69.8888 214.5,71.5C 212.833,72.8333 211.167,72.8333 209.5,71.5C 209.863,70.8165 210.196,70.1499 210.5,69.5 Z"/></g>
<g><path style="opacity:1" fill="#2c2c2c" d="M 286.5,69.5 C 285.448,69.3505 284.448,69.5172 283.5,70C 280.253,74.1936 281.253,76.3602 286.5,76.5C 285.054,77.6129 283.387,77.7796 281.5,77C 279.032,71.0446 280.699,68.5446 286.5,69.5 Z"/></g>
<g><path style="opacity:1" fill="#282828" d="M 287.5,64.5 C 288.485,68.6344 288.818,72.9677 288.5,77.5C 287.833,77.1667 287.167,76.8333 286.5,76.5C 287.833,74.1667 287.833,71.8333 286.5,69.5C 287.451,68.0813 287.784,66.4147 287.5,64.5 Z"/></g>
<g><path style="opacity:1" fill="#353535" d="M 125.5,64.5 C 125.216,66.4147 125.549,68.0813 126.5,69.5C 125.922,72.2804 125.255,74.9471 124.5,77.5C 124.182,72.9677 124.515,68.6344 125.5,64.5 Z"/></g>
<g><path style="opacity:1" fill="#252525" d="M 264.5,76.5 C 263.116,77.8009 261.616,77.8009 260,76.5C 259.333,73.8333 259.333,71.1667 260,68.5C 260.333,70.8333 260.667,73.1667 261,75.5C 262.011,76.3366 263.178,76.67 264.5,76.5 Z"/></g>
<g><path style="opacity:1" fill="#525252" d="M 323.5,68.5 C 331.23,67.1428 333.563,70.1428 330.5,77.5C 329.52,74.9135 329.187,72.2469 329.5,69.5C 328.178,69.33 327.011,69.6634 326,70.5C 325.814,72.9005 325.314,75.2338 324.5,77.5C 323.516,74.5719 323.183,71.5719 323.5,68.5 Z"/></g>
<g><path style="opacity:1" fill="#232323" d="M 70.5,23.5 C 62.3501,24.4927 54.0168,24.8261 45.5,24.5C 45.1701,41.6749 45.5034,58.6749 46.5,75.5C 59.8333,75.5 73.1667,75.5 86.5,75.5C 87.3303,65.3415 87.8303,55.0081 88,44.5C 88.4998,55.495 88.6665,66.495 88.5,77.5C 73.8333,77.5 59.1667,77.5 44.5,77.5C 44.5,59.5 44.5,41.5 44.5,23.5C 53.1667,23.5 61.8333,23.5 70.5,23.5 Z"/></g>
<g><path style="opacity:1" fill="#434343" d="M 264.5,76.5 C 265.073,73.8534 265.74,71.1867 266.5,68.5C 267.833,71.5 267.833,74.5 266.5,77.5C 265.817,77.1373 265.15,76.8039 264.5,76.5 Z"/></g>
<g><path style="opacity:1" fill="#3a3a3a" d="M 135.5,68.5 C 139.938,67.4251 141.938,69.0917 141.5,73.5C 133.726,74.1434 133.726,75.31 141.5,77C 133.807,78.1433 131.807,75.31 135.5,68.5 Z"/></g>
<g><path style="opacity:1" fill="#d6d6d6" d="M 136.5,69.5 C 138.346,69.2222 139.68,69.8888 140.5,71.5C 138.833,72.8333 137.167,72.8333 135.5,71.5C 135.863,70.8165 136.196,70.1499 136.5,69.5 Z"/></g>
<g><path style="opacity:1" fill="#313131" d="M 174.5,68.5 C 180.208,68.4924 180.541,68.9924 175.5,70C 172.13,74.7789 173.464,77.1122 179.5,77C 172.237,77.8209 170.571,74.9876 174.5,68.5 Z"/></g>
<g><path style="opacity:1" fill="#3f3f3f" d="M 292.5,69.5 C 294.223,68.193 296.057,68.193 298,69.5C 298.497,72.146 298.664,74.8127 298.5,77.5C 296.208,77.7564 294.041,77.4231 292,76.5C 291.701,72.7971 293.534,70.9638 297.5,71C 296.095,69.7308 294.429,69.2308 292.5,69.5 Z"/></g>
<g><path style="opacity:1" fill="#e6e6e6" d="M 294.5,72.5 C 296.176,73.1834 296.843,74.5168 296.5,76.5C 295.5,76.5 294.5,76.5 293.5,76.5C 293.433,75.0413 293.766,73.7079 294.5,72.5 Z"/></g>
<g><path style="opacity:1" fill="#323232" d="M 314.5,68.5 C 316.467,68.2606 318.301,68.5939 320,69.5C 322.183,76.6512 319.85,78.9845 313,76.5C 312.109,73.5024 312.609,70.8357 314.5,68.5 Z"/></g>
<g><path style="opacity:1" fill="#e4e4e4" d="M 315.5,69.5 C 319.473,70.0755 320.473,72.2421 318.5,76C 313.148,76.1754 312.148,74.0087 315.5,69.5 Z"/></g>
</svg>
