<?xml version="1.0" ?><!DOCTYPE svg  PUBLIC '-//W3C//DTD SVG 1.1//EN'  'http://www.w3.org/Graphics/SVG/1.1/DTD/svg11.dtd'><svg height="176.389mm" style="shape-rendering:geometricPrecision; text-rendering:geometricPrecision; image-rendering:optimizeQuality; fill-rule:evenodd; clip-rule:evenodd" version="1.1" viewBox="0 0 17639 17639" width="176.389mm" xml:space="preserve" xmlns="http://www.w3.org/2000/svg" xmlns:xlink="http://www.w3.org/1999/xlink"><defs><style type="text/css">
   <![CDATA[
    .fil0 {fill:#2B5797}
   ]]>
  </style></defs><g id="Layer_x0020_1"><path class="fil0" d="M3526 12823l5 -8040 6100 -1044 0 10125 -6105 -1041zm9610 -2714l-3264 0 0 -632 3264 0 0 -421 -3264 0 0 -631 3264 0 0 -421 -3264 0 0 -632 3264 0 0 -421 -3264 0 0 -632 3264 0 0 -421 -3264 0 6 -994 3951 0c212,-8 255,34 247,247l0 7267 0 70c3,127 -36,236 -247,212l-3951 0 -6 -1117 3264 0 0 -421 -3264 0 0 -632 3264 0 0 -421zm-11055 5484l13512 0 -18 -13494 -13494 0 0 13494z"/><path class="fil0" d="M7766 6933l-483 2594 -500 -2512 -677 39 -480 2382 -406 -2308 -598 7 622 3342 628 34 516 -2310 275 1171c80,398 161,779 235,1185l710 73 823 -3722 -665 25z"/></g></svg>