<?xml version="1.0" encoding="UTF-8"?>
<!DOCTYPE svg PUBLIC "-//W3C//DTD SVG 1.1//EN" "http://www.w3.org/Graphics/SVG/1.1/DTD/svg11.dtd">
<svg xmlns="http://www.w3.org/2000/svg" version="1.1" width="256px" height="256px" style="shape-rendering:geometricPrecision; text-rendering:geometricPrecision; image-rendering:optimizeQuality; fill-rule:evenodd; clip-rule:evenodd" xmlns:xlink="http://www.w3.org/1999/xlink">
<g><path style="opacity:1" fill="#822e2d" d="M 244.5,19.5 C 240.967,18.626 237.634,17.2927 234.5,15.5C 234.5,14.8333 234.167,14.5 233.5,14.5C 235.055,10.9887 236.889,7.65541 239,4.5C 242,6.16667 245,7.83333 248,9.5C 247.726,13.068 246.56,16.4013 244.5,19.5 Z"/></g>
<g><path style="opacity:0.712" fill="#615a54" d="M 233.5,14.5 C 234.167,14.5 234.5,14.8333 234.5,15.5C 231.323,20.5202 228.657,25.8535 226.5,31.5C 226.167,31.5 225.833,31.5 225.5,31.5C 227.411,25.4135 230.077,19.7468 233.5,14.5 Z"/></g>
<g><path style="opacity:1" fill="#7f7d7a" d="M 234.5,15.5 C 237.634,17.2927 240.967,18.626 244.5,19.5C 242.38,25.7402 239.713,31.7402 236.5,37.5C 236.167,37.5 235.833,37.5 235.5,37.5C 233.5,37.5 231.5,37.5 229.5,37.5C 229.5,37.1667 229.5,36.8333 229.5,36.5C 230.873,36.6567 232.207,36.49 233.5,36C 232.978,35.4387 232.645,34.772 232.5,34C 235.631,28.1391 236.298,21.9724 234.5,15.5 Z"/></g>
<g><path style="opacity:0.008" fill="#6e6d73" d="M 131.5,27.5 C 130.833,26.1667 130.833,26.1667 131.5,27.5 Z"/></g>
<g><path style="opacity:1" fill="#a4a4a3" d="M 234.5,15.5 C 236.298,21.9724 235.631,28.1391 232.5,34C 232.645,34.772 232.978,35.4387 233.5,36C 232.207,36.49 230.873,36.6567 229.5,36.5C 228.512,35.205 227.512,33.8717 226.5,32.5C 226.5,32.1667 226.5,31.8333 226.5,31.5C 228.657,25.8535 231.323,20.5202 234.5,15.5 Z"/></g>
<g><path style="opacity:0.996" fill="#f2f3f5" d="M 53.5,31.5 C 54.791,31.7373 55.791,31.404 56.5,30.5C 56.4226,29.2502 55.756,28.4169 54.5,28C 58.1667,27.3333 61.8333,27.3333 65.5,28C 63.0728,29.5545 63.0728,30.7211 65.5,31.5C 66.791,31.7373 67.791,31.404 68.5,30.5C 68.4226,29.2502 67.756,28.4169 66.5,28C 69.5,27.3333 72.5,27.3333 75.5,28C 73.0728,29.5545 73.0728,30.7211 75.5,31.5C 76.791,31.7373 77.791,31.404 78.5,30.5C 78.4226,29.2502 77.756,28.4169 76.5,28C 83.1667,27.3333 89.8333,27.3333 96.5,28C 93.8478,30.3719 93.8478,31.5386 96.5,31.5C 97.4916,31.6716 98.1583,31.3382 98.5,30.5C 99.6921,29.4341 99.3588,28.6008 97.5,28C 100.5,27.3333 103.5,27.3333 106.5,28C 104.216,29.3629 104.049,30.8629 106,32.5C 106.399,32.2716 106.565,31.9382 106.5,31.5C 107.492,31.6716 108.158,31.3382 108.5,30.5C 109.55,30.0954 109.55,29.4288 108.5,28.5C 111.106,27.3483 113.773,27.1816 116.5,28C 115.199,29.6155 115.199,31.1155 116.5,32.5C 118.027,32.573 119.027,31.9063 119.5,30.5C 119.196,29.8501 118.863,29.1835 118.5,28.5C 121.106,27.3483 123.773,27.1816 126.5,28C 126.519,29.5206 126.852,31.0206 127.5,32.5C 128.167,33.8333 128.833,33.8333 129.5,32.5C 133.156,38.451 134.489,44.7843 133.5,51.5C 116.833,51.5 100.167,51.5 83.5,51.5C 71.9931,50.8333 60.3264,50.1667 48.5,49.5C 48.0233,48.5224 47.3567,47.6891 46.5,47C 48.5,45.6667 50.5,44.3333 52.5,43C 52.1667,42.6667 51.8333,42.3333 51.5,42C 54.3266,40.6707 56.3266,38.504 57.5,35.5C 56.0095,34.7564 54.5095,34.0897 53,33.5C 51.1917,35.3959 49.025,35.8959 46.5,35C 43.7356,34.9942 41.7356,33.8275 40.5,31.5C 41.1667,31.5 41.8333,31.5 42.5,31.5C 43.791,31.7373 44.791,31.404 45.5,30.5C 45.4226,29.2502 44.756,28.4169 43.5,28C 46.8333,27.3333 50.1667,27.3333 53.5,28C 51.0728,29.5545 51.0728,30.7211 53.5,31.5 Z M 119.5,30.5 C 119.027,31.9063 118.027,32.573 116.5,32.5C 116.973,31.0937 117.973,30.427 119.5,30.5 Z M 98.5,30.5 C 98.1583,31.3382 97.4916,31.6716 96.5,31.5C 96.7107,29.5759 97.3774,29.2426 98.5,30.5 Z M 86.5,29.5 C 87.3764,29.3691 88.0431,29.7025 88.5,30.5C 86.1916,31.8734 85.5249,31.5401 86.5,29.5 Z M 78.5,30.5 C 77.791,31.404 76.791,31.7373 75.5,31.5C 75.8041,29.2043 76.8041,28.871 78.5,30.5 Z M 68.5,30.5 C 67.791,31.404 66.791,31.7373 65.5,31.5C 65.8041,29.2043 66.8041,28.871 68.5,30.5 Z M 56.5,30.5 C 55.791,31.404 54.791,31.7373 53.5,31.5C 53.8041,29.2043 54.8041,28.871 56.5,30.5 Z"/></g>
<g><path style="opacity:0.004" fill="#262527" d="M 131.5,28.5 C 131.5,28.1667 131.5,27.8333 131.5,27.5C 134.427,28.7573 136.761,30.7573 138.5,33.5C 137.833,33.5 137.5,33.8333 137.5,34.5C 136.167,33.8333 135.167,32.8333 134.5,31.5C 134.5,30.8333 134.167,30.5 133.5,30.5C 133.5,29.8333 133.167,29.5 132.5,29.5C 132.5,28.8333 132.167,28.5 131.5,28.5 Z"/></g>
<g><path style="opacity:1" fill="#9c9c9f" d="M 131.5,28.5 C 132.167,28.5 132.5,28.8333 132.5,29.5C 133.167,29.5 133.5,29.8333 133.5,30.5C 134.167,30.5 134.5,30.8333 134.5,31.5C 135.167,32.8333 136.167,33.8333 137.5,34.5C 137.833,34.5 138.167,34.5 138.5,34.5C 138.5,34.8333 138.5,35.1667 138.5,35.5C 139.167,36.5 139.833,37.5 140.5,38.5C 140.631,39.3764 140.298,40.0431 139.5,40.5C 138.38,39.1666 137.047,38.6666 135.5,39C 136.406,40.6995 136.739,42.5328 136.5,44.5C 139.127,43.9084 141.794,43.5751 144.5,43.5C 143.677,47.919 141.51,48.5856 138,45.5C 137.503,48.146 137.336,50.8127 137.5,53.5C 139.731,52.3762 142.064,51.8762 144.5,52C 142.408,52.9525 142.075,54.2859 143.5,56C 141.953,56.3334 140.62,55.8334 139.5,54.5C 138.614,55.325 138.281,56.325 138.5,57.5C 148.406,56.8086 158.073,57.8086 167.5,60.5C 169.404,60.7376 170.738,61.7376 171.5,63.5C 170.883,63.6107 170.383,63.944 170,64.5C 168.2,62.683 166.034,61.5163 163.5,61C 154.483,59.8558 145.483,59.5225 136.5,60C 135.972,56.9509 134.972,54.1176 133.5,51.5C 134.489,44.7843 133.156,38.451 129.5,32.5C 128.833,31.1667 128.167,31.1667 127.5,32.5C 126.852,31.0206 126.519,29.5206 126.5,28C 123.773,27.1816 121.106,27.3483 118.5,28.5C 118.863,29.1835 119.196,29.8501 119.5,30.5C 117.973,30.427 116.973,31.0937 116.5,32.5C 115.199,31.1155 115.199,29.6155 116.5,28C 113.773,27.1816 111.106,27.3483 108.5,28.5C 109.55,29.4288 109.55,30.0954 108.5,30.5C 107.508,30.3284 106.842,30.6618 106.5,31.5C 106.565,31.9382 106.399,32.2716 106,32.5C 104.049,30.8629 104.216,29.3629 106.5,28C 103.5,27.3333 100.5,27.3333 97.5,28C 99.3588,28.6008 99.6921,29.4341 98.5,30.5C 97.3774,29.2426 96.7107,29.5759 96.5,31.5C 93.8478,31.5386 93.8478,30.3719 96.5,28C 89.8333,27.3333 83.1667,27.3333 76.5,28C 77.756,28.4169 78.4226,29.2502 78.5,30.5C 76.8041,28.871 75.8041,29.2043 75.5,31.5C 73.0728,30.7211 73.0728,29.5545 75.5,28C 72.5,27.3333 69.5,27.3333 66.5,28C 67.756,28.4169 68.4226,29.2502 68.5,30.5C 66.8041,28.871 65.8041,29.2043 65.5,31.5C 63.0728,30.7211 63.0728,29.5545 65.5,28C 61.8333,27.3333 58.1667,27.3333 54.5,28C 55.756,28.4169 56.4226,29.2502 56.5,30.5C 54.8041,28.871 53.8041,29.2043 53.5,31.5C 51.0728,30.7211 51.0728,29.5545 53.5,28C 50.1667,27.3333 46.8333,27.3333 43.5,28C 44.756,28.4169 45.4226,29.2502 45.5,30.5C 43.8041,28.871 42.8041,29.2043 42.5,31.5C 41.8333,31.5 41.1667,31.5 40.5,31.5C 40.5106,29.9826 41.1772,28.8159 42.5,28C 39.1667,27.3333 35.8333,27.3333 32.5,28C 33.756,28.4169 34.4226,29.2502 34.5,30.5C 32.8041,28.871 31.8041,29.2043 31.5,31.5C 29.0728,30.7211 29.0728,29.5545 31.5,28C 28.1667,27.3333 24.8333,27.3333 21.5,28C 22.756,28.4169 23.4226,29.2502 23.5,30.5C 21.8041,28.871 20.8041,29.2043 20.5,31.5C 18.0728,30.7211 18.0728,29.5545 20.5,28C 18.8659,27.5065 17.1992,27.3398 15.5,27.5C 15.5,27.1667 15.5,26.8333 15.5,26.5C 39.1861,26.8036 62.8527,26.4703 86.5,25.5C 100.148,26.2803 113.815,26.7803 127.5,27C 128.745,27.7914 130.078,28.2914 131.5,28.5 Z M 119.5,30.5 C 119.027,31.9063 118.027,32.573 116.5,32.5C 116.973,31.0937 117.973,30.427 119.5,30.5 Z M 98.5,30.5 C 98.1583,31.3382 97.4916,31.6716 96.5,31.5C 96.7107,29.5759 97.3774,29.2426 98.5,30.5 Z M 86.5,29.5 C 85.5249,31.5401 86.1916,31.8734 88.5,30.5C 88.0431,29.7025 87.3764,29.3691 86.5,29.5 Z M 78.5,30.5 C 77.791,31.404 76.791,31.7373 75.5,31.5C 75.8041,29.2043 76.8041,28.871 78.5,30.5 Z M 68.5,30.5 C 67.791,31.404 66.791,31.7373 65.5,31.5C 65.8041,29.2043 66.8041,28.871 68.5,30.5 Z M 56.5,30.5 C 55.791,31.404 54.791,31.7373 53.5,31.5C 53.8041,29.2043 54.8041,28.871 56.5,30.5 Z M 45.5,30.5 C 44.791,31.404 43.791,31.7373 42.5,31.5C 42.8041,29.2043 43.8041,28.871 45.5,30.5 Z M 34.5,30.5 C 33.791,31.404 32.791,31.7373 31.5,31.5C 31.8041,29.2043 32.8041,28.871 34.5,30.5 Z M 23.5,30.5 C 22.791,31.404 21.791,31.7373 20.5,31.5C 20.8041,29.2043 21.8041,28.871 23.5,30.5 Z"/></g>
<g><path style="opacity:1" fill="#f8f8f9" d="M 15.5,27.5 C 17.1992,27.3398 18.8659,27.5065 20.5,28C 18.0728,29.5545 18.0728,30.7211 20.5,31.5C 21.791,31.7373 22.791,31.404 23.5,30.5C 23.4226,29.2502 22.756,28.4169 21.5,28C 24.8333,27.3333 28.1667,27.3333 31.5,28C 29.0728,29.5545 29.0728,30.7211 31.5,31.5C 32.791,31.7373 33.791,31.404 34.5,30.5C 34.4226,29.2502 33.756,28.4169 32.5,28C 35.8333,27.3333 39.1667,27.3333 42.5,28C 41.1772,28.8159 40.5106,29.9826 40.5,31.5C 41.7356,33.8275 43.7356,34.9942 46.5,35C 49.025,35.8959 51.1917,35.3959 53,33.5C 54.5095,34.0897 56.0095,34.7564 57.5,35.5C 56.3266,38.504 54.3266,40.6707 51.5,42C 51.8333,42.3333 52.1667,42.6667 52.5,43C 50.5,44.3333 48.5,45.6667 46.5,47C 47.3567,47.6891 48.0233,48.5224 48.5,49.5C 60.3264,50.1667 71.9931,50.8333 83.5,51.5C 60.8333,51.5 38.1667,51.5 15.5,51.5C 15.5,43.5 15.5,35.5 15.5,27.5 Z M 34.5,30.5 C 33.791,31.404 32.791,31.7373 31.5,31.5C 31.8041,29.2043 32.8041,28.871 34.5,30.5 Z M 23.5,30.5 C 22.791,31.404 21.791,31.7373 20.5,31.5C 20.8041,29.2043 21.8041,28.871 23.5,30.5 Z"/></g>
<g><path style="opacity:1" fill="#efb217" d="M 226.5,32.5 C 227.512,33.8717 228.512,35.205 229.5,36.5C 229.5,36.8333 229.5,37.1667 229.5,37.5C 213.011,72.9918 196.345,108.325 179.5,143.5C 178.335,142.504 177.668,141.171 177.5,139.5C 178.467,137.238 179.134,134.905 179.5,132.5C 179.5,131.5 179.5,130.5 179.5,129.5C 181.008,127.819 182.008,125.819 182.5,123.5C 182.833,123.5 183.167,123.5 183.5,123.5C 198.026,93.2522 212.36,62.9189 226.5,32.5 Z"/></g>
<g><path style="opacity:1" fill="#e3960c" d="M 229.5,37.5 C 231.5,37.5 233.5,37.5 235.5,37.5C 218.817,70.5277 202.984,103.861 188,137.5C 187.495,139.518 186.995,141.518 186.5,143.5C 184.059,144.756 181.726,144.756 179.5,143.5C 196.345,108.325 213.011,72.9918 229.5,37.5 Z"/></g>
<g><path style="opacity:0.11" fill="#3a3a3c" d="M 138.5,34.5 C 138.5,34.1667 138.5,33.8333 138.5,33.5C 143.329,36.8081 148.329,39.9748 153.5,43C 154.267,44.4705 154.933,45.9705 155.5,47.5C 154.833,47.5 154.5,47.8333 154.5,48.5C 150.112,44.7786 145.445,41.4453 140.5,38.5C 139.833,37.5 139.167,36.5 138.5,35.5C 139.833,35.1667 139.833,34.8333 138.5,34.5 Z"/></g>
<g><path style="opacity:1" fill="#dbdbdf" d="M 140.5,38.5 C 145.445,41.4453 150.112,44.7786 154.5,48.5C 154.833,48.5 155.167,48.5 155.5,48.5C 155.5,48.8333 155.5,49.1667 155.5,49.5C 159.5,53.1667 163.5,56.8333 167.5,60.5C 158.073,57.8086 148.406,56.8086 138.5,57.5C 138.281,56.325 138.614,55.325 139.5,54.5C 140.62,55.8334 141.953,56.3334 143.5,56C 142.075,54.2859 142.408,52.9525 144.5,52C 142.064,51.8762 139.731,52.3762 137.5,53.5C 137.336,50.8127 137.503,48.146 138,45.5C 141.51,48.5856 143.677,47.919 144.5,43.5C 141.794,43.5751 139.127,43.9084 136.5,44.5C 136.739,42.5328 136.406,40.6995 135.5,39C 137.047,38.6666 138.38,39.1666 139.5,40.5C 140.298,40.0431 140.631,39.3764 140.5,38.5 Z"/></g>
<g><path style="opacity:1" fill="#f8f7f9" d="M 15.5,60.5 C 52.1682,60.3333 88.8348,60.5 125.5,61C 115.5,61.3333 105.5,61.6667 95.5,62C 92.9237,63.1221 90.257,64.1221 87.5,65C 101.339,65.1689 115.006,65.6689 128.5,66.5C 90.8299,66.5181 53.1632,66.8514 15.5,67.5C 15.5,65.1667 15.5,62.8333 15.5,60.5 Z"/></g>
<g><path style="opacity:1" fill="#e3e7ec" d="M 15.5,51.5 C 38.1667,51.5 60.8333,51.5 83.5,51.5C 100.167,51.5 116.833,51.5 133.5,51.5C 134.972,54.1176 135.972,56.9509 136.5,60C 145.483,59.5225 154.483,59.8558 163.5,61C 166.034,61.5163 168.2,62.683 170,64.5C 170.383,63.944 170.883,63.6107 171.5,63.5C 172.338,63.8417 172.672,64.5084 172.5,65.5C 158.01,66.496 143.343,66.8293 128.5,66.5C 115.006,65.6689 101.339,65.1689 87.5,65C 90.257,64.1221 92.9237,63.1221 95.5,62C 105.5,61.6667 115.5,61.3333 125.5,61C 88.8348,60.5 52.1682,60.3333 15.5,60.5C 15.5,57.5 15.5,54.5 15.5,51.5 Z"/></g>
<g><path style="opacity:1" fill="#f7f7f8" d="M 16.5,53.5 C 55.5,53.5 94.5,53.5 133.5,53.5C 133.5,55.1667 133.5,56.8333 133.5,58.5C 94.5051,59.2802 55.5051,59.6136 16.5,59.5C 16.5,57.5 16.5,55.5 16.5,53.5 Z"/></g>
<g><path style="opacity:1" fill="#bed2db" d="M 172.5,65.5 C 172.833,65.5 173.167,65.5 173.5,65.5C 173.5,66.1667 173.5,66.8333 173.5,67.5C 142.662,67.1685 111.995,67.5019 81.5,68.5C 59.5,68.5 37.5,68.5 15.5,68.5C 15.5,68.1667 15.5,67.8333 15.5,67.5C 53.1632,66.8514 90.8299,66.5181 128.5,66.5C 143.343,66.8293 158.01,66.496 172.5,65.5 Z"/></g>
<g><path style="opacity:0.499" fill="#b37704" d="M 225.5,31.5 C 225.833,31.5 226.167,31.5 226.5,31.5C 226.5,31.8333 226.5,32.1667 226.5,32.5C 212.36,62.9189 198.026,93.2522 183.5,123.5C 184.167,120.833 184.833,118.167 185.5,115.5C 198.833,87.5 212.167,59.5 225.5,31.5 Z"/></g>
<g><path style="opacity:1" fill="#eff0f4" d="M 81.5,68.5 C 111.995,67.5019 142.662,67.1685 173.5,67.5C 173.5,67.8333 173.5,68.1667 173.5,68.5C 173.5,70.1667 173.5,71.8333 173.5,73.5C 148.493,73.4435 123.493,73.7769 98.5,74.5C 95.0381,73.5184 91.3714,73.185 87.5,73.5C 87.5,72.1667 87.5,70.8333 87.5,69.5C 93.1764,69.6661 98.8431,69.4994 104.5,69C 96.8406,68.5003 89.1739,68.3336 81.5,68.5 Z"/></g>
<g><path style="opacity:1" fill="#f6f6f8" d="M 15.5,68.5 C 37.5,68.5 59.5,68.5 81.5,68.5C 89.1739,68.3336 96.8406,68.5003 104.5,69C 98.8431,69.4994 93.1764,69.6661 87.5,69.5C 87.5,70.8333 87.5,72.1667 87.5,73.5C 91.3714,73.185 95.0381,73.5184 98.5,74.5C 70.8272,74.438 43.1606,74.7713 15.5,75.5C 15.5,73.1667 15.5,70.8333 15.5,68.5 Z"/></g>
<g><path style="opacity:1" fill="#c3d6de" d="M 173.5,68.5 C 174.461,70.2646 174.795,72.2646 174.5,74.5C 121.503,75.3398 68.5027,76.0065 15.5,76.5C 15.5,76.1667 15.5,75.8333 15.5,75.5C 43.1606,74.7713 70.8272,74.438 98.5,74.5C 123.493,73.7769 148.493,73.4435 173.5,73.5C 173.5,71.8333 173.5,70.1667 173.5,68.5 Z"/></g>
<g><path style="opacity:1" fill="#f4f4f7" d="M 174.5,74.5 C 174.5,76.5 174.5,78.5 174.5,80.5C 121.5,81.3829 68.5002,82.3829 15.5,83.5C 15.5,81.1667 15.5,78.8333 15.5,76.5C 68.5027,76.0065 121.503,75.3398 174.5,74.5 Z"/></g>
<g><path style="opacity:1" fill="#e0e6eb" d="M 174.5,74.5 C 175.725,79.2895 176.392,84.2895 176.5,89.5C 175.761,89.631 175.094,89.4643 174.5,89C 175.38,87.6439 175.714,86.1439 175.5,84.5C 173.088,84.244 171.421,85.244 170.5,87.5C 169.833,87.1667 169.167,86.8333 168.5,86.5C 158.213,87.31 147.88,87.81 137.5,88C 149.514,88.1674 161.514,88.6674 173.5,89.5C 151.004,90.1667 128.67,90.8333 106.5,91.5C 105.097,88.2908 102.597,86.9574 99,87.5C 95.1876,87.3235 92.0209,88.6568 89.5,91.5C 87.0163,89.517 84.6829,87.3504 82.5,85C 80.1902,84.5034 77.8568,84.3367 75.5,84.5C 55.6712,83.9442 35.6712,83.9442 15.5,84.5C 15.5,84.1667 15.5,83.8333 15.5,83.5C 68.5002,82.3829 121.5,81.3829 174.5,80.5C 174.5,78.5 174.5,76.5 174.5,74.5 Z"/></g>
<g><path style="opacity:1" fill="#f2f3f5" d="M 75.5,84.5 C 71.4449,87.3692 69.4449,91.3692 69.5,96.5C 59.8457,92.3462 51.8457,94.3462 45.5,102.5C 41.7422,102.907 38.0756,102.907 34.5,102.5C 30.6382,105.155 26.4715,105.821 22,104.5C 20.2087,106.513 18.8753,106.513 18,104.5C 18.1084,109.28 17.275,113.614 15.5,117.5C 15.5,106.5 15.5,95.5 15.5,84.5C 35.6712,83.9442 55.6712,83.9442 75.5,84.5 Z"/></g>
<g><path style="opacity:0.046" fill="#57565a" d="M 155.5,48.5 C 155.5,48.1667 155.5,47.8333 155.5,47.5C 163.724,51.8896 170.558,57.8896 176,65.5C 180.956,81.8094 184.123,98.4761 185.5,115.5C 184.833,118.167 184.167,120.833 183.5,123.5C 183.167,123.5 182.833,123.5 182.5,123.5C 180.765,111.995 178.765,100.662 176.5,89.5C 176.392,84.2895 175.725,79.2895 174.5,74.5C 174.795,72.2646 174.461,70.2646 173.5,68.5C 173.5,68.1667 173.5,67.8333 173.5,67.5C 173.5,66.8333 173.5,66.1667 173.5,65.5C 173.167,65.5 172.833,65.5 172.5,65.5C 172.672,64.5084 172.338,63.8417 171.5,63.5C 170.738,61.7376 169.404,60.7376 167.5,60.5C 163.5,56.8333 159.5,53.1667 155.5,49.5C 156.833,49.1667 156.833,48.8333 155.5,48.5 Z"/></g>
<g><path style="opacity:1" fill="#eaece6" d="M 176.5,89.5 C 178.765,100.662 180.765,111.995 182.5,123.5C 182.008,125.819 181.008,127.819 179.5,129.5C 179.425,126.794 179.092,124.127 178.5,121.5C 178.198,118.627 177.531,115.961 176.5,113.5C 176.167,110.833 175.833,108.167 175.5,105.5C 174.735,102.904 174.401,100.237 174.5,97.5C 170.154,97.3343 165.821,97.501 161.5,98C 159.99,98.8498 158.49,99.6831 157,100.5C 153.157,97.3883 149.99,97.8883 147.5,102C 145.765,102.651 144.098,102.485 142.5,101.5C 141.784,102.311 140.95,102.978 140,103.5C 138.248,101.998 136.248,100.998 134,100.5C 131.889,101.472 129.722,102.305 127.5,103C 127.957,103.414 128.291,103.914 128.5,104.5C 120.862,105.497 113.196,105.831 105.5,105.5C 106.314,100.881 106.647,96.2142 106.5,91.5C 128.67,90.8333 151.004,90.1667 173.5,89.5C 161.514,88.6674 149.514,88.1674 137.5,88C 147.88,87.81 158.213,87.31 168.5,86.5C 169.167,86.8333 169.833,87.1667 170.5,87.5C 171.421,85.244 173.088,84.244 175.5,84.5C 175.714,86.1439 175.38,87.6439 174.5,89C 175.094,89.4643 175.761,89.631 176.5,89.5 Z"/></g>
<g><path style="opacity:1" fill="#e8ecdf" d="M 45.5,102.5 C 42.467,108.266 40.467,114.266 39.5,120.5C 39.5,119.5 39.5,118.5 39.5,117.5C 32.5197,118.165 25.5197,118.498 18.5,118.5C 18.5,121.5 18.5,124.5 18.5,127.5C 18.5,130.5 18.5,133.5 18.5,136.5C 18.5,139.5 18.5,142.5 18.5,145.5C 18.5,147.833 18.5,150.167 18.5,152.5C 18.1667,152.5 17.8333,152.5 17.5,152.5C 18.135,143.766 17.4684,135.433 15.5,127.5C 15.5,124.167 15.5,120.833 15.5,117.5C 17.275,113.614 18.1084,109.28 18,104.5C 18.8753,106.513 20.2087,106.513 22,104.5C 26.4715,105.821 30.6382,105.155 34.5,102.5C 38.0756,102.907 41.7422,102.907 45.5,102.5 Z"/></g>
<g><path style="opacity:0.489" fill="#bf841a" d="M 235.5,37.5 C 235.833,37.5 236.167,37.5 236.5,37.5C 220.893,71.0476 205.559,104.714 190.5,138.5C 189.263,139.965 188.263,141.632 187.5,143.5C 187.167,143.5 186.833,143.5 186.5,143.5C 186.995,141.518 187.495,139.518 188,137.5C 202.984,103.861 218.817,70.5277 235.5,37.5 Z"/></g>
<g><path style="opacity:1" fill="#e5e9c9" d="M 175.5,105.5 C 169.167,105.5 162.833,105.5 156.5,105.5C 156.5,106.5 156.5,107.5 156.5,108.5C 154.325,108.318 152.325,107.651 150.5,106.5C 148.671,107.465 146.838,108.465 145,109.5C 142.461,110.602 139.961,110.602 137.5,109.5C 136.833,110.5 136.167,111.5 135.5,112.5C 130.428,111.234 125.428,109.901 120.5,108.5C 118.165,108.782 115.998,110.115 114,112.5C 113.363,110.697 112.197,109.364 110.5,108.5C 107.487,109.733 104.82,111.4 102.5,113.5C 101.859,112.518 101.193,111.518 100.5,110.5C 102.188,108.812 103.854,107.146 105.5,105.5C 113.196,105.831 120.862,105.497 128.5,104.5C 128.291,103.914 127.957,103.414 127.5,103C 129.722,102.305 131.889,101.472 134,100.5C 136.248,100.998 138.248,101.998 140,103.5C 140.95,102.978 141.784,102.311 142.5,101.5C 144.098,102.485 145.765,102.651 147.5,102C 149.99,97.8883 153.157,97.3883 157,100.5C 158.49,99.6831 159.99,98.8498 161.5,98C 165.821,97.501 170.154,97.3343 174.5,97.5C 174.401,100.237 174.735,102.904 175.5,105.5 Z"/></g>
<g><path style="opacity:1" fill="#e5e9b0" d="M 175.5,105.5 C 175.833,108.167 176.167,110.833 176.5,113.5C 164.81,113.468 153.144,113.301 141.5,113C 142.167,113.333 142.833,113.667 143.5,114C 129.847,114.924 116.18,115.424 102.5,115.5C 102.5,114.833 102.5,114.167 102.5,113.5C 104.82,111.4 107.487,109.733 110.5,108.5C 112.197,109.364 113.363,110.697 114,112.5C 115.998,110.115 118.165,108.782 120.5,108.5C 125.428,109.901 130.428,111.234 135.5,112.5C 136.167,111.5 136.833,110.5 137.5,109.5C 139.961,110.602 142.461,110.602 145,109.5C 146.838,108.465 148.671,107.465 150.5,106.5C 152.325,107.651 154.325,108.318 156.5,108.5C 156.5,107.5 156.5,106.5 156.5,105.5C 162.833,105.5 169.167,105.5 175.5,105.5 Z"/></g>
<g><path style="opacity:1" fill="#edf0b6" d="M 39.5,120.5 C 39.5,122.5 39.5,124.5 39.5,126.5C 32.4903,126.668 25.4903,127.001 18.5,127.5C 18.5,124.5 18.5,121.5 18.5,118.5C 25.5197,118.498 32.5197,118.165 39.5,117.5C 39.5,118.5 39.5,119.5 39.5,120.5 Z"/></g>
<g><path style="opacity:1" fill="#e4e895" d="M 176.5,113.5 C 177.531,115.961 178.198,118.627 178.5,121.5C 153.498,122.2 128.498,123.033 103.5,124C 101.256,124.05 99.5893,124.883 98.5,126.5C 95.666,126.834 92.9993,126.834 90.5,126.5C 89.8333,126.5 89.1667,126.5 88.5,126.5C 88.4606,125.417 88.1272,124.417 87.5,123.5C 91.1081,122.181 94.7748,121.014 98.5,120C 100.041,118.629 101.375,117.129 102.5,115.5C 116.18,115.424 129.847,114.924 143.5,114C 142.833,113.667 142.167,113.333 141.5,113C 153.144,113.301 164.81,113.468 176.5,113.5 Z"/></g>
<g><path style="opacity:1" fill="#201d1d" d="M 75.5,84.5 C 77.8568,84.3367 80.1902,84.5034 82.5,85C 84.6829,87.3504 87.0163,89.517 89.5,91.5C 92.0209,88.6568 95.1876,87.3235 99,87.5C 102.597,86.9574 105.097,88.2908 106.5,91.5C 106.647,96.2142 106.314,100.881 105.5,105.5C 103.854,107.146 102.188,108.812 100.5,110.5C 101.193,111.518 101.859,112.518 102.5,113.5C 102.5,114.167 102.5,114.833 102.5,115.5C 101.375,117.129 100.041,118.629 98.5,120C 94.7748,121.014 91.1081,122.181 87.5,123.5C 88.1272,124.417 88.4606,125.417 88.5,126.5C 86.8546,125.521 85.5213,124.188 84.5,122.5C 83.479,123.002 83.3123,123.668 84,124.5C 85.1667,125.667 86.3333,126.833 87.5,128C 89.1686,128.122 90.8353,127.788 92.5,127C 91.9056,126.536 91.2389,126.369 90.5,126.5C 92.9993,126.834 95.666,126.834 98.5,126.5C 103.959,126.682 109.293,127.515 114.5,129C 114.833,129.333 115.167,129.667 115.5,130C 113.389,130.845 111.389,131.678 109.5,132.5C 105.642,133.839 101.642,134.673 97.5,135C 94.2406,140.539 90.5739,140.872 86.5,136C 83.0658,135.109 79.8991,135.609 77,137.5C 76.0979,137.257 75.2646,136.923 74.5,136.5C 74.4729,134.801 73.8062,133.467 72.5,132.5C 73.0431,132.44 73.3764,132.107 73.5,131.5C 70.5535,130.679 67.5535,130.179 64.5,130C 67.2263,129.818 69.8929,129.318 72.5,128.5C 71.8728,127.583 71.5394,126.583 71.5,125.5C 72.1174,125.611 72.6174,125.944 73,126.5C 73.4966,124.19 73.6633,121.857 73.5,119.5C 73.6395,117.663 74.3061,117.33 75.5,118.5C 74.7542,119.736 74.4208,121.07 74.5,122.5C 78.7716,123.013 82.6049,122.013 86,119.5C 91.6029,120.292 96.4362,118.625 100.5,114.5C 99.4202,109.919 96.5868,107.252 92,106.5C 89.6183,107.744 87.785,109.577 86.5,112C 78.3756,113.735 73.0423,110.568 70.5,102.5C 70.67,101.178 70.3366,100.011 69.5,99C 57.4662,94.6824 49.1329,98.5158 44.5,110.5C 43.6373,112.421 42.9707,114.421 42.5,116.5C 40.9372,120.661 40.2705,124.995 40.5,129.5C 41.675,129.719 42.675,129.386 43.5,128.5C 43.9324,125.819 45.2657,123.819 47.5,122.5C 47.7118,120.616 48.7118,119.283 50.5,118.5C 50.6759,120.672 50.8425,123.005 51,125.5C 51.2784,126.416 51.7784,127.082 52.5,127.5C 52.4431,128.609 52.1098,129.609 51.5,130.5C 50.0937,130.973 49.427,131.973 49.5,133.5C 48.8333,134.833 48.1667,134.833 47.5,133.5C 46.8478,132.275 45.6811,131.608 44,131.5C 41.9919,131.307 40.4919,131.974 39.5,133.5C 39.1667,133.5 38.8333,133.5 38.5,133.5C 38.44,132.957 38.1067,132.624 37.5,132.5C 36.6667,133.5 35.8333,134.5 35,135.5C 35.5258,133.773 35.3591,132.106 34.5,130.5C 37.9496,131.244 39.6162,129.91 39.5,126.5C 39.5,124.5 39.5,122.5 39.5,120.5C 40.467,114.266 42.467,108.266 45.5,102.5C 51.8457,94.3462 59.8457,92.3462 69.5,96.5C 69.4449,91.3692 71.4449,87.3692 75.5,84.5 Z"/></g>
<g><path style="opacity:1" fill="#9deb78" d="M 69.5,102.5 C 69.8333,102.5 70.1667,102.5 70.5,102.5C 73.0423,110.568 78.3756,113.735 86.5,112C 87.785,109.577 89.6183,107.744 92,106.5C 96.5868,107.252 99.4202,109.919 100.5,114.5C 96.4362,118.625 91.6029,120.292 86,119.5C 82.6049,122.013 78.7716,123.013 74.5,122.5C 74.4208,121.07 74.7542,119.736 75.5,118.5C 74.3061,117.33 73.6395,117.663 73.5,119.5C 72.8333,121.167 72.1667,122.833 71.5,124.5C 71.6621,122.473 71.4955,120.473 71,118.5C 69.7308,119.905 69.2308,121.571 69.5,123.5C 65.4618,124.863 61.4618,124.696 57.5,123C 56.2298,122.1 55.2298,120.934 54.5,119.5C 52.7711,121.851 52.1044,124.518 52.5,127.5C 51.7784,127.082 51.2784,126.416 51,125.5C 50.8425,123.005 50.6759,120.672 50.5,118.5C 48.7118,119.283 47.7118,120.616 47.5,122.5C 45.2657,123.819 43.9324,125.819 43.5,128.5C 42.675,129.386 41.675,129.719 40.5,129.5C 40.2705,124.995 40.9372,120.661 42.5,116.5C 43.8333,116.5 45.1667,116.5 46.5,116.5C 46.811,112.83 48.4777,109.83 51.5,107.5C 54.0858,108.21 56.0858,107.21 57.5,104.5C 59.5128,105.596 61.3461,105.263 63,103.5C 64.3333,104.167 65.6667,104.833 67,105.5C 67.1473,104.378 67.9806,103.378 69.5,102.5 Z"/></g>
<g><path style="opacity:1" fill="#6ed46d" d="M 69.5,102.5 C 67.9806,103.378 67.1473,104.378 67,105.5C 65.6667,104.833 64.3333,104.167 63,103.5C 61.3461,105.263 59.5128,105.596 57.5,104.5C 56.0858,107.21 54.0858,108.21 51.5,107.5C 48.4777,109.83 46.811,112.83 46.5,116.5C 45.1667,116.5 43.8333,116.5 42.5,116.5C 42.9707,114.421 43.6373,112.421 44.5,110.5C 45.4959,110.586 46.3292,110.252 47,109.5C 50.1143,100.275 56.1143,97.2754 65,100.5C 66.1074,100.415 67.1074,100.081 68,99.5C 69.1563,100.502 69.6563,101.502 69.5,102.5 Z"/></g>
<g><path style="opacity:1" fill="#95e39f" d="M 70.5,102.5 C 70.1667,102.5 69.8333,102.5 69.5,102.5C 69.6563,101.502 69.1563,100.502 68,99.5C 67.1074,100.081 66.1074,100.415 65,100.5C 56.1143,97.2754 50.1143,100.275 47,109.5C 46.3292,110.252 45.4959,110.586 44.5,110.5C 49.1329,98.5158 57.4662,94.6824 69.5,99C 70.3366,100.011 70.67,101.178 70.5,102.5 Z"/></g>
<g><path style="opacity:1" fill="#edeeed" d="M 94.5,89.5 C 104.439,88.6834 107.606,93.0168 104,102.5C 102.71,104.792 101.043,106.792 99,108.5C 97.1588,105.822 94.6588,104.155 91.5,103.5C 89.4986,98.047 90.4986,93.3803 94.5,89.5 Z"/></g>
<g><path style="opacity:1" fill="#080506" d="M 100.5,95.5 C 101.586,95.62 102.253,96.2867 102.5,97.5C 101.696,99.9573 100.696,99.9573 99.5,97.5C 99.8627,96.8165 100.196,96.1499 100.5,95.5 Z"/></g>
<g><path style="opacity:1" fill="#f5f6f5" d="M 77.5,85.5 C 79.4835,85.3832 81.1502,86.0499 82.5,87.5C 88.3205,92.8746 90.1538,99.5413 88,107.5C 82.7277,111.89 78.061,111.223 74,105.5C 69.9057,97.722 71.0723,91.0554 77.5,85.5 Z"/></g>
<g><path style="opacity:1" fill="#222121" d="M 76.5,97.5 C 80.9195,98.0898 81.5862,100.09 78.5,103.5C 75.6095,102.163 74.9428,100.163 76.5,97.5 Z"/></g>
<g><path style="opacity:1" fill="#527c46" d="M 73.5,119.5 C 73.6633,121.857 73.4966,124.19 73,126.5C 72.6174,125.944 72.1174,125.611 71.5,125.5C 71.5,125.167 71.5,124.833 71.5,124.5C 72.1667,122.833 72.8333,121.167 73.5,119.5 Z"/></g>
<g><path style="opacity:1" fill="#e2ea73" d="M 178.5,121.5 C 179.092,124.127 179.425,126.794 179.5,129.5C 163.827,130.068 148.16,130.735 132.5,131.5C 124.83,131.778 117.164,132.111 109.5,132.5C 111.389,131.678 113.389,130.845 115.5,130C 115.167,129.667 114.833,129.333 114.5,129C 109.293,127.515 103.959,126.682 98.5,126.5C 99.5893,124.883 101.256,124.05 103.5,124C 128.498,123.033 153.498,122.2 178.5,121.5 Z"/></g>
<g><path style="opacity:1" fill="#bbd286" d="M 51.5,130.5 C 52.1098,129.609 52.4431,128.609 52.5,127.5C 53.1174,127.611 53.6174,127.944 54,128.5C 54.49,127.207 54.6567,125.873 54.5,124.5C 55.5,124.5 56.5,124.5 57.5,124.5C 57.7985,128.653 55.7985,130.653 51.5,130.5 Z"/></g>
<g><path style="opacity:1" fill="#ceca7d" d="M 71.5,125.5 C 71.5394,126.583 71.8728,127.583 72.5,128.5C 69.8929,129.318 67.2263,129.818 64.5,130C 67.5535,130.179 70.5535,130.679 73.5,131.5C 73.3764,132.107 73.0431,132.44 72.5,132.5C 69.1194,132.46 65.7861,132.793 62.5,133.5C 59.1418,133.755 55.8084,133.255 52.5,132C 56.211,131.825 59.8776,131.325 63.5,130.5C 62.9478,128.997 62.9478,127.331 63.5,125.5C 66.1667,125.5 68.8333,125.5 71.5,125.5 Z"/></g>
<g><path style="opacity:1" fill="#bad07b" d="M 74.5,124.5 C 78.9108,123.66 82.5775,124.827 85.5,128C 80.0262,126.441 76.8596,128.607 76,134.5C 75.7266,132.899 75.2266,131.399 74.5,130C 75.1667,129.667 75.8333,129.333 76.5,129C 74.9632,127.89 74.2965,126.39 74.5,124.5 Z"/></g>
<g><path style="opacity:1" fill="#5c9956" d="M 88.5,126.5 C 89.1667,126.5 89.8333,126.5 90.5,126.5C 91.2389,126.369 91.9056,126.536 92.5,127C 90.8353,127.788 89.1686,128.122 87.5,128C 86.3333,126.833 85.1667,125.667 84,124.5C 83.3123,123.668 83.479,123.002 84.5,122.5C 85.5213,124.188 86.8546,125.521 88.5,126.5 Z"/></g>
<g><path style="opacity:1" fill="#dce192" d="M 47.5,122.5 C 49.12,123.841 50.12,125.674 50.5,128C 49.4366,129.188 48.1033,129.688 46.5,129.5C 46.448,127.097 46.7814,124.764 47.5,122.5 Z"/></g>
<g><path style="opacity:1" fill="#e8ee97" d="M 39.5,126.5 C 39.6162,129.91 37.9496,131.244 34.5,130.5C 32.5853,130.216 30.9187,130.549 29.5,131.5C 28.8333,131.5 28.5,131.833 28.5,132.5C 26.0882,132.694 25.0882,134.027 25.5,136.5C 23.1667,136.5 20.8333,136.5 18.5,136.5C 18.5,133.5 18.5,130.5 18.5,127.5C 25.4903,127.001 32.4903,126.668 39.5,126.5 Z"/></g>
<g><path style="opacity:1" fill="#f7f7f7" d="M 102.5,128.5 C 104.167,128.5 105.833,128.5 107.5,128.5C 107.719,129.675 107.386,130.675 106.5,131.5C 101.774,134.984 100.441,133.984 102.5,128.5 Z"/></g>
<g><path style="opacity:1" fill="#f3e67f" d="M 97.5,130.5 C 94.6146,130.806 91.9479,130.473 89.5,129.5C 92.4686,128.671 95.4686,128.505 98.5,129C 99.7119,130.107 99.3786,130.607 97.5,130.5 Z"/></g>
<g><path style="opacity:1" fill="#d3ba66" d="M 79.5,129.5 C 81.604,129.201 83.604,129.534 85.5,130.5C 83.2351,131.647 80.9018,131.814 78.5,131C 79.056,130.617 79.3893,130.117 79.5,129.5 Z"/></g>
<g><path style="opacity:1" fill="#887647" d="M 89.5,129.5 C 91.9479,130.473 94.6146,130.806 97.5,130.5C 97.8039,131.15 98.1373,131.817 98.5,132.5C 96.9547,133.452 95.288,133.785 93.5,133.5C 93.1583,132.662 92.4916,132.328 91.5,132.5C 90.6016,131.842 89.6016,131.176 88.5,130.5C 88.6236,129.893 88.9569,129.56 89.5,129.5 Z"/></g>
<g><path style="opacity:1" fill="#211e1c" d="M 71.5,124.5 C 71.5,124.833 71.5,125.167 71.5,125.5C 68.8333,125.5 66.1667,125.5 63.5,125.5C 62.9478,127.331 62.9478,128.997 63.5,130.5C 59.8776,131.325 56.211,131.825 52.5,132C 55.8084,133.255 59.1418,133.755 62.5,133.5C 62.5,133.833 62.5,134.167 62.5,134.5C 60.076,134.192 57.7427,134.526 55.5,135.5C 55.9569,136.298 56.6236,136.631 57.5,136.5C 57.5,136.833 57.5,137.167 57.5,137.5C 55.4513,138.641 53.4513,138.641 51.5,137.5C 51.0825,136.778 50.4158,136.278 49.5,136C 50.7839,135.316 51.9505,135.483 53,136.5C 53.5281,135.184 53.0281,134.517 51.5,134.5C 51.5,133.167 51.5,131.833 51.5,130.5C 55.7985,130.653 57.7985,128.653 57.5,124.5C 56.5,124.5 55.5,124.5 54.5,124.5C 54.6567,125.873 54.49,127.207 54,128.5C 53.6174,127.944 53.1174,127.611 52.5,127.5C 52.1044,124.518 52.7711,121.851 54.5,119.5C 55.2298,120.934 56.2298,122.1 57.5,123C 61.4618,124.696 65.4618,124.863 69.5,123.5C 69.2308,121.571 69.7308,119.905 71,118.5C 71.4955,120.473 71.6621,122.473 71.5,124.5 Z"/></g>
<g><path style="opacity:1" fill="#7ee876" d="M 59.5,127.5 C 61.337,127.639 61.6704,128.306 60.5,129.5C 59.7025,129.043 59.3691,128.376 59.5,127.5 Z"/></g>
<g><path style="opacity:1" fill="#d9ea4f" d="M 179.5,129.5 C 179.5,130.5 179.5,131.5 179.5,132.5C 176.461,136.255 174.794,140.588 174.5,145.5C 167.833,145.5 161.167,145.5 154.5,145.5C 154.977,142.083 153.977,139.416 151.5,137.5C 142.503,138.682 133.503,138.682 124.5,137.5C 123.121,136.137 123.287,135.137 125,134.5C 127.542,135.902 130.208,136.902 133,137.5C 133.127,136.223 132.627,135.057 131.5,134C 131.743,133.098 132.077,132.265 132.5,131.5C 148.16,130.735 163.827,130.068 179.5,129.5 Z"/></g>
<g><path style="opacity:1" fill="#e0d680" d="M 47.5,133.5 C 44.8333,133.5 42.1667,133.5 39.5,133.5C 40.4919,131.974 41.9919,131.307 44,131.5C 45.6811,131.608 46.8478,132.275 47.5,133.5 Z"/></g>
<g><path style="opacity:1" fill="#73d46d" d="M 51.5,130.5 C 51.5,131.833 51.5,133.167 51.5,134.5C 50.8333,134.167 50.1667,133.833 49.5,133.5C 49.427,131.973 50.0937,130.973 51.5,130.5 Z"/></g>
<g><path style="opacity:1" fill="#4f4a31" d="M 72.5,132.5 C 73.8062,133.467 74.4729,134.801 74.5,136.5C 68.8387,136.907 63.172,137.24 57.5,137.5C 57.5,137.167 57.5,136.833 57.5,136.5C 62.8123,135.891 68.1456,135.391 73.5,135C 69.8484,134.501 66.1817,134.335 62.5,134.5C 62.5,134.167 62.5,133.833 62.5,133.5C 65.7861,132.793 69.1194,132.46 72.5,132.5 Z"/></g>
<g><path style="opacity:1" fill="#ddc269" d="M 91.5,132.5 C 92.4916,132.328 93.1583,132.662 93.5,133.5C 88.7668,133.223 84.1001,133.557 79.5,134.5C 79.1667,134.167 78.8333,133.833 78.5,133.5C 82.7828,132.508 87.1161,132.174 91.5,132.5 Z"/></g>
<g><path style="opacity:1" fill="#df828b" d="M 29.5,131.5 C 30.5,131.5 31.5,131.5 32.5,131.5C 31.2475,133.339 31.2475,135.172 32.5,137C 30.5273,137.495 28.5273,137.662 26.5,137.5C 26.3915,135.486 27.0582,133.82 28.5,132.5C 28.5,131.833 28.8333,131.5 29.5,131.5 Z"/></g>
<g><path style="opacity:1" fill="#c5af6b" d="M 62.5,134.5 C 66.1817,134.335 69.8484,134.501 73.5,135C 68.1456,135.391 62.8123,135.891 57.5,136.5C 56.6236,136.631 55.9569,136.298 55.5,135.5C 57.7427,134.526 60.076,134.192 62.5,134.5 Z"/></g>
<g><path style="opacity:1" fill="#727169" d="M 29.5,131.5 C 30.9187,130.549 32.5853,130.216 34.5,130.5C 35.3591,132.106 35.5258,133.773 35,135.5C 35.8333,134.5 36.6667,133.5 37.5,132.5C 38.1067,132.624 38.44,132.957 38.5,133.5C 37.5655,134.568 37.2322,135.901 37.5,137.5C 36.0222,137.762 34.6888,137.429 33.5,136.5C 33.0143,134.696 32.681,133.029 32.5,131.5C 31.5,131.5 30.5,131.5 29.5,131.5 Z"/></g>
<g><path style="opacity:1" fill="#61af5b" d="M 88.5,134.5 C 90.804,135.498 93.1373,135.665 95.5,135C 92.5317,138.344 90.1983,138.177 88.5,134.5 Z"/></g>
<g><path style="opacity:1" fill="#cfe454" d="M 132.5,131.5 C 132.077,132.265 131.743,133.098 131.5,134C 132.627,135.057 133.127,136.223 133,137.5C 130.208,136.902 127.542,135.902 125,134.5C 123.287,135.137 123.121,136.137 124.5,137.5C 133.503,138.682 142.503,138.682 151.5,137.5C 151.5,138.167 151.5,138.833 151.5,139.5C 135.479,139.755 119.479,140.422 103.5,141.5C 101.612,143.988 100.945,146.988 101.5,150.5C 96.8333,150.5 92.1667,150.5 87.5,150.5C 87.5,152.167 87.5,153.833 87.5,155.5C 86.6773,152.023 86.1773,148.356 86,144.5C 83.0747,141.941 80.0747,141.941 77,144.5C 76.978,149.818 77.1447,155.151 77.5,160.5C 73.9009,161.344 70.2343,161.677 66.5,161.5C 70.0251,159.799 71.6918,156.965 71.5,153C 71.5817,148.239 69.9151,144.239 66.5,141C 61.788,139.557 57.9547,140.723 55,144.5C 54.235,146.066 54.4017,147.399 55.5,148.5C 56.1284,151.955 58.1284,153.122 61.5,152C 63.2826,150.933 63.7826,149.433 63,147.5C 61.4299,147.306 59.9299,147.306 58.5,147.5C 62.0793,143.187 64.5793,143.853 66,149.5C 67.1667,156.333 64.3333,159.167 57.5,158C 50.7992,152.788 46.7992,145.954 45.5,137.5C 47.5,137.5 49.5,137.5 51.5,137.5C 53.4513,138.641 55.4513,138.641 57.5,137.5C 63.172,137.24 68.8387,136.907 74.5,136.5C 75.2646,136.923 76.0979,137.257 77,137.5C 79.8991,135.609 83.0658,135.109 86.5,136C 90.5739,140.872 94.2406,140.539 97.5,135C 101.642,134.673 105.642,133.839 109.5,132.5C 117.164,132.111 124.83,131.778 132.5,131.5 Z"/></g>
<g><path style="opacity:1" fill="#d9e96a" d="M 18.5,136.5 C 20.8333,136.5 23.1667,136.5 25.5,136.5C 25.484,138.484 26.484,139.484 28.5,139.5C 32.4526,138.638 36.4526,138.305 40.5,138.5C 40.5172,140.565 40.8505,142.565 41.5,144.5C 33.8304,144.778 26.1637,145.111 18.5,145.5C 18.5,142.5 18.5,139.5 18.5,136.5 Z"/></g>
<g><path style="opacity:1" fill="#c7e844" d="M 151.5,139.5 C 152.493,144.777 153.16,150.11 153.5,155.5C 151.533,155.261 149.699,155.594 148,156.5C 147.947,162.529 148.447,168.529 149.5,174.5C 148.5,174.5 147.5,174.5 146.5,174.5C 146.784,176.415 146.451,178.081 145.5,179.5C 145.166,172.493 144.666,165.493 144,158.5C 141.865,156.722 139.365,156.055 136.5,156.5C 127.167,156.833 117.833,157.167 108.5,157.5C 107.432,156.566 106.099,156.232 104.5,156.5C 104.249,151.493 103.916,146.493 103.5,141.5C 119.479,140.422 135.479,139.755 151.5,139.5 Z"/></g>
<g><path style="opacity:0.62" fill="#7e7e81" d="M 15.5,26.5 C 15.5,26.8333 15.5,27.1667 15.5,27.5C 15.5,35.5 15.5,43.5 15.5,51.5C 15.5,54.5 15.5,57.5 15.5,60.5C 15.5,62.8333 15.5,65.1667 15.5,67.5C 15.5,67.8333 15.5,68.1667 15.5,68.5C 15.5,70.8333 15.5,73.1667 15.5,75.5C 15.5,75.8333 15.5,76.1667 15.5,76.5C 15.5,78.8333 15.5,81.1667 15.5,83.5C 15.5,83.8333 15.5,84.1667 15.5,84.5C 15.5,95.5 15.5,106.5 15.5,117.5C 15.5,120.833 15.5,124.167 15.5,127.5C 15.5,166.5 15.5,205.5 15.5,244.5C 16.8333,244.5 18.1667,244.5 19.5,244.5C 18.0813,245.451 16.4147,245.784 14.5,245.5C 14.1674,172.331 14.5008,99.3314 15.5,26.5 Z"/></g>
<g><path style="opacity:1" fill="#70ce6a" d="M 42.5,138.5 C 44.4615,144.08 47.2948,149.413 51,154.5C 52.7581,156.765 54.9248,158.432 57.5,159.5C 57.5,160.167 57.1667,160.5 56.5,160.5C 48.3331,155.522 43.6664,148.189 42.5,138.5 Z"/></g>
<g><path style="opacity:1" fill="#ae9250" d="M 179.5,132.5 C 179.134,134.905 178.467,137.238 177.5,139.5C 177.668,141.171 178.335,142.504 179.5,143.5C 181.726,144.756 184.059,144.756 186.5,143.5C 186.833,143.5 187.167,143.5 187.5,143.5C 187.167,144.167 186.833,144.833 186.5,145.5C 185.5,145.833 184.833,146.5 184.5,147.5C 183.833,147.5 183.5,147.833 183.5,148.5C 179.759,151.237 176.759,154.57 174.5,158.5C 174.5,157.167 173.833,156.5 172.5,156.5C 173.273,152.86 173.94,149.193 174.5,145.5C 174.794,140.588 176.461,136.255 179.5,132.5 Z"/></g>
<g><path style="opacity:1" fill="#221c1c" d="M 32.5,131.5 C 32.681,133.029 33.0143,134.696 33.5,136.5C 34.6888,137.429 36.0222,137.762 37.5,137.5C 37.2322,135.901 37.5655,134.568 38.5,133.5C 38.9175,134.222 39.5842,134.722 40.5,135C 40.0426,135.414 39.7093,135.914 39.5,136.5C 40.6016,137.176 41.6016,137.842 42.5,138.5C 43.6664,148.189 48.3331,155.522 56.5,160.5C 58.6282,161.629 60.9615,161.796 63.5,161C 65.5444,160.502 66.8777,159.335 67.5,157.5C 70.4675,151.833 69.4675,146.667 64.5,142C 62.735,141.36 61.0683,141.527 59.5,142.5C 57.6583,144.19 56.325,146.19 55.5,148.5C 54.4017,147.399 54.235,146.066 55,144.5C 57.9547,140.723 61.788,139.557 66.5,141C 69.9151,144.239 71.5817,148.239 71.5,153C 71.6918,156.965 70.0251,159.799 66.5,161.5C 62.6002,162.43 58.6002,162.763 54.5,162.5C 48.6528,157.644 44.3194,151.644 41.5,144.5C 40.8505,142.565 40.5172,140.565 40.5,138.5C 36.4526,138.305 32.4526,138.638 28.5,139.5C 26.484,139.484 25.484,138.484 25.5,136.5C 25.0882,134.027 26.0882,132.694 28.5,132.5C 27.0582,133.82 26.3915,135.486 26.5,137.5C 28.5273,137.662 30.5273,137.495 32.5,137C 31.2475,135.172 31.2475,133.339 32.5,131.5 Z"/></g>
<g><path style="opacity:1" fill="#7ce176" d="M 67.5,157.5 C 69.2346,151.371 67.568,146.371 62.5,142.5C 61.3132,143.653 60.3132,143.653 59.5,142.5C 61.0683,141.527 62.735,141.36 64.5,142C 69.4675,146.667 70.4675,151.833 67.5,157.5 Z"/></g>
<g><path style="opacity:1" fill="#383628" d="M 38.5,133.5 C 38.8333,133.5 39.1667,133.5 39.5,133.5C 42.1667,133.5 44.8333,133.5 47.5,133.5C 48.1667,134.833 48.8333,134.833 49.5,133.5C 50.1667,133.833 50.8333,134.167 51.5,134.5C 53.0281,134.517 53.5281,135.184 53,136.5C 51.9505,135.483 50.7839,135.316 49.5,136C 50.4158,136.278 51.0825,136.778 51.5,137.5C 49.5,137.5 47.5,137.5 45.5,137.5C 46.7992,145.954 50.7992,152.788 57.5,158C 64.3333,159.167 67.1667,156.333 66,149.5C 64.5793,143.853 62.0793,143.187 58.5,147.5C 59.9299,147.306 61.4299,147.306 63,147.5C 63.7826,149.433 63.2826,150.933 61.5,152C 58.1284,153.122 56.1284,151.955 55.5,148.5C 56.325,146.19 57.6583,144.19 59.5,142.5C 60.3132,143.653 61.3132,143.653 62.5,142.5C 67.568,146.371 69.2346,151.371 67.5,157.5C 64.3555,159.673 61.0222,160.339 57.5,159.5C 54.9248,158.432 52.7581,156.765 51,154.5C 47.2948,149.413 44.4615,144.08 42.5,138.5C 41.6016,137.842 40.6016,137.176 39.5,136.5C 39.7093,135.914 40.0426,135.414 40.5,135C 39.5842,134.722 38.9175,134.222 38.5,133.5 Z"/></g>
<g><path style="opacity:1" fill="#2f2e23" d="M 87.5,155.5 C 87.5,159.833 87.5,164.167 87.5,168.5C 88.2597,174.804 88.593,181.137 88.5,187.5C 86.89,184.797 85.89,181.797 85.5,178.5C 84.9279,167.841 84.4279,157.175 84,146.5C 82.9207,144.606 81.5874,144.273 80,145.5C 79.6686,158.526 80.1686,171.526 81.5,184.5C 81.5,186.833 81.5,189.167 81.5,191.5C 80.8333,191.5 80.1667,191.5 79.5,191.5C 79.6282,187.119 79.2949,182.785 78.5,178.5C 78.498,172.477 78.1646,166.477 77.5,160.5C 77.1447,155.151 76.978,149.818 77,144.5C 80.0747,141.941 83.0747,141.941 86,144.5C 86.1773,148.356 86.6773,152.023 87.5,155.5 Z"/></g>
<g><path style="opacity:1" fill="#303024" d="M 103.5,141.5 C 103.916,146.493 104.249,151.493 104.5,156.5C 106.099,156.232 107.432,156.566 108.5,157.5C 107.282,158.161 105.949,158.828 104.5,159.5C 105.591,167.778 106.258,176.111 106.5,184.5C 106.785,186.288 106.452,187.955 105.5,189.5C 104.571,188.311 104.238,186.978 104.5,185.5C 104.304,175.921 102.971,166.587 100.5,157.5C 101.374,155.253 101.708,152.92 101.5,150.5C 100.945,146.988 101.612,143.988 103.5,141.5 Z"/></g>
<g><path style="opacity:1" fill="#c5e946" d="M 41.5,144.5 C 44.3194,151.644 48.6528,157.644 54.5,162.5C 42.4625,162.598 30.4625,163.265 18.5,164.5C 18.5,160.5 18.5,156.5 18.5,152.5C 18.5,150.167 18.5,147.833 18.5,145.5C 26.1637,145.111 33.8304,144.778 41.5,144.5 Z"/></g>
<g><path style="opacity:0.055" fill="#0e0801" d="M 198.5,160.5 C 217.625,163.298 236.625,166.632 255.5,170.5C 255.5,173.5 255.5,176.5 255.5,179.5C 254.85,179.804 254.183,180.137 253.5,180.5C 234.28,176.519 214.947,173.186 195.5,170.5C 193.914,167.798 192.914,164.798 192.5,161.5C 194.396,160.534 196.396,160.201 198.5,160.5 Z"/></g>
<g><path style="opacity:1" fill="#2b2a21" d="M 151.5,137.5 C 153.977,139.416 154.977,142.083 154.5,145.5C 155.022,152.372 156.022,159.038 157.5,165.5C 157.543,169.893 157.709,174.226 158,178.5C 155.782,180.619 153.282,180.952 150.5,179.5C 149.691,177.929 149.357,176.262 149.5,174.5C 148.447,168.529 147.947,162.529 148,156.5C 149.699,155.594 151.533,155.261 153.5,155.5C 153.16,150.11 152.493,144.777 151.5,139.5C 151.5,138.833 151.5,138.167 151.5,137.5 Z"/></g>
<g><path style="opacity:1" fill="#99d538" d="M 85.5,178.5 C 85.5,181.5 85.5,184.5 85.5,187.5C 84.5,187.5 83.5,187.5 82.5,187.5C 82.7373,186.209 82.404,185.209 81.5,184.5C 80.1686,171.526 79.6686,158.526 80,145.5C 81.5874,144.273 82.9207,144.606 84,146.5C 84.4279,157.175 84.9279,167.841 85.5,178.5 Z"/></g>
<g><path style="opacity:1" fill="#e1e6ea" d="M 15.5,127.5 C 17.4684,135.433 18.135,143.766 17.5,152.5C 17.5,182.167 17.5,211.833 17.5,241.5C 22.1811,241.331 26.8478,240.998 31.5,240.5C 32.8333,240.167 34.1667,239.833 35.5,239.5C 74.4004,236.745 113.067,233.079 151.5,228.5C 166.517,227.72 181.517,226.72 196.5,225.5C 195.47,215.594 193.803,205.927 191.5,196.5C 189.448,180.135 187.114,163.801 184.5,147.5C 184.833,146.5 185.5,145.833 186.5,145.5C 190.574,172.832 194.574,200.166 198.5,227.5C 138.792,232.746 79.125,238.413 19.5,244.5C 18.1667,244.5 16.8333,244.5 15.5,244.5C 15.5,205.5 15.5,166.5 15.5,127.5 Z"/></g>
<g><path style="opacity:1" fill="#17871f" d="M 102.5,232.5 C 91.839,233.602 81.1723,234.602 70.5,235.5C 69.7,225.752 73.0334,223.586 80.5,229C 87.2282,230.408 91.5615,227.908 93.5,221.5C 97.2894,220.08 100.623,217.747 103.5,214.5C 104.833,215.5 104.833,216.5 103.5,217.5C 100.673,221.159 97.3401,224.326 93.5,227C 95.856,227.155 98.1893,227.155 100.5,227C 102.673,228.553 103.34,230.386 102.5,232.5 Z"/></g>
<g><path style="opacity:1" fill="#1e9723" d="M 69.5,216.5 C 65.9222,218.223 63.7556,220.89 63,224.5C 65.6775,222.486 68.3442,220.486 71,218.5C 72.3012,219.098 73.1345,220.098 73.5,221.5C 71.518,222.216 69.8513,223.383 68.5,225C 66.0931,226.267 63.7598,226.767 61.5,226.5C 62.311,227.216 62.9777,228.05 63.5,229C 62.548,230.3 62.548,231.467 63.5,232.5C 64.8333,231.5 66.1667,230.5 67.5,229.5C 67.8333,230 68.1667,230.5 68.5,231C 67.2927,232.3 66.6261,233.8 66.5,235.5C 56.0066,236.634 45.6733,237.967 35.5,239.5C 34.1667,239.833 32.8333,240.167 31.5,240.5C 27.3305,239.543 22.9972,239.543 18.5,240.5C 18.5,236.5 18.5,232.5 18.5,228.5C 21.8957,228.367 22.2291,227.367 19.5,225.5C 20.3914,224.41 21.3914,224.41 22.5,225.5C 23.5,224.833 24.5,224.167 25.5,223.5C 26.5237,224.853 27.857,225.52 29.5,225.5C 30.2456,230.479 30.9122,230.146 31.5,224.5C 33.1667,224.5 34.8333,224.5 36.5,224.5C 36.3832,222.516 37.0499,220.85 38.5,219.5C 37.1468,218.476 36.4802,217.143 36.5,215.5C 37.5,215.5 38.5,215.5 39.5,215.5C 41.7937,219.181 43.627,223.181 45,227.5C 46.0173,225.624 46.8506,223.624 47.5,221.5C 49.6934,224.074 51.5267,223.741 53,220.5C 53.4828,219.552 53.6495,218.552 53.5,217.5C 55.5922,217.561 57.0922,218.561 58,220.5C 58.7138,217.405 59.7138,214.405 61,211.5C 61.414,211.957 61.914,212.291 62.5,212.5C 63.5244,211.148 64.5244,209.815 65.5,208.5C 65.9907,205.99 66.9907,203.656 68.5,201.5C 68.8333,202.167 69.1667,202.833 69.5,203.5C 68.0585,206.028 67.5585,208.695 68,211.5C 68.9653,209.74 70.132,209.406 71.5,210.5C 69.9137,212.173 69.2471,214.173 69.5,216.5 Z"/></g>
<g><path style="opacity:1" fill="#198c1f" d="M 125.5,211.5 C 126.401,213.727 128.067,214.727 130.5,214.5C 129.828,217.908 130.828,220.575 133.5,222.5C 134.452,221.467 134.452,220.3 133.5,219C 134.137,217.287 135.137,217.121 136.5,218.5C 137.167,216.833 137.833,215.167 138.5,213.5C 142.5,216.167 143.167,215.5 140.5,211.5C 142.712,210.953 144.379,211.953 145.5,214.5C 144.024,215.88 143.024,217.547 142.5,219.5C 142.833,220.5 143.5,221.167 144.5,221.5C 150.211,219.644 151.878,215.977 149.5,210.5C 152.774,211.14 155.441,212.807 157.5,215.5C 158.984,213.926 160.651,212.593 162.5,211.5C 164.31,213.382 165.977,215.382 167.5,217.5C 166.609,218.59 165.609,218.59 164.5,217.5C 163.614,218.325 163.281,219.325 163.5,220.5C 166.522,222.678 169.855,224.344 173.5,225.5C 166.167,226.5 158.833,227.5 151.5,228.5C 142.622,228.538 133.788,229.204 125,230.5C 122.49,230.023 120.324,229.023 118.5,227.5C 119.901,224.691 119.234,222.357 116.5,220.5C 116.833,220.167 117.167,219.833 117.5,219.5C 118.833,220.5 120.167,221.5 121.5,222.5C 122.167,221.833 122.833,221.167 123.5,220.5C 124.231,222.401 124.231,224.401 123.5,226.5C 125.262,226.643 126.929,226.309 128.5,225.5C 129.509,222.527 129.509,219.527 128.5,216.5C 125.011,215.537 123.511,213.203 124,209.5C 124.278,210.416 124.778,211.082 125.5,211.5 Z"/></g>
<g><path style="opacity:1" fill="#267427" d="M 191.5,196.5 C 193.803,205.927 195.47,215.594 196.5,225.5C 181.517,226.72 166.517,227.72 151.5,228.5C 158.833,227.5 166.167,226.5 173.5,225.5C 175.167,225.5 176.833,225.5 178.5,225.5C 178.201,223.396 178.534,221.396 179.5,219.5C 181.731,220.903 184.064,222.07 186.5,223C 186.167,223.333 185.833,223.667 185.5,224C 188.588,224.847 191.421,224.347 194,222.5C 194.372,217.957 193.872,213.623 192.5,209.5C 192.073,205.176 191.739,200.842 191.5,196.5 Z"/></g>
<g><path style="opacity:1" fill="#39af26" d="M 41.5,194.5 C 40.1999,195.827 38.8665,197.16 37.5,198.5C 38.7757,199.645 40.109,199.645 41.5,198.5C 44.7427,193.086 45.7427,193.42 44.5,199.5C 46.4286,199.769 48.0953,199.269 49.5,198C 47.1613,195.45 47.828,194.95 51.5,196.5C 51.8333,197 52.1667,197.5 52.5,198C 51.1999,200.437 50.1999,202.937 49.5,205.5C 46.649,204.677 43.9823,203.344 41.5,201.5C 41.1667,201.667 40.8333,201.833 40.5,202C 42.3649,204.858 44.5315,207.358 47,209.5C 48.8114,208.922 50.6447,208.422 52.5,208C 52.3808,206.719 52.8808,205.552 54,204.5C 56.0266,204.986 58.1933,204.986 60.5,204.5C 60.5,205.833 60.5,207.167 60.5,208.5C 62.1667,208.5 63.8333,208.5 65.5,208.5C 64.5244,209.815 63.5244,211.148 62.5,212.5C 61.914,212.291 61.414,211.957 61,211.5C 59.7138,214.405 58.7138,217.405 58,220.5C 57.0922,218.561 55.5922,217.561 53.5,217.5C 53.6495,218.552 53.4828,219.552 53,220.5C 51.5267,223.741 49.6934,224.074 47.5,221.5C 46.8506,223.624 46.0173,225.624 45,227.5C 43.627,223.181 41.7937,219.181 39.5,215.5C 38.5,215.5 37.5,215.5 36.5,215.5C 36.4802,217.143 37.1468,218.476 38.5,219.5C 37.0499,220.85 36.3832,222.516 36.5,224.5C 34.8333,224.5 33.1667,224.5 31.5,224.5C 30.9122,230.146 30.2456,230.479 29.5,225.5C 27.857,225.52 26.5237,224.853 25.5,223.5C 24.5,224.167 23.5,224.833 22.5,225.5C 21.3914,224.41 20.3914,224.41 19.5,225.5C 22.2291,227.367 21.8957,228.367 18.5,228.5C 18.5,219.167 18.5,209.833 18.5,200.5C 21.1745,198.536 24.0079,196.87 27,195.5C 27.977,197.74 28.477,200.073 28.5,202.5C 30.1992,202.66 31.8659,202.494 33.5,202C 31.9632,200.89 31.2965,199.39 31.5,197.5C 34.161,196.841 36.4943,195.508 38.5,193.5C 39.4168,194.127 40.4168,194.461 41.5,194.5 Z"/></g>
<g><path style="opacity:1" fill="#24a626" d="M 101.5,203.5 C 102.833,204.833 104.167,206.167 105.5,207.5C 105.5,208.5 105.5,209.5 105.5,210.5C 107.199,210.34 108.866,210.506 110.5,211C 109.643,211.689 108.977,212.522 108.5,213.5C 109.934,215.22 110.767,217.22 111,219.5C 114.21,218.299 116.877,216.299 119,213.5C 119.315,216.147 120.482,216.813 122.5,215.5C 122.838,213.345 122.838,211.011 122.5,208.5C 123.5,208.5 124.5,208.5 125.5,208.5C 125.5,209.5 125.5,210.5 125.5,211.5C 124.778,211.082 124.278,210.416 124,209.5C 123.511,213.203 125.011,215.537 128.5,216.5C 129.509,219.527 129.509,222.527 128.5,225.5C 126.929,226.309 125.262,226.643 123.5,226.5C 124.231,224.401 124.231,222.401 123.5,220.5C 122.833,221.167 122.167,221.833 121.5,222.5C 120.167,221.5 118.833,220.5 117.5,219.5C 117.167,219.833 116.833,220.167 116.5,220.5C 119.234,222.357 119.901,224.691 118.5,227.5C 118.5,228.5 118.5,229.5 118.5,230.5C 114.662,231.692 110.828,231.692 107,230.5C 105.594,231.414 104.094,232.08 102.5,232.5C 103.34,230.386 102.673,228.553 100.5,227C 98.1893,227.155 95.856,227.155 93.5,227C 97.3401,224.326 100.673,221.159 103.5,217.5C 104.833,216.5 104.833,215.5 103.5,214.5C 100.623,217.747 97.2894,220.08 93.5,221.5C 91.5615,227.908 87.2282,230.408 80.5,229C 73.0334,223.586 69.7,225.752 70.5,235.5C 69.1667,235.5 67.8333,235.5 66.5,235.5C 66.6261,233.8 67.2927,232.3 68.5,231C 68.1667,230.5 67.8333,230 67.5,229.5C 66.1667,230.5 64.8333,231.5 63.5,232.5C 62.548,231.467 62.548,230.3 63.5,229C 62.9777,228.05 62.311,227.216 61.5,226.5C 63.7598,226.767 66.0931,226.267 68.5,225C 69.8513,223.383 71.518,222.216 73.5,221.5C 73.1345,220.098 72.3012,219.098 71,218.5C 68.3442,220.486 65.6775,222.486 63,224.5C 63.7556,220.89 65.9222,218.223 69.5,216.5C 69.56,217.043 69.8933,217.376 70.5,217.5C 71.1667,216.5 71.8333,215.5 72.5,214.5C 73.2807,215.737 74.2807,216.737 75.5,217.5C 77.0922,215.316 78.4255,212.982 79.5,210.5C 81.8948,211.523 82.8948,210.523 82.5,207.5C 83.8333,207.5 85.1667,207.5 86.5,207.5C 86.1253,210.397 86.6253,213.063 88,215.5C 88.788,211.541 91.288,209.708 95.5,210C 97.1558,208.171 99.1558,206.837 101.5,206C 94.8638,204.855 94.8638,204.022 101.5,203.5 Z"/></g>
<g><path style="opacity:1" fill="#1f9822" d="M 192.5,209.5 C 193.872,213.623 194.372,217.957 194,222.5C 191.421,224.347 188.588,224.847 185.5,224C 185.833,223.667 186.167,223.333 186.5,223C 184.064,222.07 181.731,220.903 179.5,219.5C 178.534,221.396 178.201,223.396 178.5,225.5C 176.833,225.5 175.167,225.5 173.5,225.5C 169.855,224.344 166.522,222.678 163.5,220.5C 163.281,219.325 163.614,218.325 164.5,217.5C 165.609,218.59 166.609,218.59 167.5,217.5C 165.977,215.382 164.31,213.382 162.5,211.5C 160.651,212.593 158.984,213.926 157.5,215.5C 155.441,212.807 152.774,211.14 149.5,210.5C 151.017,209.265 152.684,209.265 154.5,210.5C 155.91,208.051 155.576,205.884 153.5,204C 155.473,203.505 157.473,203.338 159.5,203.5C 158.769,205.599 158.769,207.599 159.5,209.5C 160.281,208.263 161.281,207.263 162.5,206.5C 163.192,207.025 163.692,207.692 164,208.5C 165.183,207.269 166.349,207.269 167.5,208.5C 166.674,209.451 166.508,210.451 167,211.5C 168.441,212.26 169.941,212.926 171.5,213.5C 174.744,210.956 177.91,208.29 181,205.5C 182.204,206.471 182.704,207.471 182.5,208.5C 183.893,207.137 185.559,206.304 187.5,206C 185.986,204.561 185.653,203.061 186.5,201.5C 188.012,204.519 190.012,207.186 192.5,209.5 Z"/></g>
<g><path style="opacity:1" fill="#37b127" d="M 189.5,190.5 C 190.167,192.5 190.833,194.5 191.5,196.5C 191.739,200.842 192.073,205.176 192.5,209.5C 190.012,207.186 188.012,204.519 186.5,201.5C 185.653,203.061 185.986,204.561 187.5,206C 185.559,206.304 183.893,207.137 182.5,208.5C 182.704,207.471 182.204,206.471 181,205.5C 177.91,208.29 174.744,210.956 171.5,213.5C 169.941,212.926 168.441,212.26 167,211.5C 166.508,210.451 166.674,209.451 167.5,208.5C 166.349,207.269 165.183,207.269 164,208.5C 163.692,207.692 163.192,207.025 162.5,206.5C 161.281,207.263 160.281,208.263 159.5,209.5C 158.769,207.599 158.769,205.599 159.5,203.5C 160.693,203.03 161.36,202.03 161.5,200.5C 159.587,196.739 160.42,193.739 164,191.5C 165.57,192.614 166.903,193.947 168,195.5C 168.875,192.785 170.708,191.452 173.5,191.5C 173.338,193.527 173.505,195.527 174,197.5C 174.79,195.21 176.124,194.877 178,196.5C 179.672,195.495 181.005,194.161 182,192.5C 183.356,193.38 184.856,193.714 186.5,193.5C 186.5,192.5 186.5,191.5 186.5,190.5C 187.5,190.5 188.5,190.5 189.5,190.5 Z"/></g>
<g><path style="opacity:1" fill="#50bf2a" d="M 85.5,178.5 C 85.89,181.797 86.89,184.797 88.5,187.5C 89.1667,186.833 89.8333,186.167 90.5,185.5C 92.6282,186.629 94.9615,186.796 97.5,186C 99.1554,184.556 99.822,182.722 99.5,180.5C 100.833,180.5 102.167,180.5 103.5,180.5C 103.216,182.415 103.549,184.081 104.5,185.5C 104.238,186.978 104.571,188.311 105.5,189.5C 106.452,187.955 106.785,186.288 106.5,184.5C 107.338,184.842 107.672,185.508 107.5,186.5C 107.369,187.239 107.536,187.906 108,188.5C 108.654,187.304 109.154,187.304 109.5,188.5C 108.964,191.105 108.798,193.772 109,196.5C 107.442,197.345 106.442,196.679 106,194.5C 104.289,197.255 102.122,199.589 99.5,201.5C 100.243,202.182 100.909,202.849 101.5,203.5C 94.8638,204.022 94.8638,204.855 101.5,206C 99.1558,206.837 97.1558,208.171 95.5,210C 91.288,209.708 88.788,211.541 88,215.5C 86.6253,213.063 86.1253,210.397 86.5,207.5C 85.1667,207.5 83.8333,207.5 82.5,207.5C 82.8948,210.523 81.8948,211.523 79.5,210.5C 78.4255,212.982 77.0922,215.316 75.5,217.5C 74.2807,216.737 73.2807,215.737 72.5,214.5C 71.8333,215.5 71.1667,216.5 70.5,217.5C 69.8933,217.376 69.56,217.043 69.5,216.5C 69.2471,214.173 69.9137,212.173 71.5,210.5C 70.132,209.406 68.9653,209.74 68,211.5C 67.5585,208.695 68.0585,206.028 69.5,203.5C 69.1667,202.833 68.8333,202.167 68.5,201.5C 66.9907,203.656 65.9907,205.99 65.5,208.5C 63.8333,208.5 62.1667,208.5 60.5,208.5C 60.5,207.167 60.5,205.833 60.5,204.5C 58.1933,204.986 56.0266,204.986 54,204.5C 52.8808,205.552 52.3808,206.719 52.5,208C 50.6447,208.422 48.8114,208.922 47,209.5C 44.5315,207.358 42.3649,204.858 40.5,202C 40.8333,201.833 41.1667,201.667 41.5,201.5C 43.9823,203.344 46.649,204.677 49.5,205.5C 50.1999,202.937 51.1999,200.437 52.5,198C 52.1667,197.5 51.8333,197 51.5,196.5C 47.828,194.95 47.1613,195.45 49.5,198C 48.0953,199.269 46.4286,199.769 44.5,199.5C 45.7427,193.42 44.7427,193.086 41.5,198.5C 40.109,199.645 38.7757,199.645 37.5,198.5C 38.8665,197.16 40.1999,195.827 41.5,194.5C 44.4215,193.628 47.4215,193.628 50.5,194.5C 50.3287,191.203 50.9954,190.869 52.5,193.5C 54.4219,192.289 56.2552,190.956 58,189.5C 58.4828,190.448 58.6495,191.448 58.5,192.5C 59.552,192.351 60.552,192.517 61.5,193C 62.3052,194.972 63.6385,196.472 65.5,197.5C 66.3857,196.675 66.719,195.675 66.5,194.5C 67.9305,194.421 69.2638,194.754 70.5,195.5C 71.3333,194.5 72.1667,193.5 73,192.5C 73.1604,196.572 75.1604,199.239 79,200.5C 79.8732,200.265 80.7065,199.931 81.5,199.5C 82.4305,196.638 84.0971,194.305 86.5,192.5C 85.3539,191.281 84.3539,189.948 83.5,188.5C 82.8243,189.602 82.1577,190.602 81.5,191.5C 81.5,189.167 81.5,186.833 81.5,184.5C 82.404,185.209 82.7373,186.209 82.5,187.5C 83.5,187.5 84.5,187.5 85.5,187.5C 85.5,184.5 85.5,181.5 85.5,178.5 Z"/></g>
<g><path style="opacity:1" fill="#38b228" d="M 154.5,184.5 C 154.833,184.5 155.167,184.5 155.5,184.5C 155.938,184.435 156.272,184.601 156.5,185C 155.333,186.167 154.167,187.333 153,188.5C 152.647,191.539 151.48,194.205 149.5,196.5C 150.325,197.386 151.325,197.719 152.5,197.5C 152.142,193.321 153.809,190.821 157.5,190C 156.007,191.156 156.174,191.99 158,192.5C 159.614,191.183 160.781,189.517 161.5,187.5C 162.308,187.808 162.975,188.308 163.5,189C 161.5,191.333 159.5,193.667 157.5,196C 159.278,198.135 159.945,200.635 159.5,203.5C 157.473,203.338 155.473,203.505 153.5,204C 155.576,205.884 155.91,208.051 154.5,210.5C 152.684,209.265 151.017,209.265 149.5,210.5C 151.878,215.977 150.211,219.644 144.5,221.5C 143.5,221.167 142.833,220.5 142.5,219.5C 143.024,217.547 144.024,215.88 145.5,214.5C 144.379,211.953 142.712,210.953 140.5,211.5C 143.167,215.5 142.5,216.167 138.5,213.5C 137.833,215.167 137.167,216.833 136.5,218.5C 135.137,217.121 134.137,217.287 133.5,219C 134.452,220.3 134.452,221.467 133.5,222.5C 130.828,220.575 129.828,217.908 130.5,214.5C 128.067,214.727 126.401,213.727 125.5,211.5C 125.5,210.5 125.5,209.5 125.5,208.5C 124.5,208.5 123.5,208.5 122.5,208.5C 122.838,211.011 122.838,213.345 122.5,215.5C 120.482,216.813 119.315,216.147 119,213.5C 116.877,216.299 114.21,218.299 111,219.5C 110.767,217.22 109.934,215.22 108.5,213.5C 108.977,212.522 109.643,211.689 110.5,211C 108.866,210.506 107.199,210.34 105.5,210.5C 105.5,209.5 105.5,208.5 105.5,207.5C 106.65,208.85 107.317,208.684 107.5,207C 106.852,205.56 106.519,204.06 106.5,202.5C 108.484,202.617 110.15,201.95 111.5,200.5C 111.997,198.784 112.331,197.117 112.5,195.5C 117.716,198.217 118.382,201.55 114.5,205.5C 117.321,204.249 119.987,202.082 122.5,199C 124.246,198.529 125.913,197.862 127.5,197C 126.584,196.722 125.918,196.222 125.5,195.5C 126.5,195.5 127.5,195.5 128.5,195.5C 128.5,196.5 128.5,197.5 128.5,198.5C 131.808,199.026 133.974,197.693 135,194.5C 137.2,196.615 139.2,198.949 141,201.5C 141.186,199.1 141.686,196.766 142.5,194.5C 143.167,194.167 143.833,193.833 144.5,193.5C 145.524,194.853 146.857,195.52 148.5,195.5C 150.352,191.821 152.352,188.154 154.5,184.5 Z"/></g>
<g><path style="opacity:1" fill="#5bce2f" d="M 124.5,182.5 C 124.927,186.824 125.261,191.158 125.5,195.5C 125.918,196.222 126.584,196.722 127.5,197C 125.913,197.862 124.246,198.529 122.5,199C 119.987,202.082 117.321,204.249 114.5,205.5C 118.382,201.55 117.716,198.217 112.5,195.5C 112.331,197.117 111.997,198.784 111.5,200.5C 110.15,201.95 108.484,202.617 106.5,202.5C 106.519,204.06 106.852,205.56 107.5,207C 107.317,208.684 106.65,208.85 105.5,207.5C 104.167,206.167 102.833,204.833 101.5,203.5C 100.909,202.849 100.243,202.182 99.5,201.5C 102.122,199.589 104.289,197.255 106,194.5C 106.442,196.679 107.442,197.345 109,196.5C 108.798,193.772 108.964,191.105 109.5,188.5C 109.154,187.304 108.654,187.304 108,188.5C 107.536,187.906 107.369,187.239 107.5,186.5C 113.343,186.572 119.009,185.239 124.5,182.5 Z"/></g>
<g><path style="opacity:1" fill="#59ca2d" d="M 188.5,181.5 C 188.963,184.482 189.296,187.482 189.5,190.5C 188.5,190.5 187.5,190.5 186.5,190.5C 186.5,191.5 186.5,192.5 186.5,193.5C 184.856,193.714 183.356,193.38 182,192.5C 181.005,194.161 179.672,195.495 178,196.5C 176.124,194.877 174.79,195.21 174,197.5C 173.505,195.527 173.338,193.527 173.5,191.5C 170.708,191.452 168.875,192.785 168,195.5C 166.903,193.947 165.57,192.614 164,191.5C 160.42,193.739 159.587,196.739 161.5,200.5C 161.36,202.03 160.693,203.03 159.5,203.5C 159.945,200.635 159.278,198.135 157.5,196C 159.5,193.667 161.5,191.333 163.5,189C 162.975,188.308 162.308,187.808 161.5,187.5C 160.781,189.517 159.614,191.183 158,192.5C 156.174,191.99 156.007,191.156 157.5,190C 153.809,190.821 152.142,193.321 152.5,197.5C 151.325,197.719 150.325,197.386 149.5,196.5C 151.48,194.205 152.647,191.539 153,188.5C 154.167,187.333 155.333,186.167 156.5,185C 156.272,184.601 155.938,184.435 155.5,184.5C 157.546,183.035 159.38,183.368 161,185.5C 161.833,184.667 162.667,183.833 163.5,183C 171.82,182.219 180.153,181.719 188.5,181.5 Z"/></g>
<g><path style="opacity:1" fill="#75d131" d="M 79.5,191.5 C 80.1667,191.5 80.8333,191.5 81.5,191.5C 82.1577,190.602 82.8243,189.602 83.5,188.5C 84.3539,189.948 85.3539,191.281 86.5,192.5C 84.0971,194.305 82.4305,196.638 81.5,199.5C 80.7065,199.931 79.8732,200.265 79,200.5C 75.1604,199.239 73.1604,196.572 73,192.5C 72.1667,193.5 71.3333,194.5 70.5,195.5C 69.2638,194.754 67.9305,194.421 66.5,194.5C 66.719,195.675 66.3857,196.675 65.5,197.5C 63.6385,196.472 62.3052,194.972 61.5,193C 60.552,192.517 59.552,192.351 58.5,192.5C 58.6495,191.448 58.4828,190.448 58,189.5C 56.2552,190.956 54.4219,192.289 52.5,193.5C 50.9954,190.869 50.3287,191.203 50.5,194.5C 47.4215,193.628 44.4215,193.628 41.5,194.5C 40.4168,194.461 39.4168,194.127 38.5,193.5C 36.4943,195.508 34.161,196.841 31.5,197.5C 31.2965,199.39 31.9632,200.89 33.5,202C 31.8659,202.494 30.1992,202.66 28.5,202.5C 28.477,200.073 27.977,197.74 27,195.5C 24.0079,196.87 21.1745,198.536 18.5,200.5C 18.5,196.833 18.5,193.167 18.5,189.5C 21.1795,189.327 23.5128,188.327 25.5,186.5C 26.7193,187.263 27.7193,188.263 28.5,189.5C 29.4776,189.023 30.3109,188.357 31,187.5C 32.0113,188.337 33.1779,188.67 34.5,188.5C 33.8307,184.324 35.3307,182.991 39,184.5C 39.8333,183.667 40.6667,182.833 41.5,182C 46.6726,181.56 51.8393,181.06 57,180.5C 59.59,180.376 61.9233,181.042 64,182.5C 68.1401,179.539 72.6401,178.873 77.5,180.5C 77.2907,181.086 76.9574,181.586 76.5,182C 78.0574,185.019 79.0574,188.186 79.5,191.5 Z"/></g>
<g><path style="opacity:1" fill="#60d030" d="M 154.5,184.5 C 152.352,188.154 150.352,191.821 148.5,195.5C 146.857,195.52 145.524,194.853 144.5,193.5C 143.833,193.833 143.167,194.167 142.5,194.5C 141.686,196.766 141.186,199.1 141,201.5C 139.2,198.949 137.2,196.615 135,194.5C 133.974,197.693 131.808,199.026 128.5,198.5C 128.5,197.5 128.5,196.5 128.5,195.5C 128.326,193.139 127.993,190.806 127.5,188.5C 128.627,187.878 129.627,187.045 130.5,186C 133.706,185.704 136.872,185.204 140,184.5C 141.37,186.203 143.036,187.536 145,188.5C 147.913,186.457 151.08,185.124 154.5,184.5 Z"/></g>
<g><path style="opacity:1" fill="#80d534" d="M 185.5,167.5 C 186.734,171.994 187.734,176.661 188.5,181.5C 180.153,181.719 171.82,182.219 163.5,183C 162.667,183.833 161.833,184.667 161,185.5C 159.38,183.368 157.546,183.035 155.5,184.5C 155.167,184.5 154.833,184.5 154.5,184.5C 151.08,185.124 147.913,186.457 145,188.5C 143.036,187.536 141.37,186.203 140,184.5C 136.872,185.204 133.706,185.704 130.5,186C 129.627,187.045 128.627,187.878 127.5,188.5C 127.5,186.833 127.5,185.167 127.5,183.5C 132.815,183.503 134.815,180.836 133.5,175.5C 134.5,175.5 135.5,175.5 136.5,175.5C 135.846,179.211 137.346,181.211 141,181.5C 143.008,181.693 144.508,181.026 145.5,179.5C 146.451,178.081 146.784,176.415 146.5,174.5C 147.5,174.5 148.5,174.5 149.5,174.5C 149.357,176.262 149.691,177.929 150.5,179.5C 153.282,180.952 155.782,180.619 158,178.5C 157.709,174.226 157.543,169.893 157.5,165.5C 158.209,164.596 159.209,164.263 160.5,164.5C 160.157,166.483 160.824,167.817 162.5,168.5C 163.089,165.266 165.089,163.933 168.5,164.5C 168.5,165.5 168.5,166.5 168.5,167.5C 170.179,167.715 171.179,167.048 171.5,165.5C 172.134,164.053 173.301,163.387 175,163.5C 178.16,165.501 181.66,166.835 185.5,167.5 Z"/></g>
<g><path style="opacity:1" fill="#2c2c22" d="M 99.5,180.5 C 99.822,182.722 99.1554,184.556 97.5,186C 94.9615,186.796 92.6282,186.629 90.5,185.5C 89.8567,177.85 89.5234,170.183 89.5,162.5C 92.2171,159.855 95.0505,159.855 98,162.5C 98.3587,168.523 98.8587,174.523 99.5,180.5 Z"/></g>
<g><path style="opacity:1" fill="#8dd034" d="M 91.5,162.5 C 94.766,162.433 96.266,164.099 96,167.5C 96.4994,173.157 96.6661,178.824 96.5,184.5C 95.1667,184.5 93.8333,184.5 92.5,184.5C 92.0561,177.173 91.7228,169.84 91.5,162.5 Z"/></g>
<g><path style="opacity:1" fill="#98db37" d="M 78.5,178.5 C 79.2949,182.785 79.6282,187.119 79.5,191.5C 79.0574,188.186 78.0574,185.019 76.5,182C 76.9574,181.586 77.2907,181.086 77.5,180.5C 72.6401,178.873 68.1401,179.539 64,182.5C 61.9233,181.042 59.59,180.376 57,180.5C 51.8393,181.06 46.6726,181.56 41.5,182C 40.6667,182.833 39.8333,183.667 39,184.5C 35.3307,182.991 33.8307,184.324 34.5,188.5C 33.1779,188.67 32.0113,188.337 31,187.5C 30.3109,188.357 29.4776,189.023 28.5,189.5C 27.7193,188.263 26.7193,187.263 25.5,186.5C 23.5128,188.327 21.1795,189.327 18.5,189.5C 18.5,184.167 18.5,178.833 18.5,173.5C 22.0798,172.923 25.0798,173.923 27.5,176.5C 28.7112,175.726 28.7112,174.893 27.5,174C 34.8033,172.669 42.1367,172.003 49.5,172C 51.1789,174.371 52.8456,176.704 54.5,179C 57.8168,179.498 61.1501,179.665 64.5,179.5C 64.4386,177.408 63.4386,175.908 61.5,175C 62.8333,174.667 64.1667,174.333 65.5,174C 66.6133,170.412 68.28,169.912 70.5,172.5C 68.585,174.071 67.585,176.071 67.5,178.5C 68.5,178.5 69.5,178.5 70.5,178.5C 71.5,173.167 72.5,173.167 73.5,178.5C 75.1667,178.5 76.8333,178.5 78.5,178.5 Z"/></g>
<g><path style="opacity:1" fill="#70a02d" d="M 89.5,162.5 C 89.5234,170.183 89.8567,177.85 90.5,185.5C 89.8333,186.167 89.1667,186.833 88.5,187.5C 88.593,181.137 88.2597,174.804 87.5,168.5C 88.1667,166.5 88.8333,164.5 89.5,162.5 Z"/></g>
<g><path style="opacity:1" fill="#aee43d" d="M 77.5,160.5 C 78.1646,166.477 78.498,172.477 78.5,178.5C 76.8333,178.5 75.1667,178.5 73.5,178.5C 72.5,173.167 71.5,173.167 70.5,178.5C 69.5,178.5 68.5,178.5 67.5,178.5C 67.585,176.071 68.585,174.071 70.5,172.5C 68.28,169.912 66.6133,170.412 65.5,174C 64.1667,174.333 62.8333,174.667 61.5,175C 63.4386,175.908 64.4386,177.408 64.5,179.5C 61.1501,179.665 57.8168,179.498 54.5,179C 52.8456,176.704 51.1789,174.371 49.5,172C 42.1367,172.003 34.8033,172.669 27.5,174C 28.7112,174.893 28.7112,175.726 27.5,176.5C 25.0798,173.923 22.0798,172.923 18.5,173.5C 18.5,170.5 18.5,167.5 18.5,164.5C 30.4625,163.265 42.4625,162.598 54.5,162.5C 58.6002,162.763 62.6002,162.43 66.5,161.5C 70.2343,161.677 73.9009,161.344 77.5,160.5 Z"/></g>
<g><path style="opacity:1" fill="#2a2722" d="M 136.5,156.5 C 139.365,156.055 141.865,156.722 144,158.5C 144.666,165.493 145.166,172.493 145.5,179.5C 144.508,181.026 143.008,181.693 141,181.5C 137.346,181.211 135.846,179.211 136.5,175.5C 136.335,172.482 136.502,169.482 137,166.5C 138.699,165.594 140.533,165.261 142.5,165.5C 142.007,163.194 141.674,160.861 141.5,158.5C 140.167,158.5 138.833,158.5 137.5,158.5C 137.785,160.288 137.452,161.955 136.5,163.5C 135.286,161.141 135.286,158.808 136.5,156.5 Z"/></g>
<g><path style="opacity:1" fill="#8fd035" d="M 138.5,167.5 C 140.451,167.227 141.951,167.893 143,169.5C 143.498,172.817 143.665,176.15 143.5,179.5C 142.167,179.5 140.833,179.5 139.5,179.5C 139.354,175.481 139.021,171.481 138.5,167.5 Z"/></g>
<g><path style="opacity:1" fill="#9bd339" d="M 136.5,156.5 C 135.286,158.808 135.286,161.141 136.5,163.5C 137.452,161.955 137.785,160.288 137.5,158.5C 138.833,158.5 140.167,158.5 141.5,158.5C 141.674,160.861 142.007,163.194 142.5,165.5C 140.533,165.261 138.699,165.594 137,166.5C 136.502,169.482 136.335,172.482 136.5,175.5C 135.5,175.5 134.5,175.5 133.5,175.5C 132.669,170.189 131.835,164.855 131,159.5C 129.192,157.604 127.025,157.104 124.5,158C 123.106,158.956 122.439,160.289 122.5,162C 123.36,168.817 124.026,175.651 124.5,182.5C 119.009,185.239 113.343,186.572 107.5,186.5C 107.672,185.508 107.338,184.842 106.5,184.5C 106.258,176.111 105.591,167.778 104.5,159.5C 105.949,158.828 107.282,158.161 108.5,157.5C 117.833,157.167 127.167,156.833 136.5,156.5 Z"/></g>
<g><path style="opacity:1" fill="#2e2d22" d="M 111.5,158.5 C 114.365,158.055 116.865,158.722 119,160.5C 119.667,164.833 119.667,169.167 119,173.5C 117.556,175.155 115.722,175.822 113.5,175.5C 113.244,177.792 113.577,179.959 114.5,182C 115.5,182.667 116.5,182.667 117.5,182C 118.09,180.491 118.756,178.991 119.5,177.5C 120.98,184.035 118.48,186.035 112,183.5C 110.453,175.127 110.286,166.794 111.5,158.5 Z"/></g>
<g><path style="opacity:1" fill="#9bd038" d="M 113.5,160.5 C 114.496,160.414 115.329,160.748 116,161.5C 116.719,165.145 117.219,168.812 117.5,172.5C 115.856,172.714 114.356,172.38 113,171.5C 112.245,167.745 112.411,164.078 113.5,160.5 Z"/></g>
<g><path style="opacity:1" fill="#759b6d" d="M 184.5,147.5 C 187.114,163.801 189.448,180.135 191.5,196.5C 190.833,194.5 190.167,192.5 189.5,190.5C 189.296,187.482 188.963,184.482 188.5,181.5C 187.734,176.661 186.734,171.994 185.5,167.5C 184.942,161.154 184.276,154.821 183.5,148.5C 183.5,147.833 183.833,147.5 184.5,147.5 Z"/></g>
<g><path style="opacity:1" fill="#acdd3c" d="M 101.5,150.5 C 101.708,152.92 101.374,155.253 100.5,157.5C 102.971,166.587 104.304,175.921 104.5,185.5C 103.549,184.081 103.216,182.415 103.5,180.5C 102.167,180.5 100.833,180.5 99.5,180.5C 98.8587,174.523 98.3587,168.523 98,162.5C 95.0505,159.855 92.2171,159.855 89.5,162.5C 88.8333,164.5 88.1667,166.5 87.5,168.5C 87.5,164.167 87.5,159.833 87.5,155.5C 87.5,153.833 87.5,152.167 87.5,150.5C 92.1667,150.5 96.8333,150.5 101.5,150.5 Z"/></g>
<g><path style="opacity:1" fill="#9ed839" d="M 150.5,157.5 C 151.822,157.33 152.989,157.663 154,158.5C 155.137,165.12 155.637,171.786 155.5,178.5C 154.178,178.67 153.011,178.337 152,177.5C 151.626,171.418 150.793,165.418 149.5,159.5C 149.863,158.817 150.196,158.15 150.5,157.5 Z"/></g>
<g><path style="opacity:1" fill="#2c2c22" d="M 133.5,175.5 C 134.815,180.836 132.815,183.503 127.5,183.5C 127.5,185.167 127.5,186.833 127.5,188.5C 127.993,190.806 128.326,193.139 128.5,195.5C 127.5,195.5 126.5,195.5 125.5,195.5C 125.261,191.158 124.927,186.824 124.5,182.5C 124.026,175.651 123.36,168.817 122.5,162C 122.439,160.289 123.106,158.956 124.5,158C 127.025,157.104 129.192,157.604 131,159.5C 131.835,164.855 132.669,170.189 133.5,175.5 Z"/></g>
<g><path style="opacity:1" fill="#95d636" d="M 125.5,159.5 C 126.822,159.33 127.989,159.663 129,160.5C 129.999,167.15 130.333,173.817 130,180.5C 129,181.833 128,181.833 127,180.5C 126.42,174.113 125.587,167.779 124.5,161.5C 124.863,160.817 125.196,160.15 125.5,159.5 Z"/></g>
<g><path style="opacity:1" fill="#40623c" d="M 67.5,157.5 C 66.8777,159.335 65.5444,160.502 63.5,161C 60.9615,161.796 58.6282,161.629 56.5,160.5C 57.1667,160.5 57.5,160.167 57.5,159.5C 61.0222,160.339 64.3555,159.673 67.5,157.5 Z"/></g>
<g><path style="opacity:1" fill="#a0d03a" d="M 183.5,148.5 C 184.276,154.821 184.942,161.154 185.5,167.5C 181.66,166.835 178.16,165.501 175,163.5C 173.301,163.387 172.134,164.053 171.5,165.5C 170.876,165.083 170.543,164.416 170.5,163.5C 171.823,161.835 173.156,160.168 174.5,158.5C 176.759,154.57 179.759,151.237 183.5,148.5 Z"/></g>
<g><path style="opacity:1" fill="#29281e" d="M 172.5,156.5 C 173.833,156.5 174.5,157.167 174.5,158.5C 173.156,160.168 171.823,161.835 170.5,163.5C 170.543,164.416 170.876,165.083 171.5,165.5C 171.179,167.048 170.179,167.715 168.5,167.5C 168.5,166.5 168.5,165.5 168.5,164.5C 167.826,162.976 166.826,161.642 165.5,160.5C 166.881,158.365 167.881,156.032 168.5,153.5C 169.466,155.396 169.799,157.396 169.5,159.5C 170.5,159.5 171.5,159.5 172.5,159.5C 172.5,158.5 172.5,157.5 172.5,156.5 Z"/></g>
<g><path style="opacity:1" fill="#b3dd40" d="M 154.5,145.5 C 161.167,145.5 167.833,145.5 174.5,145.5C 173.94,149.193 173.273,152.86 172.5,156.5C 172.5,157.5 172.5,158.5 172.5,159.5C 171.5,159.5 170.5,159.5 169.5,159.5C 169.799,157.396 169.466,155.396 168.5,153.5C 167.881,156.032 166.881,158.365 165.5,160.5C 166.826,161.642 167.826,162.976 168.5,164.5C 165.089,163.933 163.089,165.266 162.5,168.5C 162.16,165.856 162.827,163.523 164.5,161.5C 162.205,159.8 160.872,157.466 160.5,154.5C 159.881,157.032 158.881,159.365 157.5,161.5C 158.993,162.141 159.993,163.141 160.5,164.5C 159.209,164.263 158.209,164.596 157.5,165.5C 156.022,159.038 155.022,152.372 154.5,145.5 Z"/></g>
<g><path style="opacity:1" fill="#27241f" d="M 162.5,168.5 C 160.824,167.817 160.157,166.483 160.5,164.5C 159.993,163.141 158.993,162.141 157.5,161.5C 158.881,159.365 159.881,157.032 160.5,154.5C 160.872,157.466 162.205,159.8 164.5,161.5C 162.827,163.523 162.16,165.856 162.5,168.5 Z"/></g>
<g><path style="opacity:0.441" fill="#5b5f63" d="M 198.5,227.5 C 199.043,227.56 199.376,227.893 199.5,228.5C 157.322,234.304 114.989,239.471 72.5,244C 70.563,244.122 69.2297,244.955 68.5,246.5C 50.5252,248.431 32.5252,250.097 14.5,251.5C 14.5,249.5 14.5,247.5 14.5,245.5C 16.4147,245.784 18.0813,245.451 19.5,244.5C 79.125,238.413 138.792,232.746 198.5,227.5 Z"/></g>
<g><path style="opacity:1" fill="#185f18" d="M 118.5,227.5 C 120.324,229.023 122.49,230.023 125,230.5C 133.788,229.204 142.622,228.538 151.5,228.5C 113.067,233.079 74.4004,236.745 35.5,239.5C 45.6733,237.967 56.0066,236.634 66.5,235.5C 67.8333,235.5 69.1667,235.5 70.5,235.5C 81.1723,234.602 91.839,233.602 102.5,232.5C 104.094,232.08 105.594,231.414 107,230.5C 110.828,231.692 114.662,231.692 118.5,230.5C 118.5,229.5 118.5,228.5 118.5,227.5 Z"/></g>
<g><path style="opacity:1" fill="#2d6329" d="M 17.5,152.5 C 17.8333,152.5 18.1667,152.5 18.5,152.5C 18.5,156.5 18.5,160.5 18.5,164.5C 18.5,167.5 18.5,170.5 18.5,173.5C 18.5,178.833 18.5,184.167 18.5,189.5C 18.5,193.167 18.5,196.833 18.5,200.5C 18.5,209.833 18.5,219.167 18.5,228.5C 18.5,232.5 18.5,236.5 18.5,240.5C 22.9972,239.543 27.3305,239.543 31.5,240.5C 26.8478,240.998 22.1811,241.331 17.5,241.5C 17.5,211.833 17.5,182.167 17.5,152.5 Z"/></g>
<g><path style="opacity:0.123" fill="#6d6c70" d="M 190.5,138.5 C 191.111,145.557 192.111,152.557 193.5,159.5C 195.415,159.216 197.081,159.549 198.5,160.5C 196.396,160.201 194.396,160.534 192.5,161.5C 192.914,164.798 193.914,167.798 195.5,170.5C 198.006,188.209 200.84,205.876 204,223.5C 204.777,226.429 204.61,229.263 203.5,232C 158.545,237.229 113.545,242.062 68.5,246.5C 69.2297,244.955 70.563,244.122 72.5,244C 114.989,239.471 157.322,234.304 199.5,228.5C 199.376,227.893 199.043,227.56 198.5,227.5C 194.574,200.166 190.574,172.832 186.5,145.5C 186.833,144.833 187.167,144.167 187.5,143.5C 188.263,141.632 189.263,139.965 190.5,138.5 Z"/></g>
</svg>
