<?xml version="1.0" encoding="UTF-8"?>
<!DOCTYPE svg PUBLIC "-//W3C//DTD SVG 1.1//EN" "http://www.w3.org/Graphics/SVG/1.1/DTD/svg11.dtd">
<svg xmlns="http://www.w3.org/2000/svg" version="1.1" width="690px" height="362px" style="shape-rendering:geometricPrecision; text-rendering:geometricPrecision; image-rendering:optimizeQuality; fill-rule:evenodd; clip-rule:evenodd" xmlns:xlink="http://www.w3.org/1999/xlink">
<g><path style="opacity:1" fill="#ecbe17" d="M 364.5,-0.5 C 384.5,-0.5 404.5,-0.5 424.5,-0.5C 424.55,1.59007 423.55,2.9234 421.5,3.5C 419.365,0.921678 417.365,1.08834 415.5,4C 415.833,4.33333 416.167,4.66667 416.5,5C 414.96,6.8511 413.46,8.01777 412,8.5C 410.456,5.73643 409.289,5.9031 408.5,9C 404.462,9.2473 400.629,10.7473 397,13.5C 396.667,13.1667 396.333,12.8333 396,12.5C 393.842,13.8259 392.008,15.4925 390.5,17.5C 389.833,17.1667 389.167,16.8333 388.5,16.5C 384.338,18.7605 380.338,20.5938 376.5,22C 376.833,22.3333 377.167,22.6667 377.5,23C 374.8,23.7668 372.3,24.9335 370,26.5C 369.586,26.0426 369.086,25.7093 368.5,25.5C 368.594,26.9715 367.594,28.1382 365.5,29C 364.216,29.6838 363.049,29.5171 362,28.5C 360.951,30.1066 359.451,30.7733 357.5,30.5C 357.813,26.9581 357.479,23.6248 356.5,20.5C 356.5,16.8333 356.5,13.1667 356.5,9.5C 358.064,5.27077 360.731,1.93744 364.5,-0.5 Z"/></g>
<g><path style="opacity:1" fill="#e9b813" d="M 424.5,-0.5 C 439.5,-0.5 454.5,-0.5 469.5,-0.5C 469.389,0.117425 469.056,0.617425 468.5,1C 470.936,1.20648 472.602,2.37314 473.5,4.5C 472.211,6.24802 470.711,6.58136 469,5.5C 466.828,6.58526 464.828,7.91859 463,9.5C 462.667,9.16667 462.333,8.83333 462,8.5C 459.691,9.97522 457.524,11.6419 455.5,13.5C 454.914,13.2907 454.414,12.9574 454,12.5C 452.47,13.636 451.137,14.636 450,15.5C 447.155,14.742 444.821,15.742 443,18.5C 441.989,17.6634 440.822,17.33 439.5,17.5C 439.539,19.3588 438.706,20.6921 437,21.5C 436.667,20.8333 436.333,20.1667 436,19.5C 434.891,21.8147 433.057,23.3147 430.5,24C 430.833,24.3333 431.167,24.6667 431.5,25C 430.048,26.5173 428.548,26.684 427,25.5C 425.328,26.5054 423.995,27.8387 423,29.5C 420.667,29.1667 418.333,28.8333 416,28.5C 415.667,30.1667 415.333,31.8333 415,33.5C 414.311,32.6433 413.478,31.9767 412.5,31.5C 410.639,32.5283 409.305,34.0283 408.5,36C 407.101,36.5946 405.768,36.4279 404.5,35.5C 402.889,37.5351 401.056,38.2018 399,37.5C 397.382,37.8887 396.215,39.222 395.5,41.5C 394.284,40.9984 393.117,40.6651 392,40.5C 391.132,44.0445 389.632,44.7112 387.5,42.5C 385.167,43.5 383.5,45.1667 382.5,47.5C 380.574,48.0606 378.574,48.2273 376.5,48C 377.571,49.8255 376.904,50.9921 374.5,51.5C 372.997,50.9478 371.331,50.9478 369.5,51.5C 369.649,52.552 369.483,53.552 369,54.5C 368.581,53.3279 367.915,52.3279 367,51.5C 364.597,53.305 362.93,55.6384 362,58.5C 361.009,57.0611 359.676,56.0611 358,55.5C 357.817,52.6353 357.317,49.9686 356.5,47.5C 356.5,38.5 356.5,29.5 356.5,20.5C 357.479,23.6248 357.813,26.9581 357.5,30.5C 359.451,30.7733 360.951,30.1066 362,28.5C 363.049,29.5171 364.216,29.6838 365.5,29C 367.594,28.1382 368.594,26.9715 368.5,25.5C 369.086,25.7093 369.586,26.0426 370,26.5C 372.3,24.9335 374.8,23.7668 377.5,23C 377.167,22.6667 376.833,22.3333 376.5,22C 380.338,20.5938 384.338,18.7605 388.5,16.5C 389.167,16.8333 389.833,17.1667 390.5,17.5C 392.008,15.4925 393.842,13.8259 396,12.5C 396.333,12.8333 396.667,13.1667 397,13.5C 400.629,10.7473 404.462,9.2473 408.5,9C 409.289,5.9031 410.456,5.73643 412,8.5C 413.46,8.01777 414.96,6.8511 416.5,5C 416.167,4.66667 415.833,4.33333 415.5,4C 417.365,1.08834 419.365,0.921678 421.5,3.5C 423.55,2.9234 424.55,1.59007 424.5,-0.5 Z"/></g>
<g><path style="opacity:1" fill="#f1c75a" d="M 469.5,-0.5 C 470.167,-0.5 470.833,-0.5 471.5,-0.5C 473.349,0.593015 475.016,1.92635 476.5,3.5C 475.391,3.55688 474.391,3.89022 473.5,4.5C 472.602,2.37314 470.936,1.20648 468.5,1C 469.056,0.617425 469.389,0.117425 469.5,-0.5 Z"/></g>
<g><path style="opacity:0.392" fill="#f9e6b2" d="M 476.5,3.5 C 477.906,3.97306 478.573,4.97306 478.5,6.5C 477.094,6.02694 476.427,5.02694 476.5,3.5 Z"/></g>
<g><path style="opacity:1" fill="#e6b213" d="M 476.5,3.5 C 476.427,5.02694 477.094,6.02694 478.5,6.5C 479.931,7.78041 480.598,9.44708 480.5,11.5C 480.5,22.8333 480.5,34.1667 480.5,45.5C 479.672,39.6807 479.172,33.6807 479,27.5C 477.201,29.8302 475.035,31.8302 472.5,33.5C 470.183,32.2901 468.183,32.7901 466.5,35C 467.34,36.6665 466.84,36.8331 465,35.5C 463.352,36.717 461.519,37.5503 459.5,38C 460.654,38.9138 460.487,39.7471 459,40.5C 458.667,40.1667 458.333,39.8333 458,39.5C 455.667,40.8333 453.333,42.1667 451,43.5C 450.667,43.1667 450.333,42.8333 450,42.5C 448.667,43.8333 447.333,45.1667 446,46.5C 444.667,46.5 443.333,46.5 442,46.5C 439.479,49.3517 436.313,50.8517 432.5,51C 433.34,52.6665 432.84,52.8331 431,51.5C 427.666,54.1075 424.166,56.4408 420.5,58.5C 419.914,58.2907 419.414,57.9574 419,57.5C 415.566,59.9349 411.9,61.9349 408,63.5C 406.291,61.8248 404.624,60.1581 403,58.5C 402.405,59.8989 402.572,61.2322 403.5,62.5C 402.675,63.3857 401.675,63.719 400.5,63.5C 400.657,62.1266 400.49,60.7932 400,59.5C 399.947,62.6102 398.614,64.9435 396,66.5C 392.903,65.7107 392.736,64.544 395.5,63C 394.234,62.6905 393.067,62.1905 392,61.5C 391.535,62.9308 390.701,64.0975 389.5,65C 392.849,65.0891 393.349,66.2557 391,68.5C 388.968,70.7682 387.635,70.1015 387,66.5C 384.988,68.6819 383.988,71.3486 384,74.5C 382.657,75.2135 381.324,74.8802 380,73.5C 379,74.8333 378,76.1667 377,77.5C 376.692,76.6919 376.192,76.0253 375.5,75.5C 372.852,77.0187 370.018,78.0187 367,78.5C 365.062,77.1398 363.396,77.4732 362,79.5C 361.374,77.0087 360.541,77.0087 359.5,79.5C 358.914,79.2907 358.414,78.9574 358,78.5C 357.814,75.9644 357.314,73.631 356.5,71.5C 356.5,63.5 356.5,55.5 356.5,47.5C 357.317,49.9686 357.817,52.6353 358,55.5C 359.676,56.0611 361.009,57.0611 362,58.5C 362.93,55.6384 364.597,53.305 367,51.5C 367.915,52.3279 368.581,53.3279 369,54.5C 369.483,53.552 369.649,52.552 369.5,51.5C 371.331,50.9478 372.997,50.9478 374.5,51.5C 376.904,50.9921 377.571,49.8255 376.5,48C 378.574,48.2273 380.574,48.0606 382.5,47.5C 383.5,45.1667 385.167,43.5 387.5,42.5C 389.632,44.7112 391.132,44.0445 392,40.5C 393.117,40.6651 394.284,40.9984 395.5,41.5C 396.215,39.222 397.382,37.8887 399,37.5C 401.056,38.2018 402.889,37.5351 404.5,35.5C 405.768,36.4279 407.101,36.5946 408.5,36C 409.305,34.0283 410.639,32.5283 412.5,31.5C 413.478,31.9767 414.311,32.6433 415,33.5C 415.333,31.8333 415.667,30.1667 416,28.5C 418.333,28.8333 420.667,29.1667 423,29.5C 423.995,27.8387 425.328,26.5054 427,25.5C 428.548,26.684 430.048,26.5173 431.5,25C 431.167,24.6667 430.833,24.3333 430.5,24C 433.057,23.3147 434.891,21.8147 436,19.5C 436.333,20.1667 436.667,20.8333 437,21.5C 438.706,20.6921 439.539,19.3588 439.5,17.5C 440.822,17.33 441.989,17.6634 443,18.5C 444.821,15.742 447.155,14.742 450,15.5C 451.137,14.636 452.47,13.636 454,12.5C 454.414,12.9574 454.914,13.2907 455.5,13.5C 457.524,11.6419 459.691,9.97522 462,8.5C 462.333,8.83333 462.667,9.16667 463,9.5C 464.828,7.91859 466.828,6.58526 469,5.5C 470.711,6.58136 472.211,6.24802 473.5,4.5C 474.391,3.89022 475.391,3.55688 476.5,3.5 Z"/></g>
<g><path style="opacity:1" fill="#e2ab11" d="M 480.5,45.5 C 480.5,53.1667 480.5,60.8333 480.5,68.5C 479.672,62.3466 479.172,56.0133 479,49.5C 478.105,54.2306 475.272,57.2306 470.5,58.5C 469.808,57.9747 469.308,57.3081 469,56.5C 468.51,57.7932 468.343,59.1266 468.5,60.5C 465.646,60.9239 462.979,61.9239 460.5,63.5C 459.833,63.1667 459.167,62.8333 458.5,62.5C 458.874,63.771 458.208,64.9377 456.5,66C 455.551,66.6172 454.718,66.4506 454,65.5C 451.047,67.4528 447.881,68.9528 444.5,70C 440.527,74.0729 436.194,75.9062 431.5,75.5C 429.729,76.0354 429.396,76.8687 430.5,78C 427.456,79.404 424.456,80.904 421.5,82.5C 420.707,82.0688 419.873,81.7355 419,81.5C 417.674,82.7989 416.34,84.1322 415,85.5C 414.009,84.0611 412.676,83.0611 411,82.5C 410.667,83.1667 410.333,83.8333 410,84.5C 405.016,84.1765 400.016,83.8432 395,83.5C 392.703,85.421 390.703,85.421 389,83.5C 388.259,84.6405 387.425,84.6405 386.5,83.5C 385.459,85.9913 384.626,85.9913 384,83.5C 383.683,85.3008 383.016,85.6341 382,84.5C 377.721,86.5974 373.554,86.9307 369.5,85.5C 367.224,86.2132 364.891,86.7132 362.5,87C 360.881,87.2355 359.881,88.0689 359.5,89.5C 358.5,89.5 357.5,89.5 356.5,89.5C 356.5,83.5 356.5,77.5 356.5,71.5C 357.314,73.631 357.814,75.9644 358,78.5C 358.414,78.9574 358.914,79.2907 359.5,79.5C 360.541,77.0087 361.374,77.0087 362,79.5C 363.396,77.4732 365.062,77.1398 367,78.5C 370.018,78.0187 372.852,77.0187 375.5,75.5C 376.192,76.0253 376.692,76.6919 377,77.5C 378,76.1667 379,74.8333 380,73.5C 381.324,74.8802 382.657,75.2135 384,74.5C 383.988,71.3486 384.988,68.6819 387,66.5C 387.635,70.1015 388.968,70.7682 391,68.5C 393.349,66.2557 392.849,65.0891 389.5,65C 390.701,64.0975 391.535,62.9308 392,61.5C 393.067,62.1905 394.234,62.6905 395.5,63C 392.736,64.544 392.903,65.7107 396,66.5C 398.614,64.9435 399.947,62.6102 400,59.5C 400.49,60.7932 400.657,62.1266 400.5,63.5C 401.675,63.719 402.675,63.3857 403.5,62.5C 402.572,61.2322 402.405,59.8989 403,58.5C 404.624,60.1581 406.291,61.8248 408,63.5C 411.9,61.9349 415.566,59.9349 419,57.5C 419.414,57.9574 419.914,58.2907 420.5,58.5C 424.166,56.4408 427.666,54.1075 431,51.5C 432.84,52.8331 433.34,52.6665 432.5,51C 436.313,50.8517 439.479,49.3517 442,46.5C 443.333,46.5 444.667,46.5 446,46.5C 447.333,45.1667 448.667,43.8333 450,42.5C 450.333,42.8333 450.667,43.1667 451,43.5C 453.333,42.1667 455.667,40.8333 458,39.5C 458.333,39.8333 458.667,40.1667 459,40.5C 460.487,39.7471 460.654,38.9138 459.5,38C 461.519,37.5503 463.352,36.717 465,35.5C 466.84,36.8331 467.34,36.6665 466.5,35C 468.183,32.7901 470.183,32.2901 472.5,33.5C 475.035,31.8302 477.201,29.8302 479,27.5C 479.172,33.6807 479.672,39.6807 480.5,45.5 Z"/></g>
<g><path style="opacity:1" fill="#dfa511" d="M 480.5,68.5 C 480.5,76.1667 480.5,83.8333 480.5,91.5C 479.672,85.6807 479.172,79.6807 479,73.5C 478.691,74.7659 478.191,75.9326 477.5,77C 472.607,78.7479 468.44,80.9145 465,83.5C 463.667,83.5 462.333,83.5 461,83.5C 460.558,85.6785 459.558,86.3452 458,85.5C 455.24,88.0622 452.24,89.3955 449,89.5C 446.441,91.3166 443.774,92.9833 441,94.5C 440.667,94.1667 440.333,93.8333 440,93.5C 439.716,95.8856 438.716,96.5523 437,95.5C 433.306,99.0597 428.472,100.56 422.5,100C 422,99.5 421.5,99 421,98.5C 418.695,100.076 416.528,99.5759 414.5,97C 411.07,96.1188 407.737,94.9521 404.5,93.5C 403.893,93.6236 403.56,93.9569 403.5,94.5C 400.569,92.203 397.236,90.703 393.5,90C 382.172,89.5001 370.838,89.3335 359.5,89.5C 359.881,88.0689 360.881,87.2355 362.5,87C 364.891,86.7132 367.224,86.2132 369.5,85.5C 373.554,86.9307 377.721,86.5974 382,84.5C 383.016,85.6341 383.683,85.3008 384,83.5C 384.626,85.9913 385.459,85.9913 386.5,83.5C 387.425,84.6405 388.259,84.6405 389,83.5C 390.703,85.421 392.703,85.421 395,83.5C 400.016,83.8432 405.016,84.1765 410,84.5C 410.333,83.8333 410.667,83.1667 411,82.5C 412.676,83.0611 414.009,84.0611 415,85.5C 416.34,84.1322 417.674,82.7989 419,81.5C 419.873,81.7355 420.707,82.0688 421.5,82.5C 424.456,80.904 427.456,79.404 430.5,78C 429.396,76.8687 429.729,76.0354 431.5,75.5C 436.194,75.9062 440.527,74.0729 444.5,70C 447.881,68.9528 451.047,67.4528 454,65.5C 454.718,66.4506 455.551,66.6172 456.5,66C 458.208,64.9377 458.874,63.771 458.5,62.5C 459.167,62.8333 459.833,63.1667 460.5,63.5C 462.979,61.9239 465.646,60.9239 468.5,60.5C 468.343,59.1266 468.51,57.7932 469,56.5C 469.308,57.3081 469.808,57.9747 470.5,58.5C 475.272,57.2306 478.105,54.2306 479,49.5C 479.172,56.0133 479.672,62.3466 480.5,68.5 Z"/></g>
<g><path style="opacity:1" fill="#da9e10" d="M 480.5,91.5 C 480.666,98.175 480.5,104.842 480,111.5C 479.667,105.833 479.333,100.167 479,94.5C 478.83,96.7148 478.163,98.7148 477,100.5C 476.667,100.167 476.333,99.8333 476,99.5C 474.214,101.099 472.047,101.933 469.5,102C 470.833,102.667 470.833,103.333 469.5,104C 467.45,104.526 465.617,105.359 464,106.5C 462.816,104.346 461.65,104.68 460.5,107.5C 459.349,108.731 458.183,108.731 457,107.5C 456.716,109.886 455.716,110.552 454,109.5C 452.192,111.403 450.192,113.07 448,114.5C 447.055,114.095 446.388,113.428 446,112.5C 445.077,113.759 444.243,115.092 443.5,116.5C 441.52,115.617 439.52,115.783 437.5,117C 438.956,117.423 439.456,118.256 439,119.5C 438.586,119.043 438.086,118.709 437.5,118.5C 434.042,122.434 430.542,122.434 427,118.5C 425.817,119.731 424.651,119.731 423.5,118.5C 418.506,114.173 413.506,109.84 408.5,105.5C 407.501,111.408 407.167,118.074 407.5,125.5C 407.5,141.5 407.5,157.5 407.5,173.5C 407.5,202.5 407.5,231.5 407.5,260.5C 407.827,269.682 407.493,278.682 406.5,287.5C 406.5,274.5 406.5,261.5 406.5,248.5C 406.5,244.167 406.5,239.833 406.5,235.5C 406.5,223.833 406.5,212.167 406.5,200.5C 406.5,190.167 406.5,179.833 406.5,169.5C 406.5,163.833 406.5,158.167 406.5,152.5C 406.5,146.5 406.5,140.5 406.5,134.5C 406.5,132.167 406.5,129.833 406.5,127.5C 406.5,123.5 406.5,119.5 406.5,115.5C 406.666,109.824 406.499,104.157 406,98.5C 405.292,97.6195 404.458,96.9528 403.5,96.5C 403.5,95.8333 403.5,95.1667 403.5,94.5C 403.56,93.9569 403.893,93.6236 404.5,93.5C 407.737,94.9521 411.07,96.1188 414.5,97C 416.528,99.5759 418.695,100.076 421,98.5C 421.5,99 422,99.5 422.5,100C 428.472,100.56 433.306,99.0597 437,95.5C 438.716,96.5523 439.716,95.8856 440,93.5C 440.333,93.8333 440.667,94.1667 441,94.5C 443.774,92.9833 446.441,91.3166 449,89.5C 452.24,89.3955 455.24,88.0622 458,85.5C 459.558,86.3452 460.558,85.6785 461,83.5C 462.333,83.5 463.667,83.5 465,83.5C 468.44,80.9145 472.607,78.7479 477.5,77C 478.191,75.9326 478.691,74.7659 479,73.5C 479.172,79.6807 479.672,85.6807 480.5,91.5 Z"/></g>
<g><path style="opacity:0.999" fill="#f7de60" d="M 355.5,89.5 C 340.005,90.3314 324.339,90.8314 308.5,91C 318.167,91.3333 327.833,91.6667 337.5,92C 330.397,95.4874 323.231,98.9874 316,102.5C 315.667,102.167 315.333,101.833 315,101.5C 313.833,102.667 312.667,103.833 311.5,105C 302.155,108.536 293.155,112.702 284.5,117.5C 284.649,116.448 284.483,115.448 284,114.5C 283.817,117.365 283.317,120.031 282.5,122.5C 282.302,114.466 282.635,106.466 283.5,98.5C 285.321,94.5147 288.321,91.6814 292.5,90C 313.497,89.5 334.497,89.3334 355.5,89.5 Z"/></g>
<g><path style="opacity:1" fill="#f5d751" d="M 356.5,9.5 C 356.5,13.1667 356.5,16.8333 356.5,20.5C 356.5,29.5 356.5,38.5 356.5,47.5C 356.5,55.5 356.5,63.5 356.5,71.5C 356.5,77.5 356.5,83.5 356.5,89.5C 357.5,89.5 358.5,89.5 359.5,89.5C 370.838,89.3335 382.172,89.5001 393.5,90C 397.236,90.703 400.569,92.203 403.5,94.5C 403.5,95.1667 403.5,95.8333 403.5,96.5C 403.565,96.9382 403.399,97.2716 403,97.5C 402.311,96.6433 401.478,95.9767 400.5,95.5C 399.5,96.8333 398.5,96.8333 397.5,95.5C 396.201,96.09 395.368,97.09 395,98.5C 389.97,98.4236 385.637,100.424 382,104.5C 381.195,102.099 380.362,102.266 379.5,105C 370.232,108.82 360.898,113.153 351.5,118C 350.874,118.75 350.374,119.584 350,120.5C 348.912,117.007 347.745,116.841 346.5,120C 343.058,122.239 339.558,124.406 336,126.5C 335.667,126.167 335.333,125.833 335,125.5C 329.742,127.775 324.742,130.442 320,133.5C 319.667,133.167 319.333,132.833 319,132.5C 312.378,137.027 305.711,141.36 299,145.5C 298.667,145.167 298.333,144.833 298,144.5C 292.856,147.241 287.689,149.908 282.5,152.5C 282.5,142.5 282.5,132.5 282.5,122.5C 283.317,120.031 283.817,117.365 284,114.5C 284.483,115.448 284.649,116.448 284.5,117.5C 293.155,112.702 302.155,108.536 311.5,105C 312.667,103.833 313.833,102.667 315,101.5C 315.333,101.833 315.667,102.167 316,102.5C 323.231,98.9874 330.397,95.4874 337.5,92C 327.833,91.6667 318.167,91.3333 308.5,91C 324.339,90.8314 340.005,90.3314 355.5,89.5C 355.169,62.6614 355.502,35.9948 356.5,9.5 Z"/></g>
<g><path style="opacity:1" fill="#f4d349" d="M 403.5,96.5 C 404.458,96.9528 405.292,97.6195 406,98.5C 406.499,104.157 406.666,109.824 406.5,115.5C 405.926,111.836 405.093,108.169 404,104.5C 402.184,105.329 400.351,106.163 398.5,107C 397.167,107.667 397.167,108.333 398.5,109C 388.461,112.876 378.795,116.876 369.5,121C 368.809,122.067 368.309,123.234 368,124.5C 367.667,123.833 367.333,123.167 367,122.5C 364.347,124.995 361.347,126.995 358,128.5C 355.864,127.97 354.03,128.803 352.5,131C 349.261,131.703 346.595,132.703 344.5,134C 345.167,134.333 345.833,134.667 346.5,135C 345.234,135.309 344.067,135.809 343,136.5C 342.667,135.833 342.333,135.167 342,134.5C 340.112,137.273 338.112,137.606 336,135.5C 336.218,139.638 334.552,140.972 331,139.5C 330.147,141.125 329.147,141.458 328,140.5C 327.424,143.124 326.09,143.791 324,142.5C 321.83,144.672 319.497,146.672 317,148.5C 316.549,146.071 315.715,145.904 314.5,148C 314.833,148.333 315.167,148.667 315.5,149C 314.216,149.684 313.049,149.517 312,148.5C 310.915,150.373 309.582,152.04 308,153.5C 307.692,152.692 307.192,152.025 306.5,151.5C 306.002,152.603 305.669,153.603 305.5,154.5C 304.808,153.975 304.308,153.308 304,152.5C 302.915,154.373 301.582,156.04 300,157.5C 298.221,154.724 297.221,155.057 297,158.5C 296.667,158.167 296.333,157.833 296,157.5C 293.942,158.109 293.109,159.109 293.5,160.5C 292.232,159.572 290.899,159.405 289.5,160C 288.167,160.667 288.167,161.333 289.5,162C 287.244,164.603 284.911,165.103 282.5,163.5C 282.5,159.833 282.5,156.167 282.5,152.5C 287.689,149.908 292.856,147.241 298,144.5C 298.333,144.833 298.667,145.167 299,145.5C 305.711,141.36 312.378,137.027 319,132.5C 319.333,132.833 319.667,133.167 320,133.5C 324.742,130.442 329.742,127.775 335,125.5C 335.333,125.833 335.667,126.167 336,126.5C 339.558,124.406 343.058,122.239 346.5,120C 347.745,116.841 348.912,117.007 350,120.5C 350.374,119.584 350.874,118.75 351.5,118C 360.898,113.153 370.232,108.82 379.5,105C 380.362,102.266 381.195,102.099 382,104.5C 385.637,100.424 389.97,98.4236 395,98.5C 395.368,97.09 396.201,96.09 397.5,95.5C 398.5,96.8333 399.5,96.8333 400.5,95.5C 401.478,95.9767 402.311,96.6433 403,97.5C 403.399,97.2716 403.565,96.9382 403.5,96.5 Z"/></g>
<g><path style="opacity:1" fill="#dea336" d="M 480.5,11.5 C 481.833,124.167 481.833,236.833 480.5,349.5C 480.5,344.167 480.5,338.833 480.5,333.5C 480.5,320.167 480.5,306.833 480.5,293.5C 480.5,281.167 480.5,268.833 480.5,256.5C 480.5,247.5 480.5,238.5 480.5,229.5C 480.5,215.5 480.5,201.5 480.5,187.5C 480.816,172.422 480.483,157.422 479.5,142.5C 480.075,132.702 479.741,127.035 478.5,125.5C 475.19,125.461 472.524,126.794 470.5,129.5C 469.094,128.332 467.928,128.665 467,130.5C 464.708,129.399 463.208,130.232 462.5,133C 459.638,133.24 457.305,134.407 455.5,136.5C 453.898,135.45 453.065,136.117 453,138.5C 451.594,137.332 450.428,137.665 449.5,139.5C 448.117,136.924 447.283,137.258 447,140.5C 445.667,140.5 444.333,140.5 443,140.5C 442.751,141.624 442.251,142.624 441.5,143.5C 438.964,143.844 436.797,144.844 435,146.5C 433.984,145.366 433.317,145.699 433,147.5C 431.26,146.284 430.26,144.618 430,142.5C 429.692,143.308 429.192,143.975 428.5,144.5C 427.264,143.754 425.93,143.421 424.5,143.5C 424.657,142.127 424.49,140.793 424,139.5C 419.137,135.49 415.303,130.823 412.5,125.5C 411.883,125.389 411.383,125.056 411,124.5C 408.999,118.322 408.166,111.988 408.5,105.5C 413.506,109.84 418.506,114.173 423.5,118.5C 424.651,119.731 425.817,119.731 427,118.5C 430.542,122.434 434.042,122.434 437.5,118.5C 438.086,118.709 438.586,119.043 439,119.5C 439.456,118.256 438.956,117.423 437.5,117C 439.52,115.783 441.52,115.617 443.5,116.5C 444.243,115.092 445.077,113.759 446,112.5C 446.388,113.428 447.055,114.095 448,114.5C 450.192,113.07 452.192,111.403 454,109.5C 455.716,110.552 456.716,109.886 457,107.5C 458.183,108.731 459.349,108.731 460.5,107.5C 461.65,104.68 462.816,104.346 464,106.5C 465.617,105.359 467.45,104.526 469.5,104C 470.833,103.333 470.833,102.667 469.5,102C 472.047,101.933 474.214,101.099 476,99.5C 476.333,99.8333 476.667,100.167 477,100.5C 478.163,98.7148 478.83,96.7148 479,94.5C 479.333,100.167 479.667,105.833 480,111.5C 480.5,104.842 480.666,98.175 480.5,91.5C 480.5,83.8333 480.5,76.1667 480.5,68.5C 480.5,60.8333 480.5,53.1667 480.5,45.5C 480.5,34.1667 480.5,22.8333 480.5,11.5 Z"/></g>
<g><path style="opacity:1" fill="#f2cf44" d="M 406.5,115.5 C 406.5,119.5 406.5,123.5 406.5,127.5C 405.835,125.302 405.168,122.969 404.5,120.5C 373.045,135.651 341.545,151.318 310,167.5C 309.667,167.167 309.333,166.833 309,166.5C 303.577,169.553 298.244,172.886 293,176.5C 292.667,176.167 292.333,175.833 292,175.5C 289.932,177.562 287.432,178.728 284.5,179C 291.158,179.5 297.825,179.666 304.5,179.5C 310.026,179.179 315.36,179.512 320.5,180.5C 307.833,180.5 295.167,180.5 282.5,180.5C 282.5,174.833 282.5,169.167 282.5,163.5C 284.911,165.103 287.244,164.603 289.5,162C 288.167,161.333 288.167,160.667 289.5,160C 290.899,159.405 292.232,159.572 293.5,160.5C 293.109,159.109 293.942,158.109 296,157.5C 296.333,157.833 296.667,158.167 297,158.5C 297.221,155.057 298.221,154.724 300,157.5C 301.582,156.04 302.915,154.373 304,152.5C 304.308,153.308 304.808,153.975 305.5,154.5C 305.669,153.603 306.002,152.603 306.5,151.5C 307.192,152.025 307.692,152.692 308,153.5C 309.582,152.04 310.915,150.373 312,148.5C 313.049,149.517 314.216,149.684 315.5,149C 315.167,148.667 314.833,148.333 314.5,148C 315.715,145.904 316.549,146.071 317,148.5C 319.497,146.672 321.83,144.672 324,142.5C 326.09,143.791 327.424,143.124 328,140.5C 329.147,141.458 330.147,141.125 331,139.5C 334.552,140.972 336.218,139.638 336,135.5C 338.112,137.606 340.112,137.273 342,134.5C 342.333,135.167 342.667,135.833 343,136.5C 344.067,135.809 345.234,135.309 346.5,135C 345.833,134.667 345.167,134.333 344.5,134C 346.595,132.703 349.261,131.703 352.5,131C 354.03,128.803 355.864,127.97 358,128.5C 361.347,126.995 364.347,124.995 367,122.5C 367.333,123.167 367.667,123.833 368,124.5C 368.309,123.234 368.809,122.067 369.5,121C 378.795,116.876 388.461,112.876 398.5,109C 397.167,108.333 397.167,107.667 398.5,107C 400.351,106.163 402.184,105.329 404,104.5C 405.093,108.169 405.926,111.836 406.5,115.5 Z"/></g>
<g><path style="opacity:1" fill="#f1cc40" d="M 406.5,127.5 C 406.5,129.833 406.5,132.167 406.5,134.5C 405.763,132.618 404.596,131.952 403,132.5C 377.515,145.402 351.015,158.902 323.5,173C 319.755,174.37 316.088,176.037 312.5,178C 309.635,178.183 306.969,178.683 304.5,179.5C 297.825,179.666 291.158,179.5 284.5,179C 287.432,178.728 289.932,177.562 292,175.5C 292.333,175.833 292.667,176.167 293,176.5C 298.244,172.886 303.577,169.553 309,166.5C 309.333,166.833 309.667,167.167 310,167.5C 341.545,151.318 373.045,135.651 404.5,120.5C 405.168,122.969 405.835,125.302 406.5,127.5 Z"/></g>
<g><path style="opacity:1" fill="#d4920c" d="M 479.5,142.5 C 478.837,144.042 478.17,145.709 477.5,147.5C 475.868,148.297 474.368,149.297 473,150.5C 471.584,151.573 470.25,151.573 469,150.5C 468.167,152 467,153.167 465.5,154C 459.232,156.769 453.399,159.602 448,162.5C 447.667,162.167 447.333,161.833 447,161.5C 444.721,163.562 442.388,164.895 440,165.5C 439.667,165.167 439.333,164.833 439,164.5C 438,166.167 436.667,167.5 435,168.5C 434.667,168.167 434.333,167.833 434,167.5C 432.796,168.471 432.296,169.471 432.5,170.5C 431.167,169.167 429.833,169.167 428.5,170.5C 427.548,168.955 427.215,167.288 427.5,165.5C 426.167,165.5 424.833,165.5 423.5,165.5C 423.586,164.504 423.252,163.671 422.5,163C 423.167,162.333 423.833,161.667 424.5,161C 423.095,159.731 421.429,159.231 419.5,159.5C 419.5,158.167 419.5,156.833 419.5,155.5C 418.5,155.5 417.5,155.5 416.5,155.5C 415.444,145.443 414.111,135.443 412.5,125.5C 415.303,130.823 419.137,135.49 424,139.5C 424.49,140.793 424.657,142.127 424.5,143.5C 425.93,143.421 427.264,143.754 428.5,144.5C 429.192,143.975 429.692,143.308 430,142.5C 430.26,144.618 431.26,146.284 433,147.5C 433.317,145.699 433.984,145.366 435,146.5C 436.797,144.844 438.964,143.844 441.5,143.5C 442.251,142.624 442.751,141.624 443,140.5C 444.333,140.5 445.667,140.5 447,140.5C 447.283,137.258 448.117,136.924 449.5,139.5C 450.428,137.665 451.594,137.332 453,138.5C 453.065,136.117 453.898,135.45 455.5,136.5C 457.305,134.407 459.638,133.24 462.5,133C 463.208,130.232 464.708,129.399 467,130.5C 467.928,128.665 469.094,128.332 470.5,129.5C 472.524,126.794 475.19,125.461 478.5,125.5C 479.741,127.035 480.075,132.702 479.5,142.5 Z"/></g>
<g><path style="opacity:1" fill="#f0c93c" d="M 406.5,134.5 C 406.5,140.5 406.5,146.5 406.5,152.5C 405.835,150.631 405.169,148.631 404.5,146.5C 399.013,149.68 393.18,153.013 387,156.5C 386.667,156.167 386.333,155.833 386,155.5C 385.167,157 384,158.167 382.5,159C 380.324,159.163 378.491,159.996 377,161.5C 376.667,161.167 376.333,160.833 376,160.5C 370.687,164.97 365.02,168.303 359,170.5C 355.515,170.266 352.848,171.933 351,175.5C 350.667,174.833 350.333,174.167 350,173.5C 347.866,174.992 345.866,176.659 344,178.5C 342.57,178.694 341.07,178.694 339.5,178.5C 338.915,180.865 337.748,182.865 336,184.5C 335.667,184.167 335.333,183.833 335,183.5C 334.31,185.35 333.144,186.684 331.5,187.5C 329.597,184.542 326.93,182.542 323.5,181.5C 322.609,180.89 321.609,180.557 320.5,180.5C 315.36,179.512 310.026,179.179 304.5,179.5C 306.969,178.683 309.635,178.183 312.5,178C 316.088,176.037 319.755,174.37 323.5,173C 351.015,158.902 377.515,145.402 403,132.5C 404.596,131.952 405.763,132.618 406.5,134.5 Z"/></g>
<g><path style="opacity:1" fill="#ca8d0d" d="M 408.5,105.5 C 408.166,111.988 408.999,118.322 411,124.5C 411.383,125.056 411.883,125.389 412.5,125.5C 414.111,135.443 415.444,145.443 416.5,155.5C 417.5,155.5 418.5,155.5 419.5,155.5C 419.5,156.833 419.5,158.167 419.5,159.5C 421.429,159.231 423.095,159.731 424.5,161C 423.833,161.667 423.167,162.333 422.5,163C 423.252,163.671 423.586,164.504 423.5,165.5C 422.127,165.343 420.793,165.51 419.5,166C 420.815,172.417 421.815,178.917 422.5,185.5C 421.792,183.622 420.626,181.955 419,180.5C 418.667,180.833 418.333,181.167 418,181.5C 415.756,177.235 413.923,172.902 412.5,168.5C 412.773,166.042 411.773,164.375 409.5,163.5C 408.833,150.673 408.167,138.006 407.5,125.5C 407.167,118.074 407.501,111.408 408.5,105.5 Z"/></g>
<g><path style="opacity:1" fill="#d28c0a" d="M 479.5,142.5 C 480.483,157.422 480.816,172.422 480.5,187.5C 479.662,187.158 479.328,186.492 479.5,185.5C 479.666,178.825 479.5,172.158 479,165.5C 478.871,168.003 477.871,170.003 476,171.5C 475.439,170.978 474.772,170.645 474,170.5C 471.34,172.998 468.34,174.998 465,176.5C 464.667,176.167 464.333,175.833 464,175.5C 460.725,176.886 457.891,178.886 455.5,181.5C 454.808,180.975 454.308,180.308 454,179.5C 453.424,182.124 452.09,182.791 450,181.5C 449.424,184.124 448.09,184.791 446,183.5C 445.363,185.303 444.197,186.636 442.5,187.5C 440.22,188.311 437.72,188.311 435,187.5C 434.333,189.5 433,190.833 431,191.5C 429.667,190.167 428.333,190.167 427,191.5C 426.781,190.062 426.281,188.729 425.5,187.5C 424.575,186.359 423.741,186.359 423,187.5C 422.536,186.906 422.369,186.239 422.5,185.5C 421.815,178.917 420.815,172.417 419.5,166C 420.793,165.51 422.127,165.343 423.5,165.5C 424.833,165.5 426.167,165.5 427.5,165.5C 427.215,167.288 427.548,168.955 428.5,170.5C 429.833,169.167 431.167,169.167 432.5,170.5C 432.296,169.471 432.796,168.471 434,167.5C 434.333,167.833 434.667,168.167 435,168.5C 436.667,167.5 438,166.167 439,164.5C 439.333,164.833 439.667,165.167 440,165.5C 442.388,164.895 444.721,163.562 447,161.5C 447.333,161.833 447.667,162.167 448,162.5C 453.399,159.602 459.232,156.769 465.5,154C 467,153.167 468.167,152 469,150.5C 470.25,151.573 471.584,151.573 473,150.5C 474.368,149.297 475.868,148.297 477.5,147.5C 478.17,145.709 478.837,144.042 479.5,142.5 Z"/></g>
<g><path style="opacity:1" fill="#efc535" d="M 406.5,152.5 C 406.5,158.167 406.5,163.833 406.5,169.5C 404.726,168.119 403.226,168.452 402,170.5C 401.667,169.833 401.333,169.167 401,168.5C 400.155,171.412 398.488,172.412 396,171.5C 395.147,173.125 394.147,173.458 393,172.5C 392.517,173.448 392.351,174.448 392.5,175.5C 390.508,175.328 388.842,175.995 387.5,177.5C 386.914,177.291 386.414,176.957 386,176.5C 383.276,177.688 380.943,179.355 379,181.5C 378.195,179.099 377.362,179.266 376.5,182C 375.24,183.113 374.073,183.28 373,182.5C 366.195,186.623 359.361,190.79 352.5,195C 348.364,196.264 344.53,198.097 341,200.5C 338.901,201.287 336.734,201.62 334.5,201.5C 334.819,206.363 334.486,211.03 333.5,215.5C 333.826,207.316 333.492,199.316 332.5,191.5C 332.567,190.041 332.234,188.708 331.5,187.5C 333.144,186.684 334.31,185.35 335,183.5C 335.333,183.833 335.667,184.167 336,184.5C 337.748,182.865 338.915,180.865 339.5,178.5C 341.07,178.694 342.57,178.694 344,178.5C 345.866,176.659 347.866,174.992 350,173.5C 350.333,174.167 350.667,174.833 351,175.5C 352.848,171.933 355.515,170.266 359,170.5C 365.02,168.303 370.687,164.97 376,160.5C 376.333,160.833 376.667,161.167 377,161.5C 378.491,159.996 380.324,159.163 382.5,159C 384,158.167 385.167,157 386,155.5C 386.333,155.833 386.667,156.167 387,156.5C 393.18,153.013 399.013,149.68 404.5,146.5C 405.169,148.631 405.835,150.631 406.5,152.5 Z"/></g>
<g><path style="opacity:1" fill="#ce8607" d="M 479.5,185.5 C 478.894,188.167 478.061,190.834 477,193.5C 476.586,193.043 476.086,192.709 475.5,192.5C 471.781,194.564 468.281,196.897 465,199.5C 464.667,199.167 464.333,198.833 464,198.5C 462.184,200.441 460.184,201.108 458,200.5C 455.008,202.494 452.008,204.494 449,206.5C 447.636,205.742 446.469,206.242 445.5,208C 440.423,209.618 435.923,212.118 432,215.5C 426.529,211.179 421.362,206.513 416.5,201.5C 415.047,190.515 413.713,179.515 412.5,168.5C 413.923,172.902 415.756,177.235 418,181.5C 418.333,181.167 418.667,180.833 419,180.5C 420.626,181.955 421.792,183.622 422.5,185.5C 422.369,186.239 422.536,186.906 423,187.5C 423.741,186.359 424.575,186.359 425.5,187.5C 426.281,188.729 426.781,190.062 427,191.5C 428.333,190.167 429.667,190.167 431,191.5C 433,190.833 434.333,189.5 435,187.5C 437.72,188.311 440.22,188.311 442.5,187.5C 444.197,186.636 445.363,185.303 446,183.5C 448.09,184.791 449.424,184.124 450,181.5C 452.09,182.791 453.424,182.124 454,179.5C 454.308,180.308 454.808,180.975 455.5,181.5C 457.891,178.886 460.725,176.886 464,175.5C 464.333,175.833 464.667,176.167 465,176.5C 468.34,174.998 471.34,172.998 474,170.5C 474.772,170.645 475.439,170.978 476,171.5C 477.871,170.003 478.871,168.003 479,165.5C 479.5,172.158 479.666,178.825 479.5,185.5 Z"/></g>
<g><path style="opacity:0.156" fill="#fdf9e7" d="M 283.5,98.5 C 282.635,106.466 282.302,114.466 282.5,122.5C 282.5,132.5 282.5,142.5 282.5,152.5C 282.5,156.167 282.5,159.833 282.5,163.5C 282.5,169.167 282.5,174.833 282.5,180.5C 282.167,180.5 281.833,180.5 281.5,180.5C 260.833,180.5 240.167,180.5 219.5,180.5C 239.993,179.503 260.66,179.169 281.5,179.5C 281.333,153.498 281.5,127.498 282,101.5C 282.232,100.263 282.732,99.2625 283.5,98.5 Z"/></g>
<g><path style="opacity:0.998" fill="#f9e68e" d="M 219.5,180.5 C 240.167,180.5 260.833,180.5 281.5,180.5C 272.676,181.33 263.676,181.83 254.5,182C 251.47,185.988 247.637,187.821 243,187.5C 240.417,189.698 237.584,191.531 234.5,193C 226.32,195.673 218.82,199.506 212,204.5C 210.847,201.289 210.18,197.956 210,194.5C 209.501,199.155 209.334,203.821 209.5,208.5C 209.5,213.167 209.5,217.833 209.5,222.5C 209.5,226.833 209.5,231.167 209.5,235.5C 209.5,239.833 209.5,244.167 209.5,248.5C 209.5,253.167 209.5,257.833 209.5,262.5C 209.5,267.167 209.5,271.833 209.5,276.5C 209.5,284.833 209.5,293.167 209.5,301.5C 209.5,310.5 209.5,319.5 209.5,328.5C 209.5,336.167 209.5,343.833 209.5,351.5C 208.335,298.002 208.168,244.335 209,190.5C 211.049,185.617 214.549,182.283 219.5,180.5 Z"/></g>
<g><path style="opacity:1" fill="#f8e486" d="M 281.5,180.5 C 281.833,180.5 282.167,180.5 282.5,180.5C 284.631,181.314 286.964,181.814 289.5,182C 277.716,187.543 265.383,193.377 252.5,199.5C 251.914,199.291 251.414,198.957 251,198.5C 244.9,202.974 238.066,205.807 230.5,207C 228.381,209.393 225.715,210.726 222.5,211C 222.833,211.333 223.167,211.667 223.5,212C 219.219,211.941 215.219,213.441 211.5,216.5C 210.832,213.694 210.166,211.028 209.5,208.5C 209.334,203.821 209.501,199.155 210,194.5C 210.18,197.956 210.847,201.289 212,204.5C 218.82,199.506 226.32,195.673 234.5,193C 237.584,191.531 240.417,189.698 243,187.5C 247.637,187.821 251.47,185.988 254.5,182C 263.676,181.83 272.676,181.33 281.5,180.5 Z"/></g>
<g><path style="opacity:1" fill="#f8e27f" d="M 282.5,180.5 C 295.167,180.5 307.833,180.5 320.5,180.5C 321.609,180.557 322.609,180.89 323.5,181.5C 322.167,182.933 320.667,184.267 319,185.5C 318.667,185.167 318.333,184.833 318,184.5C 301.535,192.911 285.202,200.578 269,207.5C 262.732,209.294 256.565,212.128 250.5,216C 242.477,218.172 234.643,221.672 227,226.5C 225.497,226.165 224.164,226.165 223,226.5C 218.87,228.65 214.87,230.983 211,233.5C 210.823,229.644 210.323,225.977 209.5,222.5C 209.5,217.833 209.5,213.167 209.5,208.5C 210.166,211.028 210.832,213.694 211.5,216.5C 215.219,213.441 219.219,211.941 223.5,212C 223.167,211.667 222.833,211.333 222.5,211C 225.715,210.726 228.381,209.393 230.5,207C 238.066,205.807 244.9,202.974 251,198.5C 251.414,198.957 251.914,199.291 252.5,199.5C 265.383,193.377 277.716,187.543 289.5,182C 286.964,181.814 284.631,181.314 282.5,180.5 Z"/></g>
<g><path style="opacity:1" fill="#f7e079" d="M 323.5,181.5 C 326.93,182.542 329.597,184.542 331.5,187.5C 332.234,188.708 332.567,190.041 332.5,191.5C 332.5,192.833 332.5,194.167 332.5,195.5C 331.732,194.737 331.232,193.737 331,192.5C 305.158,203.56 279.658,215.394 254.5,228C 249.828,229.091 245.328,230.591 241,232.5C 240.055,232.905 239.388,233.572 239,234.5C 238.667,234.167 238.333,233.833 238,233.5C 233.32,235.682 228.654,238.016 224,240.5C 223.667,240.167 223.333,239.833 223,239.5C 218.891,241.647 214.891,243.981 211,246.5C 210.823,242.644 210.323,238.977 209.5,235.5C 209.5,231.167 209.5,226.833 209.5,222.5C 210.323,225.977 210.823,229.644 211,233.5C 214.87,230.983 218.87,228.65 223,226.5C 224.164,226.165 225.497,226.165 227,226.5C 234.643,221.672 242.477,218.172 250.5,216C 256.565,212.128 262.732,209.294 269,207.5C 285.202,200.578 301.535,192.911 318,184.5C 318.333,184.833 318.667,185.167 319,185.5C 320.667,184.267 322.167,182.933 323.5,181.5 Z"/></g>
<g><path style="opacity:1" fill="#c38109" d="M 407.5,125.5 C 408.167,138.006 408.833,150.673 409.5,163.5C 411.773,164.375 412.773,166.042 412.5,168.5C 413.713,179.515 415.047,190.515 416.5,201.5C 417.863,205.535 418.863,209.702 419.5,214C 418.305,215.852 416.638,217.019 414.5,217.5C 411.987,215.467 410.487,212.801 410,209.5C 408.995,197.361 408.161,185.361 407.5,173.5C 407.5,157.5 407.5,141.5 407.5,125.5 Z"/></g>
<g><path style="opacity:1" fill="#ecbf2a" d="M 406.5,169.5 C 406.5,179.833 406.5,190.167 406.5,200.5C 405.85,200.196 405.183,199.863 404.5,199.5C 395.495,204.134 386.995,208.134 379,211.5C 377.416,212.861 375.582,213.528 373.5,213.5C 373.587,216.598 373.087,216.932 372,214.5C 370.903,216.053 369.57,217.386 368,218.5C 365.81,217.416 364.144,218.083 363,220.5C 362.667,220.167 362.333,219.833 362,219.5C 361.935,221.883 361.102,222.55 359.5,221.5C 352.544,225.943 344.878,229.943 336.5,233.5C 335.808,232.975 335.308,232.308 335,231.5C 334.826,236.351 334.326,241.018 333.5,245.5C 333.5,244.167 333.5,242.833 333.5,241.5C 333.5,232.833 333.5,224.167 333.5,215.5C 334.486,211.03 334.819,206.363 334.5,201.5C 336.734,201.62 338.901,201.287 341,200.5C 344.53,198.097 348.364,196.264 352.5,195C 359.361,190.79 366.195,186.623 373,182.5C 374.073,183.28 375.24,183.113 376.5,182C 377.362,179.266 378.195,179.099 379,181.5C 380.943,179.355 383.276,177.688 386,176.5C 386.414,176.957 386.914,177.291 387.5,177.5C 388.842,175.995 390.508,175.328 392.5,175.5C 392.351,174.448 392.517,173.448 393,172.5C 394.147,173.458 395.147,173.125 396,171.5C 398.488,172.412 400.155,171.412 401,168.5C 401.333,169.167 401.667,169.833 402,170.5C 403.226,168.452 404.726,168.119 406.5,169.5 Z"/></g>
<g><path style="opacity:1" fill="#cb8005" d="M 479.5,185.5 C 479.328,186.492 479.662,187.158 480.5,187.5C 480.5,201.5 480.5,215.5 480.5,229.5C 479.672,223.681 479.172,217.681 479,211.5C 478.506,213.134 478.34,214.801 478.5,216.5C 464.431,222.449 450.598,229.116 437,236.5C 436.667,236.167 436.333,235.833 436,235.5C 433.452,238.185 430.618,238.685 427.5,237C 426.809,235.933 426.309,234.766 426,233.5C 424.657,234.214 423.324,233.88 422,232.5C 419.637,228.655 417.137,224.989 414.5,221.5C 414.5,220.167 414.5,218.833 414.5,217.5C 416.638,217.019 418.305,215.852 419.5,214C 418.863,209.702 417.863,205.535 416.5,201.5C 421.362,206.513 426.529,211.179 432,215.5C 435.923,212.118 440.423,209.618 445.5,208C 446.469,206.242 447.636,205.742 449,206.5C 452.008,204.494 455.008,202.494 458,200.5C 460.184,201.108 462.184,200.441 464,198.5C 464.333,198.833 464.667,199.167 465,199.5C 468.281,196.897 471.781,194.564 475.5,192.5C 476.086,192.709 476.586,193.043 477,193.5C 478.061,190.834 478.894,188.167 479.5,185.5 Z"/></g>
<g><path style="opacity:1" fill="#f7df73" d="M 332.5,195.5 C 332.666,199.514 332.499,203.514 332,207.5C 331.667,207.167 331.333,206.833 331,206.5C 326.285,208.771 321.452,210.938 316.5,213C 282.045,227.912 246.879,243.746 211,260.5C 210.824,256.312 210.324,252.312 209.5,248.5C 209.5,244.167 209.5,239.833 209.5,235.5C 210.323,238.977 210.823,242.644 211,246.5C 214.891,243.981 218.891,241.647 223,239.5C 223.333,239.833 223.667,240.167 224,240.5C 228.654,238.016 233.32,235.682 238,233.5C 238.333,233.833 238.667,234.167 239,234.5C 239.388,233.572 240.055,232.905 241,232.5C 245.328,230.591 249.828,229.091 254.5,228C 279.658,215.394 305.158,203.56 331,192.5C 331.232,193.737 331.732,194.737 332.5,195.5 Z"/></g>
<g><path style="opacity:1" fill="#f7dd6d" d="M 332.5,191.5 C 333.492,199.316 333.826,207.316 333.5,215.5C 332.532,217.607 332.198,219.941 332.5,222.5C 329.675,220.241 326.841,220.575 324,223.5C 314.74,226.625 305.74,230.958 297,236.5C 296.667,236.167 296.333,235.833 296,235.5C 291.037,238.124 285.87,240.291 280.5,242C 279.531,243.758 278.364,244.258 277,243.5C 274.599,245.636 271.765,246.803 268.5,247C 268.833,247.333 269.167,247.667 269.5,248C 266.491,247.84 264.325,249.007 263,251.5C 262.667,250.833 262.333,250.167 262,249.5C 261,250.5 260,251.5 259,252.5C 258.029,251.802 256.863,251.802 255.5,252.5C 242.483,259.118 229.317,265.452 216,271.5C 215.667,271.167 215.333,270.833 215,270.5C 213.981,271.687 212.814,272.687 211.5,273.5C 210.833,269.687 210.166,266.021 209.5,262.5C 209.5,257.833 209.5,253.167 209.5,248.5C 210.324,252.312 210.824,256.312 211,260.5C 246.879,243.746 282.045,227.912 316.5,213C 321.452,210.938 326.285,208.771 331,206.5C 331.333,206.833 331.667,207.167 332,207.5C 332.499,203.514 332.666,199.514 332.5,195.5C 332.5,194.167 332.5,192.833 332.5,191.5 Z"/></g>
<g><path style="opacity:1" fill="#c77902" d="M 480.5,229.5 C 480.5,238.5 480.5,247.5 480.5,256.5C 479.549,255.081 479.216,253.415 479.5,251.5C 479.666,244.492 479.5,237.492 479,230.5C 478.808,232.577 478.308,234.577 477.5,236.5C 461.883,243.876 446.383,251.543 431,259.5C 427.242,255.35 423.742,252.684 420.5,251.5C 416.178,241.898 414.178,231.898 414.5,221.5C 417.137,224.989 419.637,228.655 422,232.5C 423.324,233.88 424.657,234.214 426,233.5C 426.309,234.766 426.809,235.933 427.5,237C 430.618,238.685 433.452,238.185 436,235.5C 436.333,235.833 436.667,236.167 437,236.5C 450.598,229.116 464.431,222.449 478.5,216.5C 478.34,214.801 478.506,213.134 479,211.5C 479.172,217.681 479.672,223.681 480.5,229.5 Z"/></g>
<g><path style="opacity:1" fill="#eab81e" d="M 406.5,200.5 C 406.5,212.167 406.5,223.833 406.5,235.5C 406.009,232.88 404.842,230.546 403,228.5C 397.865,232.164 392.365,235.497 386.5,238.5C 385.914,238.291 385.414,237.957 385,237.5C 376.034,243.401 366.534,248.401 356.5,252.5C 353.89,254.08 351.39,255.747 349,257.5C 347.442,256.655 346.442,257.321 346,259.5C 343.758,258.825 341.591,259.325 339.5,261C 338.335,262.084 337.002,262.917 335.5,263.5C 334.833,268.651 334.166,273.651 333.5,278.5C 333.5,275.5 333.5,272.5 333.5,269.5C 333.5,264.833 333.5,260.167 333.5,255.5C 333.5,252.167 333.5,248.833 333.5,245.5C 334.326,241.018 334.826,236.351 335,231.5C 335.308,232.308 335.808,232.975 336.5,233.5C 344.878,229.943 352.544,225.943 359.5,221.5C 361.102,222.55 361.935,221.883 362,219.5C 362.333,219.833 362.667,220.167 363,220.5C 364.144,218.083 365.81,217.416 368,218.5C 369.57,217.386 370.903,216.053 372,214.5C 373.087,216.932 373.587,216.598 373.5,213.5C 375.582,213.528 377.416,212.861 379,211.5C 386.995,208.134 395.495,204.134 404.5,199.5C 405.183,199.863 405.85,200.196 406.5,200.5 Z"/></g>
<g><path style="opacity:1" fill="#f6dc66" d="M 332.5,222.5 C 332.666,227.179 332.499,231.845 332,236.5C 331.667,236.167 331.333,235.833 331,235.5C 314.603,242.838 298.269,250.172 282,257.5C 281.667,257.167 281.333,256.833 281,256.5C 277.34,258.833 273.673,261.167 270,263.5C 267.909,262.5 266.243,263.167 265,265.5C 264.667,265.167 264.333,264.833 264,264.5C 261.53,266.438 258.696,267.604 255.5,268C 254.874,268.75 254.374,269.584 254,270.5C 248.309,271.33 242.975,273.663 238,277.5C 237.667,277.167 237.333,276.833 237,276.5C 228.603,280.614 220.103,284.614 211.5,288.5C 210.833,284.353 210.166,280.353 209.5,276.5C 209.5,271.833 209.5,267.167 209.5,262.5C 210.166,266.021 210.833,269.687 211.5,273.5C 212.814,272.687 213.981,271.687 215,270.5C 215.333,270.833 215.667,271.167 216,271.5C 229.317,265.452 242.483,259.118 255.5,252.5C 256.863,251.802 258.029,251.802 259,252.5C 260,251.5 261,250.5 262,249.5C 262.333,250.167 262.667,250.833 263,251.5C 264.325,249.007 266.491,247.84 269.5,248C 269.167,247.667 268.833,247.333 268.5,247C 271.765,246.803 274.599,245.636 277,243.5C 278.364,244.258 279.531,243.758 280.5,242C 285.87,240.291 291.037,238.124 296,235.5C 296.333,235.833 296.667,236.167 297,236.5C 305.74,230.958 314.74,226.625 324,223.5C 326.841,220.575 329.675,220.241 332.5,222.5 Z"/></g>
<g><path style="opacity:1" fill="#c47300" d="M 479.5,251.5 C 478.802,253.705 477.468,255.539 475.5,257C 461.479,263.092 447.479,270.092 433.5,278C 432.5,278.667 431.5,278.667 430.5,278C 429.529,276.519 428.196,275.685 426.5,275.5C 424.836,269.84 422.836,263.84 420.5,257.5C 420.92,255.674 420.92,253.674 420.5,251.5C 423.742,252.684 427.242,255.35 431,259.5C 446.383,251.543 461.883,243.876 477.5,236.5C 478.308,234.577 478.808,232.577 479,230.5C 479.5,237.492 479.666,244.492 479.5,251.5 Z"/></g>
<g><path style="opacity:1" fill="#e8b216" d="M 406.5,235.5 C 406.5,239.833 406.5,244.167 406.5,248.5C 386.027,257.427 366.361,266.927 347.5,277C 345.603,278.11 343.77,278.276 342,277.5C 340.22,279.051 338.387,280.718 336.5,282.5C 335.914,282.291 335.414,281.957 335,281.5C 334.826,286.351 334.326,291.018 333.5,295.5C 333.5,295.167 333.5,294.833 333.5,294.5C 333.5,289.167 333.5,283.833 333.5,278.5C 334.166,273.651 334.833,268.651 335.5,263.5C 337.002,262.917 338.335,262.084 339.5,261C 341.591,259.325 343.758,258.825 346,259.5C 346.442,257.321 347.442,256.655 349,257.5C 351.39,255.747 353.89,254.08 356.5,252.5C 366.534,248.401 376.034,243.401 385,237.5C 385.414,237.957 385.914,238.291 386.5,238.5C 392.365,235.497 397.865,232.164 403,228.5C 404.842,230.546 406.009,232.88 406.5,235.5 Z"/></g>
<g><path style="opacity:1" fill="#bc7202" d="M 407.5,173.5 C 408.161,185.361 408.995,197.361 410,209.5C 410.487,212.801 411.987,215.467 414.5,217.5C 414.5,218.833 414.5,220.167 414.5,221.5C 414.178,231.898 416.178,241.898 420.5,251.5C 420.92,253.674 420.92,255.674 420.5,257.5C 422.836,263.84 424.836,269.84 426.5,275.5C 422.758,273.644 420.591,270.977 420,267.5C 419.259,266.359 418.425,266.359 417.5,267.5C 416.573,265.887 415.739,264.221 415,262.5C 414.383,265.035 414.883,267.368 416.5,269.5C 416.291,270.086 415.957,270.586 415.5,271C 417.143,276.095 418.477,281.261 419.5,286.5C 418.5,286.5 417.5,286.5 416.5,286.5C 416.657,285.127 416.49,283.793 416,282.5C 413.865,279.02 411.698,275.52 409.5,272C 410.341,270.004 410.008,268.171 408.5,266.5C 408.795,264.265 408.461,262.265 407.5,260.5C 407.5,231.5 407.5,202.5 407.5,173.5 Z"/></g>
<g><path style="opacity:1" fill="#f5da60" d="M 333.5,215.5 C 333.5,224.167 333.5,232.833 333.5,241.5C 332.539,243.265 332.205,245.265 332.5,247.5C 328.776,247.786 325.443,249.286 322.5,252C 309.71,257.031 297.043,262.365 284.5,268C 269.195,275.652 253.695,282.818 238,289.5C 237.667,289.167 237.333,288.833 237,288.5C 236.626,289.416 236.126,290.25 235.5,291C 232.119,292.047 228.953,293.547 226,295.5C 225.586,295.043 225.086,294.709 224.5,294.5C 219.999,297.219 215.332,299.552 210.5,301.5C 210.167,301.5 209.833,301.5 209.5,301.5C 209.5,293.167 209.5,284.833 209.5,276.5C 210.166,280.353 210.833,284.353 211.5,288.5C 220.103,284.614 228.603,280.614 237,276.5C 237.333,276.833 237.667,277.167 238,277.5C 242.975,273.663 248.309,271.33 254,270.5C 254.374,269.584 254.874,268.75 255.5,268C 258.696,267.604 261.53,266.438 264,264.5C 264.333,264.833 264.667,265.167 265,265.5C 266.243,263.167 267.909,262.5 270,263.5C 273.673,261.167 277.34,258.833 281,256.5C 281.333,256.833 281.667,257.167 282,257.5C 298.269,250.172 314.603,242.838 331,235.5C 331.333,235.833 331.667,236.167 332,236.5C 332.499,231.845 332.666,227.179 332.5,222.5C 332.198,219.941 332.532,217.607 333.5,215.5 Z"/></g>
<g><path style="opacity:1" fill="#f5d85a" d="M 333.5,241.5 C 333.5,242.833 333.5,244.167 333.5,245.5C 333.5,248.833 333.5,252.167 333.5,255.5C 332.691,257.292 332.191,259.292 332,261.5C 331.439,260.978 330.772,260.645 330,260.5C 302.051,273.929 274.718,285.929 248,296.5C 235.554,302.64 223.054,308.64 210.5,314.5C 210.5,310.167 210.5,305.833 210.5,301.5C 215.332,299.552 219.999,297.219 224.5,294.5C 225.086,294.709 225.586,295.043 226,295.5C 228.953,293.547 232.119,292.047 235.5,291C 236.126,290.25 236.626,289.416 237,288.5C 237.333,288.833 237.667,289.167 238,289.5C 253.695,282.818 269.195,275.652 284.5,268C 297.043,262.365 309.71,257.031 322.5,252C 325.443,249.286 328.776,247.786 332.5,247.5C 332.205,245.265 332.539,243.265 333.5,241.5 Z"/></g>
<g><path style="opacity:1" fill="#f5d754" d="M 333.5,255.5 C 333.5,260.167 333.5,264.833 333.5,269.5C 332.549,270.919 332.216,272.585 332.5,274.5C 331.85,274.196 331.183,273.863 330.5,273.5C 311.6,281.882 292.266,290.048 272.5,298C 267.872,301.148 262.872,303.481 257.5,305C 252.91,308.092 247.91,310.425 242.5,312C 241.531,313.758 240.364,314.258 239,313.5C 237,314.833 235,316.167 233,317.5C 231.434,316.939 230.101,317.606 229,319.5C 228.667,319.167 228.333,318.833 228,318.5C 222.722,321.991 217.389,324.657 212,326.5C 210.576,322.703 210.076,318.703 210.5,314.5C 223.054,308.64 235.554,302.64 248,296.5C 274.718,285.929 302.051,273.929 330,260.5C 330.772,260.645 331.439,260.978 332,261.5C 332.191,259.292 332.691,257.292 333.5,255.5 Z"/></g>
<g><path style="opacity:1" fill="#c06d00" d="M 479.5,251.5 C 479.216,253.415 479.549,255.081 480.5,256.5C 480.5,268.833 480.5,281.167 480.5,293.5C 479.662,293.158 479.328,292.492 479.5,291.5C 479.666,284.492 479.5,277.492 479,270.5C 479.063,273.767 477.563,275.934 474.5,277C 473.258,277.311 472.258,276.811 471.5,275.5C 470.561,277.053 469.394,278.387 468,279.5C 465.929,278.333 464.429,278.999 463.5,281.5C 459.755,282.081 456.588,283.747 454,286.5C 452.701,286.034 451.201,286.034 449.5,286.5C 449.5,287.5 449.5,288.5 449.5,289.5C 447.61,289.297 446.11,289.963 445,291.5C 442.317,288.761 440.817,288.928 440.5,292C 438.866,292.494 437.199,292.66 435.5,292.5C 435.543,296.893 435.043,297.226 434,293.5C 433.517,294.448 433.351,295.448 433.5,296.5C 429.387,295.564 425.387,293.564 421.5,290.5C 420.638,289.234 419.971,287.901 419.5,286.5C 418.477,281.261 417.143,276.095 415.5,271C 415.957,270.586 416.291,270.086 416.5,269.5C 414.883,267.368 414.383,265.035 415,262.5C 415.739,264.221 416.573,265.887 417.5,267.5C 418.425,266.359 419.259,266.359 420,267.5C 420.591,270.977 422.758,273.644 426.5,275.5C 428.196,275.685 429.529,276.519 430.5,278C 431.5,278.667 432.5,278.667 433.5,278C 447.479,270.092 461.479,263.092 475.5,257C 477.468,255.539 478.802,253.705 479.5,251.5 Z"/></g>
<g><path style="opacity:1" fill="#e5ab0b" d="M 406.5,248.5 C 406.5,261.5 406.5,274.5 406.5,287.5C 405.837,285.958 405.17,284.291 404.5,282.5C 380.133,294.301 357.3,305.968 336,317.5C 335.667,316.5 335.333,315.5 335,314.5C 334.826,319.351 334.326,324.018 333.5,328.5C 333.5,326.167 333.5,323.833 333.5,321.5C 333.5,312.833 333.5,304.167 333.5,295.5C 334.326,291.018 334.826,286.351 335,281.5C 335.414,281.957 335.914,282.291 336.5,282.5C 338.387,280.718 340.22,279.051 342,277.5C 343.77,278.276 345.603,278.11 347.5,277C 366.361,266.927 386.027,257.427 406.5,248.5 Z"/></g>
<g><path style="opacity:1" fill="#bc6700" d="M 408.5,266.5 C 410.008,268.171 410.341,270.004 409.5,272C 411.698,275.52 413.865,279.02 416,282.5C 416.49,283.793 416.657,285.127 416.5,286.5C 417.5,286.5 418.5,286.5 419.5,286.5C 419.971,287.901 420.638,289.234 421.5,290.5C 425.387,293.564 429.387,295.564 433.5,296.5C 433.351,295.448 433.517,294.448 434,293.5C 435.043,297.226 435.543,296.893 435.5,292.5C 437.199,292.66 438.866,292.494 440.5,292C 440.817,288.928 442.317,288.761 445,291.5C 446.11,289.963 447.61,289.297 449.5,289.5C 449.5,288.5 449.5,287.5 449.5,286.5C 451.201,286.034 452.701,286.034 454,286.5C 456.588,283.747 459.755,282.081 463.5,281.5C 464.429,278.999 465.929,278.333 468,279.5C 469.394,278.387 470.561,277.053 471.5,275.5C 472.258,276.811 473.258,277.311 474.5,277C 477.563,275.934 479.063,273.767 479,270.5C 479.5,277.492 479.666,284.492 479.5,291.5C 478.596,292.209 478.263,293.209 478.5,294.5C 474.525,295.149 471.025,296.815 468,299.5C 467.586,299.043 467.086,298.709 466.5,298.5C 463.754,300.623 460.921,302.623 458,304.5C 456.836,304.835 455.503,304.835 454,304.5C 450.335,307.178 446.502,309.678 442.5,312C 441.551,312.617 440.718,312.451 440,311.5C 436.253,314.773 432.253,316.773 428,317.5C 423.608,313.654 419.775,309.988 416.5,306.5C 409.135,294.253 406.468,280.92 408.5,266.5 Z"/></g>
<g><path style="opacity:1" fill="#f5d54e" d="M 332.5,274.5 C 332.666,279.179 332.499,283.845 332,288.5C 331.667,286.833 331.333,285.167 331,283.5C 328.325,285.158 325.825,286.991 323.5,289C 322.551,289.617 321.718,289.451 321,288.5C 319.829,289.893 318.329,290.727 316.5,291C 315.708,293.336 314.375,293.836 312.5,292.5C 311.304,292.846 311.304,293.346 312.5,294C 307.809,296.381 303.142,298.048 298.5,299C 297.167,299.667 297.167,300.333 298.5,301C 293.534,302.259 289.034,304.426 285,307.5C 284.667,307.167 284.333,306.833 284,306.5C 279.995,309.052 275.828,311.385 271.5,313.5C 270.914,313.291 270.414,312.957 270,312.5C 267.991,314.01 266.158,315.677 264.5,317.5C 262.5,317.5 260.5,317.5 258.5,317.5C 253.363,321.575 247.696,324.908 241.5,327.5C 240.353,327.182 239.519,326.516 239,325.5C 237.881,326.552 237.381,327.719 237.5,329C 236.451,329.492 235.451,329.326 234.5,328.5C 233.494,328.938 233.494,329.604 234.5,330.5C 232.5,331.333 230.5,332.167 228.5,333C 226.633,333.711 225.133,333.211 224,331.5C 223.51,332.793 223.343,334.127 223.5,335.5C 222.127,335.343 220.793,335.51 219.5,336C 219.833,336.333 220.167,336.667 220.5,337C 218.919,337.707 217.419,338.54 216,339.5C 215.667,339.167 215.333,338.833 215,338.5C 213.951,340.107 212.451,340.773 210.5,340.5C 210.817,336.298 210.483,332.298 209.5,328.5C 209.5,319.5 209.5,310.5 209.5,301.5C 209.833,301.5 210.167,301.5 210.5,301.5C 210.5,305.833 210.5,310.167 210.5,314.5C 210.076,318.703 210.576,322.703 212,326.5C 217.389,324.657 222.722,321.991 228,318.5C 228.333,318.833 228.667,319.167 229,319.5C 230.101,317.606 231.434,316.939 233,317.5C 235,316.167 237,314.833 239,313.5C 240.364,314.258 241.531,313.758 242.5,312C 247.91,310.425 252.91,308.092 257.5,305C 262.872,303.481 267.872,301.148 272.5,298C 292.266,290.048 311.6,281.882 330.5,273.5C 331.183,273.863 331.85,274.196 332.5,274.5 Z"/></g>
<g><path style="opacity:1" fill="#e3a403" d="M 406.5,287.5 C 406.5,294.5 406.5,301.5 406.5,308.5C 405.532,306.393 405.198,304.059 405.5,301.5C 404.448,301.351 403.448,301.517 402.5,302C 403.833,302.667 403.833,303.333 402.5,304C 398.136,304.268 394.969,305.768 393,308.5C 391.836,308.835 390.503,308.835 389,308.5C 385.655,311.339 381.989,313.672 378,315.5C 377.667,315.167 377.333,314.833 377,314.5C 375.903,316.053 374.57,317.386 373,318.5C 372.667,318.167 372.333,317.833 372,317.5C 370.933,318.191 369.766,318.691 368.5,319C 362.423,322.908 356.09,326.241 349.5,329C 348.216,329.684 347.049,329.517 346,328.5C 345.333,329.833 344.667,331.167 344,332.5C 342.883,332.335 341.716,332.002 340.5,331.5C 338.999,332.752 337.332,333.752 335.5,334.5C 334.891,338.635 334.224,342.635 333.5,346.5C 333.5,340.5 333.5,334.5 333.5,328.5C 334.326,324.018 334.826,319.351 335,314.5C 335.333,315.5 335.667,316.5 336,317.5C 357.3,305.968 380.133,294.301 404.5,282.5C 405.17,284.291 405.837,285.958 406.5,287.5 Z"/></g>
<g><path style="opacity:1" fill="#f5d347" d="M 333.5,269.5 C 333.5,272.5 333.5,275.5 333.5,278.5C 333.5,283.833 333.5,289.167 333.5,294.5C 332.539,296.265 332.205,298.265 332.5,300.5C 331.25,300.423 330.417,299.756 330,298.5C 328.083,300.786 325.583,302.12 322.5,302.5C 321.667,303.5 320.833,304.5 320,305.5C 319,305.167 318,304.833 317,304.5C 312.607,307.21 308.273,309.21 304,310.5C 299.313,312.247 294.979,314.58 291,317.5C 290.667,317.167 290.333,316.833 290,316.5C 283.206,319.983 276.54,323.649 270,327.5C 269.667,326.833 269.333,326.167 269,325.5C 268.167,327 267,328.167 265.5,329C 255.665,332.835 246.165,337.335 237,342.5C 236.586,342.043 236.086,341.709 235.5,341.5C 232.203,343.393 229.037,345.393 226,347.5C 225.667,346.833 225.333,346.167 225,345.5C 221.212,347.801 217.378,350.134 213.5,352.5C 211.262,349.567 210.262,349.901 210.5,353.5C 209.662,353.158 209.328,352.492 209.5,351.5C 209.5,343.833 209.5,336.167 209.5,328.5C 210.483,332.298 210.817,336.298 210.5,340.5C 212.451,340.773 213.951,340.107 215,338.5C 215.333,338.833 215.667,339.167 216,339.5C 217.419,338.54 218.919,337.707 220.5,337C 220.167,336.667 219.833,336.333 219.5,336C 220.793,335.51 222.127,335.343 223.5,335.5C 223.343,334.127 223.51,332.793 224,331.5C 225.133,333.211 226.633,333.711 228.5,333C 230.5,332.167 232.5,331.333 234.5,330.5C 233.494,329.604 233.494,328.938 234.5,328.5C 235.451,329.326 236.451,329.492 237.5,329C 237.381,327.719 237.881,326.552 239,325.5C 239.519,326.516 240.353,327.182 241.5,327.5C 247.696,324.908 253.363,321.575 258.5,317.5C 260.5,317.5 262.5,317.5 264.5,317.5C 266.158,315.677 267.991,314.01 270,312.5C 270.414,312.957 270.914,313.291 271.5,313.5C 275.828,311.385 279.995,309.052 284,306.5C 284.333,306.833 284.667,307.167 285,307.5C 289.034,304.426 293.534,302.259 298.5,301C 297.167,300.333 297.167,299.667 298.5,299C 303.142,298.048 307.809,296.381 312.5,294C 311.304,293.346 311.304,292.846 312.5,292.5C 314.375,293.836 315.708,293.336 316.5,291C 318.329,290.727 319.829,289.893 321,288.5C 321.718,289.451 322.551,289.617 323.5,289C 325.825,286.991 328.325,285.158 331,283.5C 331.333,285.167 331.667,286.833 332,288.5C 332.499,283.845 332.666,279.179 332.5,274.5C 332.216,272.585 332.549,270.919 333.5,269.5 Z"/></g>
<g><path style="opacity:1" fill="#ba6000" d="M 479.5,291.5 C 479.328,292.492 479.662,293.158 480.5,293.5C 480.5,306.833 480.5,320.167 480.5,333.5C 479.521,330.375 479.187,327.042 479.5,323.5C 479.666,317.824 479.499,312.157 479,306.5C 478.788,308.78 477.955,310.78 476.5,312.5C 460.817,320.016 445.484,327.349 430.5,334.5C 429.264,333.754 427.93,333.421 426.5,333.5C 426.725,329.944 425.892,329.61 424,332.5C 422.97,332.164 422.47,331.497 422.5,330.5C 420.776,322.443 418.776,314.443 416.5,306.5C 419.775,309.988 423.608,313.654 428,317.5C 432.253,316.773 436.253,314.773 440,311.5C 440.718,312.451 441.551,312.617 442.5,312C 446.502,309.678 450.335,307.178 454,304.5C 455.503,304.835 456.836,304.835 458,304.5C 460.921,302.623 463.754,300.623 466.5,298.5C 467.086,298.709 467.586,299.043 468,299.5C 471.025,296.815 474.525,295.149 478.5,294.5C 478.263,293.209 478.596,292.209 479.5,291.5 Z"/></g>
<g><path style="opacity:1" fill="#b06100" d="M 407.5,260.5 C 408.461,262.265 408.795,264.265 408.5,266.5C 406.468,280.92 409.135,294.253 416.5,306.5C 418.776,314.443 420.776,322.443 422.5,330.5C 417.969,327.14 414.803,322.807 413,317.5C 414.153,324.732 414.987,332.065 415.5,339.5C 412.261,335.037 410.094,330.037 409,324.5C 408.667,316.5 408.333,308.5 408,300.5C 407.5,320.831 407.333,341.164 407.5,361.5C 407.167,361.5 406.833,361.5 406.5,361.5C 406.5,350.167 406.5,338.833 406.5,327.5C 406.5,321.167 406.5,314.833 406.5,308.5C 406.5,301.5 406.5,294.5 406.5,287.5C 407.493,278.682 407.827,269.682 407.5,260.5 Z"/></g>
<g><path style="opacity:1" fill="#f4d142" d="M 332.5,300.5 C 332.823,304.226 332.489,307.893 331.5,311.5C 330.914,311.291 330.414,310.957 330,310.5C 321.34,314.329 313.007,318.662 305,323.5C 304.667,323.167 304.333,322.833 304,322.5C 301.656,324.774 298.822,325.941 295.5,326C 282.823,332.871 269.989,339.371 257,345.5C 255.497,345.165 254.164,345.165 253,345.5C 246.895,348.353 240.895,351.353 235,354.5C 234.586,354.043 234.086,353.709 233.5,353.5C 229.494,357.002 224.828,359.168 219.5,360C 220.737,360.232 221.737,360.732 222.5,361.5C 221.167,361.5 219.833,361.5 218.5,361.5C 217.833,360.833 217.167,360.167 216.5,359.5C 216.027,358.094 215.027,357.427 213.5,357.5C 211.738,356.738 210.738,355.404 210.5,353.5C 210.262,349.901 211.262,349.567 213.5,352.5C 217.378,350.134 221.212,347.801 225,345.5C 225.333,346.167 225.667,346.833 226,347.5C 229.037,345.393 232.203,343.393 235.5,341.5C 236.086,341.709 236.586,342.043 237,342.5C 246.165,337.335 255.665,332.835 265.5,329C 267,328.167 268.167,327 269,325.5C 269.333,326.167 269.667,326.833 270,327.5C 276.54,323.649 283.206,319.983 290,316.5C 290.333,316.833 290.667,317.167 291,317.5C 294.979,314.58 299.313,312.247 304,310.5C 308.273,309.21 312.607,307.21 317,304.5C 318,304.833 319,305.167 320,305.5C 320.833,304.5 321.667,303.5 322.5,302.5C 325.583,302.12 328.083,300.786 330,298.5C 330.417,299.756 331.25,300.423 332.5,300.5 Z"/></g>
<g><path style="opacity:1" fill="#e19f00" d="M 406.5,308.5 C 406.5,314.833 406.5,321.167 406.5,327.5C 405.835,325.631 405.169,323.631 404.5,321.5C 392.105,327.235 379.605,333.568 367,340.5C 366.15,339.576 365.15,339.576 364,340.5C 362.642,342.189 360.975,343.522 359,344.5C 358.667,344.167 358.333,343.833 358,343.5C 355.08,346.629 351.746,348.296 348,348.5C 345.949,350.524 343.616,352.19 341,353.5C 340.667,353.167 340.333,352.833 340,352.5C 339.581,353.672 338.915,354.672 338,355.5C 337.333,354.167 336.667,354.167 336,355.5C 335.667,354.5 335.333,353.5 335,352.5C 334.502,355.482 334.335,358.482 334.5,361.5C 334.167,361.5 333.833,361.5 333.5,361.5C 333.5,356.5 333.5,351.5 333.5,346.5C 334.224,342.635 334.891,338.635 335.5,334.5C 337.332,333.752 338.999,332.752 340.5,331.5C 341.716,332.002 342.883,332.335 344,332.5C 344.667,331.167 345.333,329.833 346,328.5C 347.049,329.517 348.216,329.684 349.5,329C 356.09,326.241 362.423,322.908 368.5,319C 369.766,318.691 370.933,318.191 372,317.5C 372.333,317.833 372.667,318.167 373,318.5C 374.57,317.386 375.903,316.053 377,314.5C 377.333,314.833 377.667,315.167 378,315.5C 381.989,313.672 385.655,311.339 389,308.5C 390.503,308.835 391.836,308.835 393,308.5C 394.969,305.768 398.136,304.268 402.5,304C 403.833,303.333 403.833,302.667 402.5,302C 403.448,301.517 404.448,301.351 405.5,301.5C 405.198,304.059 405.532,306.393 406.5,308.5 Z"/></g>
<g><path style="opacity:1" fill="#b65a00" d="M 479.5,323.5 C 478.389,326.278 477.389,328.778 476.5,331C 475.234,331.309 474.067,331.809 473,332.5C 472.667,331.833 472.333,331.167 472,330.5C 469.683,331.82 467.683,333.486 466,335.5C 464.413,334.273 463.079,334.606 462,336.5C 461.667,336.167 461.333,335.833 461,335.5C 459.933,336.191 458.766,336.691 457.5,337C 457.833,337.333 458.167,337.667 458.5,338C 453.234,340.543 448.401,343.043 444,345.5C 442.913,343.068 442.413,343.402 442.5,346.5C 438.36,347.821 434.527,349.821 431,352.5C 429.644,351.62 428.144,351.286 426.5,351.5C 426.5,350.5 426.5,349.5 426.5,348.5C 425.127,348.657 423.793,348.49 422.5,348C 421.589,345.585 419.922,344.085 417.5,343.5C 417.011,342.005 416.345,340.671 415.5,339.5C 414.987,332.065 414.153,324.732 413,317.5C 414.803,322.807 417.969,327.14 422.5,330.5C 422.47,331.497 422.97,332.164 424,332.5C 425.892,329.61 426.725,329.944 426.5,333.5C 427.93,333.421 429.264,333.754 430.5,334.5C 445.484,327.349 460.817,320.016 476.5,312.5C 477.955,310.78 478.788,308.78 479,306.5C 479.499,312.157 479.666,317.824 479.5,323.5 Z"/></g>
<g><path style="opacity:1" fill="#df9800" d="M 406.5,327.5 C 406.5,338.833 406.5,350.167 406.5,361.5C 382.5,361.5 358.5,361.5 334.5,361.5C 334.335,358.482 334.502,355.482 335,352.5C 335.333,353.5 335.667,354.5 336,355.5C 336.667,354.167 337.333,354.167 338,355.5C 338.915,354.672 339.581,353.672 340,352.5C 340.333,352.833 340.667,353.167 341,353.5C 343.616,352.19 345.949,350.524 348,348.5C 351.746,348.296 355.08,346.629 358,343.5C 358.333,343.833 358.667,344.167 359,344.5C 360.975,343.522 362.642,342.189 364,340.5C 365.15,339.576 366.15,339.576 367,340.5C 379.605,333.568 392.105,327.235 404.5,321.5C 405.169,323.631 405.835,325.631 406.5,327.5 Z"/></g>
<g><path style="opacity:1" fill="#b45604" d="M 479.5,323.5 C 479.187,327.042 479.521,330.375 480.5,333.5C 480.5,338.833 480.5,344.167 480.5,349.5C 479.007,354.656 476.007,358.656 471.5,361.5C 454.167,361.5 436.833,361.5 419.5,361.5C 417.587,358.938 417.587,356.605 419.5,354.5C 418.248,352.999 417.248,351.332 416.5,349.5C 417.025,348.808 417.692,348.308 418.5,348C 417.62,346.644 417.286,345.144 417.5,343.5C 419.922,344.085 421.589,345.585 422.5,348C 423.793,348.49 425.127,348.657 426.5,348.5C 426.5,349.5 426.5,350.5 426.5,351.5C 428.144,351.286 429.644,351.62 431,352.5C 434.527,349.821 438.36,347.821 442.5,346.5C 442.413,343.402 442.913,343.068 444,345.5C 448.401,343.043 453.234,340.543 458.5,338C 458.167,337.667 457.833,337.333 457.5,337C 458.766,336.691 459.933,336.191 461,335.5C 461.333,335.833 461.667,336.167 462,336.5C 463.079,334.606 464.413,334.273 466,335.5C 467.683,333.486 469.683,331.82 472,330.5C 472.333,331.167 472.667,331.833 473,332.5C 474.067,331.809 475.234,331.309 476.5,331C 477.389,328.778 478.389,326.278 479.5,323.5 Z"/></g>
<g><path style="opacity:1" fill="#f3ce37" d="M 333.5,294.5 C 333.5,294.833 333.5,295.167 333.5,295.5C 333.5,304.167 333.5,312.833 333.5,321.5C 332.996,328.391 332.33,333.391 331.5,336.5C 326.339,338.382 321.339,340.716 316.5,343.5C 315.914,343.291 315.414,342.957 315,342.5C 312.656,344.774 309.822,345.941 306.5,346C 304.508,346.574 303.008,347.741 302,349.5C 301.667,349.167 301.333,348.833 301,348.5C 300.667,349.5 300.333,350.5 300,351.5C 298.667,351.5 297.333,351.5 296,351.5C 294.667,352.167 293.667,353.167 293,354.5C 292.692,353.692 292.192,353.025 291.5,352.5C 289.324,354.875 287.157,357.208 285,359.5C 284.667,358.5 284.333,357.5 284,356.5C 282.671,357.494 281.338,358.494 280,359.5C 278.456,358.976 277.123,358.976 276,359.5C 275.283,360.044 274.783,360.711 274.5,361.5C 257.167,361.5 239.833,361.5 222.5,361.5C 221.737,360.732 220.737,360.232 219.5,360C 224.828,359.168 229.494,357.002 233.5,353.5C 234.086,353.709 234.586,354.043 235,354.5C 240.895,351.353 246.895,348.353 253,345.5C 254.164,345.165 255.497,345.165 257,345.5C 269.989,339.371 282.823,332.871 295.5,326C 298.822,325.941 301.656,324.774 304,322.5C 304.333,322.833 304.667,323.167 305,323.5C 313.007,318.662 321.34,314.329 330,310.5C 330.414,310.957 330.914,311.291 331.5,311.5C 332.489,307.893 332.823,304.226 332.5,300.5C 332.205,298.265 332.539,296.265 333.5,294.5 Z"/></g>
<g><path style="opacity:1" fill="#a85300" d="M 415.5,339.5 C 416.345,340.671 417.011,342.005 417.5,343.5C 417.286,345.144 417.62,346.644 418.5,348C 417.692,348.308 417.025,348.808 416.5,349.5C 417.248,351.332 418.248,352.999 419.5,354.5C 417.587,356.605 417.587,358.938 419.5,361.5C 415.5,361.5 411.5,361.5 407.5,361.5C 407.333,341.164 407.5,320.831 408,300.5C 408.333,308.5 408.667,316.5 409,324.5C 410.094,330.037 412.261,335.037 415.5,339.5 Z"/></g>
<g><path style="opacity:1" fill="#f3cc2f" d="M 333.5,321.5 C 333.5,323.833 333.5,326.167 333.5,328.5C 333.5,334.5 333.5,340.5 333.5,346.5C 333.5,351.5 333.5,356.5 333.5,361.5C 313.833,361.5 294.167,361.5 274.5,361.5C 274.783,360.711 275.283,360.044 276,359.5C 277.123,358.976 278.456,358.976 280,359.5C 281.338,358.494 282.671,357.494 284,356.5C 284.333,357.5 284.667,358.5 285,359.5C 287.157,357.208 289.324,354.875 291.5,352.5C 292.192,353.025 292.692,353.692 293,354.5C 293.667,353.167 294.667,352.167 296,351.5C 297.333,351.5 298.667,351.5 300,351.5C 300.333,350.5 300.667,349.5 301,348.5C 301.333,348.833 301.667,349.167 302,349.5C 303.008,347.741 304.508,346.574 306.5,346C 309.822,345.941 312.656,344.774 315,342.5C 315.414,342.957 315.914,343.291 316.5,343.5C 321.339,340.716 326.339,338.382 331.5,336.5C 332.33,333.391 332.996,328.391 333.5,321.5 Z"/></g>
<g><path style="opacity:0.584" fill="#fbe8a4" d="M 213.5,357.5 C 215.027,357.427 216.027,358.094 216.5,359.5C 214.973,359.573 213.973,358.906 213.5,357.5 Z"/></g>
</svg>
