<?xml version="1.0" encoding="UTF-8"?>
<!DOCTYPE svg PUBLIC "-//W3C//DTD SVG 1.1//EN" "http://www.w3.org/Graphics/SVG/1.1/DTD/svg11.dtd">
<svg xmlns="http://www.w3.org/2000/svg" version="1.1" width="300px" height="300px" style="shape-rendering:geometricPrecision; text-rendering:geometricPrecision; image-rendering:optimizeQuality; fill-rule:evenodd; clip-rule:evenodd" xmlns:xlink="http://www.w3.org/1999/xlink">
<g><path style="opacity:0.998" fill="#000000" d="M 100.5,30.5 C 133.168,30.3334 165.835,30.5 198.5,31C 206.691,38.6925 215.024,46.1925 223.5,53.5C 228.626,58.1612 233.459,63.1612 238,68.5C 238.667,73.5 238.667,78.5 238,83.5C 235.322,86.7674 232.489,89.934 229.5,93C 224.944,94.1094 220.278,94.6094 215.5,94.5C 204.83,94.0665 194.164,93.5665 183.5,93C 178.977,89.9773 175.31,86.1439 172.5,81.5C 171.336,87.4724 171.17,93.4724 172,99.5C 173.011,100.337 174.178,100.67 175.5,100.5C 175.351,101.552 175.517,102.552 176,103.5C 196.085,122.481 215.919,141.815 235.5,161.5C 236,162.5 236.5,163.5 237,164.5C 238.095,177.488 238.428,190.488 238,203.5C 228.386,214.236 218.219,224.403 207.5,234C 171.833,234.667 136.167,234.667 100.5,234C 98.2542,232.743 96.9209,230.91 96.5,228.5C 93.5,228.833 92.1667,227.5 92.5,224.5C 88.6202,221.972 84.9536,218.972 81.5,215.5C 80.3349,207.187 80.1683,198.853 81,190.5C 83.9605,187.704 86.7939,184.704 89.5,181.5C 90.325,180.614 91.325,180.281 92.5,180.5C 92.1667,177.5 93.5,176.167 96.5,176.5C 96.9209,174.09 98.2542,172.257 100.5,171C 105.823,170.501 111.156,170.334 116.5,170.5C 116.666,165.156 116.499,159.823 116,154.5C 113.877,151.887 111.544,149.554 109,147.5C 108.517,146.552 108.351,145.552 108.5,144.5C 107.5,144.5 106.5,144.5 105.5,144.5C 105.649,143.448 105.483,142.448 105,141.5C 93.9025,128.313 82.5692,115.313 71,102.5C 70.3333,88.5 70.3333,74.5 71,60.5C 72.2568,58.2542 74.0901,56.9209 76.5,56.5C 76.1667,53.5 77.5,52.1667 80.5,52.5C 83.5,47.5 87.5,43.5 92.5,40.5C 92.1667,37.5 93.5,36.1667 96.5,36.5C 97.203,34.1274 98.5363,32.1274 100.5,30.5 Z"/></g>
<g><path style="opacity:1" fill="#7ebee9" d="M 165.5,97.5 C 162.632,97.915 160.465,96.915 159,94.5C 157.33,96.6983 155.33,97.0317 153,95.5C 152.333,96.1667 151.667,96.8333 151,97.5C 148.912,96.6919 146.912,95.6919 145,94.5C 144.517,95.448 144.351,96.448 144.5,97.5C 141.551,96.9874 138.718,96.9874 136,97.5C 135.667,96.5 135.333,95.5 135,94.5C 134.653,96.1802 133.653,97.1802 132,97.5C 129.003,98.0264 126.336,97.0264 124,94.5C 122.818,96.3569 121.151,97.3569 119,97.5C 112.716,96.8178 106.883,96.8178 101.5,97.5C 99.6274,97.5177 99.2941,97.0177 100.5,96C 98.9826,94.2215 98.1492,94.7215 98,97.5C 96.0503,97.2488 93.8836,96.5821 91.5,95.5C 90.3044,95.8457 90.3044,96.3457 91.5,97C 90.5509,97.6172 89.7175,97.4506 89,96.5C 87.4279,98.5894 85.5945,98.5894 83.5,96.5C 82.1575,97.9023 81.3242,97.5689 81,95.5C 80.5161,97.1775 79.6828,97.8442 78.5,97.5C 77.1714,92.3762 76.5048,86.8762 76.5,81C 76.8333,75.5 77.1667,70 77.5,64.5C 86.8333,55.8333 95.8333,46.8333 104.5,37.5C 133.492,36.5002 162.492,36.1668 191.5,36.5C 191.723,39.1142 190.556,40.7809 188,41.5C 180.858,51.7092 173.525,61.7092 166,71.5C 165.5,80.1603 165.334,88.8269 165.5,97.5 Z"/></g>
<g><path style="opacity:1" fill="#7fbee9" d="M 197.5,42.5 C 199.255,43.0722 200.922,43.9055 202.5,45C 212.027,54.1942 221.527,63.3609 231,72.5C 231.667,74.8333 231.667,77.1667 231,79.5C 228.489,81.6793 226.322,84.1793 224.5,87C 212.139,87.3987 199.805,86.8987 187.5,85.5C 183.611,82.0531 179.944,78.3865 176.5,74.5C 175.572,73.2322 175.405,71.8989 176,70.5C 183.464,61.2269 190.631,51.8935 197.5,42.5 Z"/></g>
<g><path style="opacity:1" fill="#000000" d="M 100.5,52.5 C 117.167,52.5 133.833,52.5 150.5,52.5C 150.5,53.8333 150.5,55.1667 150.5,56.5C 133.833,56.5 117.167,56.5 100.5,56.5C 100.5,55.1667 100.5,53.8333 100.5,52.5 Z"/></g>
<g><path style="opacity:1" fill="#000000" d="M 91.5,69.5 C 107.837,69.3334 124.17,69.5001 140.5,70C 141.833,71.3333 141.833,72.6667 140.5,74C 124.167,74.6667 107.833,74.6667 91.5,74C 90.2721,72.5098 90.2721,71.0098 91.5,69.5 Z"/></g>
<g><path style="opacity:1" fill="#000000" d="M 91.5,88.5 C 107.833,88.5 124.167,88.5 140.5,88.5C 140.5,89.8333 140.5,91.1667 140.5,92.5C 124.167,92.5 107.833,92.5 91.5,92.5C 91.5,91.1667 91.5,89.8333 91.5,88.5 Z"/></g>
<g><path style="opacity:1" fill="#73c3e8" d="M 165.5,97.5 C 165.5,99.8333 165.5,102.167 165.5,104.5C 164.437,108.333 163.604,108.333 163,104.5C 162.667,105.5 162.333,106.5 162,107.5C 161.275,105.842 160.108,105.342 158.5,106C 156.393,107.264 155.393,109.097 155.5,111.5C 154.448,111.649 153.448,111.483 152.5,111C 152.619,109.719 152.119,108.552 151,107.5C 150.722,108.416 150.222,109.082 149.5,109.5C 142.03,108.169 134.196,107.502 126,107.5C 117.993,107.5 110.159,107.834 102.5,108.5C 101.732,109.263 101.232,110.263 101,111.5C 100.267,107.012 98.2667,106.012 95,108.5C 94.1597,105.536 93.1597,105.203 92,107.5C 90.4002,105.453 88.5668,105.453 86.5,107.5C 82.8944,104.976 80.2277,101.643 78.5,97.5C 79.6828,97.8442 80.5161,97.1775 81,95.5C 81.3242,97.5689 82.1575,97.9023 83.5,96.5C 85.5945,98.5894 87.4279,98.5894 89,96.5C 89.7175,97.4506 90.5509,97.6172 91.5,97C 90.3044,96.3457 90.3044,95.8457 91.5,95.5C 93.8836,96.5821 96.0503,97.2488 98,97.5C 98.1492,94.7215 98.9826,94.2215 100.5,96C 99.2941,97.0177 99.6274,97.5177 101.5,97.5C 106.883,96.8178 112.716,96.8178 119,97.5C 121.151,97.3569 122.818,96.3569 124,94.5C 126.336,97.0264 129.003,98.0264 132,97.5C 133.653,97.1802 134.653,96.1802 135,94.5C 135.333,95.5 135.667,96.5 136,97.5C 138.718,96.9874 141.551,96.9874 144.5,97.5C 144.351,96.448 144.517,95.448 145,94.5C 146.912,95.6919 148.912,96.6919 151,97.5C 151.667,96.8333 152.333,96.1667 153,95.5C 155.33,97.0317 157.33,96.6983 159,94.5C 160.465,96.915 162.632,97.915 165.5,97.5 Z"/></g>
<g><path style="opacity:1" fill="#68c8e6" d="M 165.5,104.5 C 173.833,110.833 181.167,118.167 187.5,126.5C 178.433,126.329 169.433,126.329 160.5,126.5C 144.833,125.167 129.167,125.167 113.5,126.5C 109.837,127.826 106.17,127.826 102.5,126.5C 97.1387,120.162 91.8054,113.829 86.5,107.5C 88.5668,105.453 90.4002,105.453 92,107.5C 93.1597,105.203 94.1597,105.536 95,108.5C 98.2667,106.012 100.267,107.012 101,111.5C 101.232,110.263 101.732,109.263 102.5,108.5C 102.5,109.5 102.5,110.5 102.5,111.5C 117.837,111.667 133.17,111.5 148.5,111C 149.056,110.617 149.389,110.117 149.5,109.5C 150.222,109.082 150.722,108.416 151,107.5C 152.119,108.552 152.619,109.719 152.5,111C 153.448,111.483 154.448,111.649 155.5,111.5C 155.393,109.097 156.393,107.264 158.5,106C 160.108,105.342 161.275,105.842 162,107.5C 162.333,106.5 162.667,105.5 163,104.5C 163.604,108.333 164.437,108.333 165.5,104.5 Z"/></g>
<g><path style="opacity:1" fill="#000000" d="M 149.5,109.5 C 149.389,110.117 149.056,110.617 148.5,111C 133.17,111.5 117.837,111.667 102.5,111.5C 102.5,110.5 102.5,109.5 102.5,108.5C 110.159,107.834 117.993,107.5 126,107.5C 134.196,107.502 142.03,108.169 149.5,109.5 Z"/></g>
<g><path style="opacity:1" fill="#5ccee4" d="M 113.5,126.5 C 113.5,127.5 113.5,128.5 113.5,129.5C 129.167,129.5 144.833,129.5 160.5,129.5C 160.5,128.5 160.5,127.5 160.5,126.5C 169.433,126.329 178.433,126.329 187.5,126.5C 194.634,132.465 201.634,138.631 208.5,145C 209.823,145.816 210.489,146.983 210.5,148.5C 201.259,148.104 191.592,148.104 181.5,148.5C 181.5,147.167 181.5,145.833 181.5,144.5C 165.167,144.5 148.833,144.5 132.5,144.5C 132.5,145.833 132.5,147.167 132.5,148.5C 128.833,148.5 125.167,148.5 121.5,148.5C 115.049,141.065 108.716,133.732 102.5,126.5C 106.17,127.826 109.837,127.826 113.5,126.5 Z"/></g>
<g><path style="opacity:1" fill="#000000" d="M 160.5,126.5 C 160.5,127.5 160.5,128.5 160.5,129.5C 144.833,129.5 129.167,129.5 113.5,129.5C 113.5,128.5 113.5,127.5 113.5,126.5C 129.167,125.167 144.833,125.167 160.5,126.5 Z"/></g>
<g><path style="opacity:1" fill="#000000" d="M 181.5,148.5 C 165.167,148.5 148.833,148.5 132.5,148.5C 132.5,147.167 132.5,145.833 132.5,144.5C 148.833,144.5 165.167,144.5 181.5,144.5C 181.5,145.833 181.5,147.167 181.5,148.5 Z"/></g>
<g><path style="opacity:1" fill="#54d3e3" d="M 210.5,148.5 C 215.194,151.861 219.194,155.861 222.5,160.5C 219.266,159.873 216.099,159.873 213,160.5C 210.515,158.244 208.182,158.244 206,160.5C 205.692,159.692 205.192,159.025 204.5,158.5C 202.044,161.08 199.544,161.08 197,158.5C 195.598,160.973 194.098,160.973 192.5,158.5C 190.941,159.074 189.441,159.74 188,160.5C 180.173,160.164 172.507,160.164 165,160.5C 164.333,159.833 163.667,159.167 163,158.5C 161.451,161.003 159.784,161.003 158,158.5C 156.691,160.891 155.691,160.891 155,158.5C 153.806,159.43 152.473,160.097 151,160.5C 142.212,160.419 133.378,160.419 124.5,160.5C 124.817,157.428 124.484,154.428 123.5,151.5C 122.081,150.995 121.415,149.995 121.5,148.5C 125.167,148.5 128.833,148.5 132.5,148.5C 148.833,148.5 165.167,148.5 181.5,148.5C 191.592,148.104 201.259,148.104 210.5,148.5 Z"/></g>
<g><path style="opacity:1" fill="#4cd7e1" d="M 222.5,160.5 C 225.437,162.267 227.937,164.6 230,167.5C 230.499,172.823 230.666,178.156 230.5,183.5C 220.029,183.619 210.029,183.952 200.5,184.5C 197.296,179.935 193.963,175.435 190.5,171C 168.503,170.5 146.503,170.333 124.5,170.5C 124.5,167.167 124.5,163.833 124.5,160.5C 133.378,160.419 142.212,160.419 151,160.5C 152.473,160.097 153.806,159.43 155,158.5C 155.691,160.891 156.691,160.891 158,158.5C 159.784,161.003 161.451,161.003 163,158.5C 163.667,159.167 164.333,159.833 165,160.5C 172.507,160.164 180.173,160.164 188,160.5C 189.441,159.74 190.941,159.074 192.5,158.5C 194.098,160.973 195.598,160.973 197,158.5C 199.544,161.08 202.044,161.08 204.5,158.5C 205.192,159.025 205.692,159.692 206,160.5C 208.182,158.244 210.515,158.244 213,160.5C 216.099,159.873 219.266,159.873 222.5,160.5 Z"/></g>
<g><path style="opacity:1" fill="#41dedf" d="M 104.5,177.5 C 129.169,177.333 153.836,177.5 178.5,178C 174.333,182.167 170.167,186.333 166,190.5C 165.333,195.5 165.333,200.5 166,205.5C 172.325,212.662 178.492,219.995 184.5,227.5C 157.833,228.833 131.167,228.833 104.5,227.5C 99.1667,222.167 93.8333,216.833 88.5,211.5C 87.0491,205.439 87.2158,199.439 89,193.5C 94.2085,188.29 99.3752,182.956 104.5,177.5 Z"/></g>
<g><path style="opacity:1" fill="#40dedf" d="M 230.5,183.5 C 231.742,189.145 231.742,194.812 230.5,200.5C 221.272,209.306 212.272,218.306 203.5,227.5C 200.894,228.652 198.227,228.818 195.5,228C 194.663,226.989 194.33,225.822 194.5,224.5C 193.5,224.5 192.5,224.5 191.5,224.5C 185.979,216.135 179.479,208.468 172,201.5C 172.721,196.021 175.388,191.354 180,187.5C 186.444,188.81 192.944,188.81 199.5,187.5C 200.127,186.583 200.461,185.583 200.5,184.5C 210.029,183.952 220.029,183.619 230.5,183.5 Z"/></g>
<g><path style="opacity:0.998" fill="#181818" d="M 114.5,243.5 C 116.5,243.5 118.5,243.5 120.5,243.5C 120.335,246.518 120.502,249.518 121,252.5C 123.915,249.93 126.581,250.263 129,253.5C 131,258.5 131,263.5 129,268.5C 126.521,271.683 123.854,272.016 121,269.5C 118.959,270.423 116.792,270.756 114.5,270.5C 114.5,261.5 114.5,252.5 114.5,243.5 Z M 121.5,256.5 C 123.95,256.874 124.95,258.374 124.5,261C 124.691,262.973 124.024,264.473 122.5,265.5C 120.215,262.822 119.882,259.822 121.5,256.5 Z"/></g>
<g><path style="opacity:0.996" fill="#1d1d1d" d="M 174.5,243.5 C 178.677,242.842 180.177,244.508 179,248.5C 176.442,251.15 174.608,250.65 173.5,247C 173.648,245.744 173.982,244.577 174.5,243.5 Z"/></g>
<g><path style="opacity:0.998" fill="#1d1d1d" d="M 203.5,246.5 C 205.167,246.5 206.833,246.5 208.5,246.5C 208.5,248.167 208.5,249.833 208.5,251.5C 209.5,251.5 210.5,251.5 211.5,251.5C 211.5,253.167 211.5,254.833 211.5,256.5C 210.5,256.5 209.5,256.5 208.5,256.5C 208.21,261.623 209.043,266.289 211,270.5C 208.58,271.488 206.247,271.155 204,269.5C 203.099,264.299 201.932,259.132 200.5,254C 201.658,251.524 202.658,249.024 203.5,246.5 Z"/></g>
<g><path style="opacity:0.999" fill="#212121" d="M 137.5,250.5 C 140.475,250.713 143.142,251.713 145.5,253.5C 144.327,256.279 142.493,256.946 140,255.5C 138.007,257.406 138.507,258.573 141.5,259C 145.202,261.531 146.035,264.698 144,268.5C 139.734,272.401 135.567,272.234 131.5,268C 132.667,266.833 133.833,265.667 135,264.5C 136.241,266.421 137.741,266.754 139.5,265.5C 137.971,263.812 136.137,262.479 134,261.5C 131.35,256.562 132.517,252.895 137.5,250.5 Z"/></g>
<g><path style="opacity:0.998" fill="#1b1b1b" d="M 153.5,250.5 C 159.564,250.689 160.73,253.022 157,257.5C 156,256.167 155,256.167 154,257.5C 153.333,259.833 153.333,262.167 154,264.5C 155,265.833 156,265.833 157,264.5C 160.734,268.039 160.068,270.372 155,271.5C 147.506,267.939 145.506,262.272 149,254.5C 150.397,252.93 151.897,251.596 153.5,250.5 Z"/></g>
<g><path style="opacity:0.999" fill="#141414" d="M 162.5,270.5 C 162.5,264.5 162.5,258.5 162.5,252.5C 164.451,252.227 165.951,252.893 167,254.5C 167.717,253.956 168.217,253.289 168.5,252.5C 170.397,249.767 171.73,250.1 172.5,253.5C 171.802,256.082 170.302,258.082 168,259.5C 167.501,263.152 167.335,266.818 167.5,270.5C 165.833,270.5 164.167,270.5 162.5,270.5 Z"/></g>
<g><path style="opacity:0.999" fill="#141414" d="M 190.5,269.5 C 190.44,268.957 190.107,268.624 189.5,268.5C 188.513,271.768 188.18,275.102 188.5,278.5C 187.167,278.5 185.833,278.5 184.5,278.5C 184.5,269.833 184.5,261.167 184.5,252.5C 186.741,252.954 188.741,252.954 190.5,252.5C 192.246,250.145 194.246,249.978 196.5,252C 200.5,258 200.5,264 196.5,270C 194.246,272.022 192.246,271.855 190.5,269.5 Z M 190.5,256.5 C 192.95,256.874 193.95,258.374 193.5,261C 193.691,262.973 193.024,264.473 191.5,265.5C 189.215,262.822 188.882,259.822 190.5,256.5 Z"/></g>
<g><path style="opacity:0.998" fill="#1b1b1b" d="M 96.5,251.5 C 98.7925,251.244 100.959,251.577 103,252.5C 103.667,255.833 104.333,259.167 105,262.5C 105.771,259.141 106.605,255.808 107.5,252.5C 109.396,251.534 111.396,251.201 113.5,251.5C 112.109,257.509 110.609,263.509 109,269.5C 106.333,270.833 103.667,270.833 101,269.5C 99.183,263.565 97.683,257.565 96.5,251.5 Z"/></g>
<g><path style="opacity:0.69" fill="#3b3b3b" d="M 168.5,252.5 C 168.217,253.289 167.717,253.956 167,254.5C 165.951,252.893 164.451,252.227 162.5,252.5C 162.5,258.5 162.5,264.5 162.5,270.5C 161.51,264.355 161.177,258.022 161.5,251.5C 163.95,251.298 166.283,251.631 168.5,252.5 Z"/></g>
<g><path style="opacity:0.754" fill="#292929" d="M 178.5,270.5 C 178.5,264.5 178.5,258.5 178.5,252.5C 177.167,252.5 175.833,252.5 174.5,252.5C 174.5,258.5 174.5,264.5 174.5,270.5C 173.51,264.355 173.177,258.022 173.5,251.5C 175.5,251.5 177.5,251.5 179.5,251.5C 179.823,258.022 179.49,264.355 178.5,270.5 Z"/></g>
<g><path style="opacity:0.999" fill="#000000" d="M 178.5,270.5 C 177.167,270.5 175.833,270.5 174.5,270.5C 174.5,264.5 174.5,258.5 174.5,252.5C 175.833,252.5 177.167,252.5 178.5,252.5C 178.5,258.5 178.5,264.5 178.5,270.5 Z"/></g>
<g><path style="opacity:0.69" fill="#3d3d3d" d="M 190.5,252.5 C 188.741,252.954 186.741,252.954 184.5,252.5C 184.5,261.167 184.5,269.833 184.5,278.5C 185.833,278.5 187.167,278.5 188.5,278.5C 188.18,275.102 188.513,271.768 189.5,268.5C 190.107,268.624 190.44,268.957 190.5,269.5C 189.521,272.625 189.187,275.958 189.5,279.5C 187.5,279.5 185.5,279.5 183.5,279.5C 183.5,270.167 183.5,260.833 183.5,251.5C 185.95,251.298 188.283,251.631 190.5,252.5 Z"/></g>
</svg>
