<?xml version="1.0" encoding="UTF-8"?>
<!DOCTYPE svg PUBLIC "-//W3C//DTD SVG 1.1//EN" "http://www.w3.org/Graphics/SVG/1.1/DTD/svg11.dtd">
<svg xmlns="http://www.w3.org/2000/svg" version="1.1" width="1200px" height="1200px" style="shape-rendering:geometricPrecision; text-rendering:geometricPrecision; image-rendering:optimizeQuality; fill-rule:evenodd; clip-rule:evenodd" xmlns:xlink="http://www.w3.org/1999/xlink">
<g><path style="opacity:1" fill="#7151a9" d="M 836.5,51.5 C 837.739,52.212 838.239,53.212 838,54.5C 823.928,70.6448 814.594,89.3114 810,110.5C 808.161,121.24 806.494,131.907 805,142.5C 803.541,262.823 803.041,383.157 803.5,503.5C 774.163,532.17 744.496,560.504 714.5,588.5C 647.202,524.37 580.036,460.037 513,395.5C 512.517,394.552 512.351,393.552 512.5,392.5C 605.79,283.372 699.29,174.372 793,65.5C 805.067,53.3113 819.567,48.6446 836.5,51.5 Z"/></g>
<g><path style="opacity:1" fill="#6e4fa5" d="M 836.5,51.5 C 842.043,52.3431 847.043,54.3431 851.5,57.5C 852.313,60.9895 854.313,63.6562 857.5,65.5C 860.234,67.9547 862.234,70.9547 863.5,74.5C 847.176,88.4638 837.009,106.13 833,127.5C 829.262,146.637 827.262,165.97 827,185.5C 826.5,284.166 826.333,382.833 826.5,481.5C 818.86,488.806 811.193,496.139 803.5,503.5C 803.041,383.157 803.541,262.823 805,142.5C 806.494,131.907 808.161,121.24 810,110.5C 814.594,89.3114 823.928,70.6448 838,54.5C 838.239,53.212 837.739,52.212 836.5,51.5 Z"/></g>
<g><path style="opacity:1" fill="#6b4d9f" d="M 857.5,65.5 C 860.764,66.9274 863.264,69.2608 865,72.5C 870.16,82.6309 871.827,93.2976 870,104.5C 859.314,116.876 852.648,131.209 850,147.5C 848.627,154.446 847.627,161.446 847,168.5C 845.536,266.82 845.036,365.153 845.5,463.5C 839.193,469.472 832.86,475.472 826.5,481.5C 826.333,382.833 826.5,284.166 827,185.5C 827.262,165.97 829.262,146.637 833,127.5C 837.009,106.13 847.176,88.4638 863.5,74.5C 862.234,70.9547 860.234,67.9547 857.5,65.5 Z"/></g>
<g><path style="opacity:1" fill="#d099fb" d="M 859.5,62.5 C 949.285,121.778 1038.95,181.278 1128.5,241C 1139.56,248.622 1145.9,259.122 1147.5,272.5C 1147.5,313.167 1147.5,353.833 1147.5,394.5C 1056.5,394.5 965.5,394.5 874.5,394.5C 874.833,293.999 874.499,193.665 873.5,93.5C 873.5,92.8333 873.5,92.1667 873.5,91.5C 872.058,80.1162 867.058,70.6162 858.5,63C 858.728,62.6012 859.062,62.4346 859.5,62.5 Z"/></g>
<g><path style="opacity:1" fill="#664998" d="M 851.5,57.5 C 854.511,58.6693 857.178,60.336 859.5,62.5C 859.062,62.4346 858.728,62.6012 858.5,63C 867.058,70.6162 872.058,80.1162 873.5,91.5C 871.935,107.638 871.102,123.971 871,140.5C 869.165,151.511 867.165,162.511 865,173.5C 864.068,181.477 863.402,189.477 863,197.5C 862.5,280.499 862.333,363.499 862.5,446.5C 857.167,452.5 851.5,458.167 845.5,463.5C 845.036,365.153 845.536,266.82 847,168.5C 847.627,161.446 848.627,154.446 850,147.5C 852.648,131.209 859.314,116.876 870,104.5C 871.827,93.2976 870.16,82.6309 865,72.5C 863.264,69.2608 860.764,66.9274 857.5,65.5C 854.313,63.6562 852.313,60.9895 851.5,57.5 Z"/></g>
<g><path style="opacity:1" fill="#634794" d="M 873.5,91.5 C 873.5,92.1667 873.5,92.8333 873.5,93.5C 873.5,107.833 873.5,122.167 873.5,136.5C 872.674,140.982 872.174,145.649 872,150.5C 871.5,246.499 871.333,342.499 871.5,438.5C 868.729,441.392 865.729,444.058 862.5,446.5C 862.333,363.499 862.5,280.499 863,197.5C 863.402,189.477 864.068,181.477 865,173.5C 867.165,162.511 869.165,151.511 871,140.5C 871.102,123.971 871.935,107.638 873.5,91.5 Z"/></g>
<g><path style="opacity:1" fill="#5c4289" d="M 873.5,136.5 C 873.5,236.833 873.5,337.167 873.5,437.5C 872.833,437.833 872.167,438.167 871.5,438.5C 871.333,342.499 871.5,246.499 872,150.5C 872.174,145.649 872.674,140.982 873.5,136.5 Z"/></g>
<g><path style="opacity:1" fill="#ab7cdf" d="M 386.5,295.5 C 387.839,298.736 386.839,301.236 383.5,303C 326.978,353.099 270.645,403.432 214.5,454C 213.255,454.791 211.922,455.291 210.5,455.5C 182.405,422.897 154.071,390.397 125.5,358C 112.41,348.395 98.0762,345.895 82.5,350.5C 79.492,351.42 76.6587,352.754 74,354.5C 73.6012,354.272 73.4346,353.938 73.5,353.5C 131.983,309.197 190.649,265.03 249.5,221C 268.068,207.84 287.068,207.174 306.5,219C 333.365,244.367 360.032,269.867 386.5,295.5 Z"/></g>
<g><path style="opacity:1" fill="#a97bde" d="M 386.5,295.5 C 417.47,324.469 448.136,353.802 478.5,383.5C 478.586,384.496 478.252,385.329 477.5,386C 417.869,438.629 358.536,491.629 299.5,545C 296.935,547.08 294.268,548.913 291.5,550.5C 274.5,530.5 257.5,510.5 240.5,490.5C 230.5,478.833 220.5,467.167 210.5,455.5C 211.922,455.291 213.255,454.791 214.5,454C 270.645,403.432 326.978,353.099 383.5,303C 386.839,301.236 387.839,298.736 386.5,295.5 Z"/></g>
<g><path style="opacity:1" fill="#4d3775" d="M 210.5,455.5 C 220.5,467.167 230.5,478.833 240.5,490.5C 239.549,491.919 239.216,493.585 239.5,495.5C 204.158,455.654 169.325,415.321 135,374.5C 121.443,357.296 103.943,349.296 82.5,350.5C 98.0762,345.895 112.41,348.395 125.5,358C 154.071,390.397 182.405,422.897 210.5,455.5 Z"/></g>
<g><path style="opacity:1" fill="#573e84" d="M 82.5,350.5 C 103.943,349.296 121.443,357.296 135,374.5C 169.325,415.321 204.158,455.654 239.5,495.5C 239.5,502.5 239.5,509.5 239.5,516.5C 203.825,476.321 168.658,435.654 134,394.5C 128.802,388.967 123.302,383.8 117.5,379C 108.997,373.916 100.664,368.583 92.5,363C 90.2177,360.603 88.8844,357.769 88.5,354.5C 83.1526,355.136 77.9859,356.469 73,358.5C 70.4219,358.318 69.9219,357.318 71.5,355.5C 71.8333,354.5 72.5,353.833 73.5,353.5C 73.4346,353.938 73.6012,354.272 74,354.5C 76.6587,352.754 79.492,351.42 82.5,350.5 Z"/></g>
<g><path style="opacity:1" fill="#5d428e" d="M 239.5,516.5 C 239.5,577.167 239.5,637.833 239.5,698.5C 201.071,742.77 162.404,786.936 123.5,831C 116.044,837.118 108.044,842.451 99.5,847C 91.9709,847.928 84.6376,847.095 77.5,844.5C 76.8333,844.667 76.1667,844.833 75.5,845C 76.5707,845.852 77.5707,846.685 78.5,847.5C 77.8333,847.5 77.5,847.833 77.5,848.5C 63.0847,840.588 54.2514,828.588 51,812.5C 50.3333,670.5 50.3333,528.5 51,386.5C 53.3548,373.103 60.1881,362.769 71.5,355.5C 69.9219,357.318 70.4219,358.318 73,358.5C 77.9859,356.469 83.1526,355.136 88.5,354.5C 88.8844,357.769 90.2177,360.603 92.5,363C 100.664,368.583 108.997,373.916 117.5,379C 123.302,383.8 128.802,388.967 134,394.5C 168.658,435.654 203.825,476.321 239.5,516.5 Z"/></g>
<g><path style="opacity:1" fill="#a578dc" d="M 478.5,383.5 C 485.833,390.5 493.167,397.5 500.5,404.5C 565.266,467.388 630.266,530.055 695.5,592.5C 626.729,654.392 557.729,716.058 488.5,777.5C 436.46,718.129 384.793,658.462 333.5,598.5C 319.156,582.822 305.156,566.822 291.5,550.5C 294.268,548.913 296.935,547.08 299.5,545C 358.536,491.629 417.869,438.629 477.5,386C 478.252,385.329 478.586,384.496 478.5,383.5 Z"/></g>
<g><path style="opacity:1" fill="#6d4ea3" d="M 512.5,392.5 C 512.351,393.552 512.517,394.552 513,395.5C 580.036,460.037 647.202,524.37 714.5,588.5C 712.167,591.5 709.5,594.167 706.5,596.5C 705.448,596.649 704.448,596.483 703.5,596C 636.833,532 570.167,468 503.5,404C 504.252,403.329 504.586,402.496 504.5,401.5C 506.472,397.895 509.139,394.895 512.5,392.5 Z"/></g>
<g><path style="opacity:1" fill="#cc96f9" d="M 874.5,394.5 C 965.5,394.5 1056.5,394.5 1147.5,394.5C 1147.5,459.167 1147.5,523.833 1147.5,588.5C 1056.5,588.5 965.5,588.5 874.5,588.5C 874.5,523.833 874.5,459.167 874.5,394.5 Z"/></g>
<g><path style="opacity:1" fill="#664998" d="M 504.5,401.5 C 504.586,402.496 504.252,403.329 503.5,404C 570.167,468 636.833,532 703.5,596C 704.448,596.483 705.448,596.649 706.5,596.5C 705.4,597.605 704.733,598.938 704.5,600.5C 701.5,597.833 698.5,595.167 695.5,592.5C 630.266,530.055 565.266,467.388 500.5,404.5C 501.833,403.5 503.167,402.5 504.5,401.5 Z"/></g>
<g><path style="opacity:1" fill="#c994f6" d="M 874.5,588.5 C 965.5,588.5 1056.5,588.5 1147.5,588.5C 1147.5,652.833 1147.5,717.167 1147.5,781.5C 1056.5,781.5 965.5,781.5 874.5,781.5C 874.5,717.167 874.5,652.833 874.5,588.5 Z"/></g>
<g><path style="opacity:1" fill="#a276d9" d="M 695.5,592.5 C 698.5,595.167 701.5,597.833 704.5,600.5C 712.193,607.861 719.86,615.194 727.5,622.5C 725.154,626.362 722.154,629.862 718.5,633C 651.667,692.5 584.833,752 518,811.5C 517.329,810.748 516.496,810.414 515.5,810.5C 510.49,805.488 505.823,800.155 501.5,794.5C 496.915,788.983 492.582,783.317 488.5,777.5C 557.729,716.058 626.729,654.392 695.5,592.5 Z"/></g>
<g><path style="opacity:1" fill="#654997" d="M 496.5,797.5 C 495.5,799.167 494.167,800.5 492.5,801.5C 491.928,799.745 491.094,798.078 490,796.5C 436.667,734.5 383.333,672.5 330,610.5C 329.184,609.177 328.017,608.511 326.5,608.5C 327.08,606.251 328.413,604.585 330.5,603.5C 332.806,602.215 334.639,602.882 336,605.5C 388.692,666.935 441.359,728.268 494,789.5C 494.658,792.285 495.491,794.951 496.5,797.5 Z"/></g>
<g><path style="opacity:1" fill="#6b4c9f" d="M 326.5,608.5 C 328.017,608.511 329.184,609.177 330,610.5C 383.333,672.5 436.667,734.5 490,796.5C 491.094,798.078 491.928,799.745 492.5,801.5C 491.167,803.5 489.5,805.167 487.5,806.5C 433.44,742.264 378.774,678.431 323.5,615C 322.552,614.517 321.552,614.351 320.5,614.5C 322.167,612.167 324.167,610.167 326.5,608.5 Z"/></g>
<g><path style="opacity:1" fill="#7151a9" d="M 320.5,614.5 C 321.552,614.351 322.552,614.517 323.5,615C 378.774,678.431 433.44,742.264 487.5,806.5C 428.395,863.102 369.395,919.936 310.5,977C 292.426,990.696 273.426,992.029 253.5,981C 194.649,936.97 135.983,892.803 77.5,848.5C 77.5,847.833 77.8333,847.5 78.5,847.5C 95.3179,853.247 110.985,851.08 125.5,841C 165.01,796.757 203.676,751.924 241.5,706.5C 267.833,675.833 294.167,645.167 320.5,614.5 Z"/></g>
<g><path style="opacity:1" fill="#9f74d7" d="M 727.5,622.5 C 754.193,648.194 780.86,673.861 807.5,699.5C 808.54,703.78 808.706,708.113 808,712.5C 806.846,713.743 805.512,714.743 804,715.5C 803.667,789.167 803.333,862.833 803,936.5C 800.195,939.165 798.695,942.498 798.5,946.5C 797.186,947.313 796.019,948.313 795,949.5C 794.667,975.5 794.333,1001.5 794,1027.5C 776.665,1042.67 759.498,1058 742.5,1073.5C 666.489,986.154 590.822,898.487 515.5,810.5C 516.496,810.414 517.329,810.748 518,811.5C 584.833,752 651.667,692.5 718.5,633C 722.154,629.862 725.154,626.362 727.5,622.5 Z"/></g>
<g><path style="opacity:1" fill="#573e84" d="M 239.5,698.5 C 239.335,701.518 239.502,704.518 240,707.5C 240.383,706.944 240.883,706.611 241.5,706.5C 203.676,751.924 165.01,796.757 125.5,841C 110.985,851.08 95.3179,853.247 78.5,847.5C 77.5707,846.685 76.5707,845.852 75.5,845C 76.1667,844.833 76.8333,844.667 77.5,844.5C 84.6376,847.095 91.9709,847.928 99.5,847C 108.044,842.451 116.044,837.118 123.5,831C 162.404,786.936 201.071,742.77 239.5,698.5 Z"/></g>
<g><path style="opacity:1" fill="#5c4288" d="M 333.5,598.5 C 384.793,658.462 436.46,718.129 488.5,777.5C 492.582,783.317 496.915,788.983 501.5,794.5C 499.589,795.075 497.922,796.075 496.5,797.5C 495.491,794.951 494.658,792.285 494,789.5C 441.359,728.268 388.692,666.935 336,605.5C 334.639,602.882 332.806,602.215 330.5,603.5C 331.752,601.999 332.752,600.332 333.5,598.5 Z"/></g>
<g><path style="opacity:1" fill="#986ed0" d="M 826.5,729.5 C 826.667,791.834 826.5,854.168 826,916.5C 825.333,917.167 824.667,917.833 824,918.5C 823.415,955.18 823.415,991.847 824,1028.5C 819.613,1030.87 816.779,1034.37 815.5,1039C 816.761,1064.65 822.594,1089.15 833,1112.5C 835.5,1116.33 838,1120.17 840.5,1124C 838.385,1124.42 837.552,1125.59 838,1127.5C 842.388,1132.71 846.888,1137.71 851.5,1142.5C 840.251,1148.6 828.584,1149.93 816.5,1146.5C 820.174,1145.02 823.507,1142.85 826.5,1140C 815.901,1124.63 808.734,1107.8 805,1089.5C 803.798,1079.9 802.298,1070.4 800.5,1061C 801.076,1059.29 802.243,1058.12 804,1057.5C 804.167,1054 804.333,1050.5 804.5,1047C 803.419,1016.17 803.252,985.34 804,954.5C 805.333,953.167 806.667,951.833 808,950.5C 808.333,916.167 808.667,881.833 809,847.5C 810.667,845.833 812.333,844.167 814,842.5C 814.333,808.167 814.667,773.833 815,739.5C 818.41,735.584 822.243,732.251 826.5,729.5 Z"/></g>
<g><path style="opacity:1" fill="#946bca" d="M 825.5,716.5 C 832.193,722.861 838.86,729.194 845.5,735.5C 845.957,807.478 845.29,879.311 843.5,951C 843.53,969.345 843.863,987.679 844.5,1006C 844.446,1009.36 843.446,1012.36 841.5,1015C 842.633,1031.3 844.799,1047.46 848,1063.5C 851.277,1077.06 857.444,1089.06 866.5,1099.5C 864.833,1101.5 863.167,1103.5 861.5,1105.5C 863.522,1108.36 866.022,1110.69 869,1112.5C 868.981,1114.11 868.815,1115.77 868.5,1117.5C 867.885,1121.01 866.885,1124.34 865.5,1127.5C 864.952,1129.39 863.952,1131.06 862.5,1132.5C 862.957,1133.3 863.624,1133.63 864.5,1133.5C 860.378,1136.73 856.045,1139.73 851.5,1142.5C 846.888,1137.71 842.388,1132.71 838,1127.5C 837.552,1125.59 838.385,1124.42 840.5,1124C 838,1120.17 835.5,1116.33 833,1112.5C 822.594,1089.15 816.761,1064.65 815.5,1039C 816.779,1034.37 819.613,1030.87 824,1028.5C 823.415,991.847 823.415,955.18 824,918.5C 824.667,917.833 825.333,917.167 826,916.5C 826.5,854.168 826.667,791.834 826.5,729.5C 826.706,725.102 826.373,720.768 825.5,716.5 Z"/></g>
<g><path style="opacity:1" fill="#8f68c3" d="M 845.5,735.5 C 849.833,739.167 853.833,743.167 857.5,747.5C 857.918,812.145 857.251,876.645 855.5,941C 855.712,960.523 855.879,980.023 856,999.5C 852.023,1002.66 850.523,1006.82 851.5,1012C 851.729,1032.88 855.562,1053.04 863,1072.5C 865.084,1076.34 867.417,1080 870,1083.5C 871.519,1092.78 871.853,1102.11 871,1111.5C 870.76,1113.85 869.927,1115.85 868.5,1117.5C 868.815,1115.77 868.981,1114.11 869,1112.5C 866.022,1110.69 863.522,1108.36 861.5,1105.5C 863.167,1103.5 864.833,1101.5 866.5,1099.5C 857.444,1089.06 851.277,1077.06 848,1063.5C 844.799,1047.46 842.633,1031.3 841.5,1015C 843.446,1012.36 844.446,1009.36 844.5,1006C 843.863,987.679 843.53,969.345 843.5,951C 845.29,879.311 845.957,807.478 845.5,735.5 Z"/></g>
<g><path style="opacity:1" fill="#8a64bc" d="M 857.5,747.5 C 861.859,751.528 866.193,755.528 870.5,759.5C 871.329,860.127 871.829,960.793 872,1061.5C 872.169,1077.34 872.669,1093.01 873.5,1108.5C 872.718,1115.72 870.051,1122.05 865.5,1127.5C 866.885,1124.34 867.885,1121.01 868.5,1117.5C 869.927,1115.85 870.76,1113.85 871,1111.5C 871.853,1102.11 871.519,1092.78 870,1083.5C 867.417,1080 865.084,1076.34 863,1072.5C 855.562,1053.04 851.729,1032.88 851.5,1012C 850.523,1006.82 852.023,1002.66 856,999.5C 855.879,980.023 855.712,960.523 855.5,941C 857.251,876.645 857.918,812.145 857.5,747.5 Z"/></g>
<g><path style="opacity:1" fill="#c591f3" d="M 1147.5,272.5 C 1148.67,490.333 1148.83,708.333 1148,926.5C 1147.05,932.171 1145.22,937.505 1142.5,942.5C 1053.17,942.5 963.833,942.5 874.5,942.5C 874.5,888.833 874.5,835.167 874.5,781.5C 965.5,781.5 1056.5,781.5 1147.5,781.5C 1147.5,717.167 1147.5,652.833 1147.5,588.5C 1147.5,523.833 1147.5,459.167 1147.5,394.5C 1147.5,353.833 1147.5,313.167 1147.5,272.5 Z"/></g>
<g><path style="opacity:1" fill="#7f5cad" d="M 870.5,759.5 C 871.5,760.167 872.5,760.833 873.5,761.5C 873.5,877.167 873.5,992.833 873.5,1108.5C 872.669,1093.01 872.169,1077.34 872,1061.5C 871.829,960.793 871.329,860.127 870.5,759.5 Z"/></g>
<g><path style="opacity:1" fill="#c38ff2" d="M 874.5,942.5 C 963.833,942.5 1053.17,942.5 1142.5,942.5C 1139.8,947.706 1136.14,952.206 1131.5,956C 1094.47,980.51 1057.47,1005.01 1020.5,1029.5C 971.833,1029.5 923.167,1029.5 874.5,1029.5C 874.5,1000.5 874.5,971.5 874.5,942.5 Z"/></g>
<g><path style="opacity:1" fill="#9a70d3" d="M 807.5,699.5 C 813.526,705.195 819.526,710.861 825.5,716.5C 826.373,720.768 826.706,725.102 826.5,729.5C 822.243,732.251 818.41,735.584 815,739.5C 814.667,773.833 814.333,808.167 814,842.5C 812.333,844.167 810.667,845.833 809,847.5C 808.667,881.833 808.333,916.167 808,950.5C 806.667,951.833 805.333,953.167 804,954.5C 803.252,985.34 803.419,1016.17 804.5,1047C 804.333,1050.5 804.167,1054 804,1057.5C 802.243,1058.12 801.076,1059.29 800.5,1061C 802.298,1070.4 803.798,1079.9 805,1089.5C 808.734,1107.8 815.901,1124.63 826.5,1140C 823.507,1142.85 820.174,1145.02 816.5,1146.5C 810.116,1145.64 804.449,1143.14 799.5,1139C 779.545,1117.89 760.545,1096.05 742.5,1073.5C 759.498,1058 776.665,1042.67 794,1027.5C 794.333,1001.5 794.667,975.5 795,949.5C 796.019,948.313 797.186,947.313 798.5,946.5C 798.695,942.498 800.195,939.165 803,936.5C 803.333,862.833 803.667,789.167 804,715.5C 805.512,714.743 806.846,713.743 808,712.5C 808.706,708.113 808.54,703.78 807.5,699.5 Z"/></g>
<g><path style="opacity:1" fill="#be8ced" d="M 873.5,93.5 C 874.499,193.665 874.833,293.999 874.5,394.5C 874.5,459.167 874.5,523.833 874.5,588.5C 874.5,652.833 874.5,717.167 874.5,781.5C 874.5,835.167 874.5,888.833 874.5,942.5C 874.5,971.5 874.5,1000.5 874.5,1029.5C 923.167,1029.5 971.833,1029.5 1020.5,1029.5C 968.795,1064.53 916.795,1099.19 864.5,1133.5C 863.624,1133.63 862.957,1133.3 862.5,1132.5C 863.952,1131.06 864.952,1129.39 865.5,1127.5C 870.051,1122.05 872.718,1115.72 873.5,1108.5C 873.5,992.833 873.5,877.167 873.5,761.5C 873.5,653.5 873.5,545.5 873.5,437.5C 873.5,337.167 873.5,236.833 873.5,136.5C 873.5,122.167 873.5,107.833 873.5,93.5 Z"/></g>
</svg>
