<?xml version="1.0" encoding="UTF-8"?>
<!DOCTYPE svg PUBLIC "-//W3C//DTD SVG 1.1//EN" "http://www.w3.org/Graphics/SVG/1.1/DTD/svg11.dtd">
<svg xmlns="http://www.w3.org/2000/svg" version="1.1" width="2048px" height="2048px" style="shape-rendering:geometricPrecision; text-rendering:geometricPrecision; image-rendering:optimizeQuality; fill-rule:evenodd; clip-rule:evenodd" xmlns:xlink="http://www.w3.org/1999/xlink">
<g><path style="opacity:1" fill="#3c86b8" d="M 1493.5,28.5 C 1492.61,45.667 1492.61,63.0003 1493.5,80.5C 1487.17,80.5 1480.83,80.5 1474.5,80.5C 1475.29,101.845 1476.29,123.179 1477.5,144.5C 1476.17,144.5 1474.83,144.5 1473.5,144.5C 1474.07,165.829 1474.41,187.162 1474.5,208.5C 1471.5,208.5 1468.5,208.5 1465.5,208.5C 1467.27,219.069 1467.94,229.736 1467.5,240.5C 1465.83,240.5 1464.17,240.5 1462.5,240.5C 1442.17,240.5 1421.83,240.5 1401.5,240.5C 1401.67,230.494 1401.5,220.494 1401,210.5C 1400.5,210 1400,209.5 1399.5,209C 1405.82,208.5 1412.16,208.334 1418.5,208.5C 1417.4,165.466 1413.06,122.799 1405.5,80.5C 1408.5,80.5 1411.5,80.5 1414.5,80.5C 1413.02,69.8916 1412.36,59.225 1412.5,48.5C 1414.83,48.5 1417.17,48.5 1419.5,48.5C 1418.67,43.5192 1418.5,38.5192 1419,33.5C 1420.04,32.6266 1420.88,31.6266 1421.5,30.5C 1440.04,20.112 1459.71,17.612 1480.5,23C 1485.22,24.1762 1489.55,26.0096 1493.5,28.5 Z"/></g>
<g><path style="opacity:1" fill="#3b82b2" d="M 1493.5,28.5 C 1518.16,40.455 1531.99,60.1217 1535,87.5C 1535.5,103.83 1535.67,120.163 1535.5,136.5C 1534.53,138.948 1534.19,141.615 1534.5,144.5C 1531.83,144.5 1529.17,144.5 1526.5,144.5C 1524.94,176.48 1523.94,208.48 1523.5,240.5C 1504.83,240.5 1486.17,240.5 1467.5,240.5C 1467.94,229.736 1467.27,219.069 1465.5,208.5C 1468.5,208.5 1471.5,208.5 1474.5,208.5C 1474.41,187.162 1474.07,165.829 1473.5,144.5C 1474.83,144.5 1476.17,144.5 1477.5,144.5C 1476.29,123.179 1475.29,101.845 1474.5,80.5C 1480.83,80.5 1487.17,80.5 1493.5,80.5C 1492.61,63.0003 1492.61,45.667 1493.5,28.5 Z"/></g>
<g><path style="opacity:1" fill="#3b88bc" d="M 1421.5,30.5 C 1420.88,31.6266 1420.04,32.6266 1419,33.5C 1418.5,38.5192 1418.67,43.5192 1419.5,48.5C 1417.17,48.5 1414.83,48.5 1412.5,48.5C 1412.36,59.225 1413.02,69.8916 1414.5,80.5C 1411.5,80.5 1408.5,80.5 1405.5,80.5C 1413.06,122.799 1417.4,165.466 1418.5,208.5C 1412.16,208.334 1405.82,208.5 1399.5,209C 1400,209.5 1400.5,210 1401,210.5C 1401.5,220.494 1401.67,230.494 1401.5,240.5C 1331.17,240.5 1260.83,240.5 1190.5,240.5C 1261.64,174.866 1332.97,109.366 1404.5,44C 1409.77,38.8818 1415.44,34.3818 1421.5,30.5 Z"/></g>
<g><path style="opacity:1" fill="#52b2f2" d="M 1946.5,206.5 C 1809.84,208.498 1672.84,209.165 1535.5,208.5C 1535.5,184.5 1535.5,160.5 1535.5,136.5C 1535.67,120.163 1535.5,103.83 1535,87.5C 1531.99,60.1217 1518.16,40.455 1493.5,28.5C 1489.55,26.0096 1485.22,24.1762 1480.5,23C 1459.71,17.612 1440.04,20.112 1421.5,30.5C 1447.96,10.2129 1477.96,1.71295 1511.5,5C 1523.89,6.43053 1535.89,9.43053 1547.5,14C 1680.84,77.669 1813.84,141.836 1946.5,206.5 Z"/></g>
<g><path style="opacity:1" fill="#4db0f2" d="M 1946.5,206.5 C 1966.52,214.341 1985.19,224.507 2002.5,237C 2015.03,248.011 2025.03,260.844 2032.5,275.5C 2035.31,283.129 2038.14,290.796 2041,298.5C 2042.01,304.244 2043.35,309.911 2045,315.5C 2045.5,365.166 2045.67,414.832 2045.5,464.5C 1875.5,464.5 1705.5,464.5 1535.5,464.5C 1535.5,379.167 1535.5,293.833 1535.5,208.5C 1672.84,209.165 1809.84,208.498 1946.5,206.5 Z"/></g>
<g><path style="opacity:1" fill="#3585ba" d="M 1190.5,240.5 C 1260.83,240.5 1331.17,240.5 1401.5,240.5C 1421.83,240.5 1442.17,240.5 1462.5,240.5C 1462.5,251.167 1462.5,261.833 1462.5,272.5C 1460.83,272.5 1459.17,272.5 1457.5,272.5C 1457.5,283.167 1457.5,293.833 1457.5,304.5C 1450.17,304.5 1442.83,304.5 1435.5,304.5C 1435.5,315.167 1435.5,325.833 1435.5,336.5C 1430.5,336.5 1425.5,336.5 1420.5,336.5C 1420.5,357.833 1420.5,379.167 1420.5,400.5C 1417.83,400.5 1415.17,400.5 1412.5,400.5C 1412.5,411.167 1412.5,421.833 1412.5,432.5C 1268.17,432.5 1123.83,432.5 979.5,432.5C 1049.22,367.809 1119.56,303.809 1190.5,240.5 Z"/></g>
<g><path style="opacity:1" fill="#357fb1" d="M 1462.5,240.5 C 1464.17,240.5 1465.83,240.5 1467.5,240.5C 1486.17,240.5 1504.83,240.5 1523.5,240.5C 1523.5,251.167 1523.5,261.833 1523.5,272.5C 1522.5,272.5 1521.5,272.5 1520.5,272.5C 1520.5,293.833 1520.5,315.167 1520.5,336.5C 1517.17,336.5 1513.83,336.5 1510.5,336.5C 1510.5,357.833 1510.5,379.167 1510.5,400.5C 1508.17,400.5 1505.83,400.5 1503.5,400.5C 1503.5,421.833 1503.5,443.167 1503.5,464.5C 1501.83,464.5 1500.17,464.5 1498.5,464.5C 1484.83,464.5 1471.17,464.5 1457.5,464.5C 1457.5,443.167 1457.5,421.833 1457.5,400.5C 1459.17,400.5 1460.83,400.5 1462.5,400.5C 1462.5,357.833 1462.5,315.167 1462.5,272.5C 1462.5,261.833 1462.5,251.167 1462.5,240.5 Z"/></g>
<g><path style="opacity:1" fill="#3282b9" d="M 1462.5,272.5 C 1462.5,315.167 1462.5,357.833 1462.5,400.5C 1460.83,400.5 1459.17,400.5 1457.5,400.5C 1457.5,421.833 1457.5,443.167 1457.5,464.5C 1450.17,464.5 1442.83,464.5 1435.5,464.5C 1271.83,464.5 1108.17,464.5 944.5,464.5C 956.141,453.862 967.807,443.195 979.5,432.5C 1123.83,432.5 1268.17,432.5 1412.5,432.5C 1412.5,421.833 1412.5,411.167 1412.5,400.5C 1415.17,400.5 1417.83,400.5 1420.5,400.5C 1420.5,379.167 1420.5,357.833 1420.5,336.5C 1425.5,336.5 1430.5,336.5 1435.5,336.5C 1435.5,325.833 1435.5,315.167 1435.5,304.5C 1442.83,304.5 1450.17,304.5 1457.5,304.5C 1457.5,293.833 1457.5,283.167 1457.5,272.5C 1459.17,272.5 1460.83,272.5 1462.5,272.5 Z"/></g>
<g><path style="opacity:1" fill="#347cac" d="M 1535.5,136.5 C 1535.5,160.5 1535.5,184.5 1535.5,208.5C 1535.5,293.833 1535.5,379.167 1535.5,464.5C 1524.83,464.5 1514.17,464.5 1503.5,464.5C 1503.5,443.167 1503.5,421.833 1503.5,400.5C 1505.83,400.5 1508.17,400.5 1510.5,400.5C 1510.5,379.167 1510.5,357.833 1510.5,336.5C 1513.83,336.5 1517.17,336.5 1520.5,336.5C 1520.5,315.167 1520.5,293.833 1520.5,272.5C 1521.5,272.5 1522.5,272.5 1523.5,272.5C 1523.5,261.833 1523.5,251.167 1523.5,240.5C 1523.94,208.48 1524.94,176.48 1526.5,144.5C 1529.17,144.5 1531.83,144.5 1534.5,144.5C 1534.19,141.615 1534.53,138.948 1535.5,136.5 Z"/></g>
<g><path style="opacity:1" fill="#2e81b8" d="M 944.5,464.5 C 1108.17,464.5 1271.83,464.5 1435.5,464.5C 1435.5,496.5 1435.5,528.5 1435.5,560.5C 1433.17,560.5 1430.83,560.5 1428.5,560.5C 1428.5,581.833 1428.5,603.167 1428.5,624.5C 1425.83,624.5 1423.17,624.5 1420.5,624.5C 1420.5,631.833 1420.5,639.167 1420.5,646.5C 1417.49,649.336 1414.15,651.669 1410.5,653.5C 1409.24,653.461 1408.24,653.961 1407.5,655C 1183.5,655.5 959.5,655.667 735.5,655.5C 804.841,591.493 874.508,527.826 944.5,464.5 Z"/></g>
<g><path style="opacity:1" fill="#2e7eb3" d="M 1435.5,464.5 C 1442.83,464.5 1450.17,464.5 1457.5,464.5C 1471.17,464.5 1484.83,464.5 1498.5,464.5C 1498.5,475.167 1498.5,485.833 1498.5,496.5C 1496.17,496.5 1493.83,496.5 1491.5,496.5C 1491.5,507.167 1491.5,517.833 1491.5,528.5C 1484.83,528.5 1478.17,528.5 1471.5,528.5C 1471.5,549.833 1471.5,571.167 1471.5,592.5C 1468.5,592.5 1465.5,592.5 1462.5,592.5C 1462.5,599.833 1462.5,607.167 1462.5,614.5C 1448.81,625.519 1434.81,636.186 1420.5,646.5C 1420.5,639.167 1420.5,631.833 1420.5,624.5C 1423.17,624.5 1425.83,624.5 1428.5,624.5C 1428.5,603.167 1428.5,581.833 1428.5,560.5C 1430.83,560.5 1433.17,560.5 1435.5,560.5C 1435.5,528.5 1435.5,496.5 1435.5,464.5 Z"/></g>
<g><path style="opacity:1" fill="#49aff3" d="M 1535.5,464.5 C 1705.5,464.5 1875.5,464.5 2045.5,464.5C 2045.5,485.833 2045.5,507.167 2045.5,528.5C 1875.5,528.5 1705.5,528.5 1535.5,528.5C 1535.5,507.167 1535.5,485.833 1535.5,464.5 Z"/></g>
<g><path style="opacity:0.999" fill="#2d90d4" d="M 342.5,582.5 C 342.973,583.906 343.973,584.573 345.5,584.5C 376.475,607.481 407.141,630.814 437.5,654.5C 292.874,655.497 148.207,655.83 3.5,655.5C 8.66081,639.494 17.6608,625.994 30.5,615C 67.1667,581.667 103.833,548.333 140.5,515C 179.947,485.907 218.947,486.574 257.5,517C 286.019,538.697 314.352,560.53 342.5,582.5 Z"/></g>
<g><path style="opacity:1" fill="#2e79ac" d="M 1498.5,464.5 C 1500.17,464.5 1501.83,464.5 1503.5,464.5C 1514.17,464.5 1524.83,464.5 1535.5,464.5C 1535.5,485.833 1535.5,507.167 1535.5,528.5C 1535.5,539.167 1535.5,549.833 1535.5,560.5C 1511.02,578.247 1486.68,596.247 1462.5,614.5C 1462.5,607.167 1462.5,599.833 1462.5,592.5C 1465.5,592.5 1468.5,592.5 1471.5,592.5C 1471.5,571.167 1471.5,549.833 1471.5,528.5C 1478.17,528.5 1484.83,528.5 1491.5,528.5C 1491.5,517.833 1491.5,507.167 1491.5,496.5C 1493.83,496.5 1496.17,496.5 1498.5,496.5C 1498.5,485.833 1498.5,475.167 1498.5,464.5 Z"/></g>
<g><path style="opacity:1" fill="#46adf3" d="M 1535.5,528.5 C 1705.5,528.5 1875.5,528.5 2045.5,528.5C 2045.5,581.5 2045.5,634.5 2045.5,687.5C 1875.83,687.5 1706.17,687.5 1536.5,687.5C 1536.83,676.654 1536.49,665.987 1535.5,655.5C 1535.5,623.833 1535.5,592.167 1535.5,560.5C 1535.5,549.833 1535.5,539.167 1535.5,528.5 Z"/></g>
<g><path style="opacity:0.004" fill="#0a1119" d="M 342.5,582.5 C 344.027,582.427 345.027,583.094 345.5,584.5C 343.973,584.573 342.973,583.906 342.5,582.5 Z"/></g>
<g><path style="opacity:1" fill="#297db6" d="M 1410.5,653.5 C 1340.23,707.641 1269.56,761.307 1198.5,814.5C 1082.87,815.663 967.207,815.829 851.5,815C 837.833,804.667 824.167,794.333 810.5,784C 804.39,783.912 798.39,783.245 792.5,782C 765.68,761.091 738.68,740.424 711.5,720C 703.167,719.667 694.833,719.333 686.5,719C 682.343,716.336 678.343,713.503 674.5,710.5C 694.509,691.825 714.842,673.492 735.5,655.5C 959.5,655.667 1183.5,655.5 1407.5,655C 1408.24,653.961 1409.24,653.461 1410.5,653.5 Z"/></g>
<g><path style="opacity:0.999" fill="#41abf2" d="M 1535.5,655.5 C 1536.49,665.987 1536.83,676.654 1536.5,687.5C 1706.17,687.5 1875.83,687.5 2045.5,687.5C 2045.5,762.167 2045.5,836.833 2045.5,911.5C 1875.83,911.5 1706.17,911.5 1536.5,911.5C 1536.83,922.346 1536.49,933.013 1535.5,943.5C 1535.5,847.5 1535.5,751.5 1535.5,655.5 Z"/></g>
<g><path style="opacity:1" fill="#2a8fd3" d="M 437.5,654.5 C 465.475,675.147 493.141,696.147 520.5,717.5C 349.875,719.164 179.208,720.164 8.5,720.5C 4.10479,712.646 1.10479,704.313 -0.5,695.5C -0.5,686.5 -0.5,677.5 -0.5,668.5C 0.677374,664.125 2.01071,659.792 3.5,655.5C 148.207,655.83 292.874,655.497 437.5,654.5 Z"/></g>
<g><path style="opacity:1" fill="#278ed3" d="M 520.5,717.5 C 547.411,736.783 573.744,756.783 599.5,777.5C 629.101,800.973 659.101,823.973 689.5,846.5C 505.627,847.831 321.627,847.831 137.5,846.5C 99.3705,812.207 61.3705,777.707 23.5,743C 17.0753,736.416 12.0753,728.916 8.5,720.5C 179.208,720.164 349.875,719.164 520.5,717.5 Z"/></g>
<g><path style="opacity:0.999" fill="#35a5f1" d="M 2032.5,275.5 C 2040.55,289 2045.22,303.667 2046.5,319.5C 2046.5,591.5 2046.5,863.5 2046.5,1135.5C 2045.5,1210 2045.17,1284.66 2045.5,1359.5C 1875.83,1359.5 1706.17,1359.5 1536.5,1359.5C 1536.83,1381.01 1536.5,1402.34 1535.5,1423.5C 1535.5,1316.83 1535.5,1210.17 1535.5,1103.5C 1705.5,1103.5 1875.5,1103.5 2045.5,1103.5C 2045.5,1071.5 2045.5,1039.5 2045.5,1007.5C 2045.5,975.5 2045.5,943.5 2045.5,911.5C 2045.5,836.833 2045.5,762.167 2045.5,687.5C 2045.5,634.5 2045.5,581.5 2045.5,528.5C 2045.5,507.167 2045.5,485.833 2045.5,464.5C 2045.67,414.832 2045.5,365.166 2045,315.5C 2043.35,309.911 2042.01,304.244 2041,298.5C 2038.14,290.796 2035.31,283.129 2032.5,275.5 Z"/></g>
<g><path style="opacity:0.999" fill="#228bd2" d="M 137.5,846.5 C 321.627,847.831 505.627,847.831 689.5,846.5C 767.833,905.833 846.167,965.167 924.5,1024.5C 930.313,1028.24 935.98,1032.24 941.5,1036.5C 941.5,1037.5 941.5,1038.5 941.5,1039.5C 744.167,1039.5 546.833,1039.5 349.5,1039.5C 343.167,1034.17 336.833,1028.83 330.5,1023.5C 266.467,964.132 202.133,905.132 137.5,846.5 Z"/></g>
<g><path style="opacity:1" fill="#2371a6" d="M 627.5,753.5 C 654.339,774.168 681.339,794.668 708.5,815C 712.833,815.333 717.167,815.667 721.5,816C 735.167,826.333 748.833,836.667 762.5,847C 752.833,847.333 743.167,847.667 733.5,848C 746.32,858.242 759.32,868.242 772.5,878C 777.051,879.215 781.718,879.881 786.5,880C 814.167,901 841.833,922 869.5,943C 872.5,943.333 875.5,943.667 878.5,944C 902.785,961.95 926.785,980.283 950.5,999C 952.134,999.494 953.801,999.66 955.5,999.5C 944.834,1007.51 934.501,1015.84 924.5,1024.5C 846.167,965.167 767.833,905.833 689.5,846.5C 659.101,823.973 629.101,800.973 599.5,777.5C 609.108,769.897 618.442,761.897 627.5,753.5 Z"/></g>
<g><path style="opacity:1" fill="#2475ab" d="M 645.5,737.5 C 647.969,740.763 650.969,743.597 654.5,746C 685.013,768.757 715.346,791.757 745.5,815C 750.833,815.333 756.167,815.667 761.5,816C 789.167,837 816.833,858 844.5,879C 847.5,879.333 850.5,879.667 853.5,880C 881.167,901 908.833,922 936.5,943C 940.287,943.16 943.954,943.826 947.5,945C 959.5,954.333 971.5,963.667 983.5,973C 985.025,974.009 986.692,974.509 988.5,974.5C 977.808,983.186 966.808,991.519 955.5,999.5C 953.801,999.66 952.134,999.494 950.5,999C 926.785,980.283 902.785,961.95 878.5,944C 875.5,943.667 872.5,943.333 869.5,943C 841.833,922 814.167,901 786.5,880C 781.718,879.881 777.051,879.215 772.5,878C 759.32,868.242 746.32,858.242 733.5,848C 743.167,847.667 752.833,847.333 762.5,847C 748.833,836.667 735.167,826.333 721.5,816C 717.167,815.667 712.833,815.333 708.5,815C 681.339,794.668 654.339,774.168 627.5,753.5C 633.177,747.824 639.177,742.491 645.5,737.5 Z"/></g>
<g><path style="opacity:1" fill="#257ab3" d="M 674.5,710.5 C 678.343,713.503 682.343,716.336 686.5,719C 694.833,719.333 703.167,719.667 711.5,720C 738.68,740.424 765.68,761.091 792.5,782C 798.39,783.245 804.39,783.912 810.5,784C 824.167,794.333 837.833,804.667 851.5,815C 967.207,815.829 1082.87,815.663 1198.5,814.5C 1128.81,868.186 1058.81,921.519 988.5,974.5C 986.692,974.509 985.025,974.009 983.5,973C 971.5,963.667 959.5,954.333 947.5,945C 943.954,943.826 940.287,943.16 936.5,943C 908.833,922 881.167,901 853.5,880C 850.5,879.667 847.5,879.333 844.5,879C 816.833,858 789.167,837 761.5,816C 756.167,815.667 750.833,815.333 745.5,815C 715.346,791.757 685.013,768.757 654.5,746C 650.969,743.597 647.969,740.763 645.5,737.5C 654.839,728.161 664.506,719.161 674.5,710.5 Z"/></g>
<g><path style="opacity:1" fill="#3da9f2" d="M 2045.5,911.5 C 2045.5,943.5 2045.5,975.5 2045.5,1007.5C 1875.5,1007.5 1705.5,1007.5 1535.5,1007.5C 1535.5,986.167 1535.5,964.833 1535.5,943.5C 1536.49,933.013 1536.83,922.346 1536.5,911.5C 1706.17,911.5 1875.83,911.5 2045.5,911.5 Z"/></g>
<g><path style="opacity:0.999" fill="#3aa8f2" d="M 1535.5,1007.5 C 1705.5,1007.5 1875.5,1007.5 2045.5,1007.5C 2045.5,1039.5 2045.5,1071.5 2045.5,1103.5C 1875.5,1103.5 1705.5,1103.5 1535.5,1103.5C 1535.5,1071.5 1535.5,1039.5 1535.5,1007.5 Z"/></g>
<g><path style="opacity:1" fill="#1b6da4" d="M 330.5,1023.5 C 336.833,1028.83 343.167,1034.17 349.5,1039.5C 372.841,1061.51 396.508,1083.17 420.5,1104.5C 478.528,1157.86 536.862,1210.86 595.5,1263.5C 597.167,1265.5 598.833,1267.5 600.5,1269.5C 583.987,1281.59 567.654,1293.92 551.5,1306.5C 548.483,1301.97 544.816,1297.8 540.5,1294C 517.833,1273.33 495.167,1252.67 472.5,1232C 473.833,1231.67 475.167,1231.33 476.5,1231C 453.304,1209.97 430.304,1188.8 407.5,1167.5C 414.841,1167.67 422.174,1167.5 429.5,1167C 406.5,1146 383.5,1125 360.5,1104C 361.833,1103.67 363.167,1103.33 364.5,1103C 344.534,1085.37 324.867,1067.37 305.5,1049C 306.252,1048.33 306.586,1047.5 306.5,1046.5C 314.5,1038.83 322.5,1031.17 330.5,1023.5 Z"/></g>
<g><path style="opacity:1" fill="#1e89d1" d="M 941.5,1036.5 C 969.539,1057.84 997.539,1079.18 1025.5,1100.5C 1025.5,1101.5 1025.5,1102.5 1025.5,1103.5C 823.666,1103.17 621.999,1103.5 420.5,1104.5C 396.508,1083.17 372.841,1061.51 349.5,1039.5C 546.833,1039.5 744.167,1039.5 941.5,1039.5C 941.5,1038.5 941.5,1037.5 941.5,1036.5 Z"/></g>
<g><path style="opacity:0.999" fill="#1c72ab" d="M 306.5,1046.5 C 306.586,1047.5 306.252,1048.33 305.5,1049C 324.867,1067.37 344.534,1085.37 364.5,1103C 363.167,1103.33 361.833,1103.67 360.5,1104C 383.5,1125 406.5,1146 429.5,1167C 422.174,1167.5 414.841,1167.67 407.5,1167.5C 403.486,1167.33 399.486,1167.5 395.5,1168C 406.833,1178.33 418.167,1188.67 429.5,1199C 425.5,1199.33 421.5,1199.67 417.5,1200C 428.534,1210.7 439.867,1221.04 451.5,1231C 449.5,1231.33 447.5,1231.67 445.5,1232C 456.729,1242.73 468.063,1253.23 479.5,1263.5C 464.833,1263.5 450.167,1263.5 435.5,1263.5C 412.696,1242.2 389.696,1221.03 366.5,1200C 369.833,1199.67 373.167,1199.33 376.5,1199C 341.5,1167.33 306.5,1135.67 271.5,1104C 282.167,1103.67 292.833,1103.33 303.5,1103C 293.906,1093.56 283.906,1084.73 273.5,1076.5C 284.474,1066.53 295.474,1056.53 306.5,1046.5 Z"/></g>
<g><path style="opacity:0.998" fill="#1a74b1" d="M 273.5,1076.5 C 283.906,1084.73 293.906,1093.56 303.5,1103C 292.833,1103.33 282.167,1103.67 271.5,1104C 306.5,1135.67 341.5,1167.33 376.5,1199C 373.167,1199.33 369.833,1199.67 366.5,1200C 389.696,1221.03 412.696,1242.2 435.5,1263.5C 313.332,1263.83 191.332,1263.5 69.5,1262.5C 137.175,1200.16 205.175,1138.16 273.5,1076.5 Z"/></g>
<g><path style="opacity:1" fill="#1a87d1" d="M 1025.5,1100.5 C 1095.83,1153.83 1166.17,1207.17 1236.5,1260.5C 1236.5,1261.5 1236.5,1262.5 1236.5,1263.5C 1022.83,1263.5 809.167,1263.5 595.5,1263.5C 536.862,1210.86 478.528,1157.86 420.5,1104.5C 621.999,1103.5 823.666,1103.17 1025.5,1103.5C 1025.5,1102.5 1025.5,1101.5 1025.5,1100.5 Z"/></g>
<g><path style="opacity:1" fill="#1585d0" d="M 1236.5,1260.5 C 1295.05,1304.6 1353.38,1348.94 1411.5,1393.5C 1412.48,1413.79 1412.81,1434.12 1412.5,1454.5C 1210,1454.17 1007.67,1454.5 805.5,1455.5C 737.167,1393.5 668.833,1331.5 600.5,1269.5C 598.833,1267.5 597.167,1265.5 595.5,1263.5C 809.167,1263.5 1022.83,1263.5 1236.5,1263.5C 1236.5,1262.5 1236.5,1261.5 1236.5,1260.5 Z"/></g>
<g><path style="opacity:0.999" fill="#1672b0" d="M 69.5,1262.5 C 191.332,1263.5 313.332,1263.83 435.5,1263.5C 450.167,1263.5 464.833,1263.5 479.5,1263.5C 491.135,1273.99 502.801,1284.49 514.5,1295C 503.833,1295.33 493.167,1295.67 482.5,1296C 493.534,1306.7 504.867,1317.04 516.5,1327C 509.5,1327.33 502.5,1327.67 495.5,1328C 500.002,1331.34 504.002,1335.17 507.5,1339.5C 470.431,1367.91 433.098,1395.91 395.5,1423.5C 271.332,1423.17 147.332,1423.5 23.5,1424.5C 10.7524,1411.67 2.75241,1396.34 -0.5,1378.5C -0.5,1369.5 -0.5,1360.5 -0.5,1351.5C 3.17371,1332.99 11.507,1316.82 24.5,1303C 39.3707,1289.29 54.3707,1275.79 69.5,1262.5 Z"/></g>
<g><path style="opacity:1" fill="#186ea8" d="M 407.5,1167.5 C 430.304,1188.8 453.304,1209.97 476.5,1231C 475.167,1231.33 473.833,1231.67 472.5,1232C 495.167,1252.67 517.833,1273.33 540.5,1294C 544.816,1297.8 548.483,1301.97 551.5,1306.5C 536.833,1317.5 522.167,1328.5 507.5,1339.5C 504.002,1335.17 500.002,1331.34 495.5,1328C 502.5,1327.67 509.5,1327.33 516.5,1327C 504.867,1317.04 493.534,1306.7 482.5,1296C 493.167,1295.67 503.833,1295.33 514.5,1295C 502.801,1284.49 491.135,1273.99 479.5,1263.5C 468.063,1253.23 456.729,1242.73 445.5,1232C 447.5,1231.67 449.5,1231.33 451.5,1231C 439.867,1221.04 428.534,1210.7 417.5,1200C 421.5,1199.67 425.5,1199.33 429.5,1199C 418.167,1188.67 406.833,1178.33 395.5,1168C 399.486,1167.5 403.486,1167.33 407.5,1167.5 Z"/></g>
<g><path style="opacity:1" fill="#2fa3f0" d="M 2046.5,1135.5 C 2046.64,1263.17 2046.3,1390.84 2045.5,1518.5C 1875.5,1518.5 1705.5,1518.5 1535.5,1518.5C 1535.5,1507.83 1535.5,1497.17 1535.5,1486.5C 1535.5,1465.5 1535.5,1444.5 1535.5,1423.5C 1536.5,1402.34 1536.83,1381.01 1536.5,1359.5C 1706.17,1359.5 1875.83,1359.5 2045.5,1359.5C 2045.17,1284.66 2045.5,1210 2046.5,1135.5 Z"/></g>
<g><path style="opacity:1" fill="#28a0f0" d="M 2046.5,319.5 C 2046.83,319.5 2047.17,319.5 2047.5,319.5C 2047.5,788.833 2047.5,1258.17 2047.5,1727.5C 2042.7,1758.77 2028.7,1785.1 2005.5,1806.5C 1848.83,1806.5 1692.17,1806.5 1535.5,1806.5C 1535.5,1753.17 1535.5,1699.83 1535.5,1646.5C 1535.5,1625.17 1535.5,1603.83 1535.5,1582.5C 1705.5,1582.5 1875.5,1582.5 2045.5,1582.5C 2045.5,1561.17 2045.5,1539.83 2045.5,1518.5C 2046.3,1390.84 2046.64,1263.17 2046.5,1135.5C 2046.5,863.5 2046.5,591.5 2046.5,319.5 Z"/></g>
<g><path style="opacity:1" fill="#0f7ac3" d="M 1462.5,1432.5 C 1474.54,1441.51 1486.54,1450.51 1498.5,1459.5C 1498.5,1511.17 1498.5,1562.83 1498.5,1614.5C 1496.17,1614.5 1493.83,1614.5 1491.5,1614.5C 1491.5,1625.17 1491.5,1635.83 1491.5,1646.5C 1481.83,1646.5 1472.17,1646.5 1462.5,1646.5C 1462.5,1575.17 1462.5,1503.83 1462.5,1432.5 Z"/></g>
<g><path style="opacity:0.998" fill="#116fae" d="M 395.5,1423.5 C 344.969,1462.85 293.969,1501.69 242.5,1540C 209.333,1558.65 177,1557.32 145.5,1536C 104.338,1499.34 63.6712,1462.17 23.5,1424.5C 147.332,1423.5 271.332,1423.17 395.5,1423.5 Z"/></g>
<g><path style="opacity:1" fill="#0f82cf" d="M 1412.5,1454.5 C 1412.5,1465.17 1412.5,1475.83 1412.5,1486.5C 1408.83,1486.5 1405.17,1486.5 1401.5,1486.5C 1401.5,1539.83 1401.5,1593.17 1401.5,1646.5C 1272.67,1646.17 1144,1646.5 1015.5,1647.5C 945.174,1583.84 875.174,1519.84 805.5,1455.5C 1007.67,1454.5 1210,1454.17 1412.5,1454.5 Z"/></g>
<g><path style="opacity:1" fill="#107fca" d="M 1411.5,1393.5 C 1428.81,1406.15 1445.81,1419.15 1462.5,1432.5C 1462.5,1503.83 1462.5,1575.17 1462.5,1646.5C 1455.5,1646.5 1448.5,1646.5 1441.5,1646.5C 1428.17,1646.5 1414.83,1646.5 1401.5,1646.5C 1401.5,1593.17 1401.5,1539.83 1401.5,1486.5C 1405.17,1486.5 1408.83,1486.5 1412.5,1486.5C 1412.5,1475.83 1412.5,1465.17 1412.5,1454.5C 1412.81,1434.12 1412.48,1413.79 1411.5,1393.5 Z"/></g>
<g><path style="opacity:1" fill="#0f76bc" d="M 1498.5,1459.5 C 1510.57,1468.91 1522.9,1477.91 1535.5,1486.5C 1535.5,1497.17 1535.5,1507.83 1535.5,1518.5C 1535.5,1539.83 1535.5,1561.17 1535.5,1582.5C 1535.5,1603.83 1535.5,1625.17 1535.5,1646.5C 1531.5,1646.5 1527.5,1646.5 1523.5,1646.5C 1523.5,1625.17 1523.5,1603.83 1523.5,1582.5C 1522.5,1582.5 1521.5,1582.5 1520.5,1582.5C 1520.5,1593.17 1520.5,1603.83 1520.5,1614.5C 1514.83,1614.5 1509.17,1614.5 1503.5,1614.5C 1503.5,1625.17 1503.5,1635.83 1503.5,1646.5C 1499.5,1646.5 1495.5,1646.5 1491.5,1646.5C 1491.5,1635.83 1491.5,1625.17 1491.5,1614.5C 1493.83,1614.5 1496.17,1614.5 1498.5,1614.5C 1498.5,1562.83 1498.5,1511.17 1498.5,1459.5 Z"/></g>
<g><path style="opacity:1" fill="#2ca2f1" d="M 1535.5,1518.5 C 1705.5,1518.5 1875.5,1518.5 2045.5,1518.5C 2045.5,1539.83 2045.5,1561.17 2045.5,1582.5C 1875.5,1582.5 1705.5,1582.5 1535.5,1582.5C 1535.5,1561.17 1535.5,1539.83 1535.5,1518.5 Z"/></g>
<g><path style="opacity:0.999" fill="#097fcd" d="M 1401.5,1646.5 C 1414.83,1646.5 1428.17,1646.5 1441.5,1646.5C 1441.5,1667.83 1441.5,1689.17 1441.5,1710.5C 1437.17,1710.5 1432.83,1710.5 1428.5,1710.5C 1428.5,1731.83 1428.5,1753.17 1428.5,1774.5C 1425.83,1774.5 1423.17,1774.5 1420.5,1774.5C 1420.67,1793.5 1420.5,1812.5 1420,1831.5C 1418.8,1833.68 1418.3,1836.01 1418.5,1838.5C 1354.33,1838.17 1290.33,1838.5 1226.5,1839.5C 1155.94,1775.72 1085.6,1711.72 1015.5,1647.5C 1144,1646.5 1272.67,1646.17 1401.5,1646.5 Z"/></g>
<g><path style="opacity:1" fill="#0978c3" d="M 1462.5,1646.5 C 1472.17,1646.5 1481.83,1646.5 1491.5,1646.5C 1491.5,1678.5 1491.5,1710.5 1491.5,1742.5C 1487.5,1742.5 1483.5,1742.5 1479.5,1742.5C 1479.5,1774.5 1479.5,1806.5 1479.5,1838.5C 1476.5,1838.5 1473.5,1838.5 1470.5,1838.5C 1465.83,1838.5 1461.17,1838.5 1456.5,1838.5C 1457.46,1795.85 1457.79,1753.18 1457.5,1710.5C 1459.17,1710.5 1460.83,1710.5 1462.5,1710.5C 1462.5,1689.17 1462.5,1667.83 1462.5,1646.5 Z"/></g>
<g><path style="opacity:1" fill="#0974bc" d="M 1535.5,1646.5 C 1535.5,1699.83 1535.5,1753.17 1535.5,1806.5C 1535.5,1817.17 1535.5,1827.83 1535.5,1838.5C 1527.17,1838.5 1518.83,1838.5 1510.5,1838.5C 1500.17,1838.5 1489.83,1838.5 1479.5,1838.5C 1479.5,1806.5 1479.5,1774.5 1479.5,1742.5C 1483.5,1742.5 1487.5,1742.5 1491.5,1742.5C 1491.5,1710.5 1491.5,1678.5 1491.5,1646.5C 1495.5,1646.5 1499.5,1646.5 1503.5,1646.5C 1503.5,1635.83 1503.5,1625.17 1503.5,1614.5C 1509.17,1614.5 1514.83,1614.5 1520.5,1614.5C 1520.5,1603.83 1520.5,1593.17 1520.5,1582.5C 1521.5,1582.5 1522.5,1582.5 1523.5,1582.5C 1523.5,1603.83 1523.5,1625.17 1523.5,1646.5C 1527.5,1646.5 1531.5,1646.5 1535.5,1646.5 Z"/></g>
<g><path style="opacity:1" fill="#239dee" d="M 1535.5,1806.5 C 1692.17,1806.5 1848.83,1806.5 2005.5,1806.5C 1999.3,1812.19 1992.64,1817.35 1985.5,1822C 1837.96,1893.27 1690.29,1964.27 1542.5,2035C 1504.34,2047.76 1467.68,2044.43 1432.5,2025C 1427.07,2021.63 1422.07,2017.8 1417.5,2013.5C 1427.45,2020.3 1438.45,2024.63 1450.5,2026.5C 1467.33,2027.98 1483,2024.65 1497.5,2016.5C 1520.15,2003.97 1532.65,1984.63 1535,1958.5C 1535.5,1918.5 1535.67,1878.5 1535.5,1838.5C 1535.5,1827.83 1535.5,1817.17 1535.5,1806.5 Z"/></g>
<g><path style="opacity:0.998" fill="#047bcb" d="M 1418.5,1838.5 C 1423.5,1838.5 1428.5,1838.5 1433.5,1838.5C 1433.48,1854.51 1432.98,1870.51 1432,1886.5C 1428.52,1913.1 1425.35,1939.77 1422.5,1966.5C 1419.83,1966.5 1417.17,1966.5 1414.5,1966.5C 1413.33,1980.33 1412,1993.99 1410.5,2007.5C 1348.84,1951.84 1287.51,1895.84 1226.5,1839.5C 1290.33,1838.5 1354.33,1838.17 1418.5,1838.5 Z"/></g>
<g><path style="opacity:1" fill="#0579c6" d="M 1441.5,1646.5 C 1448.5,1646.5 1455.5,1646.5 1462.5,1646.5C 1462.5,1667.83 1462.5,1689.17 1462.5,1710.5C 1460.83,1710.5 1459.17,1710.5 1457.5,1710.5C 1457.79,1753.18 1457.46,1795.85 1456.5,1838.5C 1461.17,1838.5 1465.83,1838.5 1470.5,1838.5C 1470.61,1859.86 1469.95,1881.2 1468.5,1902.5C 1465.5,1902.5 1462.5,1902.5 1459.5,1902.5C 1455.4,1943.74 1452.4,1985.07 1450.5,2026.5C 1438.45,2024.63 1427.45,2020.3 1417.5,2013.5C 1414.57,2012.24 1412.24,2010.24 1410.5,2007.5C 1412,1993.99 1413.33,1980.33 1414.5,1966.5C 1417.17,1966.5 1419.83,1966.5 1422.5,1966.5C 1425.35,1939.77 1428.52,1913.1 1432,1886.5C 1432.98,1870.51 1433.48,1854.51 1433.5,1838.5C 1428.5,1838.5 1423.5,1838.5 1418.5,1838.5C 1418.3,1836.01 1418.8,1833.68 1420,1831.5C 1420.5,1812.5 1420.67,1793.5 1420.5,1774.5C 1423.17,1774.5 1425.83,1774.5 1428.5,1774.5C 1428.5,1753.17 1428.5,1731.83 1428.5,1710.5C 1432.83,1710.5 1437.17,1710.5 1441.5,1710.5C 1441.5,1689.17 1441.5,1667.83 1441.5,1646.5 Z"/></g>
<g><path style="opacity:1" fill="#0374bf" d="M 1470.5,1838.5 C 1473.5,1838.5 1476.5,1838.5 1479.5,1838.5C 1489.83,1838.5 1500.17,1838.5 1510.5,1838.5C 1510.5,1849.17 1510.5,1859.83 1510.5,1870.5C 1508.17,1870.5 1505.83,1870.5 1503.5,1870.5C 1503.5,1913.17 1503.5,1955.83 1503.5,1998.5C 1501.5,1998.5 1499.5,1998.5 1497.5,1998.5C 1497.5,2004.5 1497.5,2010.5 1497.5,2016.5C 1483,2024.65 1467.33,2027.98 1450.5,2026.5C 1452.4,1985.07 1455.4,1943.74 1459.5,1902.5C 1462.5,1902.5 1465.5,1902.5 1468.5,1902.5C 1469.95,1881.2 1470.61,1859.86 1470.5,1838.5 Z"/></g>
<g><path style="opacity:1" fill="#0370b9" d="M 1510.5,1838.5 C 1518.83,1838.5 1527.17,1838.5 1535.5,1838.5C 1535.67,1878.5 1535.5,1918.5 1535,1958.5C 1532.65,1984.63 1520.15,2003.97 1497.5,2016.5C 1497.5,2010.5 1497.5,2004.5 1497.5,1998.5C 1499.5,1998.5 1501.5,1998.5 1503.5,1998.5C 1503.5,1955.83 1503.5,1913.17 1503.5,1870.5C 1505.83,1870.5 1508.17,1870.5 1510.5,1870.5C 1510.5,1859.83 1510.5,1849.17 1510.5,1838.5 Z"/></g>
</svg>
